<?xml version="1.0" encoding="UTF-8"?>
<svg width="75px" height="68px" viewBox="0 0 75 68" version="1.1" xmlns="http://www.w3.org/2000/svg" xmlns:xlink="http://www.w3.org/1999/xlink">
    <!-- Generator: Sketch 51.3 (57544) - http://www.bohemiancoding.com/sketch -->
    <title>icon / burger menu 3d icon</title>
    <desc>Created with Sketch.</desc>
    <defs></defs>
    <g id="icon-/-burger-menu-3d-icon" stroke="none" stroke-width="1" fill="none" fill-rule="evenodd">
        <g id="Group" transform="translate(1.000000, 40.000000)" fill-rule="nonzero">
            <polygon id="Path-3" fill="#D8D8D8" points="0 9 37 26.046814 72.875 9.125 72.875 6 37 23.015564 0 6"></polygon>
            <polygon id="Path-3-Copy-3" fill="#555555" points="1.42108547e-14 6 37 23.031189 72.875 5.96862793 72.875 0.218139648 37 16.015564 1.42101703e-14 0.218139648"></polygon>
            <polygon id="Path-4" fill="#000000" points="37 15.9997559 37 23 72.9372559 6 72.9372559 0.218139648"></polygon>
        </g>
        <g id="Group-Copy" transform="translate(1.000000, 21.000000)" fill-rule="nonzero">
            <polygon id="Path-3" fill="#D8D8D8" points="0 9 37 26.046814 72.875 9.125 72.875 6 37 23.015564 0 6"></polygon>
            <polygon id="Path-3-Copy-3" fill="#555555" points="1.42108547e-14 6 37 23.031189 72.875 5.96862793 72.875 0.218139648 37 16.015564 1.42101703e-14 0.218139648"></polygon>
            <polygon id="Path-4" fill="#000000" points="37 15.9997559 37 23 72.9372559 6 72.9372559 0.218139648"></polygon>
        </g>
        <g id="Group-Copy-2" transform="translate(1.000000, 1.000000)" fill-rule="nonzero">
            <polygon id="Path-3" fill="#D8D8D8" points="0 9 37 26.046814 72.875 9.125 72.875 6 37 23.015564 0 6"></polygon>
            <polygon id="Path-3-Copy-3" fill="#555555" points="1.42108547e-14 6 37 23.031189 72.875 5.96862793 72.875 0.218139648 37 16.015564 1.42101703e-14 0.218139648"></polygon>
            <polygon id="Path-4" fill="#000000" points="37 15.9997559 37 23 72.9372559 6 72.9372559 0.218139648"></polygon>
        </g>
    </g>
</svg>