<svg xmlns="http://www.w3.org/2000/svg" viewBox="0 0 500 500" preserveAspectRatio="xMidYMid">
  <title>cloud_thing</title>
  <path d="M500,250a100.01284,100.01284,0,0,0-85.046-98.87573,65.98885,65.98885,0,0,0-61.9942-64.00257v-.12158H347.66v-.00024A39.00007,39.00007,0,0,0,311,48.07172v-.0719H278a32,32,0,0,0-64,0H191.65985a39.00008,39.00008,0,0,0-39.00006,39.00006v.00024h-1.65961A65.9865,65.9865,0,0,0,85.048,151.11346a100.01226,100.01226,0,0,0,.02057,197.77594c-.00616.371-.02807.738-.02807,1.11048a65.99986,65.99986,0,0,0,65.99987,65.99988h1.61945v.00012a39.00008,39.00008,0,0,0,39.00006,39.00006h22.36542a31.99005,31.99005,0,0,0,63.94946,0H311v-.0719a39.00007,39.00007,0,0,0,36.66-38.92816v-.00012H353v-.12159a66.00008,66.00008,0,0,0,62.03992-65.87829c0-.37976-.02118-.7544-.02759-1.13263A100.01313,100.01313,0,0,0,500,250Z"/>
</svg>
