<svg xmlns="http://www.w3.org/2000/svg" width="400" height="400" viewBox="0 0 400 400">
  <defs>
    <style>
      .a {
        fill: #fff;
      }
    </style>
  </defs>
  <title>eyeballVector</title>
  <g>
    <path class="a" d="M401,401H1V1H401ZM92.8,121.38c-4.54,10-10.78,19.32-12.3,29.76,1.09-1.37,2.84-1.91,4.4-2.8,1.86-1.05,3.44-2.64,5.37-3.46.66-.28,2.85,1,2.9,1.7.19,2.28-.35,4.6-.46,6.92s0,4.58,0,6.87l1.68.19,9.48-18.76,1.57.77Q98.69,157.44,92,172.28l-1.63.22c1-6.92-3.21-5.59-7.84-4.74l5.27-13.32c-1.46.56-2.6.64-2.81,1.12-4.53,10.5-9,21-13.41,31.57l-1.61-.52c1.46-4.56,2.22-9.53,4.57-13.58,2.68-4.6.1-8.15-.52-12.31a5.28,5.28,0,0,0-2.06,3c-.73,2.84-1.27,5.74-2,8.58-.92,3.66-2.4,7.24-2.85,10.95-1.22,10.07-2.23,20.18-2.92,30.3-.36,5.34-.94,11,.48,16,1.89,6.63,5.58,12.77,8.65,19.05.57,1.18,1.86,2,3,3.23.49-1,.66-1.21.62-1.29-.63-1.25-1.29-2.47-2-3.71,4.3-1.47,6.77.17,7.75,5C85.11,263.59,87.39,275.35,90,287c2.44,11,5.23,22,11.65,31.62.88,1.3,2.36,3,3.61,3s2.51-1.8,4.14-3.11l11.92,16.66c.62-4.06,1-6.78,1.6-10.43,5.6,5.2,10.32,9.59,15,14l1-.81-4.63-7.11a9.12,9.12,0,0,1,5.27,2.75c3.46,4,6.78,8.11,10,12.31,2.06,2.69,4.33,3.93,7.62,3.14l-8.37-7.55,1.18-1.35c1.89,1,3.82,1.93,5.65,3,12.11,7.29,24.89,12.73,39.14,14,9.12.79,18.24,1.51,27.38,2,3.43.2,7.14.45,10.31-.6,9.59-3.17,19-6.9,28.44-10.54,3.35-1.3,6.55-3,9.82-4.46l.45.86L254.44,357.5l.77,1.41c2.06-.73,5.68-1.16,5.9-2.26,1.16-5.81,6.56-6.13,10.1-8.79-.42,1.33-.84,2.65-1.25,4l1,1.12c1.56-1.06,3.52-1.8,4.61-3.22,3.45-4.46,6.11-9.64,10-13.65,3.39-3.52,6.81-8,12.86-7.76-1.29,3.8-2.44,7.18-3.58,10.56l1.63.74,6.82-10.92c.22,3.58.38,6.23.55,8.88l1.27.17c5.5-12.61,11-25.23,16.66-38.2,4.24,2.78,5.42-.16,5.79-3.44,1.49-13.35,2.95-26.7,4.05-40.09.34-4.19,1-7.62,4.48-10.53,2.42-2.05,5.12-4.81,5.78-7.69a237,237,0,0,0,5.05-29.3c.42-4.17-1.12-8.8-2.74-12.83-2-5-5.29-9.39-7.52-14.28-2.9-6.35-1.3-13.93-5.37-20.13-2-3.09-3.19-6.75-4.73-10.16.67,4.62,2.3,8.78,3.69,13,.25.79-.45,1.89-.71,2.85a10.87,10.87,0,0,1-2.12-1.49c-2.62-3-2.73-6.55-3-10.42-1.18-18.75-9.29-35.24-17.76-51.53-.42-.82-1.83-1.12-2.78-1.66l-.57.89,5.08,10.32c-5.61-3.31-8.92-7-9.17-12.83-.06-1.38-1.11-2.76-1.84-4-1.65-2.93-3.54-2.87-5.6,0-.74-1.12-1.31-2.11-2-3-6.6-8.69-12.7-17.84-20-25.94C259.35,55.56,246,47.2,232.9,38.7c-7.82-5.09-16.47-7.67-26.08-6.07a32.92,32.92,0,0,1-10.39,0c-17.4-2.73-31.74,5.27-46.15,12.92-2,1-3.5,3.07-5,4.81C133.68,63.46,122,76.45,110.68,89.71c-8,9.39-15.37,19.29-18,31.82Z" transform="translate(-1 -1)"/>
    <path d="M92.72,121.53c2.59-12.53,9.94-22.43,18-31.82,11.34-13.26,23-26.25,34.56-39.31,1.54-1.74,3.06-3.77,5-4.81,14.41-7.65,28.75-15.65,46.15-12.92a32.92,32.92,0,0,0,10.39,0c9.61-1.6,18.26,1,26.08,6.07,13.08,8.5,26.45,16.86,37,28.57,7.26,8.1,13.36,17.25,20,25.94.68.91,1.25,1.9,2,3,2.06-2.88,3.95-2.94,5.6,0,.73,1.29,1.78,2.67,1.84,4,.25,5.87,3.56,9.52,9.17,12.83l-5.08-10.32.57-.89c1,.54,2.36.84,2.78,1.66,8.47,16.29,16.58,32.78,17.76,51.53.24,3.87.35,7.42,3,10.42a10.87,10.87,0,0,0,2.12,1.49c.26-1,1-2.06.71-2.85-1.39-4.25-3-8.41-3.69-13,1.54,3.41,2.7,7.07,4.73,10.16,4.07,6.2,2.47,13.78,5.37,20.13,2.23,4.89,5.52,9.32,7.52,14.28,1.62,4,3.16,8.66,2.74,12.83a237,237,0,0,1-5.05,29.3c-.66,2.88-3.36,5.64-5.78,7.69-3.43,2.91-4.14,6.34-4.48,10.53-1.1,13.39-2.56,26.74-4.05,40.09-.37,3.28-1.55,6.22-5.79,3.44-5.65,13-11.16,25.59-16.66,38.2l-1.27-.17c-.17-2.65-.33-5.3-.55-8.88l-6.82,10.92-1.63-.74c1.14-3.38,2.29-6.76,3.58-10.56-6.05-.29-9.47,4.24-12.86,7.76-3.87,4-6.53,9.19-10,13.65-1.09,1.42-3.05,2.16-4.61,3.22l-1-1.12c.41-1.33.83-2.65,1.25-4-3.54,2.66-8.94,3-10.1,8.79-.22,1.1-3.84,1.53-5.9,2.26l-.77-1.41,16.79-13.07-.45-.86c-3.27,1.5-6.47,3.16-9.82,4.46-9.43,3.64-18.85,7.37-28.44,10.54-3.17,1.05-6.88.8-10.31.6-9.14-.51-18.26-1.23-27.38-2-14.25-1.24-27-6.68-39.14-14-1.83-1.1-3.76-2-5.65-3l-1.18,1.35,8.37,7.55c-3.29.79-5.56-.45-7.62-3.14-3.21-4.2-6.53-8.32-10-12.31a9.12,9.12,0,0,0-5.27-2.75L139,338l-1,.81c-4.73-4.38-9.45-8.77-15-14-.56,3.65-1,6.37-1.6,10.43l-11.92-16.66c-1.63,1.31-2.91,3.15-4.14,3.11s-2.73-1.72-3.61-3C95.21,309.07,92.42,298.09,90,287c-2.59-11.69-4.87-23.45-7.25-35.18-1-4.81-3.45-6.45-7.75-5,.66,1.24,1.32,2.46,2,3.71,0,.08-.13.28-.62,1.29-1.16-1.21-2.45-2-3-3.23-3.07-6.28-6.76-12.42-8.65-19.05-1.42-5-.84-10.71-.48-16,.69-10.12,1.7-20.23,2.92-30.3.45-3.71,1.93-7.29,2.85-10.95.72-2.84,1.26-5.74,2-8.58a5.28,5.28,0,0,1,2.06-3c.62,4.16,3.2,7.71.52,12.31-2.35,4.05-3.11,9-4.57,13.58l1.61.52C76,176.6,80.42,166.06,85,155.56c.21-.48,1.35-.56,2.81-1.12l-5.27,13.32c4.63-.85,8.88-2.18,7.84,4.74l1.63-.22q6.72-14.85,13.46-29.71l-1.57-.77-9.48,18.76-1.68-.19c0-2.29-.09-4.59,0-6.87s.65-4.64.46-6.92c0-.69-2.24-2-2.9-1.7-1.93.82-3.51,2.41-5.37,3.46-1.56.89-3.31,1.43-4.4,2.8,1.52-10.44,7.76-19.79,12.31-29.78.72-.06,1.81.17,2.07-.19,3.36-4.71,6.73-9.42,9.82-14.31,3.87-6.09,7.48-12.34,11.2-18.53l-1.48-.93c-3,3.7-6.46,7.13-8.92,11.17C100.93,106,97,113.85,92.72,121.53Zm17.17-4.3c.24.64.47,1.28.28.77,5.93-9.52,12.08-19.38,18.18-29.28a7.76,7.76,0,0,0,.54-2.37,35.28,35.28,0,0,1,3.94-3.62c4.95-3.34,10-6.5,15-9.79,14.61-9.64,30-17.67,47.8-18.76a345.18,345.18,0,0,1,40.81.31c5.75.33,11.36,3.13,17,4.8A36.82,36.82,0,0,0,249.22,58c-5.37-1-11.52-3.94-16-2.31-6.6,2.42-12.89,1.3-19.34,1.71l8.13-1.27c-6.52-1.78-17.15-1-24,.55-6.58,1.44-13.64,1.42-19.84,3.76-9.14,3.44-17.88,8.1-26.46,12.84-6.63,3.67-13.8,7.25-18.89,12.62-12.72,13.4-19.29,30.44-25,47.73a35.09,35.09,0,0,0-.89,5.25l.91.53,21.3-24.7-1.23,3.57.73.48q5.35-6.4,10.72-12.79l.88.74-4.16,4.87,1.45,1.18,7.1-8.54c-7.27-.19-10.27,5-14.16,8.87,4.05-4.45,7.68-9.4,12.26-13.23a138.69,138.69,0,0,1,20.53-14.7c6.73-3.82,14.23-6.38,21.58-9A36.94,36.94,0,0,1,197,73.8a193,193,0,0,1,25.22,1.4c6,.81,11.79,3.15,17.68,4.8a9.26,9.26,0,0,0,1.82,1.63C250.13,85.77,258.07,90.52,264,98c.23.29.84.29,2.47.79-6.31-11.26-16.46-15-26.7-18.65-4.7-2.33-9.18-5.88-14.13-6.74a261.25,261.25,0,0,0-34.08-3.55c-6.16-.25-12.42,1.54-18.63,2.48-2.75.41-5.49,1-8.23,1.5l-.18-1.31c2.07-.46,4.38-.49,6.16-1.48,5.33-3,10.25-4.72,16.94-3.48,8.37,1.56,17.22.39,25.84.86,6.68.37,13.31,1.44,20,2.2l-11.58-1.93-.12.69,25.09,11.07,1.73-1.85-4.47-2.13c2.55,1.82,5,3.76,7.65,5.44,13.66,8.72,23.84,20.2,29.2,35.75.59,1.74,2.82,2.91,4.29,4.35l.83-.77-9.39-20.81,1.43-.62c8.59,7.8,14.93,16.94,16.07,29.19l2-.84-6.72-21.83c.91-1.13,1.51-2.44,1.17-3.43-2.34-6.93-6.67-12.5-12-17.51-2.34-2.21-4-5.16-5.94-7.76l9,8.6,1-1.09L272.06,73l.79,4.73c-5.09-7.7-10.13-15.45-19.58-18.61.2-.54.61-1.54.57-1.56-3.17-1.44-6.35-2.87-9.59-4.15-14.05-5.56-28.39-7.85-43.42-4.48a48.09,48.09,0,0,1-12.73.93c-8.17-.42-16,.65-23.11,4.7-12.25,7-24,14.8-33.71,25.2l-8.16,8.68.79.76,5-2.86c-2.07,2.3-4.61,4.33-6.12,7-4.54,7.9-8.68,16-13,24.07L116.35,97l-1.28-.76c-3.68,6.54-8,12.81-10.84,19.69s-4,14.2-6,21.32c-1.11,4-2.3,7.95-3.45,11.92,1.43-.77,1.69-1.88,2.14-2.9Q103.37,131.73,109.89,117.23Zm33.19-57C132.26,70.88,120.32,80.6,114.5,95.41c12.07-15.09,24.27-30,42.73-38.11l-1.13-1.66-13.19,5.1c8.05-7,18.59-7.57,28.14-10.54,4.8-1.5,10.16-1.21,15.27-1.7,6.08-.57,12.17-1.07,18.25-1.69,1.64-.16,3.24-.79,4.87-.9,11.83-.79,23.14,1.68,34.21,5.57,1.72.61,3.4,1.35,5.1,2-8.3-8.07-16.68-16.44-28.27-18-11.75-1.57-23.79-1.66-35.68-1.37s-22.51,6.12-32.41,12.16c-5.34,3.27-9.12,9.12-13.6,13.8l1,1.12ZM293,271.9c-.29,11.76-.58,23.53-.83,33.59.92-4.16,3.11-10.07,3.31-16.05.19-5.77-1.68-11.61-2.64-17.42l3.27-4.83,2.35,5.17a29.18,29.18,0,0,0-.24-9.44c-.15-.85-1.34-2.25-1.92-2.18-3.83.42-2.93-2.17-2.75-4.13.32-3.38.84-6.73,1.28-10.1l-.83-.17-4.42,7.84c-.69-2.2-1-3.12-1.36-4.35-1.14,2.18-2.06,3.93-3,5.68l-1.12-.33v-7.44l-3.32,4.77c.79-4.42,1.34-7.57,2-11.41-1.69,3.31-3,6-4.37,8.61l-1.46-.37v-9.05c.87-.89,2.87-2,3.38-3.63a50.06,50.06,0,0,0,2.53-12.1c.39-7,.11-14,.11-20.95h.57c.25,2.41.49,4.82.74,7.23,2.7-9.81-3.44-17.69-5.37-26.57l4.31,3.61c-3.06-9.4-5.75-17.65-7.95-24.42.72-1.82,1.45-2.79,1.42-3.74-.08-3,.77-5.2,3.95-5.94l-1.29,2.72,6.37,2.51.75-1-1.87-3.62,3.5,2.37c0-3.69.32-6.35-.07-8.91a143.54,143.54,0,0,0-3.18-16.61c-.93-3.41-2.18-7.51-4.7-9.56-6.69-5.41-13.72-10.72-21.38-14.53-12.77-6.36-26-12-39.3-17.08C201,83,182.3,83.67,164.15,92c-3.79,1.73-7.24,4.22-10.84,6.36l.47,1.7,13.07-.92c-2.67-1.22-5.94,3.53-10.55,4.36-4.91.9-9.33,4.86-13.79,7.74-3.95,2.55-8.08,5-11.38,8.33a79,79,0,0,0-9.85,12.54c-2.87,4.33-5.12,9.06-7.64,13.62l-1-.55q4.93-9.19,9.85-18.41c-8.94,10-16.78,20.66-22.45,32.83a3.94,3.94,0,0,0,.18,3.17,12.63,12.63,0,0,1,.35,13.08c-7.59,14.68-7.77,30.76-8,46.67-.08,6.06,1.88,12.14,2.88,18.22s.73,6.46-5.61,6.07a17.22,17.22,0,0,0,.38,3.42c2.84,8.61,5.45,17.31,8.75,25.74a209.88,209.88,0,0,0,9.38,19.77c1.33,2.57,3,5.71,5.3,6.9a25.31,25.31,0,0,1,10.69,10.3c1.17,2,2.59,3.89,4.24,6.35.34-3,.57-5.13.8-7.23l1.68-.58c2.78,12.15,10.42,20.14,20.1,26,0-4.45-.6-8.94.17-13.18s2.89-8.39,4.42-12.57a25.49,25.49,0,0,1-1.54,8.13c-4.4,11.86-1.72,18.82,9.62,24.53a3.17,3.17,0,0,0,.46.19c4,1.44,7.93,2.89,11.9,4.31,4.85,1.75,9.58,4.31,14.58,5,10,1.46,20.18,2,30.29,2.7a44.89,44.89,0,0,0,10.87-.43c14.78-2.64,27.92-9.46,40.86-16.68,2.11-1.18,4.54-2.78,5.52-4.82,3.16-6.55,6.49-13.18,8.33-20.16,3.45-13.05,5.51-26.38,4.26-40C290.79,273.66,292.25,272.74,293,271.9ZM144.32,99.52l.69,1.55c1.61-.89,3.26-1.71,4.82-2.67,4.68-2.87,9.08-6.32,14-8.6,17.62-8.14,35.91-8.56,54-2.22,19.77,6.93,39.44,14.33,56.24,27.48.48.38,1.33.28,2,.4-15.8-23.11-36.29-39-64.91-40.33C185.65,73.93,163.82,84.07,144.32,99.52Zm173.2,156.9c.37,3.37.71,6.52,1.16,10.64,3.67-7.62,11.21-12.91,6-22.57a43.56,43.56,0,0,1-1.72,5.48,34.84,34.84,0,0,1-2.77,4.26c3.84-5.18,2.42-10.61,1.14-16-1.05,3-1.16,6.28-2.06,9.28a16.88,16.88,0,0,1-3.77,6c-.34.37-2.52-.9-3.82-1.41l-1.83,2.95-1.12-.91q.63-6.32,1.27-12.63l-1.17-.35q-2.34,6.29-4.66,12.57l-.59-.16c.12-1.54.25-3.08.38-4.63-2.25,2.83-4.31,5.71-5.21,8.92-.36,1.27,1.49,4.17,2.94,4.71a9.94,9.94,0,0,0,6.88-.24C311.54,261,314.11,258.74,317.52,256.42ZM105.41,317.83c-4-12-8-23.95-12.42-36.94C89.43,288,97.41,312.1,105.41,317.83Zm-5.28-35.38-1.53.49c1.53,12.16,4.53,23.79,12.71,33.55Q105.73,299.46,100.13,282.45ZM333.52,215l2.57-.17-1.56-22.19-2.08.14A57.55,57.55,0,0,0,333.52,215Zm-53.24-56.24,8.27,19.45,1.51-.66C287.53,171.29,291.06,162.4,280.28,158.73ZM316,145.55h-4.5c.31,5.79,1.45,10.95,8.27,15C318.28,154.69,317.15,150.19,316,145.55Zm-23.61,19c2.69,11.42,5.39,22.84,8.39,35.52C301.13,186.5,296.84,175.4,292.37,164.54Zm46.76,26.69-1.68.3q1.92,10.85,3.85,21.7C341.77,205.77,344.09,198.08,339.13,191.23Zm-17.46,7-1.88.08.87,17.14,1.66,0C324.77,209.59,322.75,203.93,321.67,198.23Zm-11.48,97.66c3.64-8.51,4.32-19.45,1.54-23.94C311.18,280.55,310.68,288.22,310.19,295.89Zm-4-82.06c3.39-11.27,3-14.09-1.52-14.51C305.21,204.24,305.72,209,306.22,213.83Zm9.23-27.38,2.21-.78-6.32-14.13-1.89.82ZM291,129.13c-1.92,8.64-.87,14.83,3,18.05C293,141.24,292.07,135.76,291,129.13ZM302,150.91c-.63-4.09-1.21-7.84-1.78-11.6C296.84,149.34,296.84,149.34,302,150.91Zm3.13,180.81,1.35.42c1.55-5.57,5.33-10.45,5.08-16.57l-1.47-.46Q307.64,323.42,305.17,331.72Zm21.45-115.86,2,.15-.75-14.11-1.22,0ZM85.78,188.33l-1.94-.41-2.16,15.24,1.61.27Zm3.24,8-1.73-.13L86.2,210.87l1.53.12Zm-.61-25.73-1.86-.9L81.39,183l1.65.64Zm231.1-27.13-2.56.73,2.7,9.13,2.32-.65ZM308.05,276.59l-2.27-.21v9.18l1.64.12ZM101.91,120.34l-1.44-.66-6.08,13.73,1.12.5Zm193,34.74,2-1.73-6.18-6.25-1.46,1.27ZM305.36,307.4l1.32.08,2.25-13.59-1.39-.23Q306.46,300.53,305.36,307.4Z" transform="translate(-1 -1)"/>
    <path class="a" d="M280.68,153.78c-3.18.74-4,2.94-3.95,5.94,0,.95-.7,1.92-1.42,3.74,2.2,6.77,4.89,15,7.95,24.42L279,184.27c1.93,8.88,8.07,16.76,5.37,26.57-.25-2.41-.49-4.82-.74-7.23H283c0,7,.28,14-.11,20.95a50.06,50.06,0,0,1-2.53,12.1c-.51,1.61-2.51,2.74-3.38,3.63v9.05l1.46.37c1.34-2.65,2.68-5.3,4.37-8.61-.69,3.84-1.24,7-2,11.41l3.32-4.77v7.44l1.12.33c.93-1.75,1.85-3.5,3-5.68.38,1.23.67,2.15,1.36,4.35l4.42-7.84.83.17c-.44,3.37-1,6.72-1.28,10.1-.18,2-1.08,4.55,2.75,4.13.58-.07,1.77,1.33,1.92,2.18a29.18,29.18,0,0,1,.24,9.44l-2.35-5.17L292.84,272l.15-.13c-.74.85-2.2,1.77-2.13,2.54,1.25,13.64-.81,27-4.26,40-1.84,7-5.17,13.61-8.33,20.16-1,2-3.41,3.64-5.52,4.82-12.94,7.22-26.08,14-40.86,16.68a44.89,44.89,0,0,1-10.87.43c-10.11-.68-20.27-1.24-30.29-2.7-5-.72-9.73-3.28-14.58-5-4-1.42-7.93-2.87-11.9-4.31a3.17,3.17,0,0,1-.46-.19c-11.34-5.71-14-12.67-9.62-24.53a25.49,25.49,0,0,0,1.54-8.13c-1.53,4.18-3.65,8.25-4.42,12.57s-.17,8.73-.17,13.18c-9.68-5.82-17.32-13.81-20.1-26l-1.68.58c-.23,2.1-.46,4.2-.8,7.23-1.65-2.46-3.07-4.33-4.24-6.35a25.31,25.31,0,0,0-10.69-10.3c-2.35-1.19-4-4.33-5.3-6.9a209.88,209.88,0,0,1-9.38-19.77c-3.3-8.43-5.91-17.13-8.75-25.74a17.22,17.22,0,0,1-.38-3.42c6.34.39,6.62.09,5.61-6.07s-3-12.16-2.88-18.22c.22-15.91.4-32,8-46.67a12.63,12.63,0,0,0-.35-13.08,3.94,3.94,0,0,1-.18-3.17c5.67-12.17,13.51-22.87,22.45-32.83q-4.92,9.21-9.85,18.41l1,.55c2.52-4.56,4.77-9.29,7.64-13.62a79,79,0,0,1,9.85-12.54c3.3-3.28,7.43-5.78,11.38-8.33,4.46-2.88,8.88-6.84,13.79-7.74,4.61-.83,7.88-5.58,10.55-4.36l-13.07.92-.47-1.7c3.6-2.14,7.05-4.63,10.84-6.36,18.15-8.29,36.8-9,55.36-1.89,13.33,5.09,26.53,10.72,39.3,17.08,7.66,3.81,14.69,9.12,21.38,14.53,2.52,2,3.77,6.15,4.7,9.56a143.54,143.54,0,0,1,3.18,16.61c.39,2.56.07,5.22.07,8.91l-3.48-2.36ZM217.91,271.53c0-1.41-.64-3.52.13-4.8,1.85-3.1,5.09-5.51,6.41-8.75,1.85-4.58,6.47-8,5.88-13.56s-1.53-11-2.11-16.56c-.3-2.88.21-5.87-.3-8.7-.7-3.86-2.07-7.59-3-11.41-1.05-4.06-1.44-8.4-3.12-12.17-1.58-3.54-4.73-6.35-6.75-9.74-8.54-14.35-19.65-25-37-27.55-5.47-.8-10.41.15-14.56,3.57-3.31,2.72-5.95,6.23-9.11,9.16-1.49,1.39-4.17,1.83-5.1,3.42a36.27,36.27,0,0,0-3.26,9c-1.45,5.37-2.67,10.81-4.09,16.62-.13,2.79-.14,6.2-.51,9.58a50.62,50.62,0,0,1-1.6,7.68c-.4,1.46-1.34,2.76-1.8,4.21-.77,2.43,0,4.13,1.22,6.63,2.05,4.36,1.39,10.06,1.58,15.21.13,3.75,0,7.44,4,9.52-.25,1.71-.5,3.45-.61,4.2l19.49,20.28,1.62-1.9,2.79,7.22,5-2.7c2,2.44,1.34,7.71,7.1,4.53,3-1.64,7.25-.93,10.94-1.25,7-.61,15.21,1.33,18.34-8.12,0-.13.26-.21.41-.28Zm-12.17,34.3c2.52,3.76,5.1,7.66,7.76,11.5a11.26,11.26,0,0,0,2.39,2.53c4.2,3.2,5.67,7.45,5.72,12.63a30.22,30.22,0,0,0,1.66,9.76c2.36,6.58,12.41,11,18.16,8.4-11.53-1.23-19.62-6.59-18.36-16.72.85-6.79-1.07-12-6.82-15.92-1.16-.79-2.45-2.32-2.54-3.59C213.29,309,208.79,307.93,205.74,305.83Zm21.18-24.68c4.8-6.86,11.44-12.76,10.29-22.55-.36-3.07-.45-5.37-4.86-6.7-.22,4.18-.42,8-.62,11.73l1.21.25,1.92-3.09C236.17,269.52,229.9,274.63,226.92,281.15Zm3.16,18.5-1,.33c1.65,5.86,2.68,12,5.13,17.5,2,4.49-.11,6.72-2.59,9.37-1.76,1.88-3.55,3.72-5.33,5.58a22.47,22.47,0,0,0,7.51-5.12c2.76-2.72,4-5.58,2.17-9.78C233.52,311.78,232,305.63,230.08,299.65ZM227,269.52,218,279l5.92,1.52C224.6,277,231.09,275.19,227,269.52Zm32.49,14.21c.81,6.42,1.59,12.65,2,15.86C259,296.75,265.76,288.76,259.48,283.73Zm-23.91-5.17-8,8.8C233.29,286.9,236.3,284.57,235.57,278.56Zm-68.19,18.76c-6.59,1.24-9.16,7.86-6.3,15.52C161.07,306.79,160.91,301.09,167.38,297.32Z" transform="translate(-1 -1)"/>
    <path class="a" d="M272.71,77.6c2,2.62,3.61,5.57,6,7.78,5.29,5,9.62,10.58,12,17.51.34,1-.26,2.3-1.17,3.43l6.72,21.83-2,.84c-1.14-12.25-7.48-21.39-16.07-29.19l-1.43.62,9.39,20.81-.83.77c-1.47-1.44-3.7-2.61-4.29-4.35-5.36-15.55-15.54-27-29.2-35.75-2.63-1.68-5.1-3.62-7.64-5.44l-10.66-5.85c-6.66-.76-13.29-1.83-20-2.2-8.62-.47-17.47.7-25.84-.86C181,66.31,176,68.07,170.71,71c-1.78,1-4.09,1-6.16,1.48l.18,1.31c2.74-.51,5.48-1.09,8.23-1.5,6.21-.94,12.47-2.73,18.63-2.48a261.25,261.25,0,0,1,34.08,3.55c5,.86,9.43,4.41,14.13,6.74l.12-.13c-5.89-1.65-11.68-4-17.68-4.8A193,193,0,0,0,197,73.8a36.94,36.94,0,0,0-12.17,2.32c-7.35,2.61-14.85,5.17-21.58,9a138.69,138.69,0,0,0-20.53,14.7c-4.58,3.83-8.21,8.78-12.26,13.23l-1.33,1.62-21.3,24.7-.91-.53a35.09,35.09,0,0,1,.89-5.25c5.7-17.29,12.27-34.33,25-47.73,5.09-5.37,12.26-8.95,18.89-12.62,8.58-4.74,17.32-9.4,26.46-12.84,6.2-2.34,13.26-2.32,19.84-3.76,6.89-1.52,17.52-2.33,24-.55l-8.13,1.27c6.45-.41,12.74.71,19.34-1.71C237.7,54,243.85,57,249.22,58a37.18,37.18,0,0,1,4.24,1.33l-.17-.11c9.43,3.14,14.47,10.89,19.56,18.59ZM188.84,65.29l.07-.82h23l.05-.54-27.81-3.74L184,61.57l9.27.91,0,1Z" transform="translate(-1 -1)"/>
    <path class="a" d="M143.08,60.25l-3.26,1-1-1.12c4.48-4.68,8.26-10.53,13.6-13.8,9.9-6,20.42-11.87,32.41-12.16s23.93-.2,35.68,1.37c11.59,1.56,20,9.93,28.27,18-1.7-.68-3.38-1.42-5.1-2-11.07-3.89-22.38-6.36-34.21-5.57-1.63.11-3.23.74-4.87.9-6.08.62-12.17,1.12-18.25,1.69-5.11.49-10.47.2-15.27,1.7-9.55,3-20.09,3.52-28.13,10.54C143,60.58,143,60.42,143.08,60.25Z" transform="translate(-1 -1)"/>
    <path class="a" d="M144.32,99.52c19.5-15.45,41.33-25.59,66.81-24.39,28.62,1.34,49.11,17.22,64.91,40.33-.62-.12-1.47,0-2-.4-16.8-13.15-36.47-20.55-56.24-27.48-18.08-6.34-36.37-5.92-54,2.22-5,2.28-9.35,5.73-14,8.6-1.56,1-3.21,1.78-4.82,2.67Z" transform="translate(-1 -1)"/>
    <path class="a" d="M128.91,86.36l-5,2.87-.79-.76,8.16-8.68C141,69.39,152.74,61.58,165,54.59c7.09-4.05,14.94-5.12,23.11-4.7A48.09,48.09,0,0,0,200.83,49c15-3.37,29.37-1.08,43.42,4.48,3.24,1.28,6.42,2.71,9.59,4.15,0,0-.37,1-.56,1.57l.18.12c-5.66-1.66-11.27-4.46-17-4.79a345.18,345.18,0,0,0-40.81-.31c-17.76,1.09-33.19,9.12-47.8,18.76-5,3.29-10.05,6.45-15,9.79a37.31,37.31,0,0,0-4,3.62S128.91,86.36,128.91,86.36Z" transform="translate(-1 -1)"/>
    <path class="a" d="M317.52,256.42c-3.41,2.32-6,4.61-9,5.92a9.94,9.94,0,0,1-6.88.24c-1.45-.54-3.3-3.44-2.94-4.71.9-3.21,3-6.09,5.21-8.92-.13,1.55-.26,3.09-.38,4.63l.59.16q2.33-6.28,4.66-12.57l1.17.35q-.63,6.31-1.27,12.63l1.12.91,1.83-2.95c1.3.51,3.48,1.78,3.82,1.41a16.88,16.88,0,0,0,3.77-6c.9-3,1-6.24,2.06-9.28,1.28,5.42,2.7,10.85-1.14,16a34.84,34.84,0,0,0,2.77-4.26,43.56,43.56,0,0,0,1.72-5.48c5.24,9.66-2.3,14.95-6,22.57C318.23,262.94,317.89,259.79,317.52,256.42Z" transform="translate(-1 -1)"/>
    <path class="a" d="M143.08,60.25c-.05.17-.1.33-.16.49l13.18-5.1,1.13,1.66c-18.46,8.14-30.66,23-42.73,38.11C120.32,80.6,132.26,70.88,143.08,60.25Z" transform="translate(-1 -1)"/>
    <path class="a" d="M109.88,117.25q-6.48,14.49-13,29c-.45,1-.71,2.13-2.14,2.9,1.15-4,2.34-7.93,3.45-11.92,2-7.12,3.21-14.53,6-21.32s7.16-13.15,10.84-19.69l1.28.76-6.57,20.43Z" transform="translate(-1 -1)"/>
    <path class="a" d="M105.41,317.83c-8-5.73-16-29.83-12.42-36.94C97.36,293.88,101.38,305.86,105.41,317.83Z" transform="translate(-1 -1)"/>
    <path class="a" d="M92.72,121.53c4.23-7.68,8.21-15.5,12.78-23,2.46-4,5.91-7.47,8.92-11.17l1.48.93c-3.72,6.19-7.33,12.44-11.2,18.53-3.09,4.89-6.46,9.6-9.82,14.31-.26.36-1.35.13-2.07.19Z" transform="translate(-1 -1)"/>
    <path class="a" d="M100.13,282.45q5.59,17,11.18,34c-8.18-9.76-11.18-21.39-12.71-33.55Z" transform="translate(-1 -1)"/>
    <path class="a" d="M233.46,70.61l10.66,5.85,4.46,2.13-1.73,1.85L221.76,69.37l.12-.69Z" transform="translate(-1 -1)"/>
    <path class="a" d="M333.52,215a57.55,57.55,0,0,1-1.07-22.22l2.08-.14,1.56,22.19Z" transform="translate(-1 -1)"/>
    <path class="a" d="M292.84,272c1,5.81,2.83,11.65,2.64,17.42-.2,6-2.39,11.89-3.31,16.05.25-10.06.54-21.83.82-33.6Z" transform="translate(-1 -1)"/>
    <path class="a" d="M109.78,117.4c4.29-8,8.43-16.17,13-24.07,1.51-2.63,4-4.66,6.14-7,0,0,0,0,0,0a7.2,7.2,0,0,1-.52,2.37c-6.1,9.9-12.25,19.76-18.18,29.28.19.51,0-.13-.28-.76Z" transform="translate(-1 -1)"/>
    <path class="a" d="M280.28,158.73c10.78,3.67,7.25,12.56,9.78,18.79l-1.51.66Z" transform="translate(-1 -1)"/>
    <path class="a" d="M316,145.55c1.17,4.64,2.3,9.14,3.77,15-6.82-4-8-9.17-8.27-15Z" transform="translate(-1 -1)"/>
    <path class="a" d="M292.37,164.54c4.47,10.86,8.76,22,8.39,35.52C297.76,187.38,295.06,176,292.37,164.54Z" transform="translate(-1 -1)"/>
    <path class="a" d="M239.8,80.13c10.24,3.62,20.39,7.39,26.7,18.65-1.63-.5-2.24-.5-2.47-.79-6-7.47-13.9-12.22-22.29-16.36A9.26,9.26,0,0,1,239.92,80Z" transform="translate(-1 -1)"/>
    <path class="a" d="M129.15,114.66l1.33-1.62c3.89-3.92,6.89-9.06,14.16-8.87l-7.1,8.54-1.45-1.18,4.16-4.87-.88-.74q-5.35,6.39-10.72,12.79l-.73-.48Z" transform="translate(-1 -1)"/>
    <path class="a" d="M339.13,191.23c5,6.85,2.64,14.54,2.17,22q-1.92-10.86-3.85-21.7Z" transform="translate(-1 -1)"/>
    <path class="a" d="M321.67,198.23c1.08,5.7,3.1,11.36.65,17.17l-1.66,0-.87-17.14Z" transform="translate(-1 -1)"/>
    <path class="a" d="M310.19,295.89c.49-7.67,1-15.34,1.54-23.94C314.51,276.44,313.83,287.38,310.19,295.89Z" transform="translate(-1 -1)"/>
    <path class="a" d="M306.22,213.83c-.5-4.8-1-9.59-1.52-14.51C309.23,199.74,309.61,202.56,306.22,213.83Z" transform="translate(-1 -1)"/>
    <path class="a" d="M315.45,186.45l-6-14.09,1.89-.82,6.32,14.13Z" transform="translate(-1 -1)"/>
    <path class="a" d="M291,129.13c1.1,6.63,2,12.11,3,18.05C290.1,144,289.05,137.77,291,129.13Z" transform="translate(-1 -1)"/>
    <path class="a" d="M302,150.91c-5.2-1.57-5.2-1.57-1.78-11.6C300.83,143.07,301.41,146.82,302,150.91Z" transform="translate(-1 -1)"/>
    <path class="a" d="M305.17,331.72q2.47-8.3,5-16.61l1.47.46c.25,6.12-3.53,11-5.08,16.57Z" transform="translate(-1 -1)"/>
    <path class="a" d="M326.62,215.86v-14l1.22,0,.75,14.11Z" transform="translate(-1 -1)"/>
    <path class="a" d="M85.78,188.33l-2.49,15.1-1.61-.27,2.16-15.24Z" transform="translate(-1 -1)"/>
    <path class="a" d="M89,196.36,87.73,211l-1.53-.12,1.09-14.64Z" transform="translate(-1 -1)"/>
    <path class="a" d="M88.41,170.63l-5.37,13L81.39,183l5.16-13.3Z" transform="translate(-1 -1)"/>
    <path class="a" d="M272.85,77.76,272.06,73l10.68,12.1-1,1.09-9-8.61S272.85,77.76,272.85,77.76Z" transform="translate(-1 -1)"/>
    <path class="a" d="M319.51,143.5l2.46,9.21-2.32.65-2.7-9.13Z" transform="translate(-1 -1)"/>
    <path class="a" d="M308.05,276.59l-.63,9.09-1.64-.12v-9.18Z" transform="translate(-1 -1)"/>
    <path class="a" d="M101.91,120.34l-6.4,13.57-1.12-.5,6.08-13.73Z" transform="translate(-1 -1)"/>
    <path class="a" d="M280.68,153.78l4,.62c.6,1.2,1.22,2.4,1.85,3.61l-.75,1-6.37-2.51Z" transform="translate(-1 -1)"/>
    <path class="a" d="M294.89,155.08l-5.66-6.71,1.46-1.27,6.18,6.25Z" transform="translate(-1 -1)"/>
    <path class="a" d="M305.36,307.4q1.09-6.87,2.18-13.74l1.39.23-2.25,13.59Z" transform="translate(-1 -1)"/>
    <path d="M217.91,271.53l-8,3.35c-.15.07-.37.15-.41.28-3.13,9.45-11.3,7.51-18.34,8.12-3.69.32-8-.39-10.94,1.25-5.76,3.18-5.13-2.09-7.1-4.53l-5,2.7-2.79-7.22-1.62,1.9L144.18,257.1c.11-.75.36-2.49.61-4.2-4.07-2.08-3.91-5.77-4-9.52-.19-5.15.47-10.85-1.58-15.21-1.18-2.5-2-4.2-1.22-6.63.46-1.45,1.4-2.75,1.8-4.21a50.62,50.62,0,0,0,1.6-7.68c.37-3.38.38-6.79.51-9.58,1.42-5.81,2.64-11.25,4.09-16.62a36.27,36.27,0,0,1,3.26-9c.93-1.59,3.61-2,5.1-3.42,3.16-2.93,5.8-6.44,9.11-9.16,4.15-3.42,9.09-4.37,14.56-3.57,17.37,2.51,28.48,13.2,37,27.55,2,3.39,5.17,6.2,6.75,9.74,1.68,3.77,2.07,8.11,3.12,12.17,1,3.82,2.35,7.55,3,11.41.51,2.83,0,5.82.3,8.7.58,5.53,1.52,11,2.11,16.56s-4,9-5.88,13.56c-1.32,3.24-4.56,5.65-6.41,8.75C217.27,268,217.91,270.12,217.91,271.53Zm-72.09-68,12.41,2.92c-.18-1.66-.33-3.05-.5-4.54l3.57,2.29c.36-6.46-4.23-9-7.41-12.38l3.09,1.1c1.68-5.79-3.54-6-6.47-8.11L154,192l-3.49-2.45c-1.6,4.82-3.13,9.42-4.64,14,1.2,1.53,2.16,3.39,3.67,4.5,2.69,2,5.7,3.48,8.58,5.18l.87-1.55C156.37,206.23,150.52,205.77,145.82,203.54Zm33.68-19.47c.2,2.58.38,4.84.62,7.92L198,174l1,.46c-.57,2.35-1.13,4.69-1.73,7.19l10.4-1.42c-5.79-11.33-15.3-16-26.74-19.4l-2.49,18.91h-.67V160.52l-1.38,0v24.07Zm-23-2.55C158,187.7,160.38,193,165,197l1.65-.5-3.24-13.75,1-.38c1.49,3.62,3,7.23,5,12.14v-4.22l2.86,2.61.86-.65-3.27-9.89.82-.35,2.79,3.39c3.35-7.24.23-13.31-2.31-20.18l-.72,4.46c-.33-1.45-.65-2.87-1.08-4.79l-5.47,1.36c.29,2.1.52,3.73.75,5.37l-.54.11-1.64-3.95c-10.23,5.6-13.09,11.78-6.77,17.5C156,183.91,156.27,182.72,156.53,181.52ZM177.1,210l2.45.91c.89-1.9,2.55-3.81,2.52-5.68-.06-3.13.55-7.17-5-8.51Zm41.22,10.53c-1.86-5-10.19-8.55-14.27-7.05ZM213,229.17l.72-1.6c-2.14-5-4.21-5.82-10.5-3.25Zm-8.27-29.72,9.95-4.42.19-1.56c-1.69-.32-4-1.48-5-.78C208,194.13,206.79,196.57,204.69,199.45Zm3.78,40.48,1.6-1.78-10.66-8-1.08,1.3Zm-59-10.41.63,1.95,9.77-2.94-.7-2.2Zm13.93,30.57,1.54.59,4.53-12-1.47-.56Zm26-18.75-1.65.6,4,10.88,2.06-.8Zm-15.07-40.29-2.49.66c.85,2.89,1.71,5.77,2.57,8.66l1.78-.49Z" transform="translate(-1 -1)"/>
    <path d="M205.74,305.83c3,2.1,7.55,3.2,8,8.59.09,1.27,1.38,2.8,2.54,3.59,5.75,3.89,7.67,9.13,6.82,15.92-1.26,10.13,6.83,15.49,18.36,16.72-5.75,2.62-15.8-1.82-18.16-8.4a30.22,30.22,0,0,1-1.66-9.76c-.05-5.18-1.52-9.43-5.72-12.63a11.26,11.26,0,0,1-2.39-2.53C210.84,313.49,208.26,309.59,205.74,305.83Z" transform="translate(-1 -1)"/>
    <path d="M226.92,281.15c3-6.52,9.25-11.63,7.94-20.36l-1.92,3.09-1.21-.25c.2-3.78.4-7.55.62-11.73,4.41,1.33,4.5,3.63,4.86,6.7C238.36,268.39,231.72,274.29,226.92,281.15Z" transform="translate(-1 -1)"/>
    <path d="M230.08,299.65c1.92,6,3.44,12.13,5.91,17.88,1.81,4.2.59,7.06-2.17,9.78a22.47,22.47,0,0,1-7.51,5.12c1.78-1.86,3.57-3.7,5.33-5.58,2.48-2.65,4.59-4.88,2.59-9.37-2.45-5.5-3.48-11.64-5.13-17.5Z" transform="translate(-1 -1)"/>
    <path d="M227,269.52c4.1,5.67-2.39,7.44-3.11,11L218,279Z" transform="translate(-1 -1)"/>
    <path d="M259.48,283.73c6.28,5-.51,13,2,15.86C261.07,296.38,260.29,290.15,259.48,283.73Z" transform="translate(-1 -1)"/>
    <path d="M235.57,278.56c.73,6-2.28,8.34-8,8.8Z" transform="translate(-1 -1)"/>
    <path d="M167.38,297.32c-6.47,3.77-6.31,9.47-6.3,15.52C158.22,305.18,160.79,298.56,167.38,297.32Z" transform="translate(-1 -1)"/>
    <path d="M188.84,65.29l4.42-1.78,0-1L184,61.57l.19-1.38L212,63.93l-.05.54h-23Z" transform="translate(-1 -1)"/>
    <path class="a" d="M179.5,184.07l-3.12.55V160.55l1.38,0V179.7h.67l2.49-18.91c11.44,3.44,21,8.07,26.74,19.4l-10.4,1.42c.6-2.5,1.16-4.84,1.73-7.19l-1-.46-17.9,18C179.88,188.91,179.7,186.65,179.5,184.07Z" transform="translate(-1 -1)"/>
    <path class="a" d="M156.53,181.52c-.26,1.2-.52,2.39-.81,3.76-6.32-5.72-3.46-11.9,6.77-17.5l1.64,3.95.54-.11c-.23-1.64-.46-3.27-.75-5.37l5.47-1.36c.43,1.92.75,3.34,1.08,4.79l.72-4.46c2.54,6.87,5.66,12.94,2.31,20.18L170.71,182l-.82.35,3.27,9.89-.86.65-2.86-2.61v4.22c-2-4.91-3.54-8.52-5-12.14l-1,.38,3.24,13.75L165,197C160.38,193,158,187.7,156.53,181.52Z" transform="translate(-1 -1)"/>
    <path class="a" d="M153.89,191.83c3.18,3.37,7.77,5.92,7.41,12.38l-3.57-2.29c.17,1.49.32,2.88.5,4.54l-12.41-2.92h0l4.66-14L154,192Z" transform="translate(-1 -1)"/>
    <path class="a" d="M177.1,210V196.72c5.52,1.34,4.91,5.38,5,8.51,0,1.87-1.63,3.78-2.52,5.68Z" transform="translate(-1 -1)"/>
    <path class="a" d="M145.82,203.54c4.7,2.23,10.55,2.69,13.17,8.12l-.87,1.55c-2.88-1.7-5.89-3.21-8.58-5.18-1.51-1.11-2.47-3-3.68-4.5Z" transform="translate(-1 -1)"/>
    <path class="a" d="M218.32,220.53l-14.27-7.05C208.13,212,216.46,215.57,218.32,220.53Z" transform="translate(-1 -1)"/>
    <path class="a" d="M213,229.17l-9.78-4.85c6.29-2.57,8.36-1.77,10.5,3.25Z" transform="translate(-1 -1)"/>
    <path class="a" d="M204.69,199.45c2.1-2.88,3.27-5.32,5.19-6.76.93-.7,3.26.46,5,.78l-.19,1.56Z" transform="translate(-1 -1)"/>
    <path class="a" d="M208.47,239.93l-10.14-8.49,1.08-1.3,10.66,8Z" transform="translate(-1 -1)"/>
    <path class="a" d="M149.44,229.52l9.7-3.19.7,2.2-9.77,2.94Z" transform="translate(-1 -1)"/>
    <path class="a" d="M154,192l-3.49-7.14c2.93,2.11,8.15,2.32,6.47,8.11l-3.09-1.1Z" transform="translate(-1 -1)"/>
    <path class="a" d="M163.37,260.09l4.6-11.94,1.47.56-4.53,12Z" transform="translate(-1 -1)"/>
    <path class="a" d="M189.42,241.34,193.86,252l-2.06.8-4-10.88Z" transform="translate(-1 -1)"/>
    <path class="a" d="M174.35,201.05l1.86,8.83-1.78.49c-.86-2.89-1.72-5.77-2.57-8.66Z" transform="translate(-1 -1)"/>
  </g>
</svg>
