<svg xmlns="http://www.w3.org/2000/svg" width="247.24266" height="243.93766" viewBox="0 0 247.24266 243.93766">
  <defs>
    <style>
      .a {
        fill: #b81f56;
      }

      .aa, .ab, .ac, .ad, .ae, .af, .ag, .ah, .ai, .aj, .ak, .al, .am, .an, .ao, .ap, .aq, .ar, .as, .at, .au, .av, .aw, .ax, .ay, .az, .b, .ba, .bb, .bc, .bd, .be, .c, .d, .e, .f, .g, .h, .i, .j, .k, .l, .m, .n, .o, .p, .q, .r, .s, .t, .u, .v, .w, .x, .y, .z {
        fill: none;
        stroke-miterlimit: 10;
      }

      .b {
        stroke: #b62057;
        stroke-width: 2.95536px;
      }

      .c {
        stroke: #b32259;
        stroke-width: 2.91071px;
      }

      .d {
        stroke: #b1235a;
        stroke-width: 2.86607px;
      }

      .e {
        stroke: #ae255c;
        stroke-width: 2.82143px;
      }

      .f {
        stroke: #ac265d;
        stroke-width: 2.77678px;
      }

      .g {
        stroke: #aa285e;
        stroke-width: 2.73214px;
      }

      .h {
        stroke: #a72960;
        stroke-width: 2.6875px;
      }

      .i {
        stroke: #a52a61;
        stroke-width: 2.64286px;
      }

      .j {
        stroke: #a22c63;
        stroke-width: 2.59821px;
      }

      .k {
        stroke: #a02d64;
        stroke-width: 2.55357px;
      }

      .l {
        stroke: #9e2f65;
        stroke-width: 2.50893px;
      }

      .m {
        stroke: #9b3067;
        stroke-width: 2.46428px;
      }

      .n {
        stroke: #993268;
        stroke-width: 2.41964px;
      }

      .o {
        stroke: #96336a;
        stroke-width: 2.375px;
      }

      .p {
        stroke: #94346b;
        stroke-width: 2.33036px;
      }

      .q {
        stroke: #92366c;
        stroke-width: 2.28571px;
      }

      .r {
        stroke: #8f376e;
        stroke-width: 2.24107px;
      }

      .s {
        stroke: #8d396f;
        stroke-width: 2.19643px;
      }

      .t {
        stroke: #8b3a70;
        stroke-width: 2.15178px;
      }

      .u {
        stroke: #883c72;
        stroke-width: 2.10714px;
      }

      .v {
        stroke: #863d73;
        stroke-width: 2.0625px;
      }

      .w {
        stroke: #833e75;
        stroke-width: 2.01786px;
      }

      .x {
        stroke: #814076;
        stroke-width: 1.97321px;
      }

      .y {
        stroke: #7f4177;
        stroke-width: 1.92857px;
      }

      .z {
        stroke: #7c4379;
        stroke-width: 1.88393px;
      }

      .aa {
        stroke: #7a447a;
        stroke-width: 1.83929px;
      }

      .ab {
        stroke: #77467c;
        stroke-width: 1.79464px;
      }

      .ac {
        stroke: #75477d;
        stroke-width: 1.75px;
      }

      .ad {
        stroke: #73487e;
        stroke-width: 1.70536px;
      }

      .ae {
        stroke: #704a80;
        stroke-width: 1.66071px;
      }

      .af {
        stroke: #6e4b81;
        stroke-width: 1.61607px;
      }

      .ag {
        stroke: #6b4d83;
        stroke-width: 1.57143px;
      }

      .ah {
        stroke: #694e84;
        stroke-width: 1.52679px;
      }

      .ai {
        stroke: #675085;
        stroke-width: 1.48214px;
      }

      .aj {
        stroke: #645187;
        stroke-width: 1.4375px;
      }

      .ak {
        stroke: #625288;
        stroke-width: 1.39286px;
      }

      .al {
        stroke: #5f548a;
        stroke-width: 1.34821px;
      }

      .am {
        stroke: #5d558b;
        stroke-width: 1.30357px;
      }

      .an {
        stroke: #5b578c;
        stroke-width: 1.25893px;
      }

      .ao {
        stroke: #58588e;
        stroke-width: 1.21429px;
      }

      .ap {
        stroke: #565a8f;
        stroke-width: 1.16964px;
      }

      .aq {
        stroke: #535b91;
        stroke-width: 1.125px;
      }

      .ar {
        stroke: #515c92;
        stroke-width: 1.08036px;
      }

      .as {
        stroke: #4f5e93;
        stroke-width: 1.03571px;
      }

      .at {
        stroke: #4c5f95;
        stroke-width: 0.99107px;
      }

      .au {
        stroke: #4a6196;
        stroke-width: 0.94643px;
      }

      .av {
        stroke: #486297;
        stroke-width: 0.90178px;
      }

      .aw {
        stroke: #456499;
        stroke-width: 0.85714px;
      }

      .ax {
        stroke: #43659a;
        stroke-width: 0.8125px;
      }

      .ay {
        stroke: #40669c;
        stroke-width: 0.76786px;
      }

      .az {
        stroke: #3e689d;
        stroke-width: 0.72321px;
      }

      .ba {
        stroke: #3c699e;
        stroke-width: 0.67857px;
      }

      .bb {
        stroke: #396ba0;
        stroke-width: 0.63393px;
      }

      .bc {
        stroke: #376ca1;
        stroke-width: 0.58929px;
      }

      .bd {
        stroke: #346ea3;
        stroke-width: 0.54464px;
      }

      .be {
        stroke: #326fa4;
        stroke-width: 0.5px;
      }
    </style>
  </defs>
  <title>letterR</title>
  <g>
    <path class="a" d="M1.10214,48.0645c1.5464-2.0078,3.1318-3.9805,4.7295-5.9414,1.6025-1.957,3.1587-3.9561,4.7988-5.8789l9.7759-11.5986c3.3203-3.8106,6.6099-7.6495,9.9829-11.4122l5.0352-5.6669,5.0927-5.6163L42.28624,0l.7163,2.5196,10.0981,35.5117,9.9033,35.5693-1.0166-.6709c6.2515-.8144,12.5098-1.9218,18.6973-3.2324a188.32165,188.32165,0,0,0,18.3452-4.8125,86.63556,86.63556,0,0,0,17.3155-7.4277,32.07616,32.07616,0,0,0,7.29829-5.7119,13.11356,13.11356,0,0,0,3.7227-8.0166l.0122.1748a54.74579,54.74579,0,0,0-3.2881-11.3623,34.51038,34.51038,0,0,0-6.22949-9.9473,27.88829,27.88829,0,0,0-9.5322-6.7764,35.098,35.098,0,0,0-11.4913-2.665c-7.936-.5332-15.9126.9473-23.54,3.2275a115.04756,115.04756,0,0,0-22.06639,9.2803,115.31391,115.31391,0,0,1,21.93209-9.7148c7.6294-2.4043,15.6392-4.0127,23.7246-3.5879a35.95147,35.95147,0,0,1,11.8179,2.5713,28.93525,28.93525,0,0,1,9.9858,6.8916,35.71517,35.71517,0,0,1,6.59669,10.2041,56.17454,56.17454,0,0,1,3.5376,11.6035l.0166.083-.0044.0928a12.62784,12.62784,0,0,1-1.2563,4.8681,17.52985,17.52985,0,0,1-2.8003,4.1006,33.59012,33.59012,0,0,1-7.62259,6.041,88.13861,88.13861,0,0,1-17.6084,7.669,189.9235,189.9235,0,0,1-18.4902,4.9531c-6.2373,1.3545-12.49709,2.4971-18.8433,3.3574l-.7837.1065-.2329-.7774L50.60364,38.754,40.20174,3.3282l2.4854.5693-5.0323,5.669-5.08979,5.6191c-3.377,3.7598-6.83791,7.4443-10.26711,11.1572L11.82384,37.3145c-1.7349,1.8389-3.5537,3.6016-5.3262,5.4062C4.72034,44.5215,2.93074,46.3106,1.10214,48.0645Z"/>
    <path class="b" d="M1.08705,51.0938,41.61384,7.0801l21.1157,67.9571s64.46239-5.9903,65.57129-27.7012C117.62414-8.75,54.73105,29.4639,54.73105,29.4639"/>
    <path class="c" d="M1.07084,54.1211l40.5538-42.8857L63.35705,76.211s64.05368-3.9903,65.14258-25.3047C118.01624-4.1601,58.23105,33.2676,58.23105,33.2676"/>
    <path class="d" d="M1.05524,57.1504l40.5801-41.7588,22.3486,61.9942s63.646-1.9893,64.71439-22.9111C118.40974.4288,61.73105,37.0713,61.73105,37.0713"/>
    <path class="e" d="M1.03964,60.1788,41.64705,19.5479,64.61144,78.5616s63.23729.0107,64.28561-20.5166c-10.09471-53.0264-63.666-17.1709-63.666-17.1709"/>
    <path class="f" d="M1.02454,63.2071l40.6337-39.503,23.5806,56.0323s62.82909,2.0107,63.85689-18.1211C119.19544,9.6084,68.73105,44.6778,68.73105,44.6778"/>
    <path class="g" d="M1.00884,66.2354l40.6607-38.375,24.1963,53.0508s62.42089,4.0107,63.42869-15.7256c-9.70609-50.9873-57.06348-16.7041-57.06348-16.7041"/>
    <path class="h" d="M.99324,69.2637l40.6875-37.248L66.49324,82.086s62.01219,6.0117,63-13.3311c-9.51218-49.9668-53.76218-16.4697-53.76218-16.4697"/>
    <path class="i" d="M.97814,72.293l40.7143-36.1201,25.4282,47.0889s61.60359,8.0107,62.57129-10.9366c-9.3173-48.9472-50.46088-16.2363-50.46088-16.2363"/>
    <path class="j" d="M.96205,75.3204,41.70324,40.3282l26.0444,44.1074s61.19579,10.0117,62.14309-8.541c-9.1241-47.9278-47.15968-16.002-47.15968-16.002"/>
    <path class="k" d="M.94684,78.3497l40.7676-33.8653,26.66061,41.127s60.78718,12.0107,61.71438-6.1465c-8.9297-46.9082-43.85838-15.7695-43.85838-15.7695"/>
    <path class="l" d="M.93074,81.378l40.7949-32.7373,27.2769,38.1455s60.37839,14.0117,61.28559-3.752C121.55233,37.1465,89.73105,67.5,89.73105,67.5"/>
    <path class="m" d="M.91514,84.4063l40.8213-31.6104,27.893,35.1651s59.97069,16.0117,60.85749-1.3565c-8.542-44.8691-37.25588-15.3017-37.25588-15.3017"/>
    <path class="n" d="M.89994,87.4346l40.8482-30.4834,28.5083,32.1846s59.56249,18.0127,60.42919,1.0381c-8.3472-43.8487-33.95458-15.0674-33.95458-15.0674"/>
    <path class="o" d="M.88434,90.4639l40.875-29.3555,29.125,29.2032s59.15329,20.0117,60,3.4326c-8.15328-42.8291-30.65328-14.834-30.65328-14.834"/>
    <path class="p" d="M.86874,93.4922,41.77105,65.2637,71.51184,91.4864s58.74459,22.0117,59.57129,5.8281c-7.959-41.8096-27.35208-14.6006-27.35208-14.6006"/>
    <path class="q" d="M.85314,96.5206,41.78184,69.42l30.3574,23.2412s58.33639,24.0127,59.14259,8.2226c-7.7652-40.789-24.05078-14.3662-24.05078-14.3662"/>
    <path class="r" d="M.83744,99.5489l40.9551-25.9727L72.76624,93.836s57.92819,26.0127,58.71429,10.6181c-7.5708-39.7705-20.74948-14.1337-20.74948-14.1337"/>
    <path class="s" d="M.82184,102.5782l40.9824-24.8457,31.5894,17.2783s57.51949,28.0127,58.28559,13.0127c-7.3769-38.75-17.44818-13.8985-17.44818-13.8985"/>
    <path class="t" d="M.80624,105.6055,41.81505,81.8877l32.206,14.2979s57.11138,30.0137,57.857,15.4082c-7.18262-37.7305-14.147-13.666-14.147-13.666"/>
    <path class="u" d="M.79114,108.6348,41.82674,86.044,74.64805,97.3614s56.70308,32.0127,57.42868,17.8027c-6.9883-36.7109-10.84568-13.4326-10.84568-13.4326"/>
    <path class="v" d="M.77544,111.6631l41.0625-21.4629,33.4375,8.336s56.29449,34.0136,57,20.1972c-6.79438-35.6904-7.54438-13.1982-7.54438-13.1982"/>
    <path class="w" d="M.76034,114.6915l41.0889-20.335,34.0537,5.3545s55.88569,36.0137,56.57129,22.5918c-6.6001-34.6699-4.24318-12.9639-4.24318-12.9639"/>
    <path class="x" d="M.74424,117.7198l41.1162-19.208,34.6699,2.374s55.47759,38.0137,56.14259,24.9873c-6.4063-33.6514-.94188-12.7305-.94188-12.7305"/>
    <path class="y" d="M.72905,120.7481,41.87164,102.668l35.2857-.6074s55.06929,40.0146,55.71429,27.3828c-6.2119-32.6318,2.35942-12.498,2.35942-12.498"/>
    <path class="z" d="M.71294,123.7774l41.17-16.9531,35.9018-3.5889s54.66069,42.0146,55.28569,29.7783c-6.0181-31.6133,5.66062-12.2637,5.66062-12.2637"/>
    <path class="aa" d="M.69784,126.8057l41.1963-15.8252,36.5181-6.5693s54.25239,44.0146,54.85689,32.1719c-5.8237-30.5928,8.96192-12.0303,8.96192-12.0303"/>
    <path class="ab" d="M.68224,129.834l41.2236-14.6982,37.1333-9.5498s53.84419,46.0137,54.42869,34.5664c-5.6294-29.5723,12.26322-11.7949,12.26322-11.7949"/>
    <path class="ac" d="M.66654,132.8623l41.25-13.5703,37.75-12.5312s53.43559,48.0146,54,36.9619c-5.43548-28.5527,15.56452-11.5625,15.56452-11.5625"/>
    <path class="ad" d="M.65094,135.8907l41.2764-12.4434,38.36671-15.5117s53.02678,50.0156,53.57128,39.3574c-5.2417-27.5332,18.86572-11.3291,18.86572-11.3291"/>
    <path class="ae" d="M.63534,138.919l41.30371-11.3145,38.98239-18.4931s52.61819,52.0146,53.14261,41.7509c-5.04742-26.5126,22.167-11.0947,22.167-11.0947"/>
    <path class="af" d="M.62024,141.9483l41.3305-10.1885,39.5977-21.4746s52.21039,54.0156,52.71429,44.1475c-4.853-25.4932,25.46832-10.8614,25.46832-10.8614"/>
    <path class="ag" d="M.60405,144.9766l41.35749-9.0605,40.2143-24.4551s51.80179,56.0156,52.28569,46.541c-4.6592-24.4736,28.76952-10.627,28.76952-10.627"/>
    <path class="ah" d="M.58894,148.0049l41.3838-7.9326,40.8306-27.4365s51.39349,58.0146,51.85689,48.9365c-4.4648-23.4541,32.07082-10.3945,32.07082-10.3945"/>
    <path class="ai" d="M.57284,151.0332l41.4111-6.8046,41.4463-30.418s50.98539,60.0156,51.42869,51.332c-4.2705-22.4345,35.37212-10.1611,35.37212-10.1611"/>
    <path class="aj" d="M.55774,154.0616l41.4375-5.6778,42.0625-33.3984s50.57659,62.0166,51,53.7266c-4.07668-21.4151,38.67332-9.9268,38.67332-9.9268"/>
    <path class="ak" d="M.54154,157.0899l41.4649-4.5498,42.6787-36.3789s50.168,64.0156,50.57129,56.1211c-3.8828-20.3955,41.97462-9.6934,41.97462-9.6934"/>
    <path class="al" d="M.52644,160.1192l41.4912-3.4229,43.2945-39.3603s49.75969,66.0156,50.143,58.5156c-3.6885-19.375,45.27592-9.459,45.27592-9.459"/>
    <path class="am" d="M.51134,163.1475l41.5176-2.2949,43.9106-42.3418s49.35159,68.0166,49.71439,60.9111c-3.4942-18.3554,48.57712-9.2256,48.57712-9.2256"/>
    <path class="an" d="M.49564,166.1758l41.5445-1.1679,44.5268-45.3223s48.94289,70.0166,49.28569,63.3057C132.55233,165.6563,187.73105,174,187.73105,174"/>
    <path class="ao" d="M.48005,169.2041l41.57129-.04,45.1426-48.3037s48.53511,72.0166,48.85739,65.7012c-3.1059-16.3164,55.17972-8.7588,55.17972-8.7588"/>
    <path class="ap" d="M.46444,172.2325l41.5977,1.0879,45.7597-51.2852s48.126,74.0176,48.42821,68.0957c-2.91162-15.2959,58.481-8.5244,58.481-8.5244"/>
    <path class="aq" d="M.44884,175.2618l41.625,2.2148,46.375-54.2656s47.71769,76.0166,48,70.4902c-2.71778-14.2764,61.78222-8.291,61.78222-8.291"/>
    <path class="ar" d="M.43364,178.2901l41.6519,3.3418,46.9907-57.2471s47.30909,78.0186,47.57129,72.8867c-2.5239-13.2568,65.08352-8.0576,65.08352-8.0576"/>
    <path class="as" d="M.41754,181.3184l41.6787,4.4697,47.6075-60.2275s46.90031,80.0176,47.14249,75.2803c-2.3296-12.2364,68.38482-7.8233,68.38482-7.8233"/>
    <path class="at" d="M.40244,184.3467l41.7051,5.5977,48.2231-63.209s46.49269,82.0176,46.71441,77.6748c-2.13532-11.2168,71.686-7.5889,71.686-7.5889"/>
    <path class="au" d="M.38634,187.375l41.7324,6.7256,48.8394-66.1904s46.08391,84.0176,46.28559,80.0703c-1.9414-10.1973,74.98732-7.3555,74.98732-7.3555"/>
    <path class="av" d="M.37114,190.4034l41.7588,7.8525,49.4556-69.1699s45.67579,86.0176,45.85689,82.4648c-1.747-9.1777,78.28862-7.123,78.28862-7.123"/>
    <path class="aw" d="M.355,193.4317l41.78619,8.9805,50.0712-72.1514s45.26761,88.0176,45.42879,84.8603c-1.5528-8.1582,81.58982-6.8896,81.58982-6.8896"/>
    <path class="ax" d="M.33994,196.461l41.8125,10.1074,50.6875-75.1328s44.85889,90.0176,45,87.2549c-1.35888-7.1377,84.89112-6.6553,84.89112-6.6553"/>
    <path class="ay" d="M.32484,199.4893l41.8388,11.2344,51.3037-78.1133s44.45019,92.0186,44.57129,89.6504c-1.1645-6.1182,88.19242-6.4219,88.19242-6.4219"/>
    <path class="az" d="M.30864,202.5176l41.8662,12.3623,51.9195-81.0947s44.04249,94.0186,44.143,92.0449c-.9707-5.0986,91.49372-6.1875,91.49372-6.1875"/>
    <path class="ba" d="M.29354,205.5459l41.8926,13.4903L94.72174,134.96s43.63379,96.0186,43.71439,94.4404c-.7764-4.0791,94.79492-5.955,94.79492-5.955"/>
    <path class="bb" d="M.27744,208.5743l41.9199,14.6181,53.1519-87.0576s43.22509,98.0195,43.28559,96.835c-.5825-3.0586,98.09622-5.7207,98.09622-5.7207"/>
    <path class="bc" d="M.26234,211.6036l41.9462,15.7451,53.7681-90.0381s42.81641,100.0195,42.85689,99.2295c-.3881-2.0391,101.39752-5.4873,101.39752-5.4873"/>
    <path class="bd" d="M.24614,214.6319l41.9737,16.8721,54.3838-93.0196s42.40869,102.0196,42.42869,101.625c-.1944-1.0195,104.69872-5.2529,104.69872-5.2529"/>
    <polyline class="be" points="0.231 217.66 42.231 235.66 97.231 139.66 139.231 243.68 247.231 238.66"/>
  </g>
</svg>
