<svg xmlns="http://www.w3.org/2000/svg" width="192.50595" height="221.35782" viewBox="0 0 192.50595 221.35782">
  <defs>
    <style>
      .a {
        fill: #b81f56;
      }

      .aa, .ab, .ac, .ad, .ae, .af, .ag, .ah, .ai, .aj, .ak, .al, .am, .an, .ao, .ap, .aq, .ar, .as, .at, .au, .av, .aw, .ax, .ay, .az, .b, .ba, .bb, .bc, .bd, .be, .c, .d, .e, .f, .g, .h, .i, .j, .k, .l, .m, .n, .o, .p, .q, .r, .s, .t, .u, .v, .w, .x, .y, .z {
        fill: none;
        stroke-miterlimit: 10;
      }

      .b {
        stroke: #b62057;
        stroke-width: 2.95536px;
      }

      .c {
        stroke: #b32259;
        stroke-width: 2.91071px;
      }

      .d {
        stroke: #b1235a;
        stroke-width: 2.86607px;
      }

      .e {
        stroke: #ae255c;
        stroke-width: 2.82143px;
      }

      .f {
        stroke: #ac265d;
        stroke-width: 2.77678px;
      }

      .g {
        stroke: #aa285e;
        stroke-width: 2.73214px;
      }

      .h {
        stroke: #a72960;
        stroke-width: 2.6875px;
      }

      .i {
        stroke: #a52a61;
        stroke-width: 2.64286px;
      }

      .j {
        stroke: #a22c63;
        stroke-width: 2.59821px;
      }

      .k {
        stroke: #a02d64;
        stroke-width: 2.55357px;
      }

      .l {
        stroke: #9e2f65;
        stroke-width: 2.50893px;
      }

      .m {
        stroke: #9b3067;
        stroke-width: 2.46428px;
      }

      .n {
        stroke: #993268;
        stroke-width: 2.41964px;
      }

      .o {
        stroke: #96336a;
        stroke-width: 2.375px;
      }

      .p {
        stroke: #94346b;
        stroke-width: 2.33036px;
      }

      .q {
        stroke: #92366c;
        stroke-width: 2.28571px;
      }

      .r {
        stroke: #8f376e;
        stroke-width: 2.24107px;
      }

      .s {
        stroke: #8d396f;
        stroke-width: 2.19643px;
      }

      .t {
        stroke: #8b3a70;
        stroke-width: 2.15178px;
      }

      .u {
        stroke: #883c72;
        stroke-width: 2.10714px;
      }

      .v {
        stroke: #863d73;
        stroke-width: 2.0625px;
      }

      .w {
        stroke: #833e75;
        stroke-width: 2.01786px;
      }

      .x {
        stroke: #814076;
        stroke-width: 1.97321px;
      }

      .y {
        stroke: #7f4177;
        stroke-width: 1.92857px;
      }

      .z {
        stroke: #7c4379;
        stroke-width: 1.88393px;
      }

      .aa {
        stroke: #7a447a;
        stroke-width: 1.83929px;
      }

      .ab {
        stroke: #77467c;
        stroke-width: 1.79464px;
      }

      .ac {
        stroke: #75477d;
        stroke-width: 1.75px;
      }

      .ad {
        stroke: #73487e;
        stroke-width: 1.70536px;
      }

      .ae {
        stroke: #704a80;
        stroke-width: 1.66071px;
      }

      .af {
        stroke: #6e4b81;
        stroke-width: 1.61607px;
      }

      .ag {
        stroke: #6b4d83;
        stroke-width: 1.57143px;
      }

      .ah {
        stroke: #694e84;
        stroke-width: 1.52679px;
      }

      .ai {
        stroke: #675085;
        stroke-width: 1.48214px;
      }

      .aj {
        stroke: #645187;
        stroke-width: 1.4375px;
      }

      .ak {
        stroke: #625288;
        stroke-width: 1.39286px;
      }

      .al {
        stroke: #5f548a;
        stroke-width: 1.34821px;
      }

      .am {
        stroke: #5d558b;
        stroke-width: 1.30357px;
      }

      .an {
        stroke: #5b578c;
        stroke-width: 1.25893px;
      }

      .ao {
        stroke: #58588e;
        stroke-width: 1.21429px;
      }

      .ap {
        stroke: #565a8f;
        stroke-width: 1.16964px;
      }

      .aq {
        stroke: #535b91;
        stroke-width: 1.125px;
      }

      .ar {
        stroke: #515c92;
        stroke-width: 1.08036px;
      }

      .as {
        stroke: #4f5e93;
        stroke-width: 1.03571px;
      }

      .at {
        stroke: #4c5f95;
        stroke-width: 0.99107px;
      }

      .au {
        stroke: #4a6196;
        stroke-width: 0.94643px;
      }

      .av {
        stroke: #486297;
        stroke-width: 0.90178px;
      }

      .aw {
        stroke: #456499;
        stroke-width: 0.85714px;
      }

      .ax {
        stroke: #43659a;
        stroke-width: 0.8125px;
      }

      .ay {
        stroke: #40669c;
        stroke-width: 0.76786px;
      }

      .az {
        stroke: #3e689d;
        stroke-width: 0.72321px;
      }

      .ba {
        stroke: #3c699e;
        stroke-width: 0.67857px;
      }

      .bb {
        stroke: #396ba0;
        stroke-width: 0.63393px;
      }

      .bc {
        stroke: #376ca1;
        stroke-width: 0.58929px;
      }

      .bd {
        stroke: #346ea3;
        stroke-width: 0.54464px;
      }

      .be {
        stroke: #326fa4;
        stroke-width: 0.5px;
      }
    </style>
  </defs>
  <title>letterA</title>
  <g>
    <path class="a" d="M39.006,65.606c2.7437-.2881,5.4897-.5098,8.2354-.7266,2.746-.2187,5.4912-.4599,8.2387-.6264l-.664.3506q5.5041-7.9461,11.0981-15.8267c3.6992-5.2754,7.4751-10.4951,11.209-15.7456L88.43175,17.358c3.7607-5.231,7.5962-10.4073,11.396-15.6099L101.10455,0l1.1397,1.8374c5.9985,9.668,11.89159,19.4004,17.83049,29.105q8.83815,14.60085,17.6075,29.2437l-.4668-.3482c2.72651.837,5.43651,1.7329,8.1552,2.5967,2.7198.8613,5.4336,1.7437,8.13531,2.6714-2.79831-.5723-5.58451-1.1899-8.36471-1.8286-2.78129-.6362-5.5708-1.2402-8.3448-1.9033l-.2861-.0684-.1807-.2798q-9.2607-14.33865-18.3925-28.7563c-6.06109-9.6289-12.16749-19.2295-18.16949-28.895l2.4165.0893c-3.7832,5.2144-7.5312,10.4546-11.354,15.6402L79.38875,34.6807c-3.8491,5.1665-7.6567,10.3633-11.541,15.5044q-5.8008,7.73-11.6519,15.4233l-.268.3506h-.396c-2.7525,0-5.5073-.0742-8.2617-.1264C44.51625,65.7823,41.76225,65.7276,39.006,65.606Z"/>
    <polyline class="b" points="38.31 68.365 55.265 67.892 100.953 5.838 137.248 63.455 154.203 67.874"/>
    <polyline class="c" points="37.613 71.124 55.024 70.678 100.899 9.07 137.488 66.302 154.899 70.642"/>
    <polyline class="d" points="36.917 73.883 54.783 73.463 100.845 12.302 137.729 69.15 155.595 73.409"/>
    <polyline class="e" points="36.22 76.642 54.542 76.249 100.792 15.535 137.97 71.999 156.292 76.178"/>
    <polyline class="f" points="35.524 79.401 54.301 79.035 100.738 18.767 138.212 74.847 156.988 78.945"/>
    <polyline class="g" points="34.827 82.16 54.06 81.82 100.684 21.999 138.452 77.695 157.684 81.713"/>
    <polyline class="h" points="34.131 84.919 53.818 84.606 100.631 25.231 138.693 80.544 158.381 84.481"/>
    <polyline class="i" points="33.435 87.678 53.577 87.392 100.577 28.464 138.935 83.392 159.078 87.249"/>
    <polyline class="j" points="32.738 90.437 53.336 90.177 100.524 31.695 139.175 86.24 159.774 90.017"/>
    <polyline class="k" points="32.042 93.195 53.095 92.963 100.47 34.927 139.417 89.088 160.47 92.785"/>
    <polyline class="l" points="31.346 95.954 52.855 95.749 100.417 38.16 139.658 91.937 161.167 95.553"/>
    <polyline class="m" points="30.649 98.713 52.613 98.534 100.363 41.392 139.899 94.784 161.863 98.32"/>
    <polyline class="n" points="29.952 101.472 52.372 101.32 100.31 44.624 140.14 97.633 162.56 101.088"/>
    <polyline class="o" points="29.256 104.231 52.131 104.106 100.256 47.856 140.381 100.481 163.256 103.856"/>
    <polyline class="p" points="28.56 106.99 51.89 106.892 100.202 51.088 140.622 103.329 163.952 106.624"/>
    <polyline class="q" points="27.863 109.749 51.649 109.677 100.149 54.32 140.863 106.177 164.649 109.392"/>
    <polyline class="r" points="27.167 112.508 51.408 112.463 100.095 57.553 141.104 109.026 165.345 112.16"/>
    <polyline class="s" points="26.471 115.267 51.167 115.249 100.042 60.784 141.345 111.874 166.042 114.927"/>
    <polyline class="t" points="25.774 118.025 50.926 118.035 99.988 64.017 141.587 114.722 166.738 117.695"/>
    <polyline class="u" points="25.077 120.785 50.685 120.82 99.934 67.249 141.827 117.57 167.435 120.463"/>
    <polyline class="v" points="24.381 123.544 50.443 123.606 99.881 70.481 142.068 120.419 168.131 123.231"/>
    <polyline class="w" points="23.685 126.302 50.202 126.392 99.827 73.713 142.31 123.267 168.827 125.999"/>
    <polyline class="x" points="22.988 129.062 49.961 129.178 99.774 76.945 142.551 126.115 169.524 128.767"/>
    <polyline class="y" points="22.292 131.82 49.72 131.963 99.72 80.178 142.792 128.963 170.22 131.535"/>
    <polyline class="z" points="21.595 134.579 49.48 134.749 99.667 83.409 143.032 131.811 170.917 134.302"/>
    <polyline class="aa" points="20.899 137.338 49.238 137.534 99.613 86.642 143.274 134.659 171.613 137.07"/>
    <polyline class="ab" points="20.202 140.097 48.997 140.32 99.56 89.874 143.515 137.508 172.31 139.838"/>
    <polyline class="ac" points="19.506 142.857 48.756 143.107 99.506 93.106 143.756 140.357 173.006 142.607"/>
    <polyline class="ad" points="18.81 145.615 48.515 145.892 99.452 96.338 143.997 143.204 173.702 145.374"/>
    <polyline class="ae" points="18.113 148.374 48.274 148.677 99.399 99.57 144.238 146.052 174.399 148.142"/>
    <polyline class="af" points="17.417 151.133 48.033 151.463 99.345 102.803 144.479 148.9 175.095 150.909"/>
    <polyline class="ag" points="16.72 153.892 47.791 154.249 99.291 106.035 144.721 151.749 175.792 153.677"/>
    <polyline class="ah" points="16.024 156.65 47.551 157.034 99.238 109.267 144.961 154.597 176.488 156.445"/>
    <polyline class="ai" points="15.327 159.409 47.31 159.82 99.185 112.499 145.202 157.445 177.185 159.213"/>
    <polyline class="aj" points="14.631 162.168 47.068 162.606 99.131 115.731 145.443 160.293 177.881 161.981"/>
    <polyline class="ak" points="13.935 164.927 46.827 165.392 99.077 118.963 145.685 163.142 178.577 164.749"/>
    <polyline class="al" points="13.238 167.687 46.587 168.178 99.024 122.195 145.926 165.99 179.274 167.517"/>
    <polyline class="am" points="12.542 170.445 46.345 170.963 98.97 125.428 146.167 168.838 179.97 170.285"/>
    <polyline class="an" points="11.846 173.204 46.105 173.749 98.917 128.659 146.408 171.687 180.667 173.053"/>
    <polyline class="ao" points="11.149 175.963 45.863 176.534 98.863 131.892 146.649 174.535 181.363 175.82"/>
    <polyline class="ap" points="10.452 178.722 45.622 179.32 98.81 135.124 146.89 177.383 182.06 178.588"/>
    <polyline class="aq" points="9.756 181.482 45.381 182.107 98.756 138.357 147.131 180.232 182.756 181.357"/>
    <polyline class="ar" points="9.06 184.24 45.14 184.892 98.702 141.588 147.372 183.079 183.452 184.124"/>
    <polyline class="as" points="8.363 186.999 44.899 187.678 98.649 144.82 147.613 185.928 184.149 186.892"/>
    <polyline class="at" points="7.667 189.758 44.658 190.463 98.595 148.052 147.854 188.776 184.845 189.66"/>
    <polyline class="au" points="6.97 192.517 44.417 193.249 98.542 151.284 148.095 191.624 185.542 192.428"/>
    <polyline class="av" points="6.274 195.276 44.176 196.035 98.488 154.517 148.336 194.472 186.238 195.195"/>
    <polyline class="aw" points="5.577 198.035 43.934 198.82 98.434 157.749 148.578 197.32 186.935 197.963"/>
    <polyline class="ax" points="4.881 200.794 43.693 201.606 98.381 160.981 148.818 200.169 187.631 200.731"/>
    <polyline class="ay" points="4.184 203.553 43.452 204.392 98.327 164.213 149.059 203.017 188.327 203.499"/>
    <polyline class="az" points="3.488 206.312 43.212 207.177 98.274 167.445 149.301 205.865 189.024 206.267"/>
    <polyline class="ba" points="2.792 209.07 42.97 209.963 98.22 170.677 149.542 208.713 189.72 209.035"/>
    <polyline class="bb" points="2.095 211.829 42.729 212.749 98.167 173.909 149.783 211.562 190.417 211.802"/>
    <polyline class="bc" points="1.399 214.588 42.488 215.535 98.113 177.142 150.024 214.41 191.113 214.57"/>
    <polyline class="bd" points="0.703 217.347 42.247 218.32 98.06 180.374 150.265 217.258 191.81 217.338"/>
    <polyline class="be" points="0.006 220.106 42.006 221.106 98.006 183.606 150.506 220.106 192.506 220.106"/>
  </g>
</svg>
