<svg xmlns="http://www.w3.org/2000/svg" width="48" height="48" viewBox="0 0 48 48">
  <defs>
    <style>
      .a {
        fill-rule: evenodd;
      }
    </style>
  </defs>
  <title>linkedInSolo</title>
  <path class="a" d="M44.45,0H3.54A3.5,3.5,0,0,0,0,3.46V44.54A3.5,3.5,0,0,0,3.54,48H44.45A3.51,3.51,0,0,0,48,44.54V3.46A3.51,3.51,0,0,0,44.45,0ZM14.24,40.9H7.12V18h7.12Zm-3.56-26a4.13,4.13,0,1,1,4.12-4.13A4.13,4.13,0,0,1,10.68,14.86Zm30.22,26H33.79V29.76c0-2.66,0-6.07-3.7-6.07s-4.27,2.89-4.27,5.88V40.9H18.7V18h6.83v3.13h.09a7.53,7.53,0,0,1,6.74-3.7c7.21,0,8.54,4.75,8.54,10.92Z"/>
</svg>
