<?xml version="1.0" encoding="utf-8"?>
<!-- Generator: Adobe Illustrator 23.0.2, SVG Export Plug-In . SVG Version: 6.00 Build 0)  -->
<svg version="1.1" id="sprite" xmlns="http://www.w3.org/2000/svg" xmlns:xlink="http://www.w3.org/1999/xlink" x="0px" y="0px"
	 viewBox="0 0 247 51" style="enable-background:new 0 0 247 51;" xml:space="preserve">
<style type="text/css">
	.st0{fill-rule:evenodd;clip-rule:evenodd;}
</style>
<g id="Social-Icon-Media-Sprite">
	<g id="twitter" transform="translate(2 7)">
		<path id="_Path_" class="st0" d="M41.5,6c2-1.2,3.5-3.1,4.2-5.3c-1.9,1.1-4,1.9-6.1,2.3c-3-3.2-7.7-3.9-11.6-1.9
			c-3.8,2-5.8,6.4-4.8,10.6c-7.7-0.4-15-4-19.9-10c-2.6,4.4-1.3,10,3,12.8c-1.5,0-3-0.5-4.4-1.2l0,0.1c0,4.6,3.2,8.5,7.7,9.4
			c-1.4,0.4-2.9,0.4-4.4,0.2c1.3,3.9,4.9,6.6,9,6.7c-3.4,2.7-7.6,4.1-12,4.1c-0.8,0-1.5,0-2.3-0.1C4.4,36.5,9.5,38,14.8,38
			c17.7,0,27.4-14.6,27.4-27.3c0-0.4,0-0.8,0-1.2c1.9-1.4,3.5-3,4.8-5C45.2,5.3,43.4,5.8,41.5,6L41.5,6z"/>
	</g>
	<g id="instagram_1_">
		<path id="instagram" d="M98,43.8c0,3.4-2.8,6.1-6.2,6.2H56.2c-3.4,0-6.1-2.8-6.2-6.2V8.2C50,4.8,52.8,2,56.2,2h35.7
			C95.2,2,98,4.8,98,8.2C98,8.2,98,43.8,98,43.8z M92.6,22.3h-4.2c0.4,1.3,0.6,2.7,0.6,4.1C88.8,34.5,82.2,41,74,40.9c0,0,0,0,0,0
			c-8.1,0.1-14.8-6.4-14.9-14.5c0-1.4,0.2-2.8,0.6-4.1h-4.4v20.2c0,1,0.8,1.9,1.9,1.9c0,0,0,0,0,0h33.4c1,0,1.9-0.8,1.9-1.9
			c0,0,0,0,0,0L92.6,22.3L92.6,22.3z M74,16.6c-5.2-0.1-9.5,4.1-9.6,9.3c0.1,5.2,4.4,9.4,9.6,9.3c5.2,0.1,9.6-4.1,9.7-9.3
			c0,0,0,0,0,0C83.6,20.7,79.3,16.5,74,16.6C74,16.6,74,16.6,74,16.6L74,16.6z M92.6,9.5c0-1.2-1-2.2-2.2-2.2H85
			c-1.2,0-2.2,1-2.2,2.2v5.2c0,1.2,1,2.2,2.2,2.2h5.4c1.2,0,2.2-1,2.2-2.2C92.6,14.7,92.6,9.5,92.6,9.5z"/>
	</g>
	<g id="linkedin" transform="translate(99 2)">
		<path class="st0" d="M40.9,40.9h-7.1V29.8c0-2.7,0-6.1-3.7-6.1c-3.7,0-4.3,2.9-4.3,5.9v11.3h-7.1V18h6.8v3.1h0.1
			c1-1.8,3.3-3.7,6.7-3.7c7.2,0,8.5,4.7,8.5,10.9C40.9,28.3,40.9,40.9,40.9,40.9z M10.7,14.9c-2.3-0.1-4.1-1.9-4-4.2
			c0-2.2,1.8-4,4-4c2.3,0,4.1,1.8,4.1,4.1C14.8,13,13,14.9,10.7,14.9z M7.1,40.9h7.1V18H7.1C7.1,18,7.1,40.9,7.1,40.9z M44.4,0H3.5
			C1.6,0,0,1.5,0,3.5v41.1C0,46.4,1.6,48,3.5,48h40.9c2,0,3.6-1.6,3.6-3.5V3.5C48,1.5,46.4,0,44.4,0z"/>
	</g>
	<g id="dribbble" transform="translate(148 2)">
		<path id="Shape" class="st0" d="M24,0C10.8,0,0,10.8,0,24s10.8,24,24,24c13.2,0,24-10.8,24-24S37.2,0,24,0z M39.9,11.1
			c3,3.6,4.6,8.1,4.6,12.8c-0.7-0.1-7.4-1.5-14.3-0.7c-0.2-0.3-0.3-0.7-0.4-1.1c-0.4-1-0.9-2-1.4-3C36,16.1,39.4,11.6,39.9,11.1
			L39.9,11.1z M24,3.5c5.2,0,10,2,13.6,5.2c-0.4,0.5-3.5,4.7-10.8,7.4c-3.4-6.2-7.1-11.2-7.7-12C20.8,3.7,22.4,3.5,24,3.5z
			 M15.3,5.5c0.5,0.7,4.2,5.8,7.6,11.8c-9.6,2.6-18,2.5-19,2.5C5.3,13.5,9.6,8.2,15.3,5.5L15.3,5.5z M3.5,24v-0.6
			c0.9,0,10.8,0.2,21.1-2.9c0.6,1.1,1.1,2.3,1.7,3.5c-0.3,0.1-0.5,0.2-0.8,0.2C14.8,27.6,9.2,36.9,8.7,37.7C5.4,34,3.5,29.1,3.5,24z
			 M24,44.5c-4.7,0-9.1-1.6-12.6-4.3c0.4-0.8,4.5-8.8,16.1-12.8c0.1,0,0.1,0,0.1-0.1c2.9,7.5,4.1,13.7,4.4,15.5
			C29.5,44,26.8,44.5,24,44.5z M35.4,41c-0.2-1.2-1.3-7.2-4-14.6c6.4-1,12.1,0.6,12.8,0.9C43.3,33,40,37.9,35.4,41z"/>
	</g>
	<g id="github_1_">
		<path id="github" class="st0" d="M221,2c-13.3,0-24,10.8-24,24.1c0,10.6,6.9,19.7,16.4,22.8c1.2,0.2,1.6-0.5,1.6-1.2
			c0-0.6,0-2.1,0-4.1c-6.7,1.5-8.1-3.2-8.1-3.2c-1.1-2.8-2.7-3.5-2.7-3.5c-2.2-1.5,0.2-1.5,0.2-1.5c2.4,0.2,3.7,2.5,3.7,2.5
			c2.1,3.7,5.6,2.6,7,2c0.2-1.6,0.8-2.6,1.5-3.2c-5.3-0.6-10.9-2.7-10.9-11.9c0-2.6,0.9-4.8,2.5-6.5c-0.2-0.6-1.1-3.1,0.2-6.4
			c0,0,2-0.6,6.6,2.5c1.9-0.5,4-0.8,6-0.8c2,0,4.1,0.3,6,0.8c4.6-3.1,6.6-2.5,6.6-2.5c1.3,3.3,0.5,5.8,0.2,6.4
			c1.5,1.7,2.5,3.8,2.5,6.5c0,9.2-5.6,11.3-11,11.9c0.9,0.7,1.6,2.2,1.6,4.5c0,3.2,0,5.8,0,6.6c0,0.6,0.4,1.4,1.7,1.2
			c9.5-3.2,16.4-12.2,16.4-22.8C245,12.8,234.3,2,221,2"/>
	</g>
</g>
</svg>
