<svg xmlns="http://www.w3.org/2000/svg" width="800" height="800" viewBox="0 0 800 800">
  <title>basicR</title>
  <g>
    <path d="M196.42208,140.77484c-3.87,2.65631-6.40243,6.66406-10.2287,9.50528-15.47749,11.4928-31.46319,9.24008-43.75177-5.52957-9.62573-11.56919-7.82591-29.6429,4.54828-38.36732,13.50442-9.52135,23.57312-2.18558,28.131,11.2693,1.528,4.5106,1.96876,9.37372-1.18516,13.92909-7.42275,10.721-14.671,9.46251-22.9871.99456-1.25418-1.27712-1.7348-4.51634-3.74153-3.56308-2.19782,1.044-.284,3.65311.082,5.52043,1.87564,9.56925,9.85871,13.19165,18.18448,14.73269a5.69807,5.69807,0,0,0,4.19854-.94264c10.2129-6.64863,19.94529-13.81709,28.29224-22.85293,26.51665-28.70506,56.91888-52.629,92.18578-69.426,16.42521-7.823,34.65328-11.81073,52.9851-13.494,18.25543-1.67628,36.68007-2.91149,54.86114-.24283,22.4289,3.29217,44.07317,9.70364,63.90084,21.1606a51.12048,51.12048,0,0,1,15.16889,13.84178,79.34382,79.34382,0,0,0,11.859,12.95074,12.56308,12.56308,0,0,1,3.39587,4.979,29.93628,29.93628,0,0,0,4.66021,7.90791c6.7317,7.7774,9.3136,17.2549,10.98718,26.936,1.66634,9.63911,4.51615,19.02787,4.74263,29.00247.35539,15.65483-2.74,30.20309-10.60565,43.779-11.39717,19.67108-26.8895,34.95127-47.35649,45.10088-6.295,3.12166-11.97375,7.49926-18.58151,9.95627-10.4876,3.89976-21.20648,6.43529-32.6283,5.976-16.09962-.64741-32.26605.77411-48.33635-.89665-13.90889-1.44609-27.33818-5.19034-40.54022-9.7262-3.47584-1.19419-6.12574-4.00844-9.75884-4.97761-2.19735-.58618-4.44541-1.17033-6.3808.16092-7.316,5.03218-16.05631,5.21211-24.22122,7.32895-4.25188,1.10235-8.56,1.99307-12.85591,2.91832-2.86386.61679-4.17126,2.267-4.22031,5.24025a149.56119,149.56119,0,0,0,1.58419,21.02514c.28129,2.252,1.89092,3.754,3.81155,3.60183,8.728-.6915,16.11585,3.97657,24.22895,5.62806a29.10562,29.10562,0,0,1,12.68562,5.7249c6.868,5.49429,13.6919,11.04045,21.0884,15.83322,2.75113,1.78266,3.688,4.81868,5.00131,7.597,2.8746,6.0812,3.89233,6.44153,10.06687,4.2252,10.11574-3.631,19.0922-9.36168,28.10142-15.05071,1.97555-1.24746,3.94578-2.77954,6.13661-3.36674,19.66268-5.27018,37.55674-14.9386,56.35486-22.34066,19.27049-7.588,37.25091-17.8645,56.23484-26.0235,4.134-1.77673,7.86042-4.53248,11.69629-6.961,2.45384-1.55353,3.96721-1.59879,4.4383,1.78285,1.23605,8.873,2.51279,17.83792,1.17038,26.704-1.85485,12.25024-.31367,24.30777,1.02692,36.35849,1.74118,15.65147,4.45961,31.1936,3.55222,47.0506a134.07233,134.07233,0,0,0,1.3489,25.42122c1.5734,11.8.99181,23.71275,1.202,35.58156q.99214,56.0508-1.43922,112.05721a611.11839,611.11839,0,0,0,.394,68.56593c.24237,3.49944,1.36657,6.42738,4.18461,8.3001,7.881,5.23735,14.09316,12.28638,20.78771,18.796,13.65772,13.28021,28.17522,25.6,42.329,38.326.76205.68517,1.82967,1.28582,2.162,2.15306,2.5507,6.65616,7.77092,6.07231,13.18991,5.03326,4.31727-.82783,8.64089-1.62918,12.93937-2.54678,8.17178-1.74446,12.32015-7.25832,11.148-15.62178-2.44476-17.44313-2.08127-35.06414-3.57246-52.574-.89558-10.51711,1.62129-20.99685,4.78569-31.12346,2.35569-7.53853,7.04784-13.59211,11.8767-19.80155,9.16358-11.78322,21.408-18.33935,34.9146-23.26008,5.55451-2.0236,11.36786-1.78231,16.957-.63367,23.31135,4.79106,40.70707,18.06042,52.90877,38.22273,5.05033,8.34537,6.14834,17.597,4.49623,27.18557-.5723,3.32161-1.31465,6.63785-1.56163,9.98732-.8659,11.74312-5.59236,21.91021-11.55971,31.89372-6.83645,11.43756-16.35467,18.645-29.2381,21.24136-15.12422,3.04784-30.35732,4.78714-45.87145,3.19249-5.91451-.60791-10.63136-2.654-14.54166-7.08839-1.561-1.77017-3.60864-4.7459-5.9086-3.51651-2.01018,1.07454-1.14192,4.49779-.81961,6.91125a544.21,544.21,0,0,0,15.70039,77.01584c4.01719,14.1227,6.51774,28.54806,8.52641,43.06974.21665,1.56609.97656,3.43071-.93821,4.305-1.99558.9111-2.76778-1.11422-3.76865-2.23832-3.23979-3.63882-5.06661-8.23175-7.87562-12.12229-18.52787-25.662-36.65251-51.65307-58.16367-74.99615-10.13181-10.99454-19.76418-22.5914-30.88554-32.49776-15.50737-13.81316-31.37833-27.27335-47.69086-40.18276-11.72094-9.27575-23.52575-18.398-36.05929-26.56354-4.43747-2.89089-8.82511-5.78393-13.97373-7.28339-4.44815-1.29538-7.90737-4.42144-11.90167-6.56666-7.35888-3.95212-14.53462-8.24394-21.8244-12.32685-2.19708-1.23052-3.56956-2.8757-2.42288-5.32927,1.1718-2.50732,3.278-1.01618,5.01782-.62041,10.50081,2.38919,19.05644,8.75085,28.23232,13.84967,1.9999,1.11137,4.03746,2.99033,6.44743,1.35207,2.3809-1.61849,1.34053-4.157,1.23052-6.47393-.25555-5.38333-.77115-10.75883,1.01075-16.08976a18.17262,18.17262,0,0,0,.41056-6.96349c-2.26245-29.268-1.2753-58.59938-1.81646-87.9002-.55735-30.17713-.33007-60.37955-2.31445-90.51477-1.32853-20.175-2.83755-40.34344-4.69731-60.475-.56425-6.10783-1.48752-12.18124-1.73971-18.33581-.15079-3.68036-1.95662-4.86916-4.21247-2.91366-9.18667,7.96338-20.95276,10.99661-31.31478,16.69654-20.25472,11.14176-42.201,18.271-63.62913,26.627a41.1197,41.1197,0,0,0-6.03653,2.62339q-5.781,3.41322-1.70169,8.68146c13.16145,17.0931,11.026,48.79568-3.405,61.59129-7.35449,6.521-14.05763,12.47129-23.88517,15.33765-11.16009,3.25492-19.78907.64479-27.74463-6.87577-5.78479-5.46843-11.08031-11.36662-14.20041-18.77877-2.99307-7.11018-3.04013-14.32307,1.09655-21.1A89.80981,89.80981,0,0,1,290.00224,354.109c3.48086-2.91108,4.21249-5.71628,1.39819-9.41285-4.97288-6.53181-10.17146-12.87127-17.89636-16.53458-2.7488-1.30348-5.08755-3.45076-7.79036-4.8779-2.75083-1.45243-4.04342-.37547-3.96452,2.78861.54782,21.96309.57134,43.95654,1.24158,65.88782.47474,15.536-2.10712,31.04036.13775,46.50493,1.78091,12.26855-.04172,24.565.471,36.8407.37252,8.91843.70818,17.83916.95669,26.76172.49257,17.68345,4.02168,35.13758,3.48913,52.93636a104.54621,104.54621,0,0,0,2.80021,26.59329c.9795,4.23722,2.25469,8.558-.61043,12.71838-.4962.72049-.35128,2.00416-.24446,3,1.56668,14.60694.49614,29.2664.898,43.89557a16.78278,16.78278,0,0,1-.279,4.37741c-2.70109,11.1001,1.06337,20.25735,8.66481,28.06107,15.24883,15.65443,33.1994,27.87755,51.6241,39.33615,9.031,5.61652,16.057,3.10169,23.98336-4.067,4.06724-3.67855,5.02642-7.81183,6.57968-12.226,1.16611-3.31409,2.60232-6.53245,3.79982-9.83634,5.03506-13.89225,22.47631-19.22232,35.30019-14.518,11.96019,4.38766,21.44509,12.29523,26.11926,24.03448,3.93518,9.88321,5.64989,20.79732,2.43065,31.44179-4.15591,13.74175-11.3448,25.65727-22.88727,34.67776a16.61515,16.61515,0,0,1-9.53916,3.78181c-13.185.92876-24.09958-4.04157-33.63055-12.57551-30.34038-27.16623-63.41356-50.65568-97.50932-72.78425-4.79538-3.11221-9.58875-6.23436-14.275-9.50657-14.97747-10.45847-32.44562-15.41737-49.06035-22.23117-13.44644-5.51435-27.97231-7.729-41.492-13.09015-2.04315-.81016-4.14412-1.47481-6.185-2.29013-1.46191-.584-3.28137-.98783-2.56107-3.306.61855-1.99064,1.67834-3.50035,4.03857-3.218a23.40319,23.40319,0,0,1,4.28577.89537,102.40586,102.40586,0,0,0,30.20314,5.24932c4.36329.03887,8.07741,2.50168,12.228,3.41718,5.78028,1.27513,10.84829-.72517,13.82047-5.82345a24.27163,24.27163,0,0,0,3.14791-10.44693c1.21165-15.36782,1.51158-30.72742-.58783-46.05862-2.04873-14.96115-2.27792-30.02121-2.97871-45.08292-.85143-18.299-1.51764-36.59587-1.7147-54.89914-.15707-14.58729-1.287-29.16825,1.37321-43.78175,2.33732-12.83956,1.25822-25.94667-.2682-38.88825-.60342-5.11581-1.30813-10.16437-.47189-15.30424a52.50737,52.50737,0,0,0,.59958-5.24143c.86512-14.25864-1.96676-28.557.84475-42.84935.81792-4.15784-.50492-8.72557-.76077-13.11039-.14045-2.40688-1.45205-3.20129-3.6897-3.40628-8.842-.81019-17.4951-.44345-25.99875,2.5864-10.20983,3.63778-20.71052,6.56848-29.82064,12.7205-10.5826,7.14648-15.28993,17.22591-15.189,29.95082.0538,6.781,4.69966,10.56419,8.69308,14.62184,1.995,2.027,2.83034-.915,3.09735-2.48858a17.29961,17.29961,0,0,1,8.70428-12.59158c4.28977-2.5038,9.08065-4.21215,13.74589-1.75248,5.0672,2.67153,8.14929,7.19783,7.94051,13.24534-.52154,15.10617-10.19835,25.32419-26.80428,18.31331-8.218-3.46959-15.57792-8.07481-21.24707-15.15359-7.45821-9.31274-8.45111-24.59325-3.22788-35.34872,7.3213-15.07568,20.73122-22.74289,34.653-29.77565,14.02671-7.08578,28.50652-13.13363,44.29353-15.24006,4.15542-.55445,5.66358-2.95481,5.25742-7.0702-.38767-3.92807-.38645-7.89519-.53547-11.84591-.09506-2.52-1.0631-3.70038-3.86856-3.30556a137.3276,137.3276,0,0,1-32.42619,1.02593c-13.12615-1.2899-25.69349-5.09893-33.3494-17.58284-2.21666-3.6145-4.96665-6.89758-7.3095-10.44016a23.17341,23.17341,0,0,1-3.65842-15.12835c1.68218-18.88753,10.08372-34.53868,23.17668-48.01718,13.61668-14.01766,30.51338-15.48561,48.35086-12.842a64.60629,64.60629,0,0,1,22.32708,7.76006,3.85644,3.85644,0,0,0,1.176.58312c2.66938.41308,5.51963,2.732,7.93057.94042,2.49482-1.85388.687-4.915.22549-7.38034-3.29363-17.59261.49908-32.8251,14.38512-44.95047a62.19517,62.19517,0,0,0,9.13655-9.49218c8.49326-11.43162,20.3839-16.181,33.89493-16.789,15.28357-.68771,30.16924,1.19051,42.738,11.39626,20.152,16.3633,23.99687,37.50539,19.12971,61.77045-2.27905,11.36208-7.84037,21.34028-11.47664,32.10233-1.26907,3.756-4.10989,6.74521-6.79131,9.66571-5.13127,5.58892-10.33887,11.10775-15.2214,16.34118,4.67936-.55537,10.38267-1.19277,16.075-1.9163,10.90321-1.38588,21.78119-2.73779,31.83976-7.78279,5.41-2.71341,10.62538-5.59635,15.121-9.67977a10.89364,10.89364,0,0,1,2.38517-1.93284c19.5842-9.35964,25.753-28.21782,32.78229-46.407a30.714,30.714,0,0,0,1.24743-16.51714c-1.963-10.62767-4.7863-21.12753-11.26936-30.16884a28.50977,28.50977,0,0,1-3.41946-5.6278c-4.16627-10.20318-12.09536-17.6791-19.35782-25.34971a60.04734,60.04734,0,0,0-30.82927-17.84281c-29.43274-6.31273-57.8046-2.84048-84.24763,12.02587-10.52441,5.91688-18.95531,14.70318-27.87148,22.74989a154.81843,154.81843,0,0,1-13.13935,10.99307c-4.98254,3.58582-9.86448,7.309-13.807,12.16742a28.54415,28.54415,0,0,1-7.93659,6.88838A43.88059,43.88059,0,0,0,196.42208,140.77484Z"/>
    <path d="M432.92665,368.57725c-.48487,22.82386,1.46877,46.48939,2.09139,70.19356.49472,18.83509,3.55431,37.59942,5.38545,56.40391a135.61885,135.61885,0,0,1-1.717,40.63893c-.31139,1.51729-.282,3.66954-2.46766,3.53117-2.031-.12853-4.02756-1.02041-4.67382-3.36037a5.394,5.394,0,0,1-.19447-2.17528c1.44571-9.50018-.53907-19.0009.04848-28.50494a76.334,76.334,0,0,0-1.80771-20.05552c-1.579-7.74176-1.53116-15.71123-1.90435-23.59963a19.38989,19.38989,0,0,0-1.38026-6.78341c-2.092-5.02655-1.22561-10.48027-.745-15.57888,1.34744-14.29263-.06628-28.36765-1.79989-42.48554-.967-7.875-.57775-15.81829-.35528-23.71257.49585-17.59588.42266-35.13092-2.59951-52.54911-.27928-1.60972-1.6011-4.087,1.21114-4.83549,2.52951-.67324,3.43656,1.47219,4.48053,3.31391,4.94429,8.72256,6.19467,18.19986,5.90844,28.01138A168.92357,168.92357,0,0,0,432.92665,368.57725Z"/>
    <path d="M196.42208,140.77484c3.02117-6.47922,7.90274-10.49185,15.12274-11.40507A95.61593,95.61593,0,0,1,196.42208,140.77484Z" fill="#161616"/>
    <path d="M331.88774,51.97921c15.89848-4.50772,30.90452-6.6479,46.4201-4.21425,19.44565,3.05011,38.6909,6.74155,56.9484,14.42289A90.73082,90.73082,0,0,1,453.576,72.58106c9.433,6.88616,19.46058,13.077,25.72372,23.595,2.01818,3.38924,6.72537,4.6709,8.80631,8.4131,3.62648,6.52142,8.61716,12.664,10.56388,19.654,3.21084,11.5288,7.0734,23.2595,4.87256,35.67292a69.803,69.803,0,0,0-.59,7.88575c-1.207,19.6214-10.96152,35.52284-23.252,49.69571-20.219,23.31567-46.62139,34.54-77.20644,36.6979a403.29509,403.29509,0,0,1-43.48118.275c-11.83088-.43977-23.25482-1.784-34.48837-5.52747-4.90781-1.63552-9.25316-4.40031-14.11617-6.06547-2.16726-.7421-2.46015-2.41435-.84525-4.12256,2.38866-2.52667,5.10237-4.3299,8.84264-4.11341,2.919.16894,5.87583-.16534,8.77813.11463,14.99514,1.44658,29.0574-3.31707,43.196-6.846,17.18031-4.28815,30.89252-14.60775,42.28374-27.89264,9.9655-11.62219,17.04352-24.80329,19.98655-40.03335,3.7894-19.60994-.57781-37.19223-12.68187-52.97212A89.54814,89.54814,0,0,1,409.2,89.00858a8.83732,8.83732,0,0,0-1.70075-2.52927c-9.14439-9.35141-18.61329-18.30949-30.32524-24.48356a7.16914,7.16914,0,0,0-1.16987-.60557c-12.2591-3.754-24.14385-9.139-37.39679-8.579a33.9767,33.9767,0,0,1-3.951-.13989A23.35357,23.35357,0,0,1,331.88774,51.97921Z" fill="#fff"/>
    <path d="M253.66794,328.26c2.26441,15.70324-.28761,31.29809-1.00687,46.93617a131.425,131.425,0,0,0,.66911,21.95495,16.29273,16.29273,0,0,1,.22548,3.06655c-1.91119,27.29133.85371,54.43164,2.40772,81.62434,1.06133,18.57136,1.32947,37.188,1.96876,55.78382a8.1857,8.1857,0,0,0,.37659,3.03495c6.93161,15.13388,4.74438,30.95233,3.67107,46.71232-1.14461,16.80746-2.09582,33.628-3.21208,50.43748-.49821,7.50321,1.22756,14.89081.94552,22.37974-.16814,4.46439-.873,4.96684-4.92864,3.11146-11.84-5.41657-23.06366-12.237-35.77327-15.681a14.38754,14.38754,0,0,1-3.19513-1.45834c-3.59761-2.025-3.66051-3.75141-.21128-5.94855,2.22153-1.41511,4.73883-2.46839,6.69822-4.17279a21.09375,21.09375,0,0,0,7.62925-17.4413c-.89394-30.7526-2.24451-61.49226-3.31277-92.23563-.64543-18.57468-2.489-37.12435-2.0638-55.75525.224-9.8167.57432-19.63055.88021-29.44531.55812-17.90836-1.7396-35.70913-1.96894-53.59557-.29525-23.028,2.77846-45.94076,2.02255-68.98382-.1771-5.39847,2.108-6.92647,7.6252-6.19875,3.63033.47885,7.22563,1.21739,10.846,1.77914,7.41651,1.15092,9.46411,3.44894,9.70267,11.0172C253.6958,326.20694,253.66794,327.23393,253.66794,328.26Z" fill="#fff"/>
    <path d="M468.08042,565.37015c.3585-14.61242-.411-29.37813-.2828-44.17735.17874-20.62862-1.11929-41.29-1.62518-61.94435-.4701-19.19166-1.90628-38.3743-1.404-57.57177.30524-11.6673-1.81047-22.88517-3.9264-34.21617-.95937-5.13753-.84047-10.50092-.95459-15.76742-.403-18.60073-4.03373-36.99031-3.38247-55.68366.186-5.33866,1.10853-8.77176,6.42136-11.39656,6.91987-3.41871,13.12145-8.27868,19.68714-12.43142,4.53263-2.86683,4.7066-2.45977,6.31081,2.49148,1.48319,4.57771,1.33715,9.37416,1.15642,13.74575-.63657,15.39925,2.29233,30.6312,1.09591,46.06608-1.178,15.196.14916,30.38656,2.67355,45.4912,3.15559,18.88092,3.06136,37.93352,1.96653,57.01275a535.49208,535.49208,0,0,0,1.85313,82.94984c1.21505,12.41792-.38589,24.88427.21256,37.34965.69435,14.46348.73575,28.96175.87637,43.44666.0531,5.46945-1.81635,6.44074-6.32972,3.321-7.1105-4.915-14.02223-10.11678-21.05974-15.13877-1.908-1.36147-2.326-3.25466-2.4246-5.36819C468.66475,577.54791,468.37484,571.54738,468.08042,565.37015Z" fill="#fff"/>
    <path d="M316.32319,179.44574c-.487,6.58682-.60615,19.87629-8.44837,31.44a109.02656,109.02656,0,0,1-10.104,12.03243c-2.01332,2.2071-4.97106,1.33044-7.48742.5424-6.86849-2.151-12.62692-6.316-17.71537-11.15486a131.81614,131.81614,0,0,1-14.7622-16.23621c-9.56238-12.76066-12.17281-26.64548-6.4964-42.14313,2.84789-7.77526,4.91385-15.65362,11.58282-21.21785a35.12051,35.12051,0,0,1,17.82409-7.90206c4.21317-.60346,7.97619.22229,11.23125,3.55317,2.1963,2.24748,5.31946,3.56024,7.89282,5.47305C312.9695,143.59166,317.18321,157.24417,316.32319,179.44574Z" fill="#fff"/>
    <path d="M697.9281,616.63868c.71663,13.21455-7.78621,22.0752-18.481,29.30742a51.1247,51.1247,0,0,1-20.75072,8.16379c-9.37014,1.45725-18.42548.2523-26.06071-6.13487-5.6343-4.71331-7.2864-10.56779-6.567-18.00974.71217-7.36618,4.47395-12.49942,9.00428-17.54932.73746-.82208,1.3532-2.229,2.76734-1.64046,1.32727.55249,1.08389,2.01388,1.01274,3.11951-.29079,4.522-1.00538,9.00954,1.70575,13.21627,1.41151,2.19015,2.95586,3.96747,5.45426,4.815,2.35977.80049,4.68969,1.69409,7.06669,2.43821,10.738,3.36124,17.23158,1.027,23.12043-8.65941,7.27088-11.95966,5.094-18.30822-5.04562-28.65217-2.4104-2.459-5.73185-4.04629-8.7007-5.9297a9.89878,9.89878,0,0,0-7.57386-1.59079c-7.3358,1.66456-14.47009,3.778-19.832,9.61218-3.66524,3.98809-7.82326,7.513-11.05671,11.91471-.84769,1.1539-1.94269,2.4736-3.62642,1.95386-1.721-.53128-.8819-2.20465-1.16152-3.40408-2.827-12.12562,2.47247-22.37609,7.47539-32.69717.78246-1.61415,2.44981-2.97879.25568-4.94972-1.15819-1.04028-.15678-2.53539.78847-3.48011C629.896,566.3102,635.5169,559.25981,638,557.5c6.188-4.38531,9.19961-3.49244,15.27724-8.1104,5.87945-4.46761,13.12129-2.58,20.71083,3.89547,5.61877,4.79375,7.74047,11.63289,10.71539,17.95766,4.99675,10.6231,8.03541,21.96911,11.85539,33.02373C697.80569,607.87451,698.14169,611.71479,697.9281,616.63868Z" fill="#fff"/>
    <path d="M390.877,678.33492c11.37264.02636,24.12675,9.12154,28.78269,21.31835,3.79458,9.9404,5.58325,20.38852,3.54811,31.00813-2.62429,13.69391-11.67909,22.67837-23.34161,29.07488-5.6925,3.12214-11.527.431-16.71391-2.3915a44.06676,44.06676,0,0,1-10.12695-7.6586c-6.61364-6.64392-10.69169-14.22267-9.59138-23.95383.69172-6.11763.15525-12.26924.302-18.39573.26838-11.2055,5.36369-19.86657,14.9836-25.75193A23.74658,23.74658,0,0,1,390.877,678.33492Z" fill="#fff"/>
    <path d="M216.6453,229.1399c-.04693,7.59559.63621,17.40281-.52935,27.1973-.46187,3.88116-1.6376,5.77556-6.1732,4.66308a90.80808,90.80808,0,0,0-13.92989-1.7677c-19.85436-1.68658-27.5806-19.03242-28.75867-32.40694-1.228-13.94183,5.53443-24.84123,12.52073-35.708a114.7763,114.7763,0,0,1,8.95187-11.39726c5.88421-7.01009,13.55666-6.5432,18.56561.99444a45.07106,45.07106,0,0,1,7.92606,23.8498C215.47088,212.02731,216.06869,219.4783,216.6453,229.1399Z" fill="#fff"/>
    <path d="M274.36016,114.02983c8.20188-3.40481,14.77675-10.63865,24.87189-8.48306a50.00655,50.00655,0,0,0,10.48819.88758c19.52778-.04359,36.61117,18.93421,38.27154,36.05915.79312,8.1796,2.33244,16.21216.642,24.399-.44313,2.14612-.7151,4.44638-1.70465,6.34236-9.24286,17.70908-16.87576,36.473-32.29321,50.21494-.54576.48642-1.02485,1.04772-1.57149,1.533-.66536.59067-1.42456,1.22437-2.28482.443-.79523-.72235-.48336-1.64322.00489-2.40042,2.06223-3.19817,4.23314-6.32764,6.246-9.556,14.87973-23.86538,15.636-48.7811,3.38086-73.51571-8.13062-16.41-23.29688-23.531-41.26458-24.80853-1.30729-.09294-2.62133-.09575-3.9268-.205C275.01722,114.9232,274.84366,114.55783,274.36016,114.02983Z" fill="#fff"/>
    <path d="M727.71634,604.012c.31265,3.76247-.85784,7.26889-1.93673,10.76172A113.07074,113.07074,0,0,1,715.339,639.39953c-8.11009,13.65343-20.78143,19.12621-36.02109,19.8713a15.46692,15.46692,0,0,1-3.4786-.40978,2.33032,2.33032,0,0,1-2.19037-1.85071,2.55362,2.55362,0,0,1,1.45344-2.5106,9.97078,9.97078,0,0,1,2.31107-1.25392c21.07239-7.08994,33.96608-34.8761,26.89348-59.59967a131.53125,131.53125,0,0,0-15.62973-34.67277,20.5612,20.5612,0,0,0-4.96577-4.91482c-1.21172-.95947-2.09678-2.20519-1.33-3.809.75856-1.58687,2.17093-1.10332,3.46378-.78788,5.96966,1.45645,12.19929,2.18221,17.62557,5.27294,3.295,1.8767,7.40893,3.452,6.62873,8.63756-.11469.76243.47125,1.30923,1.11094,1.75885,10.58031,7.43507,15.6816,17.69736,15.85309,30.55823C727.10049,598.46588,727.48949,601.23784,727.71634,604.012Z" fill="#fff"/>
    <path d="M222.73759,232.31448c1.31967-11.1485.77867-22.2606-.30829-33.36182-.669-6.83273-3.34415-13.0127-5.82082-19.27645-.623-1.57573-2.047-3.255-.46854-4.86308,1.41391-1.44051,3.33107-.74154,5.00151-.29163,12.26074,3.30231,20.10124,11.9908,24.23084,23.12053,6.84193,18.43995,7.48014,37.79408,4.993,57.24264-.29055,2.27214-1.96365,2.76791-3.79445,2.88643a184.6628,184.6628,0,0,0-19.185,2.372c-3.666.62664-4.66836-1.37946-4.65719-4.54566C222.756,247.8365,222.73759,240.07546,222.73759,232.31448Z" fill="#fff"/>
    <path d="M315.36211,373.41537c1.4743-5.94111-2.81892-10.97247-5.12492-16.51621-2.30806-5.54876-2.53566-5.45252,2.60514-8.56006,3.13189-1.89313,6.36741-3.63828,9.363-5.72731,3.36437-2.34618,5.947-1.59267,8.35116,1.35272,4.83141,5.91908,6.78634,12.95385,7.38,20.32486a65.09487,65.09487,0,0,1-2.41488,24.36386c-4.45911,14.50015-13.68049,24.54965-28.84022,28.549-6.70521,1.769-11.90535-1.85963-17.48777-4.18992-1.27683-.533-1.18912-1.7087.35721-2.01657,19.56144-3.89461,23.56542-19.03137,25.71461-35.51654C315.322,375.04528,315.30922,374.60232,315.36211,373.41537Z" fill="#fff"/>
    <path d="M594.4938,691.14414c6.94825-.106,14.03926-2.88788,20.49971-7.59126,3.63673-2.64761,4.24431-2.43408,4.90086,1.8978.5351,3.53032,2.21593,7.04516.36092,10.74326-.38347.76453-.02336,2.04165.281,2.99039,3.98579,12.42334,5.96606,25.35364,9.6052,37.86557a23.88278,23.88278,0,0,1,1.085,10.39882c-.30412,1.93732.48768,3.397,1.428,4.90935q2.66815,4.29147,5.249,8.6367c.44135.74541.91084,1.72684-.08478,2.32761-.99089.598-1.61785-.33929-2.14661-.99395-.64114-.79363-1.12372-1.71305-1.72733-2.53975C625.13913,747.727,617.5,734.86334,608.77849,722.76554c-5.20025-7.21327-11.61265-13.55179-17.4645-20.29713a12.23151,12.23151,0,0,1-3.04434-4.772C586.93341,692.56725,588.13891,691.03123,594.4938,691.14414Z" fill="#fff"/>
    <path d="M258.10682,305.17551c1.16869-9.60351-.15568-11.32812,11.09465-7.77765C286.506,302.859,301.9882,311.305,314.4513,324.75035a36.49965,36.49965,0,0,1,2.71645,3.44148c3.851,5.31606,3.31828,7.07464-2.892,9.58144-1.08327.43724-2.25923.67164-3.29707,1.19036-11.29345,5.64462-9.60725,4.01759-15.43676-4.21274-5.92777-8.36908-13.90938-14.1067-22.97087-18.51225-3.54856-1.72523-7.197-3.2546-10.84836-4.75556C259.05514,310.3865,257.87855,308.48461,258.10682,305.17551Z" fill="#fff"/>
    <path d="M177.90915,261.84089c-2.29526,1.28627-3.95343.36526-5.4788-.28044-7.44235-3.15033-14.5578-6.8585-20.76259-12.1719-3.52548-3.019-5.20056-6.88768-6.41621-11.22557-3.11908-11.13017-1.85658-21.49009,3.49266-31.85732,5.224-10.12454,11.62983-18.94028,21.17162-25.26824,2.17466-1.44218,4.54567-2.58925,6.83311-3.85991.67678-.376,1.42068-.57888,1.9899.11418a1.557,1.557,0,0,1-.12136,2.03023,55.00223,55.00223,0,0,1-4.09322,4.574c-8.572,8.25522-12.323,18.445-13.27048,30.19216-1.13134,14.02731.69059,27.13716,8.73335,39.03416C172.17468,256.35817,175.43554,258.64663,177.90915,261.84089Z" fill="#fff"/>
    <path d="M304.87638,377.20429c-.28629,3.96922-.31225,7.92147-1.30934,11.80269a18.11493,18.11493,0,0,1-13.08174,13.5742,10.20794,10.20794,0,0,1-10.22392-2.40331c-3.79888-3.7297-4.61924-8.7781-3.34958-13.89a23.94678,23.94678,0,0,1,3.10083-6.76443,122.80119,122.80119,0,0,1,16.68673-20.35754c1.29433-1.32061,2.77-2.968,4.926-2.17915,2.21206.80941,2.02642,3.00835,2.16884,4.87936C304.18327,366.97666,304.51933,372.0913,304.87638,377.20429Z" fill="#fff"/>
    <path d="M237.42377,286.24055c-.87567.06124-1.751.12811-2.627.18277-10.09737.63048-10.19289.55225-10.474-9.72209-.04392-1.60574.08133-3.21557.1057-4.82386.05369-3.54468,1.72158-5.49751,5.24577-6.517,5.57227-1.61189,11.30638-1.35714,16.94567-2.09547a3.1731,3.1731,0,0,1,3.83445,3.27136q.34386,8.09792.21246,16.21285c-.04228,2.357-1.961,3.098-4.03408,3.14346-3.06824.06722-6.139.01737-9.20872.01737Z" fill="#fff"/>
    <path d="M670.68622,615.487c.21643,6.635-4.959,10.24344-8.41453,14.79079a3.07054,3.07054,0,0,1-2.442.56565c-5.41909-.7882-12.59419-8.06526-13.58373-13.56747a7.39009,7.39009,0,0,1,1.36507-5.38467c1.31637-2.10935,2.68772-4.18434,4.01381-6.28773,4.05654-6.43414,12.38881-6.332,16.30732.2916A18.17766,18.17766,0,0,1,670.68622,615.487Z" fill="#fff"/>
    <path d="M258.5638,243.32279c-.40232-7.23566-.87669-14.9659-1.22335-22.70187-.06642-1.48238-.83094-3.565,1.16015-4.24546,1.67-.57072,2.37609,1.36117,3.35012,2.34651,3.40009,3.43957,6.81249,6.90378,11.14738,9.1344,3.379,1.73871,5.00749,5.26008,8.09513,7.27971,1.76782,1.1564.7678,2.65516-.38773,3.647a73.88033,73.88033,0,0,1-19.36123,11.8662c-2.27673.96874-3.33959-.1364-3.23127-2.46052C258.181,246.73055,258.37733,245.27828,258.5638,243.32279Z" fill="#fff"/>
    <path d="M238.34909,295.28609q3.50967,0,7.01934-.00048c3.49682-.00373,5.35723,1.29092,5.26163,5.23871-.19039,7.86086-.64621,8.26838-8.43886,6.21723-3.95673-1.04146-7.97278-1.87512-11.98846-2.669-2.68348-.5305-4.19909-1.80741-4.03259-4.734.17406-3.05978,2.044-3.94345,4.71723-3.94012q3.731.00468,7.46189.00065Z" fill="#fff"/>
    <path d="M360.2435,736.49236c.2153,1.59734.17589,2.4751-.64952,3.05863-1.05918.74863-2.0123.21144-2.77642-.47953-4.76536-4.30927-9.54573-8.60507-14.19762-13.03494-1.44263-1.37382-1.131-2.90147,1.083-2.87189,4.18761.05584,7.64871-1.6847,11.01206-3.8196,2.647-1.68019,4.17712-1.04222,4.288,2.13039C359.18683,726.73688,359.149,732.01057,360.2435,736.49236Z" fill="#fff"/>
    <path d="M156.39169,119.87654c2.69222.08212,3.09637-1.64614,1.97764-4.44167-.5021-1.2547-2.098-2.597-.46694-3.89834,1.56613-1.24952,3.37013-.567,4.93409.336,6.74934,3.897,7.79769,13.21409,1.99357,17.26338-2.54233,1.77369-5.17958,2.05141-7.80621.42476a8.58114,8.58114,0,0,1-4.46429-7.5621C152.55861,119.9795,153.42854,118.9625,156.39169,119.87654Z" fill="#fff"/>
    <path d="M173.93972,372.04254c-.02288,5.0709-2.73191,8.0146-7.30366,7.93632-4.16838-.07133-7.15735-4.01016-7.138-9.40633.01644-4.59193,2.92787-8.04863,6.86614-8.15207C170.48146,362.31229,173.96366,366.73521,173.93972,372.04254Z" fill="#fff"/>
    <path d="M505.00281,467.61406a59.6985,59.6985,0,0,1-.33885-16.67167q.57134.01289,1.14268.02572Q505.40474,459.29108,505.00281,467.61406Z" fill="#383838"/>
  </g>
</svg>
