<svg xmlns="http://www.w3.org/2000/svg" width="800" height="800" viewBox="0 0 800 800">
  <title>basicR</title>
  <g>
    <path d="M730.52081,572.63068C718.31909,552.46832,700.9234,539.199,677.612,534.4079c-5.58917-1.14862-11.40253-1.38989-16.957.63373-13.50665,4.92071-25.751,11.4768-34.91461,23.26007-4.82886,6.20941-9.521,12.263-11.87671,19.80151-3.16437,10.12665-5.68128,20.60638-4.78565,31.12347,1.49115,17.50989,1.12769,35.13092,3.57245,52.574,1.17212,8.36346-2.97619,13.87732-11.148,15.62177-4.29846.9176-8.62207,1.719-12.93939,2.54681-5.41895,1.03906-10.63916,1.62286-13.18988-5.03326-.33234-.86725-1.4-1.4679-2.162-2.15308-14.15381-12.726-28.67132-25.04578-42.329-38.326-6.69452-6.50958-12.90674-13.55859-20.78772-18.796-2.818-1.87268-3.9422-4.80066-4.18457-8.30005a611.13119,611.13119,0,0,1-.394-68.566q2.41662-56.02935,1.43927-112.05719c-.21015-11.86877.3714-23.78161-1.202-35.58154a134.07319,134.07319,0,0,1-1.34894-25.4212c.90741-15.85706-1.811-31.39917-3.55218-47.05066-1.34058-12.05072-2.88178-24.10822-1.02692-36.35846,1.34241-8.866.06568-17.831-1.17041-26.704-.47107-3.38165-1.98443-3.33637-4.43829-1.78284-3.83588,2.42847-7.56232,5.18427-11.69629,6.96094-18.98395,8.15906-36.96435,18.43548-56.2348,26.02356-18.79816,7.402-36.6922,17.07043-56.35486,22.34064-2.19086.58721-4.16107,2.11926-6.13666,3.36669-9.00921,5.68909-17.98565,11.41974-28.10138,15.05073-6.17456,2.21636-7.19232,1.856-10.06689-4.22516-1.3133-2.77832-2.25018-5.81433-5.00128-7.597-7.39655-4.79278-14.2204-10.33893-21.08844-15.83325a29.10481,29.10481,0,0,0-12.68561-5.72485c-8.1131-1.65149-15.501-6.31958-24.22894-5.62812-1.92066.15222-3.53028-1.34985-3.81159-3.6018a149.56937,149.56937,0,0,1-1.58417-21.02515c.04908-2.97321,1.35645-4.62347,4.22034-5.24023,4.2959-.92524,8.604-1.816,12.8559-2.91834,8.16491-2.11682,16.90527-2.29675,24.22119-7.329,1.93542-1.33124,4.18347-.74707,6.3808-.16089,3.63311.96918,6.283,3.78345,9.75885,4.9776,13.202,4.53589,26.63134,8.28009,40.54022,9.7262,16.07031,1.67078,32.23675.24927,48.33636.89667,11.42182.45929,22.14069-2.07624,32.6283-5.976,6.60779-2.457,12.2865-6.83459,18.58148-9.95623,20.467-10.1496,35.95935-25.42981,47.35651-45.1009,7.86566-13.57586,10.96106-28.12414,10.60565-43.77893-.22644-9.97461-3.07629-19.3634-4.74262-29.0025-1.67358-9.68109-4.25549-19.15857-10.98718-26.936a29.93667,29.93667,0,0,1-4.66022-7.9079,12.56207,12.56207,0,0,0-3.39587-4.979,79.34667,79.34667,0,0,1-11.859-12.95075,51.12036,51.12036,0,0,0-15.16888-13.8418c-19.8277-11.457-41.472-17.8684-63.90088-21.16058-18.181-2.6687-36.60571-1.43347-54.86115.2428-18.33178,1.68335-36.55987,5.671-52.985,13.494-35.26691,16.797-65.66913,40.72094-92.18579,69.426-8.347,9.03583-18.07935,16.20429-28.29224,22.85291a5.69826,5.69826,0,0,1-4.19855.94269c-8.3258-1.54108-16.30884-5.16346-18.18451-14.73273-.366-1.86731-2.27984-4.47638-.082-5.52045,2.00678-.95325,2.48737,2.286,3.74152,3.56311,8.3161,8.468,15.56439,9.7265,22.98712-.99457,3.15393-4.55535,2.71313-9.41851,1.18518-13.92907-4.55792-13.4549-14.62659-20.79065-28.131-11.26929-12.37415,8.72436-14.174,26.7981-4.54828,38.36731,12.28857,14.76965,28.27429,17.02234,43.75177,5.52954,3.82629-2.84119,6.3587-6.84894,10.2287-9.50525,3.02118-6.47925,7.90277-10.49188,15.12274-11.40509l-.00189.00171.00287-.0014a28.54333,28.54333,0,0,0,7.93658-6.88837c3.94251-4.85846,8.8244-8.5816,13.807-12.16742a154.80016,154.80016,0,0,0,13.13934-10.9931c8.9162-8.04669,17.34711-16.833,27.87152-22.74988,26.443-14.86633,54.81488-18.33856,84.24762-12.02588a60.04769,60.04769,0,0,1,30.82929,17.84283c7.26245,7.6706,15.19152,15.14655,19.35778,25.34974a28.51058,28.51058,0,0,0,3.4195,5.62774c6.483,9.04132,9.30633,19.5412,11.26935,30.16889a30.71409,30.71409,0,0,1-1.24744,16.51715c-7.0293,18.18908-13.19806,37.0473-32.78229,46.40692a10.89535,10.89535,0,0,0-2.38519,1.93286c-4.49567,4.08344-9.71106,6.96637-15.121,9.67975-10.0586,5.045-20.93653,6.39691-31.83973,7.78277-5.69244.72358-11.39575,1.361-16.07507,1.91633,4.88251-5.2334,10.09009-10.75226,15.22138-16.34119,2.68145-2.92047,5.52227-5.90967,6.79132-9.66571,3.63629-10.762,9.19757-20.74024,11.47662-32.1023,4.86719-24.26507,1.02228-45.40716-19.1297-61.77044-12.56873-10.20575-27.45441-12.084-42.738-11.3963-13.511.608-25.40167,5.35736-33.89489,16.789a62.196,62.196,0,0,1-9.1366,9.49218c-13.886,12.12537-17.67871,27.35785-14.38507,44.95044.46155,2.4654,2.26929,5.52649-.22553,7.38038-2.41095,1.7915-5.26116-.52735-7.93054-.94043a3.85751,3.85751,0,0,1-1.176-.58313,64.6068,64.6068,0,0,0-22.32709-7.76008c-17.83752-2.64361-34.73419-1.17565-48.35089,12.842-13.093,13.47852-21.49451,29.12964-23.1767,48.01716a23.17365,23.17365,0,0,0,3.65845,15.12835c2.34283,3.54261,5.09283,6.82569,7.30951,10.44019,7.65588,12.48389,20.22327,16.29291,33.34936,17.58282a137.32346,137.32346,0,0,0,32.42621-1.02594c2.80548-.39477,3.7735.78553,3.86859,3.30561.149,3.95068.14777,7.91784.53547,11.84588.40612,4.11542-1.102,6.51575-5.25745,7.07019-15.787,2.10645-30.26678,8.1543-44.29352,15.24-13.92175,7.03278-27.33166,14.7-34.653,29.7757-5.22321,10.75543-4.23029,26.036,3.2279,35.34869,5.66913,7.0788,13.02912,11.684,21.24707,15.15357,16.6059,7.01092,26.28272-3.20709,26.80426-18.3133.2088-6.04748-2.87329-10.57379-7.94049-13.24536-4.66522-2.45965-9.45611-.75128-13.74591,1.75251a17.29968,17.29968,0,0,0-8.70428,12.59161c-.267,1.57355-1.10236,4.51556-3.09735,2.48859-3.99341-4.05768-8.63929-7.84089-8.69306-14.62189-.101-12.72492,4.60639-22.80432,15.189-29.95081,9.1101-6.152,19.61077-9.0827,29.82061-12.72052,8.50367-3.02984,17.1568-3.39654,25.99878-2.58636,2.23761.20495,3.54926.99939,3.6897,3.40625.25586,4.38482,1.57867,8.95257.76074,13.11041-2.81146,14.29236.02039,28.5907-.84472,42.84937a52.50766,52.50766,0,0,1-.59961,5.24139c-.83625,5.13989-.13153,10.18842.47192,15.30426,1.52643,12.94159,2.60553,26.04871.26819,38.88825-2.66022,14.61352-1.53027,29.19445-1.37323,43.78173.19708,18.30329.86328,36.60016,1.71472,54.89917.70081,15.06171.93,30.12177,2.9787,45.08289,2.09943,15.33124,1.7995,30.69079.58783,46.05865a24.27122,24.27122,0,0,1-3.14789,10.4469c-2.97217,5.09827-8.04022,7.09858-13.8205,5.82349-4.15057-.91553-7.86468-3.37836-12.228-3.41724a102.40673,102.40673,0,0,1-30.20319-5.24926,23.39958,23.39958,0,0,0-4.28576-.89539c-2.36023-.28235-3.42,1.22742-4.03852,3.218-.72033,2.31817,1.09912,2.722,2.561,3.306,2.04089.81531,4.14184,1.47992,6.185,2.2901,13.51965,5.36108,28.04553,7.5758,41.492,13.09015,16.61468,6.81378,34.08289,11.7727,49.0603,22.23114,4.68628,3.27221,9.47962,6.39441,14.275,9.50659,34.09576,22.1286,67.16894,45.618,97.50934,72.78424,9.53094,8.53393,20.44549,13.50427,33.63055,12.5755a16.61463,16.61463,0,0,0,9.53912-3.7818c11.54248-9.02045,18.73139-20.936,22.88727-34.67773,3.21924-10.64447,1.50458-21.5586-2.4306-31.44184-4.6742-11.73919-14.15912-19.64679-26.11926-24.03442-12.82392-4.70435-30.26514.62573-35.30024,14.518-1.19751,3.3039-2.63366,6.52228-3.7998,9.83637-1.55328,4.41418-2.51245,8.54742-6.57965,12.226-7.92639,7.16864-14.95239,9.68347-23.9834,4.067-18.42468-11.45862-36.37524-23.6817-51.62408-39.33618-7.60145-7.80371-11.36591-16.96094-8.6648-28.061a16.78165,16.78165,0,0,0,.27893-4.37744c-.40185-14.62915.6687-29.28857-.898-43.89557-.10687-.99585-.25177-2.27954.24445-3,2.86511-4.1604,1.5899-8.4812.61041-12.71838a104.54748,104.54748,0,0,1-2.80017-26.59333c.53253-17.79876-2.99658-35.25293-3.48914-52.93634-.24853-8.92254-.58416-17.84332-.95672-26.76171-.5127-12.27576,1.30993-24.57215-.471-36.8407-2.24487-15.4646.337-30.969-.13776-46.505-.67022-21.93127-.69378-43.92474-1.24157-65.88781-.07892-3.16407,1.21368-4.241,3.96447-2.78864,2.70282,1.42719,5.04157,3.57446,7.79041,4.87793,7.72485,3.66333,12.92346,10.00275,17.89636,16.53455,2.81427,3.69659,2.08264,6.50177-1.39819,9.4129a89.80868,89.80868,0,0,0-19.01544,22.32947c-4.13672,6.777-4.08966,13.98986-1.09656,21.1,3.12,7.41217,8.41559,13.31031,14.20038,18.77875,7.95556,7.52057,16.58453,10.13068,27.74463,6.87579,9.82757-2.86639,16.5307-8.81665,23.88519-15.33764,14.431-12.7956,16.56641-44.49817,3.405-61.59131q-4.06476-5.27911,1.70166-8.68146a41.12228,41.12228,0,0,1,6.03656-2.62341c21.428-8.356,43.37439-15.48517,63.62909-26.62695,10.36206-5.69989,22.12811-8.73316,31.31482-16.69654,2.25586-1.95544,4.06164-.76666,4.21246,2.9137.2522,6.15454,1.17548,12.228,1.73968,18.33581,1.85981,20.13153,3.36878,40.29993,4.69733,60.475,1.98438,30.13519,1.75708,60.33765,2.31445,90.51477.54114,29.30078-.446,58.6322,1.81647,87.90021a18.17117,18.17117,0,0,1-.41058,6.96344c-1.78192,5.33093-1.2663,10.70648-1.01074,16.08978.11,2.317,1.15039,4.85547-1.23053,6.47394-2.41,1.63824-4.44751-.24072-6.44739-1.352-9.1759-5.09882-17.73151-11.46051-28.23236-13.84967-1.73975-.39582-3.846-1.8869-5.01782.62036-1.14667,2.45361.22583,4.09875,2.42291,5.32928,7.28973,4.08295,14.46551,8.37476,21.8244,12.32685,3.99426,2.14526,7.45349,5.2713,11.90167,6.56665,5.14862,1.49951,9.53626,4.39251,13.9737,7.28338,12.53357,8.16559,24.33837,17.28784,36.05932,26.5636,16.3125,12.90936,32.18347,26.36957,47.69086,40.18274,11.12134,9.90637,20.75372,21.50324,30.8855,32.49774,21.51117,23.34308,39.6358,49.33411,58.16369,74.99616,2.809,3.89056,4.63581,8.48346,7.87561,12.12231,1.00086,1.12409,1.77308,3.14942,3.76868,2.23828,1.91473-.87426,1.15485-2.73889.93817-4.30493-2.00866-14.52173-4.50921-28.94708-8.52637-43.06976a544.20659,544.20659,0,0,1-15.70043-77.01587c-.32227-2.41345-1.19056-5.83667.81964-6.91119,2.29992-1.22944,4.34753,1.74627,5.90857,3.51647,3.91034,4.43445,8.62719,6.48047,14.54168,7.08838,15.5141,1.59467,30.74726-.14465,45.87146-3.19244,12.88343-2.59644,22.40161-9.80383,29.2381-21.24139,5.96735-9.98352,10.69379-20.15058,11.55969-31.89374.247-3.34943.98932-6.66571,1.56165-9.98731C736.66913,590.2276,735.57111,580.976,730.52081,572.63068ZM156.39166,119.87653c2.69226.08215,3.09638-1.64612,1.97766-4.44165-.50207-1.2547-2.098-2.59705-.46692-3.89838,1.56611-1.24951,3.37012-.567,4.93409.336,6.74933,3.897,7.79767,13.21411,1.99359,17.26336-2.54236,1.77369-5.17963,2.05146-7.80622.42481a8.58108,8.58108,0,0,1-4.46429-7.56213C152.55859,119.97949,153.42853,118.96246,156.39166,119.87653Zm9.97254,242.54394c4.11725-.10821,7.59948,4.3147,7.5755,9.62207-.02283,5.07086-2.73188,8.01459-7.30365,7.93628-4.1684-.07129-7.15735-4.01013-7.138-9.40631C159.51447,365.98059,162.4259,362.52386,166.3642,362.42047ZM363.434,725.73236c.69171-6.11767.15527-12.26929.302-18.39575.26837-11.20551,5.36365-19.86658,14.98358-25.75195A23.7468,23.7468,0,0,1,390.877,678.3349c11.37262.02637,24.12677,9.12152,28.78266,21.31836,3.79461,9.94043,5.58331,20.38849,3.54815,31.00812-2.62432,13.69391-11.67907,22.6784-23.34161,29.07489-5.6925,3.12213-11.527.431-16.71393-2.39148a44.06768,44.06768,0,0,1-10.127-7.65863C366.41168,743.04224,362.33368,735.4635,363.434,725.73236Zm-19.731-2.56775c4.18762.05585,7.64868-1.68469,11.01209-3.81958,2.64691-1.68024,4.17706-1.04223,4.288,2.13037.18384,5.26148.14606,10.53516,1.24048,15.017.21533,1.59729.1759,2.4751-.64948,3.05859-1.0592.74866-2.01232.21143-2.77642-.47949-4.76538-4.30932-9.54572-8.6051-14.19764-13.035C341.17731,724.66266,341.489,723.135,343.70294,723.16461ZM280.70551,238.78308a73.88034,73.88034,0,0,1-19.36121,11.86621c-2.27673.96875-3.3396-.13641-3.23132-2.46051.068-1.45825.26434-2.91052.4508-4.866-.40228-7.23565-.87665-14.96588-1.22333-22.70184-.0664-1.48236-.83093-3.565,1.16016-4.24548,1.67-.57068,2.3761,1.3612,3.3501,2.34649,3.40008,3.43958,6.8125,6.90381,11.1474,9.1344,3.379,1.73877,5.00751,5.26014,8.09515,7.27973C282.861,236.29248,281.861,237.7912,280.70551,238.78308Zm46.47827-4.02692c14.99518,1.4466,29.05743-3.31707,43.196-6.84606,17.1803-4.28815,30.89252-14.60773,42.28369-27.89258,9.96552-11.62226,17.04352-24.80335,19.98658-40.03339,3.78936-19.60992-.57782-37.1922-12.68189-52.97211A89.55012,89.55012,0,0,1,409.2,89.00854a8.83738,8.83738,0,0,0-1.70074-2.52923C398.3548,77.12787,388.88593,68.1698,377.174,61.99573a7.16909,7.16909,0,0,0-1.16986-.60559c-12.25909-3.754-24.14386-9.139-37.39679-8.579a33.97809,33.97809,0,0,1-3.951-.1399,23.35027,23.35027,0,0,1-2.76855-.69207c15.89843-4.50769,30.90448-6.64789,46.4201-4.21424,19.44562,3.05011,38.69086,6.74152,56.94837,14.42286A90.73336,90.73336,0,0,1,453.576,72.58105c9.433,6.88617,19.46057,13.077,25.72369,23.595,2.01819,3.38922,6.72541,4.67089,8.80634,8.41308,3.62646,6.52143,8.61712,12.66406,10.56384,19.65393,3.21088,11.52881,7.07343,23.25952,4.87256,35.67292a69.8037,69.8037,0,0,0-.59,7.8858c-1.207,19.6214-10.96148,35.52283-23.252,49.69568-20.219,23.31567-46.6214,34.54-77.20642,36.69793a403.30064,403.30064,0,0,1-43.4812.275c-11.83087-.43976-23.25482-1.784-34.48834-5.52747-4.90784-1.63556-9.25318-4.40033-14.11622-6.06549-2.16723-.74212-2.46014-2.41437-.84521-4.12256,2.38861-2.52667,5.10236-4.32989,8.84265-4.1134C321.32465,234.81049,324.28149,234.4762,327.18378,234.75616ZM299.23206,105.54675a50.00651,50.00651,0,0,0,10.48815.88758c19.52784-.04358,36.61121,18.9342,38.27155,36.05914.79315,8.17963,2.33246,16.21216.642,24.399-.44312,2.14605-.71509,4.44635-1.70465,6.34234-9.24286,17.709-16.87574,36.473-32.29322,50.21491-.54577.48645-1.02484,1.04773-1.57147,1.53308-.66534.59064-1.42456,1.22436-2.28485.443-.79523-.72235-.48334-1.64325.00488-2.40039,2.06226-3.19818,4.23316-6.3277,6.246-9.556,14.8797-23.86542,15.636-48.78113,3.38086-73.51568-8.13062-16.4101-23.29688-23.531-41.26459-24.80854-1.30731-.093-2.62134-.09576-3.92682-.20508-.2027-.017-.37628-.38232-.85974-.91027C282.562,110.625,289.1369,103.39117,299.23206,105.54675Zm-47.92267,48.37964c2.8479-7.77527,4.91388-15.65362,11.58282-21.21783a35.1206,35.1206,0,0,1,17.8241-7.902c4.21319-.60346,7.97619.22229,11.23126,3.55316,2.19629,2.24744,5.31946,3.56024,7.89282,5.473,13.12909,9.759,17.34284,23.41144,16.48279,45.613-.487,6.58679-.60614,19.87628-8.44836,31.44a109.03158,109.03158,0,0,1-10.104,12.03247c-2.01336,2.2071-4.97107,1.33045-7.48742.54242-6.86853-2.151-12.627-6.316-17.7154-11.1549a131.81621,131.81621,0,0,1-14.7622-16.23621C248.24341,183.3089,245.633,169.42407,251.30939,153.92639Zm-78.879,107.634c-7.44238-3.15032-14.5578-6.85845-20.76257-12.17187-3.52552-3.019-5.20057-6.8877-6.41626-11.22559-3.11908-11.13018-1.85657-21.49011,3.49267-31.8573,5.22406-10.12457,11.62982-18.9403,21.17163-25.26825,2.17469-1.4422,4.54566-2.58929,6.83313-3.85992.67676-.37592,1.42066-.57886,1.98987.1142a1.55691,1.55691,0,0,1-.12134,2.03021,55.01312,55.01312,0,0,1-4.0932,4.574c-8.57208,8.25524-12.32306,18.44494-13.27051,30.19219-1.13134,14.02729.69062,27.13715,8.73334,39.03412,2.18756,3.2359,5.44843,5.52436,7.92206,8.71863C175.61389,263.12714,173.95569,262.20612,172.43036,261.56042Zm43.68561-5.22326c-.46192,3.88116-1.63764,5.77557-6.17322,4.66308a90.81123,90.81123,0,0,0-13.92987-1.7677c-19.85437-1.68658-27.58063-19.03241-28.75867-32.40692-1.228-13.94183,5.53443-24.84124,12.52069-35.708a114.77567,114.77567,0,0,1,8.95191-11.39727c5.88421-7.01007,13.55664-6.54322,18.56561.99444a45.07114,45.07114,0,0,1,7.926,23.8498c.25245,7.4627.85022,14.91369,1.42688,24.57531C216.59839,236.73547,217.28149,246.54266,216.116,256.33716Zm.49249-76.66095c-.62305-1.57575-2.04694-3.255-.46851-4.8631,1.41388-1.44049,3.33106-.74152,5.00153-.29163,12.26068,3.30231,20.1012,11.99079,24.23083,23.12055,6.84192,18.43994,7.48011,37.79407,4.99305,57.24261-.29059,2.27216-1.96369,2.76795-3.7945,2.88642a184.6505,184.6505,0,0,0-19.185,2.372c-3.666.62664-4.66839-1.37946-4.65722-4.54566.0274-7.76092.009-15.522.009-23.283,1.31964-11.1485.77863-22.26056-.30829-33.36181C221.76031,192.11993,219.08514,185.93994,216.60846,179.67621Zm21.7406,115.60986q3.50967,0,7.01935-.00049c3.49682-.00372,5.35724,1.291,5.26166,5.23871-.19037,7.86084-.64624,8.26837-8.43885,6.21723-3.95678-1.04145-7.97278-1.87513-11.98846-2.669-2.68347-.53052-4.1991-1.80737-4.03259-4.734.17407-3.05981,2.044-3.94348,4.71722-3.94012q3.73095.00466,7.46185.00061Zm8.28369-9.39355c-3.06824.0672-6.139.01733-9.20874.01733l-.00024.33069c-.87567.06122-1.751.12811-2.627.18274-10.09735.63049-10.19287.55224-10.47394-9.722-.04394-1.60577.0813-3.21557.10566-4.82385.05371-3.54468,1.72162-5.49756,5.24579-6.51709,5.57226-1.61188,11.30639-1.35712,16.94567-2.09546a3.17312,3.17312,0,0,1,3.83448,3.27136q.34377,8.09793.21246,16.21283C250.62457,285.10608,248.70587,285.84705,246.63275,285.89252ZM261.9798,587.37311c-1.14459,16.80749-2.09583,33.628-3.2121,50.4375-.49817,7.50317,1.2276,14.89081.94556,22.37976-.16816,4.46435-.873,4.9668-4.92865,3.11145-11.84-5.41657-23.06366-12.237-35.77326-15.681a14.38772,14.38772,0,0,1-3.19513-1.45831c-3.59765-2.02509-3.66052-3.75141-.2113-5.94855,2.22156-1.4151,4.73883-2.46839,6.69824-4.17279a21.09384,21.09384,0,0,0,7.62921-17.44129c-.89392-30.75262-2.2445-61.49231-3.31274-92.23565-.64545-18.57471-2.489-37.12433-2.06378-55.75525.224-9.81671.57428-19.63056.88019-29.44531.5581-17.90839-1.73963-35.70911-1.96894-53.59559-.29529-23.028,2.77844-45.94073,2.02252-68.98382-.17706-5.39844,2.108-6.92645,7.62525-6.19873,3.63031.47882,7.22558,1.21741,10.846,1.77911,7.4165,1.15094,9.46411,3.449,9.70269,11.01721.03229,1.02509.0044,2.05213.0044,3.07819,2.26446,15.70325-.2876,31.2981-1.00684,46.93616a131.41851,131.41851,0,0,0,.66913,21.95495,16.29229,16.29229,0,0,1,.22546,3.06659c-1.91119,27.29132.8537,54.43164,2.40772,81.62433,1.06134,18.57135,1.32947,37.188,1.96875,55.78381a8.18591,8.18591,0,0,0,.37659,3.035C265.24036,555.79468,263.0531,571.61316,261.9798,587.37311Zm10.59131-271.13446c-3.54859-1.72528-7.19709-3.25464-10.84839-4.75562-2.66761-1.09656-3.84418-2.99841-3.61591-6.30755,1.1687-9.60352-.15564-11.32813,11.09467-7.77765,17.30456,5.46112,32.78674,13.90716,45.24981,27.35248a36.50127,36.50127,0,0,1,2.71643,3.44152c3.85108,5.316,3.3183,7.07465-2.892,9.58142-1.08326.43726-2.25922.67164-3.29706,1.19037-11.29346,5.6446-9.60724,4.01758-15.43677-4.21277C289.6142,326.38177,281.63257,320.64417,272.57111,316.23865Zm7.69024,83.93921c-3.79883-3.72968-4.6192-8.77808-3.34955-13.89a23.94761,23.94761,0,0,1,3.10083-6.76446,122.80363,122.80363,0,0,1,16.68671-20.35749c1.29437-1.32061,2.77008-2.968,4.926-2.1792,2.21209.80945,2.02642,3.00837,2.16888,4.8794.3891,5.11053.72516,10.22522,1.08221,15.33819-.28631,3.96924-.31225,7.92145-1.30938,11.80268a18.115,18.115,0,0,1-13.08173,13.57422A10.208,10.208,0,0,1,280.26135,400.17786Zm57.67511-35.88849a65.09562,65.09562,0,0,1-2.41485,24.36383c-4.45911,14.50018-13.68048,24.54968-28.84021,28.549-6.7052,1.769-11.9054-1.85962-17.4878-4.18988-1.27679-.533-1.18914-1.70874.35724-2.0166,19.5614-3.89459,23.56543-19.03137,25.7146-35.51654.05658-.4339.04376-.8769.09668-2.06385,1.47431-5.9411-2.81891-10.97247-5.12494-16.51617-2.308-5.54877-2.53564-5.45251,2.60517-8.56006,3.13189-1.89313,6.36737-3.6383,9.36291-5.72735,3.36438-2.3462,5.94708-1.59266,8.3512,1.35272C335.38788,349.88354,337.34277,356.91833,337.93646,364.28937ZM492.429,604.05585c-7.11048-4.915-14.02222-10.11676-21.05976-15.13874-1.908-1.36151-2.326-3.2547-2.42456-5.36822-.28-6.001-.56988-12.00153-.86426-18.17877.35846-14.61243-.411-29.37812-.28283-44.17731.17877-20.62866-1.11927-41.29-1.62519-61.9444-.47009-19.19165-1.90625-38.37426-1.404-57.57171.30524-11.66736-1.81048-22.8852-3.92639-34.21619-.95941-5.13757-.84051-10.50092-.95459-15.76746-.403-18.6007-4.03375-36.99029-3.38251-55.68365.186-5.33862,1.10852-8.77173,6.42139-11.39655,6.91986-3.4187,13.12146-8.27868,19.68713-12.43139,4.53266-2.86688,4.70661-2.45978,6.3108,2.49145,1.48321,4.5777,1.33715,9.37415,1.15643,13.74573-.6366,15.39929,2.29236,30.63123,1.09588,46.0661-1.178,15.196.14917,30.38654,2.67359,45.49121,3.15558,18.88092,3.06134,37.93353,1.96649,57.01276a535.49577,535.49577,0,0,0,1.85315,82.94983c1.21509,12.41791-.38586,24.88427.21259,37.34967.69433,14.46344.73571,28.96173.87634,43.44665C498.81183,606.20428,496.94238,607.1756,492.429,604.05585Zm12.23492-153.11347q.57138.01291,1.1427.0257-.40191,8.323-.80383,16.646A59.699,59.699,0,0,1,504.66394,450.94238Zm125.4776,286.10749a23.8831,23.8831,0,0,1,1.085,10.39886c-.30408,1.93732.48773,3.39691,1.4281,4.9093q2.66813,4.29155,5.249,8.63672c.44135.74542.91083,1.72687-.08477,2.32764-.99091.598-1.61786-.3393-2.14661-.994-.64111-.79364-1.12372-1.71307-1.72736-2.53979C625.1391,747.72693,617.5,734.86334,608.7785,722.7655c-5.20025-7.21325-11.61267-13.55175-17.46454-20.29712a12.23161,12.23161,0,0,1-3.04431-4.772c-1.33624-5.12909-.13073-6.66516,6.22412-6.55225,6.94831-.106,14.03931-2.88787,20.49976-7.59124,3.63672-2.64759,4.24426-2.43409,4.90082,1.89782.53509,3.53028,2.21594,7.04517.361,10.74323-.38348.76453-.02338,2.04169.281,2.99042C624.52209,711.60767,626.50238,724.538,630.14154,737.04987Zm2.49414-89.07483c-5.63428-4.71332-7.28638-10.56781-6.567-18.00977.71215-7.36621,4.47393-12.49945,9.00427-17.54932.73742-.82208,1.35321-2.22906,2.76733-1.64044,1.32727.55249,1.08386,2.01386,1.01276,3.11951-.29083,4.52191-1.00543,9.00952,1.70575,13.21625,1.4115,2.19012,2.95581,3.96747,5.45422,4.81494,2.3598.80047,4.6897,1.69409,7.06671,2.43823,10.738,3.36121,17.23157,1.027,23.12043-8.65942,7.27087-11.95966,5.09405-18.30823-5.0456-28.65216-2.4104-2.45905-5.73187-4.04633-8.70074-5.92969a9.89864,9.89864,0,0,0-7.57386-1.59082c-7.33581,1.66455-14.47009,3.778-19.832,9.61218-3.66522,3.9881-7.82324,7.513-11.0567,11.91474-.84765,1.15386-1.94268,2.47357-3.6264,1.95385-1.721-.53131-.8819-2.20465-1.1615-3.40411-2.827-12.12561,2.47247-22.3761,7.47534-32.69714.78247-1.61414,2.44983-2.97883.25574-4.94971-1.1582-1.04028-.1568-2.5354.78845-3.4801,2.1731-2.17188,7.794-9.22223,10.277-10.98206,6.188-4.38531,9.19958-3.49243,15.27722-8.11041,5.87946-4.46759,13.12128-2.58,20.71088,3.89544,5.61877,4.79377,7.74042,11.63294,10.71539,17.95771,4.99671,10.623,8.0354,21.969,11.85535,33.02368,1.24682,3.60809,1.58282,7.44836,1.36926,12.37225.71661,13.21454-7.78619,22.0752-18.481,29.30744a51.1249,51.1249,0,0,1-20.75067,8.16375C649.32623,655.56714,640.27094,654.36218,632.63568,647.975Zm14.9754-36.0838c1.31635-2.10932,2.68769-4.18433,4.0138-6.28772,4.05652-6.43415,12.38879-6.332,16.30731.29162a18.17777,18.17777,0,0,1,2.754,9.59186c.21643,6.635-4.959,10.24341-8.41455,14.79077a3.07049,3.07049,0,0,1-2.442.56561c-5.41907-.7882-12.59418-8.06524-13.58374-13.56744A7.39012,7.39012,0,0,1,647.61108,611.89124Zm78.16852,2.88244A113.07115,113.07115,0,0,1,715.339,639.39954c-8.11011,13.65338-20.78143,19.12622-36.02112,19.87127a15.46426,15.46426,0,0,1-3.47858-.40979,2.33026,2.33026,0,0,1-2.19036-1.85071,2.5534,2.5534,0,0,1,1.45343-2.51055,9.969,9.969,0,0,1,2.311-1.254c21.07239-7.08991,33.96613-34.8761,26.89349-59.59967a131.53051,131.53051,0,0,0-15.62969-34.67273,20.56072,20.56072,0,0,0-4.96583-4.91486c-1.21167-.95947-2.09674-2.2052-1.33-3.809.75854-1.58685,2.1709-1.10333,3.46374-.78784,5.96967,1.45642,12.19928,2.18219,17.62561,5.27289,3.295,1.87671,7.40888,3.452,6.62873,8.63757-.11469.76245.47125,1.30927,1.1109,1.75885,10.58032,7.43506,15.68164,17.69739,15.85309,30.55823.037,2.77667.426,5.54864.65289,8.32275C728.029,607.77441,726.85852,611.28082,725.7796,614.77368Z" fill="#383838"/>
    <path d="M426.49872,319.01794c-1.04395-1.84167-1.95105-3.98712-4.48053-3.3139-2.81226.74847-1.49042,3.22577-1.21112,4.83551,3.02215,17.41821,3.09533,34.95325,2.59949,52.54913-.22248,7.89429-.6117,15.83759.35528,23.71253,1.73358,14.11792,3.14734,28.19293,1.79987,42.48559-.48066,5.09858-1.34705,10.55231.745,15.57886a19.3913,19.3913,0,0,1,1.38025,6.78339c.37317,7.88843.32538,15.85791,1.90436,23.59967A76.33354,76.33354,0,0,1,431.399,505.3042c-.58753,9.504,1.39721,19.00476-.04847,28.50494a5.39493,5.39493,0,0,0,.19446,2.1753c.64624,2.34,2.64289,3.23181,4.67383,3.36035,2.18567.13836,2.15625-2.01386,2.46765-3.53113a135.61985,135.61985,0,0,0,1.717-40.639c-1.83117-18.80444-4.89074-37.56878-5.38543-56.40387-.62262-23.70416-2.5763-47.36969-2.09143-70.1936a168.91359,168.91359,0,0,1-.51947-21.54785C432.69336,337.21783,431.443,327.74054,426.49872,319.01794Z" fill="#383838"/>
    <path d="M196.42206,140.77484a95.61432,95.61432,0,0,0,15.12085-11.40338A43.88352,43.88352,0,0,0,196.42206,140.77484Z" fill="#383838"/>
  </g>
</svg>
