<?xml version="1.0" encoding="utf-8"?>
<!-- Generator: Adobe Illustrator 22.1.0, SVG Export Plug-In . SVG Version: 6.00 Build 0)  -->
<svg version="1.1" id="Layer_1" xmlns="http://www.w3.org/2000/svg" xmlns:xlink="http://www.w3.org/1999/xlink" x="0px" y="0px"
	 width="172px" height="118.3px" viewBox="0 0 172 118.3" style="enable-background:new 0 0 172 118.3;" xml:space="preserve">
<style type="text/css">
	.st0{fill:#FBFBFB;}
	.st1{fill:#FCFCFC;}
	.st2{fill:#F7F7F7;}
	.st3{fill:#FEFEFE;}
	.st4{fill:#EDEDED;}
	.st5{fill:#F6F6F6;}
	.st6{fill:#D3D3D3;}
	.st7{fill:#CCCCCC;}
	.st8{fill:#EAEAEA;}
	.st9{fill:#E1E1E1;}
	.st10{fill:#E3E3E3;}
	.st11{fill:#DBDBDB;}
	.st12{fill:#F2F2F2;}
	.st13{fill:#D7D7D7;}
	.st14{fill:#151515;}
	.st15{fill:#CDCDCD;}
	.st16{fill:#DADADA;}
	.st17{fill:#F0F0F0;}
	.st18{fill:#EFEFEF;}
	.st19{fill:#E5E5E5;}
	.st20{fill:#E7E7E7;}
	.st21{fill:#CECECE;}
	.st22{fill:#1B1B1B;}
	.st23{fill:#E2E2E2;}
	.st24{fill:#F4F4F4;}
	.st25{fill:#6B6B6B;}
	.st26{fill:#C9C9C9;}
	.st27{fill:#5A5A5A;}
	.st28{fill:#7A7A7A;}
	.st29{fill:#626262;}
	.st30{fill:#DEDEDE;}
	.st31{fill:#686868;}
	.st32{fill:#D9D9D9;}
	.st33{fill:#E9E9E9;}
	.st34{fill:#D1D1D1;}
	.st35{fill:#DCDCDC;}
	.st36{fill:#717171;}
	.st37{fill:#D0D0D0;}
	.st38{fill:#F9F9F9;}
	.st39{fill:#2C2C2C;}
	.st40{fill:#F3F3F3;}
	.st41{fill:#252525;}
	.st42{fill:#C8C8C8;}
	.st43{fill:#1E1E1E;}
	.st44{fill:#CFCFCF;}
	.st45{fill:#636363;}
	.st46{fill:#2A2A2A;}
	.st47{fill:#494949;}
	.st48{fill:#656565;}
	.st49{fill:#D2D2D2;}
	.st50{fill:#A2A2A2;}
	.st51{fill:#050505;}
	.st52{fill:#6E6E6E;}
	.st53{fill:#0D0D0D;}
	.st54{fill:#767676;}
	.st55{fill:#646464;}
	.st56{fill:#D5D5D5;}
	.st57{fill:#7B7B7B;}
	.st58{fill:#BABABA;}
	.st59{fill:#161616;}
	.st60{fill:#CACACA;}
	.st61{fill:#535353;}
	.st62{fill:#C4C4C4;}
	.st63{fill:#121212;}
	.st64{fill:#393939;}
	.st65{fill:#BCBCBC;}
	.st66{fill:#D4D4D4;}
	.st67{fill:#CBCBCB;}
	.st68{fill:#5B5B5B;}
	.st69{fill:#F8F8F8;}
	.st70{fill:#B8B8B8;}
	.st71{fill:#212121;}
	.st72{fill:#4F4F4F;}
	.st73{fill:#C6C6C6;}
	.st74{fill:#3F3F3F;}
	.st75{fill:#727272;}
	.st76{fill:#1C1C1C;}
	.st77{fill:#DFDFDF;}
	.st78{fill:#B2B2B2;}
	.st79{fill:#414141;}
	.st80{fill:#575757;}
	.st81{fill:#D6D6D6;}
	.st82{fill:#B5B5B5;}
	.st83{fill:#C7C7C7;}
	.st84{fill:#383838;}
	.st85{fill:#292929;}
	.st86{fill:#676767;}
	.st87{fill:#929292;}
	.st88{fill:#303030;}
	.st89{fill:#6C6C6C;}
	.st90{fill:#3D3D3D;}
	.st91{fill:#191919;}
	.st92{fill:#484848;}
	.st93{fill:#262626;}
	.st94{fill:#B6B6B6;}
	.st95{fill:#0B0B0B;}
	.st96{fill:#222222;}
	.st97{fill:#979797;}
	.st98{fill:#313131;}
	.st99{fill:#333333;}
	.st100{fill:#7E7E7E;}
	.st101{fill:#858585;}
	.st102{fill:#3E3E3E;}
	.st103{fill:#3C3C3C;}
	.st104{fill:#949494;}
	.st105{fill:#424242;}
	.st106{fill:#7C7C7C;}
	.st107{fill:#4D4D4D;}
	.st108{fill:#B9B9B9;}
	.st109{fill:#282828;}
	.st110{fill:#3B3B3B;}
	.st111{fill:#999999;}
	.st112{fill:#787878;}
	.st113{fill:#585858;}
	.st114{fill:#ABABAB;}
	.st115{fill:#666666;}
	.st116{fill:#939393;}
	.st117{fill:#696969;}
	.st118{fill:#8F8F8F;}
	.st119{fill:#343434;}
	.st120{fill:#848484;}
	.st121{fill:#404040;}
	.st122{fill:#6D6D6D;}
	.st123{fill:#AAAAAA;}
	.st124{fill:#2E2E2E;}
	.st125{fill:#5D5D5D;}
	.st126{fill:#555555;}
	.st127{fill:#454545;}
	.st128{fill:#E0E0E0;}
	.st129{fill:#4E4E4E;}
	.st130{fill:#4C4C4C;}
	.st131{fill:#5C5C5C;}
	.st132{fill:#7F7F7F;}
	.st133{fill:#606060;}
	.st134{fill:#A1A1A1;}
	.st135{fill:#3A3A3A;}
	.st136{fill:#272727;}
	.st137{fill:#444444;}
	.st138{fill:#777777;}
	.st139{fill:#0F0F0F;}
	.st140{fill:#A5A5A5;}
	.st141{fill:#505050;}
	.st142{fill:#434343;}
	.st143{fill:#BFBFBF;}
	.st144{fill:#1F1F1F;}
	.st145{fill:#323232;}
	.st146{fill:#969696;}
	.st147{fill:#010101;}
	.st148{fill:#F1F1F1;}
	.st149{fill:#EBEBEB;}
	.st150{fill:#E4E4E4;}
	.st151{fill:none;stroke:#231F20;stroke-miterlimit:10;}
	.st152{fill:#202020;}
	.st153{fill:#DDDDDD;}
	.st154{fill:#141414;}
	.st155{fill:#232323;}
	.st156{fill:#D8D8D8;}
	.st157{fill:#C5C5C5;}
	.st158{fill:#363636;}
	.st159{fill:#C3C3C3;}
	.st160{fill:#2D2D2D;}
	.st161{fill:#C2C2C2;}
	.st162{fill:#595959;}
	.st163{fill:#464646;}
	.st164{fill:#6F6F6F;}
	.st165{fill:#181818;}
	.st166{fill:#525252;}
	.st167{fill:#919191;}
	.st168{fill:#B7B7B7;}
	.st169{fill:#565656;}
	.st170{fill:#757575;}
	.st171{fill:#C1C1C1;}
	.st172{fill:#959595;}
	.st173{fill:#9C9C9C;}
	.st174{fill:#353535;}
	.st175{fill:#A9A9A9;}
	.st176{fill:#8C8C8C;}
	.st177{fill:#474747;}
	.st178{fill:#2B2B2B;}
	.st179{fill:#888888;}
	.st180{fill:#737373;}
	.st181{fill:#AFAFAF;}
	.st182{fill:#B4B4B4;}
	.st183{fill:#ADADAD;}
	.st184{fill:#4A4A4A;}
	.st185{fill:#515151;}
	.st186{fill:#878787;}
	.st187{fill:#2F2F2F;}
	.st188{fill:#B3B3B3;}
	.st189{fill:#BBBBBB;}
	.st190{fill:#8D8D8D;}
	.st191{fill:#909090;}
	.st192{fill:#545454;}
	.st193{fill:#A0A0A0;}
	.st194{fill:#808080;}
	.st195{fill:#5E5E5E;}
	.st196{fill:#707070;}
	.st197{fill:#373737;}
	.st198{fill:#A6A6A6;}
	.st199{fill:#171717;}
	.st200{fill:#8E8E8E;}
	.st201{fill:#242424;}
	.st202{fill:#C0C0C0;}
	.st203{fill:#747474;}
	.st204{fill:#6A6A6A;}
	.st205{fill:#616161;}
	.st206{fill:#BEBEBE;}
	.st207{fill:#818181;}
	.st208{fill:#828282;}
	.st209{fill:#7D7D7D;}
	.st210{fill:#4B4B4B;}
	.st211{fill:#B0B0B0;}
	.st212{fill:#5F5F5F;}
	.st213{fill:#070707;}
	.st214{fill:#0E0E0E;}
	.st215{fill:#E6E6E6;}
	.st216{fill:#E8E8E8;}
	.st217{fill:#030303;}
	.st218{fill:#1A1A1A;}
	.st219{fill:#BDBDBD;}
	.st220{fill:#A8A8A8;}
	.st221{fill:#989898;}
	.st222{fill:#A7A7A7;}
	.st223{fill:#8B8B8B;}
	.st224{fill:#1D1D1D;}
	.st225{fill:#A4A4A4;}
	.st226{fill:#838383;}
	.st227{fill:#8A8A8A;}
	.st228{fill:#9A9A9A;}
	.st229{fill:#9F9F9F;}
	.st230{fill:#B1B1B1;}
	.st231{fill:#797979;}
	.st232{fill:#9E9E9E;}
	.st233{fill:#F5F5F5;}
	.st234{fill:#060606;}
	.st235{fill:#898989;}
	.st236{fill:#ACACAC;}
	.st237{fill:#131313;}
	.st238{fill:#868686;}
	.st239{fill:#AEAEAE;}
	.st240{fill:#9D9D9D;}
	.st241{fill:#A6A8AB;}
	.st242{fill:#0A0A0A;}
	.st243{fill:#FDFDFD;}
	.st244{fill:#EEEEEE;}
	.st245{fill:#9B9B9B;}
	.st246{fill:#101010;}
	.st247{fill:#0C0C0C;}
	.st248{fill:#ECECEC;}
	.st249{opacity:0.55;fill:none;stroke:#7F7F7F;stroke-miterlimit:10;}
	.st250{fill:#020202;}
	.st251{fill:#A3A3A3;}
	.st252{fill:#FAFAFA;}
	.st253{fill:#040404;}
	.st254{fill:#111111;}
	.st255{fill:#080808;}
	.st256{fill:#090909;}
	.st257{fill:none;stroke:#050505;stroke-miterlimit:10;}
</style>
<path class="st249" d="M49.1,121.8c0.3,0,0.6,0,0.9,0c0.2,0.3,0.5,0.4,0.7,0.2c0.4-0.3,0.6-0.6,0.3-1.1c0.2-2.5,1.3-2.6,3-1.1l0,0
	c0-1.7-0.2-3.4-1-5c0.5-0.7,0.9-1.4,1.8-1.7c-0.1,0,0.4-0.1,0.3-0.1s0.3-0.1,0.2-0.1c-0.2-0.2-0.3-0.3-0.4-0.5
	c-0.3-0.5-0.3-0.9-0.3-1.4c0.2-1,0.6-1.9,0.6-2.9c0.3-1.1,0.4-2.2,0.9-3.3c0.3-0.4,0.7-0.7,1.1-1c0.8-0.3,1.5-0.3,2.3,0
	c0.7,0.3,1.3,0.8,1.7,1.5c0.6,1.1,0.9,2.2,1.3,3.3c0.1,0.6,0.1,1.3,0.2,1.8c0.1-0.1,0.2,0.1,0.2,0.1c0.3-0.1,0.5-0.1,0.8-0.1
	c0.4,0,0.8,0,1.2,0c0.7,0,1.4,0.2,2,0.6c0.7,0.8,1.1,1.7,1.5,2.6c0.1,1.3-0.5,2.3-1.3,3.2c-0.5,0.3-1.2,0.5-1.8,0.7
	c-0.6,0.2-1.1,0.6-1.5,1c-1.1,2.1-2.7,3.8-4.5,5.3c-1.4,1.5-3.1,2.7-4.5,4.1c0-0.1,0.1,0.1,0.1,0c0.2-0.3,0.5-0.5,0.8-0.6
	c1.5-0.8,2.9-0.2,4.3,0c0.4,0.1,0.8,0.2,1.2,0.4c0.4,0.2,0.8,0.4,1,0.6c-0.1-0.1,0,0,0-0.1c-0.5-0.2-1-0.5-1.4-0.8
	c-1.7-0.5-2.8-1.4-1.8-3.3c0.3-0.3,0.6-0.6,1-0.9c0.9-1,2.2-1.5,2.7-2.9c3.4-4.3,4.2-4.3,8.5,0.5c0.8,1.8-0.6,3.2-0.9,4.9
	c-0.1,0.4-0.2,0.9-0.2,1.3c-0.5,1.7-0.1,3.3,0.7,4.9c0.1,0.9-0.1,1.7-0.3,2.5c-0.1,0.6-0.3,1.1-0.4,1.7c0.1,0.3,0.2,0.7,0.4,1
	c0.4,0.4,0.8,0.8,1.1,1.3c0.6,1.2,2.3,1.1,2.7,2.5c0.5,1.6,0.3,3.1-1.2,3.9c-1.7,0.9-3.8,1.5-5.7,0.9c-3.5-1.1-8.3,2.3-10.7-3
	c-0.4-1.1-0.5-2.2,0.1-3.3c0.5-0.9,1.4-1.7,1-2.8c0,0.1-0.1-0.2-0.1-0.1s-0.2,0.1-0.2,0.2c-1.8,2.5,0.1,5.7-1.7,8.1
	c0.1-0.1,0.1,0.1,0.1,0c0.5-0.5,1.1-0.6,1.7-0.4c3.6,1.7,4.3,4.5,3,8.1c-0.5,0.8-1.4,1.3-2.1,2c-1.2,1.6-1.6,3.4-1.8,5.3
	c0.2,3.9-2.1,7.9,0.2,11.7c0.1,0.2,0.2,0.4,0.4,0.5c-0.2-0.1-0.4-0.3-0.5-0.6c-0.3-0.6-0.4-1.2-0.3-1.8c0.4-1.5,1.1-2.7,2.8-3
	c1.2-0.1,2.4-0.2,3.6-0.4c1.5-0.3,2.9-0.4,4.2,0.5c1.3,0.8,2,2.1,2.8,3.3c1.7,1.5,2.6,3.4,2.7,5.7c0.5,3.4-1.9,6.2-2.2,9.4
	c-0.1,0.5-0.3,0.9-0.7,1.1c0.1,0,0.1,0.2,0.2,0.2c1,0.2,1.4,0.9,1.6,1.8c0,0.3-0.1,0.6-0.2,0.8c0.1-0.1,0.1-0.2,0.2-0.4
	c0.1-1.8-1.4-3.3-0.9-5.1c0.6-1,0.5-2.4,1.2-3.2c1.1-1.2,0.1-4.2,2.9-3.9c2.4,0.3,2,2.7,2.7,4.3c0.3,0.8,0.2,1.6,0.1,2.5
	c-0.1,0.5-0.3,0.9-0.4,1.4c-0.4,3.7-2.5,6.8-3.3,10.4c-0.3,1.3,1,1.9,1.3,3c0.1,0.5,0,0.9-0.2,1.4c-0.3,0.6-0.9,1-1.4,1.5
	c-0.3,0.3-0.6,0.7-0.9,1c-2.5,2.2-4.1,4.7-3,8.2c0.1,0.4,0.1,0.9,0.2,1.4c0.9,1.9-2,5.2,2,6.1c0.9,0.6,1.3,1.3,0.5,2.3
	c1.3,1.4,2,2.8-0.2,4c-1.7,0.9-3.4,1.1-4.2-0.9c-0.9-2.1-2.4-2.9-4.5-3.4c-1.9-0.5-3.5-1.7-1-3.7l0,0c0.2-1.1,0.4-2.3,0.5-3.4
	c0.1-0.7-0.1-1.1-0.9-1.5c-4.7-2.4-4.8-2.9-3.5-7.8c0.1-0.4,0-1,0-1.9c-2.9,0.2-6.3,2.2-8.1-1.7c0.5-0.5,0.6-1.1,0.2-1.7
	c-0.3-0.5-0.8-0.5-1.2-0.1c-1.3,0.6-2.7,0.8-4.2,0.7c-1.1-0.1-1.9,0.4-2.1,1.6c-0.2,1.6,1.2,1.6,2.3,1.8c0.5,0.8-0.2,1.6-0.1,2.4
	c0.1,0.2,0.1,0.4,0.2,0.6c0.2,0.3,0.5,0.6,0.8,0.9c0,0.4,0,0.8,0.1,1.1c0,0.2,0,0.4,0,0.6c0,0.6-0.2,1.2-0.3,1.7
	c0,0.6-0.3,1.1-0.7,1.6c-1.9-0.2-3.5-2.4-5.7-0.9c-0.5,0-0.9-0.2-1.2-0.5c-1-1.5-0.8-3.4-1.7-4.8c0,0.1-0.1,0.1-0.1,0.2
	c0.4,2.6-1.1,3.4-3.3,3.4c-0.6,0-1.2-0.2-1.7-0.5c-0.5-0.2-1.1-0.4-1.7-0.6c-1.4,0-2.5-0.5-3.4-1.4c-1-1.3-1.7-2.8-2.8-4.1
	c-0.2-0.5-0.3-0.9-0.3-1.4c1-3,3.2-4.6,6.1-5.4c0.2-0.1,0.4-0.1,0.5-0.2c-0.1-0.1-0.1-0.3-0.1-0.3c-0.6-2.9,0.6-3.9,3.3-3.2
	c1,0.4,1.9,0.9,3,1.2c0.7,0.1,1.3,0.1,1.9,0.2c-0.1-0.1,0.1,0,0-0.1c-4.9-0.7-2.1-4.7-3.2-7.1c0-0.8,0.2-1.5,0.7-2.1
	c5.3-1.9,7.1-0.8,7.9,4.9c0.1,0.2,0.1,0.5,0.2,0.7c0-0.2-0.1-0.4-0.2-0.7c0.3-5.3-1.7-9.9-3.8-14.4c-1.8-4-1.1-5.4,3.5-6.1
	c0.8,0.2,1.3,0.8,1.6,1.4c0,0-0.1-0.2-0.1-0.2c-1-1.6-2.8-2.2-3.9-3.6c-0.6-1.1-0.7-2.3,0.2-3.3c0.5-0.5,0.9-0.9,1.4-1.4
	c1.2-1.4,0.2-2.6-0.3-3.9c0,0.3,0.2,0.6,0.4,0.9c0.4,0.7,0.6,1.5,0.3,2.3c-0.3,0.8-1,1.3-1.5,1.9c-0.6,0.7-1.6,1.3-1.7,2.4
	c0.1,0,0.1,0.5,0.2,0.5c0.4,4.4-1.3,8.3-3.1,12.1c-0.7,1.4-2,2.2-3.7,1.7c-2.6-0.8-0.3-3.3-1.7-4.6c-0.9-1.6-0.8-3.3-0.2-5
	c-1,1.8-0.3,3.5,0.4,5.2c0.7,1.4,0,2.8-1.1,2.5c-3.9-1-2.7,1.8-3.1,3.6c-0.7,3.6-1.2,7.4-6.2,7c-0.4-0.1-0.7-0.2-1.1-0.4
	c-0.5-0.1-0.9,0-1.4,0.2c-0.9,0.3-1.7,0-2.3-0.7c-0.4-0.6-0.6-1.2-1-1.8c-0.8-2.1-3.4-2.2-4.7-3.7c-1.1-2.4-0.8-5.3-2.6-7.5
	c-0.4-1.3-1.3-2.2-2.7-2.6c-1.7-1.3-3.4-2.5-5.1-3.7c-1.3-1.6-2.2-3.2-2.3-5.3c0-0.5,0.2-0.9,0.4-1.3c0.9-1.2,3-2,1.6-4.2
	c-0.2-0.4-0.4-0.7-0.6-1.1c-0.5-0.7-1-1.3-1.3-2.2c-0.2-1.3-0.6-2.5-0.9-3.8c0-0.5,0-0.9,0.2-1.3c0.4-1.3,0.6-2.7,0.8-4.1
	c0.2-0.4,0.5-0.8,0.9-1.1c0.3-0.3,0.7-0.6,1.1-0.9c0.4-0.2,0.9-0.2,1.4-0.2c2.2,0.8,3.8,0.9,5.2-1.7c0.9-1.8,1.8-4.2,4.1-4.9
	c-0.1,0-0.3,0-0.4,0.1c-2.7,0.3-4.2-1.2-5.6-3.1c-0.1-0.9,0.1-1.6,0.8-2.1c1.9-0.2,2.8-1,1.5-2.9c-0.6-0.9-2-1.2-2.1-3
	c1.9-0.2,3.6-1.9,5,1.3c0.5,1.1,1.7,0,1.9-1.1c0.5-4.2,2.6-7.7,4.4-11.3c0.5,0.1,0.9,0.4,1.2,0.8c0.5,2.7,1.5,5.4,0.9,8.2
	c-0.1,0.5-0.2,1.1-0.1,1.6c0.4,0.3,0.8,0.5,1.2,0.6c1.1,0.5,1.8,1.3,2.2,2.4c0.3,1.7-0.5,4,2,4.5c2.5,0.5,5,0.5,6.3-2.5
	c0.5-0.9,1.2-1.6,1.7-2.3c0.2-0.3,0.4-0.6,0.5-0.9c0.3-0.5,0.7-0.8,1.2-1.1c0.3-0.1,0.6-0.3,0.9-0.6c0.1-0.2,0.1-0.3,0.2-0.5
	c0.1-1.3-0.7-2.5,0.1-4c2.2,1.1,3.9,2.4,3,5.2c0.6,0.4,1.2,0.4,1.8,0c0.5-1,1-2.2,1.5-0.1c0.2,0.9,0.6,1.5,1.5,1.8
	c0.4,0.1,0.5,0.3,0.4,0.6c-0.1,0.2-0.2,0.4-0.3,0.4c-1,2-2.4,3.5-4.4,4.4c-0.7,1.1-0.9,2.5-1.5,3.7c0-0.1,0.2-0.3,0.3-0.4
	c0.4-1.3,0.7-2.6,1.5-3.6c2.4-0.2,2.8-2.4,3.9-3.9C44.3,125,46.5,123.2,49.1,121.8z"/>
<path class="st249" d="M165.2,110.8c0.5-0.3,1.1-0.7,1.6-1c0.9,0.7,1.9,0.8,2.2-0.4c0.6-2.2,3-2.7,3.9-4.6l-0.1,0.1
	c1.4-2.2,2.3-4.6,3-7.1c0.2-0.4,0.5-0.7,0.9-1c2.7-3.2,4.3,0,6.2,1.1l-0.1-0.1c0.3,0,0.3,1.2,0.9,0.2l0.4-0.3
	c4.5,2.9,4.2,6.9,2.9,11.3c0.9,2.8-1.2,4.8-1.8,7.2c-0.4,0.7-0.8,1.6-1.5,2c0.1,0,0.2-0.1,0.3-0.1c0.5-0.6,1.1-0.9,1.9-0.9
	c2.5,0.7,2.5,2.7,2.5,4.6c0,0.6-0.5,0,0,0.5c0.2,0.2,0,0.4,0.2-0.2c0.2-0.6,0.7-1.1,1.2-1.5c1.4-0.9,2.9-1.4,4.6-1.2
	c0.7,0,1.4,0.1,2.1,0.3c2.8,1.3,3.9,3.8,4.4,6.6c0,0.9,0.7,1.7,0.3,2.5c0.1-0.1,0.1,0.1,0.1,0c0.3-1-0.4-1.7-0.4-2.5
	c-0.3-1.6,0.4-2.8,1.6-3.7c2.9-0.8,2.9,2,4.2,3.2c0.4,0.6,1,1.1,1.2,1.7c0.3,0.9,0.1,1.7-0.4,2.5c-0.3,0.5-0.6,0.9-0.9,1.4
	c0,0.2-0.1,0.3-0.1,0.5c0,0.3,0.2,0.6,0.4,0.9c-0.1,1.8-1.1,3-2.5,4c-1.6,1.1-1.9,2.2-1,4.1c1.9,3.9,0.9,5.5-3.7,6.9
	c-0.9,0.6-1.8,0.7-2.7,0.2c-0.6-0.4-0.5-1.1-0.6-1.7c0.1,0.6,0,1.2,0.4,1.6c0.8,1,2.2-0.1,3.1,0.7c-0.6,2.1-2.3,3-3.9,4.1
	c3.8,3.7,3.8,3.6-1.4,5.9c-1.8,0.8-3.3,2.2-4.6,3.7c-0.7,0.5-1.7,0.4-2.2,1.2c-0.6,1.3-0.5,2.3,0.9,3c0.1,2.6,0.2,5.1,0.4,7.7
	c0.1,0.5,0.1,1-0.1,1.5c-1.3,1.8-2.9,1.8-4.7,0.7c-0.8-0.6-1.4-1.3-2.2-2c-0.4-0.3-0.7-0.6-1.1-1c-0.2-0.4-0.4-0.9-0.4-1.4
	c0-0.5,0.1-1,0.2-1.4c1-2-0.3-4.9,2.4-6.2c0.2-0.4,0.7,0.7,0.9-0.2c-1.4-1.7-2.8-3.4-5.3-3.2c-3.5-1.7-2-4.4-1.4-7
	c0.4-1.2,0.9-2.3,1.5-3.4c0.3-0.3,0.6-0.5,0.9-0.6c0.1,0,0.3-0.1,0.4-0.3c-0.3-0.2-0.4-0.3-0.6-0.5c-0.7-0.8-1.7-1-2.5-1.5
	c-2.6-2.1-3.8-4.5-1.5-7.5c1.6-1.3,3.1-0.4,4.6,0.2c0.5,0.2,0.9,0.8,1.2,0.8c1.4-0.3,1.7-1.6,2.4-2.7c-0.4,0.5-0.6,1.3-1.4,1.3
	c-0.9,0-1.6-0.6-1.8-1.4c-1-3-3.3-1.9-5.3-1.6c-2.6-0.8-2.1-2.7-1.7-4.6c0.2-0.9,1.1-1.5,0.8-2.4c0,0.1-0.2-0.1-0.2,0
	c-0.2,0.7-0.7,1-1.3,1.2c-0.4,0.1-0.9,0.1-1.3,0c-1.2-0.6-2.6-0.8-3.5-1.9c-0.4-0.5-0.7-1-1.1-1.5c-1.9-1.2-3.5-2.5-4.5-4.5
	c0.9-1.7-0.2-1.8-1.5-1.7c-0.4-0.2-0.7-0.6-1-1c-0.4-1.4-0.5-2.8,0-4.1c0.3-1.1,0.8-2,1.8-2.7c0.7-0.4,1.3-0.9,1.8-1.5
	C163.9,111.5,164.3,110.9,165.2,110.8z"/>
<path class="st249" d="M-19,47.8c-0.3-0.3-0.7-0.7-1-1c-0.4-0.7-0.7-0.4-0.9,0.1c-0.2,0-0.3,0.1-0.5,0.1c-2.3-0.1-3.7-1.9-5.7-2.8
	c-1.7-0.8-3.9,0-6.2-1.8c3.5-1.1,6.4-0.5,9.3-0.7c0.8,0.9,1.8,0.5,2.7,0.3c-0.9,0.2-1.9,0.6-2.7-0.3c1.3-1.2,1.2-3.9,4.1-3.5
	c0.9,0.1,1.3-0.8,1.2-1.7c-0.1-1,0-2,0.6-2.9c1.2,1.3,3.4,1.2,4.1,3.1c-0.7,4.3-0.2,4.8,4.1,4.1c0.9-1.9,2.5-3.2,3.6-5
	c1.5-1.6,3.2-1.8,5.2-1.2c0.7,3.7-1.9,5.5-4.3,7.3c0.5-0.4-0.5,0.4,0,0c2.3-2,4.9-3.7,4.2-7.4c0.7-1.1,1.6-2.1,2-3.3
	c0.6-1.4-0.4-4.5,0.9-4.3c2.6,0.4,4.9-1.7,7.3-0.3c0,2.5-2.5,2.3-3.6,3.4c0.1,0,0.2-0.1,0.2-0.1c4-3,9.5-4,11.1-9.6
	c0.4-0.9,0.9-1.7,1.2-2.6c0.8-2.4,1.8-1,2.8-0.2c1.3,1.7,1.9,4,4,5c0.1,0.4,0.2,0.9,0.2,1.3c-0.5,1.3,0.6,1.7,1.4,2.3
	c1.8,1.5,2.2,3.6,2.1,6.3c-4-1.4-7,0.4-9.6,3.1c0,0.2,0,0.4,0,0.6c0.1,0.4,0.1,0.8,0.2,1.2c0,0.9-0.6,1.5-1.2,2.1
	c-0.9-0.4-1.8-0.9-2.7-1.2c-0.6-0.2-1.3-0.1-1.8,0.4c-0.8,0.7-0.5,1.5,0.1,2.2c0.9,1,1.3,2.3,1.8,3.5c0.7,1.6,0.8,2.7-1,3.7
	c-1.9,1-3.2,1.2-3.3-1.5c0-0.5-0.2-1-0.9-1c-2.8,1.8-1.5,4.3-0.8,6.6c-1.4,1.1-3,0.2-4.3,1.2c-1.4,1.1-3,1.3-4.4-0.4
	c-0.6-0.7-1.4-1-2.2-0.6c-2.7,1.1-3-0.9-3.6-2.7c1.5-1.5,3.5-1.3,5.4-1.6c-1.9,0.3-3.9,0.2-5.4,1.6c-1.3,0.8-2.6,1.4-3.8,2.3
	c-1.5,1.1-2.3,2.5-1.1,4.2c1.3,1.7,2.6,0.3,3.9-0.3c2.2-1,3.6-0.5,4.2,1.5c0.2,0.7,0.1,1.7-0.7,1.5c-2.2-0.5-2.4,1.2-3,2.4
	c-1.4,2.5-4.3,2-6.4,3.3c-0.1,0.9-0.2,1.9-1.3,2.2c-0.9,0.2-0.9-0.5-0.7-1.1c1.9-5.8,0.4-11.1-3-15.9c0,0-0.1-0.5-0.1-0.5
	c-0.2-0.3-0.4-0.5-0.7-0.6C-18.3,48.5-18.7,48.2-19,47.8z"/>
<path class="st249" d="M92.8,5.9c2.7,3.1,2.7,3.3-0.9,5c-0.7,0.4-1.8,0.5-1.5,1.6c0.2,1,1.2,0.9,2,0.8c0.5-0.1,1-0.2,1.5-0.2
	c0.5,0,1,0.2,1.1,0.7c0.2,0.8-0.2,1.3-0.8,1.6c-1.4,0.8-2.8,0.9-4.3,0.4c-1.3,1.1,0.3,2.8-0.8,4l0,0c-0.6,0.6-0.9,1.3-0.1,2
	c0,0.3,0,0.5,0,0.8c1.5,1.6,2.3,3.7,4.3,4.8c2.3,1.3,2.2,3.1,0.8,5c-0.4,0.3-0.8,0.5-1.3,0.6c-0.6,0.3-1.2,0.5-1.8,0.8
	c-1.3,0.7-2.3,1-1.6-1.1c0.2-0.6,0.7-1.6-0.2-1.4c-3.2,0.7-2.3-1.8-2.8-3.3c-0.6-1.8-1.1-3.8-3.2-4.8c-1-0.5-1.1-1.6-1-2.6
	c0.4-0.1,0.8-0.2,1.3-0.1c-0.4,0-0.9,0-1.3,0.1c-0.6,0.1-1.2,0.1-1.9,0.2c-1.1,0.1-2.2,0.6-3.4-0.1c-0.4-0.3-0.7-0.6-0.9-1.1
	c-0.2-1.6,0.6-3.1,0.5-4.7c0.1-0.4,0.2-0.9,0.4-1.3c0.6-1.3,1.5-2.2,2.9-2.7c-0.9-1.8-2-3.4-0.5-5.5c2.9-4.3,4.5-8.8,1.6-13.9
	c2.6-0.7,4,0.2,5.4,2.3c0.5-2.9,1.3-5,2.5-7l0.2-0.2c2,0.5,2.1,2.9,3.8,3.7C94-9,93.2-7.7,92.5-7.1c-1.3,1.1-2.4,2.3-2.6,4
	c-1.8,1.4-4.8,2.7-0.5,4.8c1.6,0.8,2,2.5,2.7,4l0.3,0.3L92.8,5.9z"/>
<path class="st249" d="M71.9,94.7c0.4,0.4,0.8,0.8,1.2,1.2c0.4,0.9,1.2,1.3,1.9,1.9c1.4,1,2.5,2.9,4.6,1.2c0.5-0.4,1.4-0.3,1.9,0.1
	c2.7,2.7,6.2,1.6,9.3,1.8c1.7,2-0.2,3.6-0.6,5.4c-1.6,3.6-4.5,4.9-8.2,5.4c-1.9,0.3-3.8,0.8-4.8-1.2c-1.3-2.4-0.2-4.1,1.9-5.3
	c-4.5,2.7-4.9,2.6-7.7-2.2c0,0.2,0,0.4,0,0.6c0.2,1.8-0.5,3.2-1.8,4.3c-0.5,0.5-0.9,1-1.5,1.3c-0.4,0.2-0.8,0.5-1.1,0.7
	c-0.9,0.6-1.9,1.1-2.9,1.7c-0.4,0-0.9,0-1.3,0c-1.1-0.7-0.7-2.4-2-3c-0.6-0.9-0.8-1.9-0.9-3c0.1-0.5,0.3-0.9,0.4-1.4
	c0-0.3-0.1-0.7-0.3-0.9c-0.1-0.2-0.2-0.4-0.3-0.6c0,0-0.1-0.2-0.1-0.1c0,0.1-0.1,0.1,0,0.1c0,0.1,0,0.2,0.1,0.3
	c0,0.7-0.2,1.3-0.9,1.6c-0.6,0-1.3,0-1.9,0c-0.8,0.2-1.3,0.7-1.5,1.5c-0.5,0.9-0.3,1.8,0.2,2.7c0.2,0.5,0.3,1.1,0.3,1.7
	c0,0.7,0,1.5,0,2.2c0.2,0.3,0.2,0.6-0.1,0.9c-1,0.3-1.9,0.7-2.9,1c-1.2-2.5-2.3-5-2.8-7.8c-0.2-0.1-0.4-0.1-0.6-0.2
	c-1.4-0.3-1.5-2.1-2.7-2.6c-0.4-0.3-0.7-0.6-0.9-1c-0.9-3.7,1.9-3.9,4.3-4.5c3.8-1.4,2.8-5.6,5-8.7c1.8,3.3,3.7,6,7.7,4.7l0.3,0.4
	l-0.2-0.4c-0.3-0.3-0.6-0.6-0.9-0.9c0-0.4,0.1-0.8,0.1-1.1c0.9-0.7,2.2,0,2.9-0.9l-0.1,0c1.3-1.8,2.7,0.8,4,0c1.1,0.1,2.1,0.3,3,1.1
	C71.3,93.5,71.2,94.1,71.9,94.7z"/>
<path class="st249" d="M90.8,54.7c-0.9-0.7-2-1.9-2.3,0.4c-0.2,1.5,0,3,0,4.5c0,1.1-0.3,2.1-1.6,2.2c-1.2,0.1-1.6-0.9-2-1.9
	c0-0.2-0.1-0.4-0.1-0.7c-0.5-1.8-0.6-3.6,0.2-5.3c-0.6-1.3-1-2.6-1-4c1.8-1.4,3.8-0.5,5.8-0.6c2.1-0.1,3.5-0.7,3-3.3
	c-0.2-1.1,0-2.4-0.5-3.4c-1.2-2.5-2.7-4.9,0.6-7.1c0.3-0.2-0.1-1.5-0.2-2.4c0.1-0.1,0.3-0.3,0.4-0.4c2.1-1,1.2-4.1,3.5-5
	c1.2-0.9,2.2,1.3,3.4,0.1c0.9,0.4,2.8,1.8,2.5,0.2c-0.5-2.6,0.2-3,2.4-3.4c2-0.3,2-2.5,2.9-3.8c1.7,0.9,1.2,2.9,2.2,4.2
	c-0.9,2.2-0.3,4.4,0.1,6.6c0,0.2,0.1,0.5,0.1,0.7c1.3,3.6-2.1,5-3.5,7.3c-3.2,1.6-7.1,1.6-9.8,4.3l0.1-0.1c-1.4,1.9-2.1,4-1.7,6.3
	c0.3,1.5-0.5,2.1-1.4,2.8l0.1-0.1c-0.8,0.9-0.4,3.1-2.7,2.4C91.2,55,91,54.9,90.8,54.7z"/>
<path class="st249" d="M12.8,109.9c-0.7-0.1-1.4-0.1-2.1-0.2c-1.3,0.1-2.5,0.3-1.8,2.1c2,1.9,0.8,4,0.2,6c-0.3,1-1,1.8-2.2,1.5
	c-1.1-0.2-1.6-1.1-1.9-2.1c-0.1-0.3,0-0.7,0-1c0-1.5,2.1-3.2,0.1-4.5c-1.6-0.9-3.1,1.7-5,0.8c-2,3.2-2.7-0.1-4-0.7
	c-1.4-1.7,1.8-2.6,0.7-4.3c-2.6,0.7-5.1,0.5-7.4-1.2c-1-0.7-1.1-1.6-0.4-2.6c0.8-1,1.4-0.8,2.3,0.2c2.2,2.4,2.6-0.9,4.4-1.1
	c-3.6-2.4-5.5-4.5-7.3-8.2c3.1,1.2,5.8,2.2,8.6,3.2c0.2,0.5,0.4,0.9,0.9,1.1c0,0,0.5,0.1,0.5,0.1c0,0,0.4-0.3,0.4-0.3
	c1-0.4,2-0.7,3.1-1.1C3.2,98.4,5,97.2,6,98.9c0.9,0.7,2.1,1,2.8,2.1c-1.4,0.7-2.2,1.5-0.8,2.9c-0.1,0.8-0.2,1.6-0.5,3.2
	c1.9-2.1,3.5-4.5,5.5-1.2c0.3,1,0.1,2,0.5,3C13.4,109.3,13.2,109.7,12.8,109.9z"/>
<path class="st249" d="M38,12.7c-0.2,5.2-0.5,5.6-4.9,6.2c-1.1,0.2-1.8,0.3-2.3,1.4c-1.1,2.4-3.4,3-5.6,3.7c0,0-0.2-0.4-0.2-0.4
	c-3-6.4-1.1-10.5,6.3-13.5c0.5,0,0.9-0.2,1.2-0.5c3.1-1.3,4.9-4.7,8.6-4.9c0.7,0.4,1.4,0.8,2.1,1.2c0.6,2.6-1.4,3.1-3.1,3.8
	c-0.4,0.2-0.8,0.3-1.3,0.5C37.6,10.7,37,11.5,38,12.7z"/>
<path class="st249" d="M58.8,7.8c-1.8-2.1-2.6-4.6-3.1-7.3c-0.1-0.8-0.5-1.7-1.6-1.4c-0.9,0.3-1.3,1-1.1,2c0.7,3.4,0,6.6-1.9,9.6
	c-0.3,0-0.7,0-1-0.1C46.3,9,46.3,9,49,5.9c-4-3.6-2.8-8-1.7-12.2c0.6-2.2,2-4.2,4.9-3.9c0.3,0,0.6,0,0.8,0.1c4.1,2.5,5.7,5.7,5,10.4
	c-0.2,1.1-0.2,1.9,0.9,2.4c0.4,1,0.7,2,1.1,3C60.1,6.7,59.5,7.3,58.8,7.8z"/>
<path class="st249" d="M12.9,72.7c-1.2,1.4-2.4,2.7-3.5,4c-1.6-0.4-0.2-1.4-1.1-2.4c-1.7,3.2-6.6,3.2-6.6,7.9
	c-2.4,1.5-3.2,5.5-7.6,3.9c-1.4-0.5-3.6,1.4-4.8-1.1c-0.2-0.1-0.4-0.3-0.6-0.4c-0.4-1.2-0.3-2.4,0.7-3.2c2.4-2.1,4.8-4.1,6.4-7
	c0.6-1.2,2-1.8,3.3-0.5c0.3,0.5-0.2,1-0.2,1.5c0.1-0.6,0.5-1.1,0.9-1.5C4.1,73.1,8.3,70.8,12.9,72.7z"/>
<path class="st249" d="M63.9,59.7c0,0.3,0,0.7,0,1c-0.6,0.7-1.2,0.6-1.9,0.2c-1.6-0.3-3-1-4.1-2.1c-1.5-0.9-3.1-0.9-4.8-1.1
	c-1.4-0.2-2.6-0.6-3.6-1.6c-0.5-0.5-0.7-1-0.9-1.7c-0.4-1.7,4.2-0.2,2-3.4c-1.3-1.9,0.8-2.7,2.3-3.5c1.3-0.7,1-2,0.3-3
	c-0.7-1-1.8-1.4-2.9-1.7c0.3-2.4,0.6-2.5,4.4-1.3c1.1,2.5,0.4,5.5,2,8c0.6-0.2,0.8,0,0.5,0.6c1,2.2,3.2,3.6,3.9,5.9
	C62.9,56.6,63,58.5,63.9,59.7z"/>
<path class="st249" d="M122,22.8c-0.9,3.8-1.6,7.5-1,11.5c0.3,2.1,1.7,3.5,1.9,5.4c-1.1,0.6-2.3,1.1-3,2.3c-0.4,0.1-0.9,0.2-1.4,0.2
	c-1.2,0-2.4,0-3.3-1c-1-2.2-3.2-4-1.8-6.8c0.5-0.6,1.1-0.9,1.8-1c0.9-0.1,1.9,0,2.8-0.2c-0.3-0.3-0.7-0.6-0.9-1
	c-0.2-1.4-1.1-2.1-2.4-2.5c-1-0.6-1.3-1.7-1.6-2.7c0-0.4-0.1-0.8-0.2-1.2c-0.2-0.4-0.4-0.7-0.7-1c0.8-3.7,2.1-4.8,5.3-4.2
	c1.9,0.4,2.5-1.1,3.6-1.9c0.6,0.2,0.9,0.7,1.1,1.3c0.1,0.8-0.2,1.5-0.1,2.3C121.9,22.4,121.9,22.6,122,22.8z"/>
<path class="st249" d="M-11.2,84.6c-0.6-1.4-2.8-1.7-2.7-3.7c2.9-0.7,4.8-2.6,6.4-5c1.8-2.7,3.5-4.4,7.6-3.8C3.1,72.6,7,72.9,9.9,70
	c1.1-1.1,3.5-0.4,4-2.9c0.1-0.5,2.2-1.7,3.5-0.8c1.2,0.9,0.5,2-0.2,3.1c-0.3,0.4-0.3,0.9-0.5,1.4c-0.3,0.8-1.3,0.4-1.8,1
	c-0.7,0.3-1.3,0.6-2,0.9c-4.8,0.6-9.5,1.2-14.3,1.8l0,0.1c-0.4-0.3-1.1-0.5-1.3-0.1C-4.6,78.6-9.2,80.6-11.2,84.6z"/>
<path class="st249" d="M34.1,124.8c-0.3,0.4-0.7,0.8-1,1.2c0.2,0.3,0.3,0.5,0.1,0.6c-0.1,0.1-0.2,0.2-0.4,0.2
	c-0.6,0.8-1.1,1.5-1.7,2.3c-2.5,3.2-3.2,3.1-5.7-1.2c-0.5-3-4-2.8-5.3-5c-0.3-0.4-0.5-0.8-0.6-1.3c0.8-1.9-1.8-5.1,2.2-5.7
	c1-0.9,1.1-2.4,2.4-3.1c4,2,0.4,5.4,1.5,7.9c1.7,0.2,1.3-2.3,3.4-2.2c0.7,1.9,2.2,3.9,4.8,4.3c0,0,0,0,0,0
	C34.6,123.4,34.6,124.1,34.1,124.8z"/>
<path class="st249" d="M18,39.8c-0.6-0.9-1-1.8-0.9-2.9c0.4-0.9,1.5-0.4,2-1.1c0,0,0,0,0,0c1.2,0,2.3-0.2,3.5,0
	c4.6,0.6,5.6,1.7,5.1,6.3c-0.2,1.9,2,3.5,0.7,5.1c-2,2.3-4.4,4.3-7.3,7.1c0.4-4.2,2.7-6.6,4.1-9.4c-0.8-0.9-3.2-0.5-2.4-2.7
	c0.5-1.2,1.5-2.8-0.2-3.3c-2.1-0.6-1.8,1.7-2.4,2.9l0.1,0C19.3,41.1,18.7,40.4,18,39.8z"/>
<path class="st249" d="M37,95.8c1.3-0.2,2.9-1.2,3.4,1.2c0.4,1.9,2.1,1.7,3.5,1.8c0.6-0.6,1.2-0.6,1.9-0.4c2.2,1.4-0.6,3.6,0.9,5.1
	l0.2,0.2c0.3,0.2,0.5,0.5,0.3,0.9c-0.2,0.1-0.3,0.2-0.5,0.3c-2.4,3.1-2.4,3-4.7,0.4c-0.4-0.5-0.9-0.9-1.4-1.3
	c-0.2-0.2-0.6-0.3-1.3-0.6c-0.2,1.7,0.2,3.7-1.6,4.7c-1.9-4.2-1.9-4.2,0.7-7.7c-1.1-0.9-2.8-1.1-3.3-2.7
	C35.5,96.9,35.9,95.9,37,95.8z"/>
<path class="st249" d="M71.7,18c0.8,0,1.6-0.1,2.4-0.1c0.7,0.8,1.9,0.9,2.7,1.7c0.1,0.1,0.3,0.2,0.4,0.4c2.6,1.8,1,3.3-0.3,4.9
	c-1.5-0.8-2.7-0.4-3.7,1c-2.4,0.4-3.1,4.2-6.2,2.9c-0.6-0.7-1.1-1.7-1.9-2.2c-2.8-1.8-2.5-4.1-1.2-6.6c1.1-1.6,2.7-1.5,4.3-1.2
	C69.5,19.1,70.8,19.5,71.7,18z"/>
<path class="st249" d="M33.2,11.5c-4.3-0.5-8.2,2.6-8.4,6.8c-0.1,1.8,0.7,3.6,0.1,5.4c-2.8-1.6-2.8-1.6-4.5,1.4
	c-1.8-2.7,1.7-4.9,0.6-7.3c1.7-0.7,1.9-2.6,3-3.9c0.9-1,1.5-2.1,2.7-2.8c3.9-2.3,8.5-3.5,11.8-6.9c0.7-0.7,1.9-0.4,2.6,0.5
	c-2.2,1.8-4.2,3.9-7.1,4.8C33.3,9.8,32.9,10.7,33.2,11.5L33.2,11.5z"/>
<path class="st249" d="M71.7,18c0.5,1,1.4,2,0.4,3.2c-0.3,0.4-0.2,1.4-1.2,0.7c-2.1-1.5-4.9-0.2-7-1.9c-0.7-0.7-1.3-1.5-2-2.2
	c-0.7-0.8-2.3-1.2-2-2.6c0.5-1.8,2.6-1.8,3.7-1.8c1.8,0,4.1,0.1,5,2.4C69.3,17.1,70.1,18,71.7,18z"/>
<path class="st249" d="M14.9,71.7c0.3-0.8,1-1,1.8-1c3-1.8,6.6-1,9.7-2c3.5,0.4,2.3,2.3,1.3,4.1c-0.7-0.6-1.5-1.8-2.3-0.4
	c-0.7,1.2-1.8,1.9-2.9,2.6c-2.9,1.8-4.9,1.2-6.3-1.9C15.9,72.4,15.6,72,14.9,71.7z"/>
<path class="st249" d="M52.2-10.2c-0.5,1.4-3,1.7-1.8,4C51-5.1,50-4.8,49.2-5.5c-1.4-1.2-1.4,0.2-1.1,0.7c0.9,1.6,0.8,2.7-0.9,3.7
	c-1.1,0.6-0.3,1.5,0.3,2C48.9,2.2,49,4,49,5.9c-0.5-0.3-0.9-0.7-1.4-1c-1.4-1.3-3-0.8-4.6-0.8c-0.8-0.5-1.3-1.1-0.6-2
	c2-2.8,3.5-5.8,4-9.3C46.9-11,48.6-11.5,52.2-10.2z"/>
<path class="st249" d="M44,10.8c0.5,0.1,1,0.1,1.4,0.3c1.8,0.8,3.8,1.8,4,3.8c0.2,2.2-2.5,1.4-3.6,2.6c-0.8,0.8-1.9,1.2-3,1.4
	c-0.7,0.1-1.1-0.2-0.9-0.9c0.1-2.9-1.1-5.1-3-7.1c-0.6-0.4-0.5-0.7,0.1-1l-0.1,0.1C41,8,42.5,9.3,44,10.8z"/>
<path class="st249" d="M109.3-3.6c1,0.3,1.1-1.2,2.2-1.1c0,2.2,1,4.2-2.2,5.7c-2.3,1.1-2.6-0.3-2.4-1.1c0.6-2.8-1.2-6,1.4-8.4
	c1.2-1.1,0.1-2.5,0.5-3.8c0.2-0.7,0.6-1.2,1.3-1.4c1-0.3,0.9,0.7,1.3,1.2c1.3,1.6,0.9,3.5-1.1,5C109.2-6.7,109.2-6.7,109.3-3.6z"/>
<path class="st249" d="M53,23.8c-0.3-1.3-1.1-2.2-2.1-3c-1.6,0.7-2.9,0.6-3.9-1.1c2.2-1.8,5.2-3,5.6-6.5c0-0.2,0.8-0.3,1.3-0.5
	c2.2,2.2,1.4,5.9,3.9,8c1.1,0.2,2.7,0.2,2.1,1.9c-0.5,1.5-1.8,1-2.8,0.2c-0.4-0.3-0.7-0.7-1.1-1C54.7,22.1,54.7,24.3,53,23.8z"/>
<path class="st249" d="M37,95.8c-0.2,1-0.7,1.9-1.9,1.9c-0.5-1-0.9-2.1-1.6-3c-0.7-1-0.8-1.8,0-2.6c1.1-1.2,1.4-2.5,1.1-4.1
	c-0.2-1.1,0.2-2.1,1.3-2.3c1.6-0.3,1.1,1.2,1.3,2c0.2,0.7,0.6,1.4,1.3,1c1-0.4,2.1-1.8,2.4,0.3c0.2,1.5-1.4,3.5-2.4,3.1
	c-3-1-2.1,0.2-1.6,1.8C37.1,94.4,37,95.1,37,95.8z"/>
<path class="st249" d="M12.8,109.9c0-0.4,0.1-0.7,0.1-1.1c-0.4-1.1,0.1-1.3,1-1.1l0,0c2.8,0.9,2.1-2.9,4.2-3
	c2.5,1.3,3.2,3.5,2.7,6.1c-0.2,1.1-0.5,2.2,0.3,3.2c-0.4,1.3-0.4,2.8-2.2,3.2c-1-0.1-1.4-0.8-1.8-1.6c-0.3-0.7-0.6-1.4-1.3-1.9
	c0-0.3-0.1-0.7-0.1-1C14.7,111.8,13.3,111.4,12.8,109.9z"/>
<path class="st249" d="M74.8,15.8c-1-1.2-1.1-3-3-3.7c-1.6-0.5-1.4-1.6-0.2-2.5c0.4-0.3,0.9-0.5,1.3-0.7c3.4-1.8,3.4-1.8,5.2,2
	c0.8,1.3,0.2,2.6,0,3.9l0.1-0.1C77.2,16,76,15.8,74.8,15.8z"/>
<path class="st249" d="M39.9,40.1c-0.3,3.4,2.7,5.1,4.1,7.6c-0.9,2.5-2.7,1.2-4,0.7c-1.5-0.5-2.6-1.9-4.1-2.6
	c-0.4-0.2-0.8-0.5-1-0.9c-0.5-1.3-0.6-2.7-1-4.1c-0.6-1.3-1.4-2.8,1-3.1c0.6,0.7,1.2,1.4,1.9,2c1.2,1,1-0.2,1.2-0.9l-0.1,0
	c0.6,0.3,1.2,0.7,1.8,1L39.9,40.1z"/>
<path class="st249" d="M15.9,113.7c1.2-0.4,0.5-2.1,1.8-2.5c0.8,1.2,0.3,2.4,0.2,3.6c0,0.9,0.1,1.7,1.1,2.1c0.7-0.9,1.5-1.9,2.2-2.8
	c0.7,0.4,0.7,1.1,0.7,1.7c-1.3,0.7-1.3,1.9-0.7,2.8c0.7,1.2,0.2,2.1-0.3,3.1c-1.6,2-3.1,2.8-4.7,0C15.9,119.1,15.4,116.4,15.9,113.7
	z"/>
<path class="st249" d="M118.2,32c1.7,2.9-0.8,2.4-2.3,2.8c-1.6-1.9-3.4,1.1-5.1-0.2c-0.8-0.6-1-1.5-1-2.5c0.1-0.2,0.2-0.4,0.4-0.5
	c1.7-2,0.7-4.7,1.9-6.8c0.3,0,0.6,0,0.9,0.1c0.6,0.1,0.9,0.4,1,1c0.4,1,0.7,2,1.1,2.9C115.9,30,118,30,118.2,32z"/>
<path class="st249" d="M53,23.8c1.2-0.4,1.3-2.3,3-2c-1,3.4-1,3.4,2.5,4.5c-1.8,2.5-2.3,6.1-6.4,6.3l0,0c0-0.3-0.1-0.6-0.2-0.9
	C47,28.4,52.4,26.4,53,23.8L53,23.8z"/>
<path class="st249" d="M16.9,20.6c0.6,0.1,2.4-0.3,1.7,0.5c-3.7,4.3-7.1,9.2-13.7,9.4L5,30.6c0.3-2.5,2.9-2.3,4.2-3.7
	C12.1,25.2,14.7,23.2,16.9,20.6z"/>
<path class="st249" d="M96.9,27.4c-0.2,2.5-0.9,4.7-3.8,5.2c0.4-1.6,0.9-3.1-1-4.3c-2-1.3-3.2-3.2-3.2-5.7c0.6-0.1,1.2-0.2,1.9-0.2
	c0.1,4.1,3.8,3.6,6.2,4.8L96.9,27.4z"/>
<path class="st249" d="M35.9,44.7c1.9,1.7,4.7,1.6,6.4,3.5c0.5,0.5,1.1-0.3,1.7-0.5c0.7,1,1.3,2,2,3.1c-0.4,0.8-1.5,0.3-1.8,1
	c0.2,1.1,1,1.8,1.7,2.5c-1.1,0.3-2,0-2.9-0.5c-1.4-3.3-4.1-5.3-7-7C35.4,46.1,35.4,45.4,35.9,44.7z"/>
<path class="st249" d="M55.7-10.1c1.1,2.3,2.3,4.6,3.4,6.9c0.4,2-1,3.8-0.2,5.8c-0.8-0.1-1.9-0.1-1.9-1.1c0.2-4.5-2.6-7.8-4-11.7
	C53.9-10.5,54.8-10.3,55.7-10.1z"/>
<path class="st249" d="M71.3,37.8c-0.2-1.8,1.8-3,0.8-4.8c-0.4-0.6,0.3-1.2,0.9-1.5c0.7-0.3,1.3,0,1.8,0.5c0.5,0.6,0.9,1.3,1.4,1.9
	c1.2,1.5,0.7,3.5-1.1,3.7C73.9,37.7,72.9,38.6,71.3,37.8z"/>
<path class="st249" d="M53,23.8c-0.2,1.3-0.4,2.4,0.9,3.4c0.6,0.5,0.2,2-1.2,1.5c-2.7-1-1.8,0.5-1.3,1.7c0.2,0.4,0.3,0.9,0.5,1.3
	c-4-1.3-4.3-2.2-2.3-5.2C50.5,25.3,51.6,24.4,53,23.8z"/>
<path class="st249" d="M130.8,11.9c-1.7,1.4-2.4-0.1-2.9-1.2c-1-2.3-0.4-4.6,0.2-6.8c1.7-0.4,1.7-2.1,2.7-3.1
	c2.4,1.2,0.2,2.7,0.3,4.1C133.9,7.3,133.3,9.6,130.8,11.9z"/>
<path class="st249" d="M58.8,7.8c0-0.9,0.5-1.6,1.2-2.2c1.6,0.7,2.9,0.3,4-1.1c1.7-0.3,1.2-2.2,2.2-3c0.4-0.1,0.9-0.1,1.3,0.1
	C67.7,2,67.9,2.3,68,2.8c-1.3,2.4-2.6,4.9-4.2,7.8C62.5,8.6,60.8,7.8,58.8,7.8z"/>
<path class="st249" d="M54.7,41.6c-1.2,1.3-3.3-0.4-4.4,1.3c-2.1,2.7-2.7-0.3-3.9-1c3.1-0.2,4.8-2.9,7.2-4.1
	C54.8,39,53.8,40.5,54.7,41.6z"/>
<path class="st249" d="M39.8,39.8c0.1-0.2,0.1-0.4,0.2-0.4c1.4-1-1.3-3.5,1.4-3.9c1.2-0.2,2.7,3.3,2.6,5.3c-0.8,0.7-0.2,2.6-2,2.3
	c-1.6-0.4-0.4-2.6-2-3C39.9,40.1,39.8,39.8,39.8,39.8z"/>
<path class="st249" d="M84,33.8c0.9,2.8-0.2,5.3-2.6,5.5c-1,0.1-2.7,3-3.3-0.4c0.9-0.9,0.1-2.2,0.9-3.1l0,0c0.7-0.5,1.4-0.6,2,0.1
	c0.4,0.7,0.8,0.6,1.1,0C82.6,35.1,82.7,33.9,84,33.8z"/>
<path class="st249" d="M80.2-0.8c-0.9,1.4-1.8,2.2-1.5,3.7c0.1,0.6-0.5,1.2-1.3,1.2c-0.7-0.1-1-0.7-1.3-1.3
	C74.8-0.2,75.6-1.1,80.2-0.8z"/>
<path class="st249" d="M46,98.8c-0.7,0-1.4,0-2,0c0.4-1.1,1.1-2.2,0.1-3.4c-0.3-0.4-0.3-0.9-0.2-1.4c-0.5-2.7,0.5-4.2,3.4-4
	c1.2,1.4,0.5,3.1,0.7,4.6c-0.8,1.1-0.2,2.8-1.3,3.8C46.4,98.6,46.2,98.7,46,98.8z"/>
<path class="st249" d="M57.7,20.7c-2.5,0.2-2.3-2.4-3.6-3.5c-1.8-1.4,0.2-3-0.3-4.5c0.8-0.3,1.7-0.5,2,0.5
	C56.5,15.7,57.1,18.2,57.7,20.7z"/>
<path class="st249" d="M46.7,103.6c-1.2,0.2-2.2,0-1.6-1.5c0.5-1.1,0.9-2.1,0.8-3.3c0,0,0,0.1,0,0.1c0.6-0.8,1-1.8,2-2.1
	c1,0.3,1.5,1.3,2.2,2c-0.1,1.1-0.2,2.5-1.7,2.5C46.6,101.3,47,102.6,46.7,103.6z"/>
<path class="st249" d="M57.3,45.1c1.7-2.3,2.3-4.5,5.1-4.5C63,44.2,61.1,45,57.3,45.1z"/>
<path class="st249" d="M89.3,1.8c-2.4,0.5-3.1-1.3-4-2.9c-0.5-0.8-1.6-1.4-0.5-2.5c1-1,1.5-0.2,2.4,0.5c0.5,0.4,1.8,0,2.7,0
	c0.1,0.6,0.3,1.5-0.3,1.8C87.3-0.3,88.7,0.8,89.3,1.8z"/>
<path class="st249" d="M41.7,80.6c-3.2-2.3-4.6,1.8-7.6,1.9c1.3-2.6,3.1-4.3,5-5.1C41.4,76.4,41.2,79,41.7,80.6z"/>
<path class="st249" d="M1.3-1.7c0.4,1.6-1.6,2.9-0.5,4.6C1.1,3.5,0.2,3.9-0.4,4C-1.1,4.1-1.8,3.9-2,3.1C-2.2,2-2.6,0.7-2.2-0.2
	C-1.7-1.2-0.3-1.7,1.3-1.7z"/>
<path class="st249" d="M17.3,81.5c-0.3,0.2-0.6,0.7-1,0.8c-1.9,0.5-2.4-1.2-3.1-2.4c-0.7-1.2-0.2-2.2,0.9-2.9
	c0.2-0.1,0.7-0.2,0.9-0.1c0.9,0.4,0.5,1,0.3,1.6c-0.3,0.9-0.2,1.6,0.8,1.8C16.7,80.5,17.5,80.4,17.3,81.5z"/>
<path class="st249" d="M44,10.8c-0.6,0.5-1.3,1-2.1,0.2c-0.8-0.9-1.9-1.1-3.1-1.1c0.6-2.2,3.2-2.2,4.3-3.9c2.6,0.3,2.1,1.5,0.8,2.9
	C43.3,9.5,43.4,10.1,44,10.8L44,10.8z"/>
<path class="st249" d="M34.9,37.7c-1.4,1-0.6,2.1-0.1,3.2c-0.2,0.3-0.5,0.5-0.9,0.5c-0.4-0.1-0.7-0.2-1-0.4c-2-1.9-2-3.6,0.4-5.1
	c0.9-0.6,1.8-1.3,2.7-2c0.6,0.6,0.6,1.3,0.1,2C35.1,36.1,35.1,36.9,34.9,37.7z"/>
<path class="st249" d="M84,33.8c-0.6,0.7-1.3,1.4-1.9,2.1c-1.2-2.8-0.7-4.9,2.4-6.1C85.8,31.3,84.4,32.5,84,33.8z"/>
<path class="st249" d="M128-5.7c0.9,1.7-0.5,3.9,1,5.5c-1.4,0.4-2.1-0.3-2.7-1.5c-0.4-0.9-1-1.6-1.6-2.5c0.4-1.8,2.3-1.8,3.3-2.8
	C128.7-6.5,128.7-6.1,128-5.7z"/>
<path class="st249" d="M67,1.8c-1.5,0.4-0.9,3-3,2.8c0.9-1.9,1.3-3.8,0-5.8l0,0c1.2-4.2,2.5,0.1,3.8,0C68.8,0.1,67.9,0.9,67,1.8z"/>
<path class="st249" d="M120.9,20.9c0-0.7,0-1.5,0-2.2c0-0.3,0-0.6,0.1-0.9c1-0.6,1.1-2.7,3-2c-0.1,2.5,0.1,5.1-2,7c0,0,0.1,0,0.1,0
	C121.3,22.4,120.5,22,120.9,20.9z"/>
<path class="st249" d="M74.8,15.8c0.4-2.5,2.2-0.5,3.2-1.1c0.6,1.9-1.3,3.1-1.2,4.8c-1.6,0.4-2.9,0.6-2.7-1.7
	C75.3,17.5,75.6,16.9,74.8,15.8z"/>
<path class="st249" d="M52.8,64.3c1.2,2.2,3.4,2.6,3.5,4.7c0,0.8,0,1.7-1,2c-1,0.3-1.7-0.4-1.5-1.2C54.2,68,52.6,66.8,52.8,64.3z"/>
<path class="st249" d="M50.9,21.7c-2.7,3.6-2.7,3.6-6.9,2.1c-0.6-0.6-0.6-1.3-0.1-1.9c0.3-0.1,0.6-0.1,0.9-0.1
	C46.8,20.9,48.8,19.4,50.9,21.7z"/>
<path class="st249" d="M29.4,94.3c-2.6-1.1-3.9-2.9-3.2-6.3C28.4,89.8,28.5,92.3,29.4,94.3z"/>
<path class="st249" d="M43.9,95c0,0,0.1,0.4,0.1,0.4c-2.8-3.3-2.8-5.2,0.1-7.2c0.6-0.4,1.3-0.1,1.7,0.4C44.3,90.5,45.1,93,43.9,95z"
	/>
<path class="st249" d="M49.1,107.7c-0.8,1.3-1,2.7-1.3,4.2c-0.3,1.1-1.3,1.6-2.3,1.1c-1.2-0.5-1-1.4-0.3-2.4
	c0.7-0.9,1.2-1.9,1.8-2.9C47.7,107.2,48.4,107.2,49.1,107.7z"/>
<path class="st249" d="M76.8,24.8c-0.6-1.7,0.9-3.2,0.3-4.9c1.1,0.1,2.7-1.6,3.1,0.9C79.6,22.6,79.9,25.1,76.8,24.8z"/>
<path class="st249" d="M67,28.8c2-0.6,3.4-1.8,4.6-3.4c0.9-1.1,1.3-0.5,1.6,0.4c-0.9,2-2.6,3.3-4.2,4.5C67.5,31.6,66.8,30.4,67,28.8
	z"/>
<path class="st249" d="M1.8,120c-1.4-1-1.7-2.2-0.8-3.7c0.1-0.2,0.5-0.4,0.8-0.5c0.6-0.1,1,0.3,0.9,0.8C2.6,117.7,3,118.9,1.8,120z"
	/>
<path class="st249" d="M68.9-2.2c4.5,1.2,4.8,1.7,3.4,5.8c-1-1.2-0.3-3.5-2.4-3.9C69.1-0.7,68.5-1.1,68.9-2.2z"/>
<path class="st249" d="M0,102.6c0.1,0.9-0.3,1.3-1.1,1.1c-2.3-0.6-1.9-3.3-3.3-4.7c0.5-0.4,1-0.8,1.5-1.1c0.6,0.3,1.1,0.6,1.7,0.9
	c0.1,0.3,0.2,0.7,0.3,1C0.1,100.6-0.4,101.7,0,102.6z"/>
<path class="st249" d="M50.9,21.7c-1.2,0.9-3.1-1.3-4,1.1c-0.2,0.6-1.8,0.1-2.2-1.1c0.5-1,1.4-1.4,2.3-2c1.4-0.1,2.9-0.5,3.9,1.1
	C50.9,21.1,50.9,21.4,50.9,21.7z"/>
<path class="st249" d="M43.8,21.8c0,0.6,0.1,1.3,0.1,1.9c-2.4-0.9-3.5-3-3.9-5.2c-0.4-1.9,1.1-0.7,1.9-0.7c0.3,0.3,0.6,0.6,0.9,0.9
	C43.2,19.8,42.8,21.1,43.8,21.8z"/>
<path class="st249" d="M32.8,81.6c-0.4,2.3-1.8,3.2-2.9,4.3c-0.4,0.4-0.9,0.2-1.3-0.1c-0.4-0.4-0.4-0.9,0-1.2
	C29.8,83.6,30.6,82.1,32.8,81.6z"/>
<path class="st249" d="M56.7,49.5c2-2.9,2-2.9,3.8,0.6c-1.1,0.8-2.2-0.2-3.2,0C57.1,49.9,56.9,49.7,56.7,49.5z"/>
<path class="st249" d="M27.7,72.9c0.4-1.6,0.4-3.2-1.3-4.1c2.3-1.9,3.2,0.4,3.2,1.6c0,1.6,0.5,3.1,0.2,4.9
	C28.4,74.9,28.3,73.7,27.7,72.9z"/>
<path class="st249" d="M118.1,3.9c0,1.6-1.2,2.3-1.9,3.3c-0.4,0.6-1,0.7-1.6,0c-0.3-0.4-0.5-0.9-0.1-1.3
	C115.5,5.1,116.3,3.8,118.1,3.9z"/>
<path class="st249" d="M123.9-0.3c0,0.8-0.3,1.4-1.1,1.4c-1.1-0.1-1.9-0.7-1.7-1.9c0.1-0.8,0.8-1.5,1.8-1.4
	C123.9-2,123.8-1,123.9-0.3z"/>
<path class="st249" d="M64-1.2c-0.3,0.8-0.5,1.6-0.8,2.4c-0.3,1-0.4,2-1.8,2c-0.3,0-0.7-0.3-0.7-0.5c-0.4-1.2,0.6-1.8,1.2-2.5
	C62.5-0.4,63.3-0.8,64-1.2C64-1.2,64-1.2,64-1.2z"/>
<path class="st249" d="M18.2,104.7c-1,1.5-1.9,3-2.9,4.4c-0.3,0.4-0.6,0.9-1.1,0.4c-0.5-0.5-0.4-1.2-0.2-1.8
	c0.8-0.5,1.3-1.3,1.7-2.2C16.2,104.5,16.9,103.6,18.2,104.7z"/>
<path class="st249" d="M20,41.8c0.2,0.3,0.4,0.5,0.6,0.8c0.6,0.9,0.7,1.8-0.4,2.5c-0.4,0.3-1,0.2-1.3-0.2c-0.8-1-0.3-1.8,0.4-2.5
	C19.5,42.2,19.8,42,20,41.8C20,41.8,20,41.8,20,41.8z"/>
<path class="st249" d="M8,93.8c-0.2-0.2-0.5-0.4-0.7-0.6c-1.1-1.2-1.5-2.4-0.7-3.9c0.1-0.2,0.7-0.3,0.9-0.2c1.8,1,0.7,2.5,0.7,3.8
	C8.2,93.2,8,93.5,8,93.8C7.9,93.8,8,93.8,8,93.8z"/>
<path class="st249" d="M31.3,51.9c-0.8-0.2-1.1-0.8-1.1-1.5c0-1.1,0.4-2,1.6-2.1c0.9-0.1,1.1,0.7,0.8,1.3
	C32.4,50.5,32.6,51.7,31.3,51.9z"/>
<path class="st249" d="M58.4,33.3c-0.4,0.8,0.1,2.5-1.8,2.2c-0.8-0.1-0.9-0.9-0.9-1.6c0-1.2,0.7-1.8,1.8-1.9
	C58.3,31.9,58.7,32.4,58.4,33.3z"/>
<path class="st249" d="M32.9,41c0.3,0,0.6-0.1,0.9-0.2c1.5,0.9,0.8,3,2.2,4c0,0-0.1-0.1-0.1-0.1c0,0.7,0.1,1.4,0.1,2.1
	C32,46.4,33.3,43.2,32.9,41z"/>
<path class="st249" d="M36,35.8c0-0.7,0-1.3-0.1-2c0.8-0.8,2.1-1.7,2.6-0.2C39.3,35.6,37.4,35.7,36,35.8z"/>
<path class="st249" d="M16.7,90.9c0.5,0.9,0.4,1.6,0,2.2c-0.4,0.6-0.8,1.7-1.8,0.9c-0.6-0.5-0.2-1.2,0.2-1.7
	C15.5,91.8,15.7,91,16.7,90.9z"/>
<path class="st249" d="M43.9,95c0.3-2.2-0.4-4.7,1.9-6.3c0.4,0.5,0.9,0.9,1.3,1.4C44.9,90.9,45.9,93.9,43.9,95z"/>
<path class="st249" d="M115.3,17.1c-0.2,0.8-0.7,1.2-1.4,1.2c-1.2,0-1.9-0.7-2-1.8c-0.1-0.6,0.7-0.8,1.1-0.4
	C113.7,16.8,115.2,15.3,115.3,17.1z"/>
<path class="st249" d="M63.9,59.7c-2-0.4-1.8-2.5-2.8-3.6c0.6-0.1,1.1-0.1,1.7-0.2c0.7,0.6,1.4,1.2,2.1,1.9c0,0,0,0,0,0
	C64.6,58.4,64.3,59,63.9,59.7z"/>
<path class="st249" d="M43,53.8c1,0.2,1.9,0.3,2.9,0.5c0.4,0.7,1,1.6,0.4,2.1c-0.8,0.7-1.4-0.2-1.9-0.7C43.8,55.1,43.4,54.5,43,53.8
	z"/>
<path class="st249" d="M28,81.5c0.1-0.6,0-0.8,0.1-0.9c0.8-0.9,1.3-2.2,2.8-2.3c0.2,0,0.6,0.5,0.5,0.7C30.9,80.7,29.7,81.2,28,81.5z
	"/>
<path class="st249" d="M68.9-2.2c0.3,0.6,0.7,1.3,1,1.9c-1.2,1-0.3,2,0.1,3c-1-0.3-2.1-0.4-3-1c0,0,0.1,0,0.1,0
	c-0.8-1.3,0.6-2,0.7-3C68.1-1.6,68.5-1.9,68.9-2.2z"/>
<path class="st249" d="M31.5,66.1c1.3,0.2,1.4,1.1,1.4,1.9c0,0.7,0,1.5-0.7,1.6c-1.1,0.2-1.3-0.7-1.4-1.5
	C30.7,67.2,30.8,66.5,31.5,66.1z"/>
<path class="st249" d="M48.1,73.1c1.2,0.5,0.8,1.6,0.8,2.5c0,0.5-0.2,1-0.8,0.9c-1.1-0.3-1.6-1.1-1.4-2.2
	C46.9,73.6,47.3,73,48.1,73.1z"/>
<path class="st249" d="M43,4.1c1.9-2,3.4-1.7,4.6,0.8C46,4.8,44.4,4.9,43,4.1z"/>
<path class="st249" d="M52.1,32.6c-0.2,1.4-0.2,2.9-2.2,3.4C49.6,34,50.9,33.4,52.1,32.6C52.1,32.7,52.1,32.6,52.1,32.6z"/>
<path class="st249" d="M110,24.9c-1.8-0.8-1.8-2.6-2.2-4.2C110.7,20.9,110.7,20.9,110,24.9z"/>
<path class="st249" d="M6,98.9c-1.4-0.4-3.1,0.4-4.1-1.2C5,96.2,5.6,96.3,6,98.9z"/>
<path class="st249" d="M101.5,7c-0.2,0.6-0.2,1.4-0.9,1.6c-0.8,0.2-1-0.5-1.1-1.2c-0.1-0.7,0-1.3,0.8-1.4C101,5.9,101.6,6.1,101.5,7
	z"/>
<path class="st249" d="M92.8,5.9c0,0.2,0,0.3,0.1,0.5c0.1,0.9,0.5,1.9-0.2,2.8c-0.1,0.1-0.7,0.1-0.8-0.1C90.5,8,91.1,6.9,92,5.8
	C92.2,5.9,92.5,5.9,92.8,5.9z"/>
<path class="st249" d="M44.1,51.8c0.1-1.2,1.1-0.9,1.8-1c0.7,0.2,1.8-0.1,1.6,1c-0.1,0.7-1,0.5-1.6,0.4C45.3,52.1,44.7,52,44.1,51.8
	z"/>
<path class="st249" d="M9,111.8c-0.8,0-2,0-1.5-1c0.5-1.1,1.6-2.7,3.3-1.1C10.1,110.3,9.3,110.9,9,111.8z"/>
<path class="st249" d="M8,103.9c-1-0.1-2-0.4-1.8-1.6c0.2-1.5,1.5-1.3,2.6-1.3C8.5,102,8.3,102.9,8,103.9z"/>
<path class="st249" d="M89,19.8c-0.2-1.4-2.1-3.2,0.8-4C90.2,17.3,90.8,18.8,89,19.8z"/>
<path class="st249" d="M110.6,12c0.1,0.6-0.1,1-0.7,1c-0.9-0.1-1.5-0.7-1.7-1.5c-0.2-0.8,0.5-1.3,1.1-1.3
	C110.3,10.3,110.1,11.5,110.6,12z"/>
<path class="st249" d="M107.3,14.6c0.3,0.4,0.7,0.7,0.9,1c0.4,0.7,1,1.4-0.1,2c-0.2,0.1-0.7,0-0.9-0.2c-0.7-0.7-0.5-1.5-0.3-2.3
	C107.1,15,107.2,14.8,107.3,14.6z"/>
<path class="st249" d="M78,14.8c-1.1-1.3-0.2-2.6,0-3.9c0.6,0,1.3,0.1,1.9,0.1C78.8,12.1,79.6,14,78,14.8z"/>
<path class="st249" d="M7.9,93.8c0.5,0,1-0.1,1.5-0.1c0.8,0.2,1,0.8,0.8,1.5c-0.1,0.3-0.4,0.6-0.7,0.6C9,96,8.5,95.7,8.3,95.2
	C8.2,94.8,8.1,94.2,7.9,93.8C8,93.8,7.9,93.8,7.9,93.8z"/>
<path class="st249" d="M96.9,27.4l0.1-0.2c1.2-0.5,2.1,0,3,0.6c-0.1,0.8,0.1,1.8-1,1.9C97.5,29.8,98,27.9,96.9,27.4z"/>
<path class="st249" d="M51.1,93.4c-0.1,0.5-0.5,0.9-1,0.7c-0.2-0.1-0.5-0.5-0.5-0.7c0-0.5,0.4-0.9,1-0.7
	C50.8,92.8,51,93.2,51.1,93.4z"/>
<path class="st249" d="M41.9,43.1c1.2-0.3,1.2-1.6,2-2.3c0.1,0.5,0.2,0.9,0.2,1.4c0,0.7,0.6,1.7-0.4,2
	C42.9,44.5,42.4,43.7,41.9,43.1z"/>
<path class="st249" d="M66.7,40.8c-0.6-0.1-1-0.4-0.9-1c0-1,0.7-1.5,1.5-1.7c0.5-0.1,0.8,0.4,0.8,0.9C68,40,67.6,40.6,66.7,40.8z"/>
<path class="st249" d="M116.2,11.2c-0.2-0.3-0.7-0.9-0.7-1c0.5-0.6,1.1-1.2,1.8-1.5c0.4-0.2,0.6,0.6,0.6,1
	C117.9,10.7,117.3,11.2,116.2,11.2z"/>
<path class="st249" d="M114.9-0.5c-0.1,0.9-0.4,1.4-1.2,1.3c-0.5-0.1-0.8-0.5-0.7-1c0.2-0.6,0.6-1.2,1.3-1.2
	C114.6-1.5,114.8-0.8,114.9-0.5z"/>
<path class="st249" d="M39,9.7c0,0.3-0.1,0.7-0.1,1c-0.7,0.5-0.8,1.2-1,2c-1.5,0.2-2.1-0.2-1.3-1.7C37.2,10,38.1,10,39,9.7z"/>
<path class="st249" d="M15.7,13.4c-0.7,0.2-0.8-0.4-0.8-0.8c-0.1-0.7,0.1-1.3,0.9-1.4c0.5-0.1,0.9,0.2,1,0.8
	C16.8,12.6,16.3,13.1,15.7,13.4z"/>
<path class="st249" d="M110.3,5.1c0.2-0.6,0.2-1.5,1.2-1.6c0.5,0,0.9,0.4,0.8,0.9c0,0.7-0.4,1.2-1.1,1.4
	C110.9,5.9,110.4,5.7,110.3,5.1z"/>
<path class="st249" d="M99.8,0.6c0.2,0.2,0.7,0.4,0.8,0.8c0.2,0.7-0.1,1.3-0.9,1.1C99.4,2.5,99,2,98.9,1.6C98.8,1.2,99,0.7,99.8,0.6
	z"/>
<path class="st249" d="M94,19.9c-0.1,0.5-0.3,0.9-0.9,1c-0.7,0-1.2-0.3-1-1.1c0.1-0.5,0.5-0.7,1-0.7C93.7,19,93.9,19.4,94,19.9z"/>
<path class="st249" d="M99.5,13.2c0.3,0.1,0.7,0.3,0.7,0.4c0.1,0.9-0.6,1.4-1.3,1.7c-0.3,0.2-0.7,0-0.7-0.3
	C98.3,14.2,98.7,13.5,99.5,13.2z"/>
<path class="st249" d="M11.5,81.3c-0.2,0.2-0.4,0.6-0.6,0.6c-0.5,0.1-1-0.2-1-0.8c0-0.2,0.3-0.6,0.6-0.6
	C11,80.5,11.4,80.8,11.5,81.3z"/>
<path class="st249" d="M48,96.7c-0.7,0.7-1.3,1.4-2,2.1c0.5-1.5,0.7-3.1,2-4.2C47.9,95.4,47.9,96,48,96.7z"/>
<path class="st249" d="M49.1,107.7c-0.7,0-1.4,0-2.1,0.1c-0.1-1-0.1-1.9-0.2-2.9c0.2-0.1,0.3-0.2,0.5-0.3c1.5-0.1,1.5,1.8,2.7,2.2
	c0,0,0.2,0.2,0.2,0.2C49.8,107.2,49.5,107.5,49.1,107.7z"/>
<path class="st249" d="M14,107.7c-0.3,0.4-0.7,0.7-1,1.1c-1.1-1-0.3-1.9,0-2.9C13.8,106.3,14,107,14,107.7z"/>
<path class="st249" d="M89,21.8c-0.6,0.1-1.6,0.9-1.7-0.3c-0.1-1,0.8-1.6,1.8-1.6C89,20.5,89,21.1,89,21.8z"/>
<path class="st249" d="M66.9,1.8c1,0.3,2,0.6,3,1c-0.6,0.8-1.3,0.4-2,0.1C67.4,2.6,67.1,2.3,66.9,1.8z"/>
<path class="st249" d="M44,10.7c-0.4-0.6-1.9-1.2-0.1-1.9C44,9.4,44,10.1,44,10.7z"/>
<path class="st249" d="M80.9,35.9c-0.7,0-1.3-0.1-2-0.1c0.3-0.4,0.5-1,0.8-1.1C80.4,34.6,80.8,35.2,80.9,35.9z"/>
<path class="st249" d="M78.9,35.8C78.8,36.8,79,38,78,38.8C78,37.7,78.2,36.7,78.9,35.8z"/>
<path class="st249" d="M38,38.8c-0.3-0.4-0.5-1.2-0.3-1.2C38.9,37.7,37.9,38.4,38,38.8C37.9,38.8,38,38.8,38,38.8z"/>
<path class="st249" d="M56.9,40c0.1-0.1,0.1-0.3,0.2-0.3c0.1,0,0.3,0.1,0.3,0.1C57.4,40.2,57.2,40.2,56.9,40z"/>
<path class="st249" d="M70.9,114.8c3.9,1.3,6.4,3.7,6.5,8.1c0.1,1.6,1.4,2.1,2.4,2.9c1.4,1,2.6,2.1,2.2,4c-3.9-0.4-6.5-2.7-7.9-7.1
	c-1.5-4.6-3.5-6-8.3-5.8c0.3-1,0.6-2,0.8-3.1c0.8-1.2,1.5-3.3,3-0.4C70.1,113.9,70.6,114.3,70.9,114.8L70.9,114.8z"/>
<path class="st249" d="M55,109.8c-3.5-1.2-3.5-1.2-1-5.1c1.3-0.5,2.1,0.4,3,1c1.1,1,0.8,2-0.1,3C56.5,109.5,55.8,109.8,55,109.8z"/>
<path class="st249" d="M57.7,114.9c0.1,0.2,0.1,0.3,0.2,0.5c0.6,1.3,0.8,2.5-0.7,3.3c-0.6,0.3-1.4,0.4-1.8-0.1
	c-1.1-1.3-0.3-2.4,0.7-3.4C56.4,113.8,57.1,114.5,57.7,114.9z"/>
<path class="st249" d="M60.9,108.8c0.9-0.2,1.8-1.4,2.6-0.2c0.9,1.2-0.6,2.1-0.6,3.2c-0.7,1-1.3,2-2,3c-0.5-0.5-0.4-1.4-1-1.9
	C60.2,111.5,60.6,110.1,60.9,108.8z"/>
<path class="st249" d="M66,108.7c-0.1,0.9-0.1,1.9-0.2,2.8c-0.6,0-1.1,0.1-1.7,0.1C64.6,110.6,64.8,109.4,66,108.7z"/>
<path class="st249" d="M59.9,112.9c0.7,0.4,0.8,1.1,1,1.9c-0.1,0.5-0.5,1-0.8,0.3C59.8,114.4,60,113.6,59.9,112.9z"/>
<path class="st249" d="M63.9,116.8l-0.5,0c0,0-0.5,0-0.5,0c0-0.4,0-1.2,0.1-1.2C64,115.5,63.8,116.3,63.9,116.8z"/>
<path class="st249" d="M225.9-17c0.1,1.1,0.4,2,1.3,2.8c2.9,0.4,3.5,2.4,2.4,4.6c-0.8,1.5-0.7,3.2-1.6,4.5l0.1-0.2
	c-0.9,1.3,1.2,4-2,4.1c-1,1.2-2,2.4-3.2,3.8c1.4,1.1,3.5-1.3,4.1,1.1c2.3,6,0.6,14-3.6,17.7c-1.4,1.2-2.8,2.3-4.7,2.4
	c-6.3,0.3-12.2,3.4-18.7,3c-3.6-0.2-7,1.7-10.7,1.8c-0.7-0.3-1.4-0.5-2.1-0.9c-1.3-0.9-2.8-1.8-4.1-2.7c-1.1-1.1-2-2.4-3.3-3.3
	c-0.6-0.7-1.2-1.3-1.7-2c-0.5-1.2-0.8-2.5-1.9-3.3c-1.8-1.2-1.9-3-1.7-4.9c0.2-1.2,0.7-2.3,1.1-3.4c0.5-0.9,1.1-1.6,2-2
	c3.4,0.2,6.7,0.4,9.1,3.8c1.1,1.6,4.5,2.1,5.7,0.7c4-4.6,7.4-0.9,11,0.2c1.1,0.3,2.1,2.1,2.9-0.2c-0.1-0.6-0.4-1.1-0.7-1.5
	c-0.8-0.8-1.8-1.2-2.8-1.4c-0.4-0.1-0.9-0.1-1.3-0.2c-1.1-0.2-2.3,0.1-3.4-0.5c-0.6-0.4-1-1-1.1-1.7c-0.1-1.6-0.1-3.2-0.7-4.8
	c0.6,1.5,0.6,3,0.6,4.6c-2.6,6.3-7.1,7.6-11.6,3.3c-1.1-1-2.3-1.8-3.8-2.1c-2.4-1.1-5.9-0.6-7-4c-0.3-0.3-0.5-0.7-0.7-1.1
	c-0.2-0.4-0.3-0.9-0.3-1.4c0-1,0.3-1.9,1-2.6c-1.3,1.2-1.3,3.4-3.3,4c-1.9,0.2-3.9,1.6-5.4-0.8c-0.2-0.5-0.3-1-0.3-1.5
	c-0.1-1.7,0.1-3.4,1.3-4.8c1.9-1.7,2.5-3.6,1.1-5.9c-0.3-0.8-0.8-1.4-1.6-1.9c-0.4-0.2-0.8-0.5-1.1-0.9c-0.8-1.1-0.8-2.4-0.5-3.6
	c0.4-1,1.2-1.7,1.9-2.4c0.4-0.3,0.8-0.5,1.2-0.7c1.3-0.6,2.4,0,3.5,0.6c-0.3-0.2-0.5-0.4-0.7-0.5c-0.3-0.2-0.6-0.3-1-0.4
	c-0.8-0.1-1.5,0-2.2,0.4c-0.4,0.2-0.8,0.2-1.2,0.2c-1.7-0.9-3.2-0.5-4.6,0.7c-1.4,1-2.5,2.7-4.6,1.9c-3.1-1.6-3-4-1.6-6.8
	c3-1.7,4.7-4.4,5.2-7.7c0.3-0.6,0.7-1.2,1.3-1.6c2.7-1.8,3.1-4.1,1.7-6.9c-0.4-3.6-1.6-6.9-3-10.2c1.5-3.6,4.6-1.7,7.1-2.2
	c0.8,0,1.6,0,2.4,0.2c1.4,0.3,2.2,1.3,2.8,2.5c0.7,2.6,2.2,5.1-0.5,7.8c-1.4,1.3,0.3,3.2,0.9,4.8c0.7,1.9,1.5,3.7,2.6,5.4
	c0.9,2.7,5.1,3.2,4.7,6.8c0,2.6,0.6,5.1,2.2,7.2c0.8,0.8,0.3,2.4,1.8,2.7c1.5-0.9,1.6-3.4,3.9-3.3c1.9,0,3,1.3,4.1,2.4
	c-0.1-0.1,0,0,0,0c-1.8-1.9-1.6-3.9-0.5-6c1.1-1.5,1.9-3.2,2.4-5.1c0.2-0.7,0.3-1.4,0.4-2.1c0,0-0.1-0.4-0.1-0.3
	c0,0.1-0.2-0.2-0.2-0.2c0,0.1-0.3-0.1-0.3,0c-0.3,0.1-0.6,0.1-0.9,0.2c-0.4,0-0.8,0.1-1.2,0.1c-1.7,0-3.2,1-4.8,0.6
	c-1.3-0.5-2.1-1.6-2.6-2.9c0.1-3.7,3-5.9,4.8-8.8c0.9-0.6,2-0.7,3-1c1-0.1,2-0.1,3,0.4c0.9,0.4,1.7,0.9,2.6,1.3
	c4.5,0.5,8,1.9,10,6.7c1,2.4,3.5,4.6,6.5,5.7c5.6,2,6.3,3.7,4,9.2c-0.5,0.8-0.6,1.7-0.9,2.6c-0.2,0.6-0.5,1.2-0.8,1.9
	c-0.6,1-1.3,1.9-2.3,2.4c-0.4,0.2-0.8,0.5-1.2,0.7c-1.8,1.3-3.5,1.5-4.9-0.5c-0.2-0.2-0.3-0.4-0.3-0.6c0,0.1-0.1-0.1-0.1,0
	c0.1,0.3,0.2,0.4,0.3,0.6c2.4,1.7,4.6,3.6,4.9,6.7c0.1,0.4,0.1,0.8,0.2,1.2c1.5,1.8,2.1,4.1,3.5,5.9c-0.2-0.6-0.6-1.1-1-1.6
	c0.2-2-1.6-3.5-1.4-5.5c1-4.3,1.2-8.7,3.4-12.7c1.2-2.2,2.4-3.6,5-2.9c0.7,0.4,1.3,0.7,2,1.1c0.1,0.4,0.3,0.7,0.4,1.1
	c0.1,0.2,0.2,0.3,0.3,0.5C226.2-18.1,226.4-17.6,225.9-17z"/>
<path class="st249" d="M194.1,29.6c0.4,0.5,0.8,0.9,1.2,1.4c1.3,1.4,1,3.3,1.7,4.9l-0.1-0.1c0.7,1.3,2.2,0.2,3.1,1
	c0,0-0.1-0.1-0.1-0.1c-0.1,1.9,0.5,4.1-2,5.1c-3,0.5-3.3,3.9-5.4,5.4c-3.2,1.8-0.9,5.8-3.3,7.9c-6-1.6-6.1-1.6-6.2,3.4
	c-0.4,0.6-1.6,0.8-1.3,1.7c0.4,1.2,1.5,0.7,2.4,0.6c0.9,0.4,1.4,1,0.9,2l0,0c-0.7,0.4-0.6,0.7,0,1.1c0.4,0.3,0.7,0.7,1.1,1
	c0.1,1.8,1.1,3.2,1.8,4.8c-1.5,1.2-2.7,0.7-3.5-0.8c-0.5-1-0.9-2-1.3-3.1c-0.9,0-1.5-0.4-2.1-1c-1-3.3-0.7-7-2.9-10
	c-0.5-0.6-0.1-1.9-0.2-2.8c1-0.7,1-1.6,0.7-2.5c0.3,1,0.3,1.9-0.8,2.4c-1.1-0.5,0-3.9-2.8-2c-0.6-0.6-0.9-1.4-0.8-2.2
	c0.8-3.6,1.8-7.1-3.5-8.1c-1-0.2-1.7-1.9-2.2-2.9c1.9,1.8,1.8,4.8,3.3,7.1c-0.1,0.6-0.1,1.4-0.4,1.9c-1,1.5-2.5,1.5-4,0.8
	c-1.6-0.7,0.4-2-0.4-3.2c-1.5,0.3-3.1,0.7-4.7,1.1c-3.3,0.6-4.5-0.3-5.1-3.6c-0.3-1.6,0.9-3.2-0.2-4.8c-2.6-0.9-4.1,5.1-7.1,1
	c3-1,4.4-3.2,4.9-6.1c0,0.1-0.1-0.1-0.1,0s-0.1,0.2-0.1,0.3c-0.1,1.4-0.9,2.4-1.6,3.5c-0.5,1.6-2,1.7-3.1,2.3
	c-1.7-0.1-3.5-2.3-5-0.4c-1.5,1.9-2,4.2,0,6.3c0.2,0,0.5,0,0.7,0c3.1,0.1,4.8,1.2,4.6,4.8c-0.2,3.1,2.6,6.9-2,9
	c-0.8,0.5-1.5,1.1-2.3,1.7c-0.4,0.2-0.9,0.3-1.4,0.3c-2.4-0.6-3.3-2.7-4.6-4.4c-0.4-1.6-0.7-3.3-1.8-4.5c-1.7-1.9-1.8-4.1-0.9-6
	c2.2-4.9,1.7-10.7,5.1-15.2c0.6-0.8,0.3-1.9,0.4-2.9c2.2-6.8,8.2-9.3,13.8-12.1c3-1.5,5.9-2.4,7-6.1c0.6-2.2,2.8-3.5,4.5-5.1
	c0.2-0.1,0.3-0.3,0.5-0.4c0.7-0.8,1.9-1.2,2.5-2.2c1.3-2.8,3.8-4.9,4.3-8.1c0.2-0.9,1.3-1.8,2.3-1.2c1.3,0.7,0.1,1.6-0.1,2.4
	c-0.7,2.3-2.2,4.3-1.5,6.9c0,0,0,0,0,0c0,0.4,0,0.7-0.1,1.1c0.7,2.6,1.5,5.1,1,7.8c-0.4,1.1-0.7,2.2-1.1,3.3
	c-0.9,1.1,0.3,3.3-2.3,3.6c-1.8,0.2-0.8,2.1-1.1,3.3c0,0.4,0,0.9,0.1,1.3c0,0.4,0,0.8-0.1,1.3c0,1.2-0.6,2-1.6,2.4
	c-0.4,0.3-0.8,0.5-1.2,0.8c0.4-0.3,0.8-0.5,1.2-0.8c2.4-1.2,1.5-3.3,1.6-5.2c-0.2-1.9-0.1-3.6,2.6-3.1c1.2,0.3,2.1-0.5,3.1-0.9
	c1,1.2,1.5,2.7,1.6,4.3c0.1,1.7-0.5,3.2-1.7,4.4c-0.5,0.5-1.1,0.7-1.8,0.9c-2,1.7-2.8,3.7-1,6c0.1,0.5,0.2,1,0.3,1.5
	c0-0.1,0,0.3,0,0.1c0-0.6-0.1-1.1-0.2-1.6c-1.5-1.9-1.1-3.8,0.2-5.5c2.7-1.9,3.8,0.3,5.1,1.9c0.4,0.3,0.9,0.5,1.4,0.5
	c0.4-0.1,0.7-0.1,1.1-0.3c1.5-0.6,2.7-2.3,4.6-1.5c0.4,0.4,0.8,0.8,1.1,1.2c-1.2,1.8,0.7,2.7,1.1,4c0,0-0.1,0.3-0.1,0.3
	c0,0-0.3-0.2-0.3-0.2s0.3-0.2,0.3-0.2c0.8,0.7,1.7,1.4,2.5,2.1c1.5-1.2-0.4-2.4,0-3.4C192.8,28.2,193.6,28,194.1,29.6z"/>
<path class="st249" d="M155.1,45.8c0.6,0.3,1.1,0.7,1.7,1c1.6,0.9,3.2-1,4.7-0.2c1.7,0.9-0.8,2.8,1,4.2c2.4,1.9,1.8,4.2-0.6,6
	c-0.7-0.8-1.6-0.6-2.2-0.1c-0.7,0.6-0.5,1.5,0.2,2.1c-0.9,2.1-0.6,3.5,2.1,3.5c0.9,0,1.9,0.3,2.8,0.5c1.3,0.6,2,1.7,2.6,2.9
	c2.1,0.1,3.3,1,3.1,3.3c-0.1,0.9,0.2,1.9,0.3,2.9c-1.4,2.7-1,7.3-6.2,5.9c-0.5,0.1-1.1,0.1-1.6,0.2c-0.4,0-0.8-0.2-1.1-0.4
	c-2.4,0.7-4.1,0.6-5.6-2c-2.5-4.5-6.6-7.8-9.6-11.9c-1.3-1.7-3.5-3.3-2-6l-0.1,0.1c0.7-0.8,0.9-2.1,2.2-2.5c0.8,0,1.7-0.3,2.5-0.1
	c0.3,0.1,0.5,0.4,0.6,0.7c0,0-0.2,0.4-0.2,0.4s0.4-0.1,0.4-0.1c0.3-0.2,0.5-0.5,0.6-0.8c-0.6-3.1-1.9-5.9-1.6-9.1
	c0.3-3.3-3.1-2.2-4.5-3.4c0,0-0.1-0.1-0.1-0.1c1.3-1.5,2.3-4.4,4.8-2.9c2,1.2,5.8,1.1,5.4,5c-0.2,0.2-0.3,0.4-0.2,0.6
	C155,45.7,155.1,45.8,155.1,45.8z"/>
<path class="st249" d="M145,127.8l-0.4,0l-0.4,0c-1,0.1-1.8,1-2.9,0.5c-1.7-1-2.5-2.7-3.4-4.4c-0.3-3.2,2.6-2.2,4-3.2
	c0.1-1.1,0.4-2.1,1.1-3c0.3,0,0.7-0.1,0.9-0.2c0.1-0.1,0.2-0.3,0.4-0.4c0.5-1.2,2.1-0.8,2.7-1.9l-0.1,0.1c0.3-0.7,0.7-1,1.3-0.2
	c0,0,0.2-0.2,0.2-0.2c0-0.5,0.2-0.8,0.6-1c3.3,0.4,6.3,2.5,9.9,2c0.9-0.1,1.5,0.2,2,0.9c0.4,1,1,2,0.3,3.1c-1.7,0.6-2.6,1.7-2.9,3.5
	c-0.4,2.7-2,3.6-4.6,2.9c-0.6-0.2-1.1-0.3-1.8-0.3c-0.8,0.1-1.6,0.5-2.3,0.9C148.3,127.8,146.4,126.6,145,127.8z"/>
<path class="st249" d="M151.7,101.9c-0.2,0.6-0.5,1.3-0.7,1.9c-0.9,3.1-2.3,3.5-3.9,0.6c-0.7-1.4-1.8-2.8-1.6-4.6
	c-0.3-2.8,2.2-4.3,3.1-6.2c-1.1,1.4-2.6,2.9-4.6,2.1c-3.2-1.3-1.4-4.6-2-6.9l0.1,0.1c-0.5-0.5-0.7-1.1-0.8-1.8
	c0-0.5,0.2-0.9,0.4-1.3c2.4-1,1.3-5.8,5.4-5c0.3-0.1,0.6-0.1,0.9-0.2c-0.2,2.4,1.3,3.1,3.3,3.6c0.7,0.2,1.2,1,1.8,1.5
	c0,0.9,0.3,1.6,1,2.1c0.4,0.3,0.7,0.7,1.1,1c0.5,0.7,1.1,1.3,1,2.2c-1.4,0.6-2.7,1.2-4.1,1.8C153.7,96,152.5,98.9,151.7,101.9z"/>
<path class="st249" d="M175.9,94.7c0.6,1.1,1.1,2.3,2.1,3.1c0,0,0-0.1,0-0.1c-1.4,1.4-0.8,6.5-5.1,2.9c0.2-1.4-0.5-1.3-1.4-0.9
	c-2.7,1.2-3.7,0-3.7-2.6c0-0.8-0.3-1.6-0.5-2.4c-0.3-1.1-1.1-2.7,0.6-2.8c1.5-0.1,1,1.8,1.1,2.8c3.1-0.3,3.1-0.3,3-5.9
	c0.3-1.5,1-2.7,2.6-3c1.6,0.5,1.3,1.6,0.8,2.6C174.2,90.8,174.6,92.8,175.9,94.7L175.9,94.7z"/>
<path class="st249" d="M171.9,43.6c-1.1,0.2-1.8-0.2-2.3-1.3c-0.7-1.8-1.8-3.5-2.4-5.4c-0.9-2.4-2-1.3-3.4-0.1
	c0.5-1.6-1-3.3,1.7-4.1c1.6-0.5,1.6-1.3,2.5,1c0.8,2.1,3.3,3.9,5.3,5.3c3.3,2.3,3.5,4.7,2.3,8c-0.3,0.9-0.3,1.9-0.4,2.9
	c-1.7-0.5-2.4-1.7-1.7-3.3c0.8-1.8-0.6-3.2,0-5.1C171.8,41.9,172.1,42.9,171.9,43.6z"/>
<path class="st249" d="M147,80.8c-2,1-2.3,3.1-2.8,4.9c-0.4,1.5-1.4,1.6-2.6,1.3l0.1-0.1c0.1,0.6,0.2,1.2,0.3,1.9
	c-2.7-3.1-2.7-3.1-0.3-5.9c0.1-0.1,0.1-0.3,0.2-0.5c0.5-1.2,2.3-1.8,1.8-3.3c-0.6-1.9-2.6-0.4-4-1.4c1.9-2,5.3-2.1,6.1-5
	c0,0,0.6,0.1,0.9,0.1c-1.6,2.5,2.6,2.7,2,4.8c-0.3,0.8-1.3,0.4-1.7,1.1C147,79.5,147,80.1,147,80.8z"/>
<path class="st249" d="M146.9,98.8c-0.1,2.3,0.9,4.2,1.3,6.3c1.3,0,2-0.7,2.7-1.3c0.7,0.5,1,1.2,1,2c-0.8,1.6-0.2,3.4-1,5
	c-0.3,1.2-2.4,1.3-2,3c-0.1,0.9,0,1.7,0.8,2.2c0.3,0.9-0.1,1.3-0.9,1.6c-1.2-0.3-1-1.8-2-2.3c0-3.9,0.1-7.7-0.9-11.5
	c-1.8-1.8-2.6-3.5,0.1-5.2C146.4,98.7,146.7,98.7,146.9,98.8z"/>
<path class="st249" d="M173,104.7c1.1,1,2.7,2.7,0.3,3.1c-3.7,0.6-3.3,2.9-3.3,5.3c0,0.8,0,1.6,0,2.9c-3-1.5-1.9-4.4-3.1-6.3
	c1.1-0.5,1.5-1.4,1.9-2.6C169.3,105,171.2,104.9,173,104.7z"/>
<path class="st249" d="M160.9,116.7c-0.9,0.2-1.7,0.2-2-0.9l0,0c0.2-1.8,2.4-2.8,2-4.8c0.3-2-0.4-3.8-1.7-6.4c3.2,1.7,4.8,3.9,6,6.3
	c0.2,0.7,0.5,1.3,0.7,2c-1,0.6-1.7,1.8-3,1.9C162.3,115.3,161.6,116,160.9,116.7z"/>
<path class="st249" d="M164.8,77.8c3.9,0,4.1-3.9,6.2-5.9c1.8,1.5,0.2,2.9-0.6,3.7c-1.6,1.7-0.7,2.7,0.6,3.4
	c1.1,0.6,2.4,0.9,2.3,2.9C170.2,80.9,166.8,80.8,164.8,77.8z"/>
<path class="st249" d="M147,78.8c0.2-0.9,1-0.9,1.7-1.1c2.1,0,4.2,0.1,6.4,0.1c2.6-0.3,5.2-0.7,7.8-0.1c0,0,0.3,0.3,0.3,0.3
	c-0.1,0.2-0.1,0.5-0.2,0.7c-0.2,1.3-0.4,2.7-1.1,3.8c-0.3,0.3-0.7,0.5-1.2,0.5c-0.6-1.9-2.1-2.7-4-2.9
	C153.4,79.8,150.2,79.3,147,78.8z"/>
<path class="st249" d="M164,80.8c1.3,1.9-0.8,3-1.2,4.5c0.8,0.7,1.1-0.3,1.6-0.5c0.5-0.2,0.9-0.4,1.4,0c0,0.2,0.1,0.6,0,0.8
	c-0.5,0.6-1.1,1.2-1.8,1.8c-1,0.9-2.1,0.9-3.2,0.3c-1.2-0.7-0.4-1.7-0.2-2.7c0.1-0.6,0.1-1.3,0.1-2c0,0,0.3-0.3,0.3-0.3
	C161.8,81.8,161.5,79.2,164,80.8z"/>
<path class="st249" d="M151.7,101.9c-1.3-3,0.1-6,0.3-8.9c0.3,0,0.6,0,0.9-0.1c1.2,1.2,0.9,2.6,0.3,4c-0.3,1.9,0.7,3.4,1.3,5.1
	c0.3,0.9,1.6,2.1-0.1,2.8c-1.4,0.6-1.4-0.9-1.9-1.7C152.2,102.6,151.9,102.3,151.7,101.9z"/>
<path class="st249" d="M160,58.8c-3-2.1-3.1-2.4-1.6-5.6c0.9,0.5,0.2,1.9,1.2,2.4c1.8,0.5,1.2-2.3,2.9-2c0.8,1.2-0.7,2.1-0.5,3.2
	C160.9,57,160.2,57.7,160,58.8z"/>
<path class="st249" d="M172,88.9c1.3,3.7,1.1,5.8-1.2,7.3c-1.6,1.1-1.9,0-1.9-1.4c0.8-0.2,1.7-0.4,1.6-1.4
	C170.5,91.7,171.8,90.5,172,88.9z"/>
<path class="st249" d="M160.9,110.9c0.8,0.2,1.2,0.7,0.8,1.4c-0.7,1.3-1.3,2.7-2.8,3.4c-1.3-1.4-2.6-2.8,0.6-3.6
	C160,112,160.4,111.3,160.9,110.9z"/>
<path class="st249" d="M156,91.1c-2,0-2.3-0.8-1-2.2c1.2-0.1,1.7-1.3,2.5-2.4C157.9,88.7,158,90.3,156,91.1z"/>
<path class="st249" d="M151,110.8c-1.8-2.1-1.3-3.7,1-5C153.5,107.8,152.9,109.4,151,110.8z"/>
<path class="st249" d="M163,99.8c-0.1-0.5-0.3-1-0.2-1.4c0.2-1.2,0.9-1.7,2.1-1.5c0.8,0.1,1,0.7,1,1.4c-0.1,1.3-0.8,1.7-1.9,1.6
	C163.6,99.8,163.2,99.7,163,99.8L163,99.8z"/>
<path class="st249" d="M153.2,96.8c-0.1-1.3-0.2-2.6-0.3-4c1.1,0.3,2.2,0.6,3.4,0.9C155.7,95.5,154.1,95.8,153.2,96.8z"/>
<path class="st249" d="M167.6,65.7c-2.8,0.7-1.9-1.8-2.6-2.9C166.9,62.8,168.9,62.8,167.6,65.7z"/>
<path class="st249" d="M170.8,60.8c-1.6-0.4-2.5-0.7-3.2-1.5C169.3,57.9,170,58.8,170.8,60.8z"/>
<path class="st249" d="M155.1,45.8c-0.6,0.8-1.3,1.1-1.8,0.1c-0.4-0.7-0.8-1.8,0-2.2c0.8-0.5,1.3,0.6,1.8,1.2
	C155,45.1,155,45.4,155.1,45.8z"/>
<path class="st249" d="M164,80.8c-1.5-0.1-1.8,1.7-3,2c-0.4-1.9,0.5-3.2,2-4.1C163.8,79.2,163.9,80,164,80.8z"/>
<path class="st249" d="M158.7,107.6c0.6,0.3,1.1,0.8,1,1.5c-0.1,0.7-0.7,1.2-1.4,1c-0.7-0.2-0.7-1-0.6-1.7
	C157.9,107.9,158,107.4,158.7,107.6z"/>
<path class="st249" d="M162.9,99.7c0.3,1.2,0.7,2.3,1.1,3.7C161.7,101.8,161.7,101.8,162.9,99.7C163,99.8,162.9,99.7,162.9,99.7z"/>
<path class="st249" d="M154,82.4c-0.3,0-0.7,0.2-0.8,0c-0.3-0.2-0.2-0.6,0.2-0.7c0.1-0.1,0.3-0.1,0.5,0
	C154.2,81.8,154.3,82.1,154,82.4z"/>
<path class="st249" d="M154,87.8c-0.7,0-1.6,0.3-1.9-0.7c-0.2-0.7,0.3-1.1,0.9-1.4C153.7,86.2,154,86.9,154,87.8z"/>
<path class="st249" d="M163.9,147.8c-1.2-1.4-1-5.4-4.6-2.5c-0.6,0.5-1.1-0.4-1.3-1c-0.5-1.6-1.9-2.8-2-4.5c0.7-0.7,0.5-1.5,0.1-2.2
	c-0.4-0.5-0.9-0.8-1.3-1.2c-0.4-0.7-1.1-1.3-1.7-1.8c-0.3-0.4-0.5-0.8-0.6-1.2c0-0.7,0.1-1.5,0.3-2.2c0.5-1.3,1.6-1.8,2.8-2.2
	c-0.1-1.9,1.8,2.9,2.3-0.8c0.3-2.2-1.2-6.4,3.2-7.3c2-0.3,3.1-2.2,5.5-3.2c-0.5,2.6-2.8,3.4-3.6,5.1c1.2,3.2,4.4,3,7,4
	c-0.4,0.4-0.8,0.8-1.2,1.2c0.5,1.8,0.6,4.2,3.4,1.9c0.3,0,0.5,0,0.8,0c1.4,0.6,1.5,2.1,2.3,3.1c0.4,1-0.9,1.9-0.2,3
	c2,1.2,3.8,2.4,1.8,5c-0.6,3.4-0.4,3.7,3.1,5c1.4,1.1-0.7,3.1,1.1,4l-0.1-0.1c0.3,0.2,0.4,0.5,0.3,0.7c-0.1,0.2-0.2,0.3-0.3,0.3
	c-0.3,0-0.6,0-1,0c-0.8,1-1.2,2.3-1.6,3.5c-0.9,1.7-2.1,1.3-3.4,0.6c-0.1-1.3-0.3-2.5-0.5-4.4c-1.6,1.1-1.5,3.7-3.7,3.4
	c-1.9,0.6-2.1-1.2-3-2.1l0.1,0.1c-0.8-1-0.7-1.9,0-2.9c0-1.2-0.4-2.2-1-3.2c-1.4,1-2.1,0.6-2.1-1.1c0-2,0.5-3.9,0.4-5.4
	C164.4,141.8,165.6,145,163.9,147.8z"/>
<path class="st249" d="M163,114.7c0.5-1.4,1.6-1.9,3-1.9c-0.4,0.9-0.8,1.8-1.3,2.6c-0.3,0.5-0.7,1.3-1.4,0.7
	C163,115.8,163.1,115.1,163,114.7z"/>
<path class="st249" d="M173.5,119.4c-1.6-1-2.9-1.7-1.2-3.8C173.2,116.8,173.9,117.8,173.5,119.4z"/>
<path class="st249" d="M132.9,23.7c0.3,0,0.7,0,1,0c0.3,0.3,0.6,0.4,1,0.3c0.2-0.1,0.3-0.3,0.5-0.4c1.1-6,4.3-11.6,2.3-18.2
	c-0.7-2.3,1.7-4.1,3.4-5.6c0.9-0.8,2.3-1.2,3.1-2.4c0.2-0.4,0.5-0.8,0.8-1.1c4.2-3.3,5-3.2,7.5,1.8c0.6,1.3,1.6,1.6,2.7,1.9
	c0.5,0.2,0.9,0.5,1.2,0.8c0.6,0.8,1.2,1.6,1.5,2.6c0.1,0.5,0,1-0.1,1.4c-1.3,2.4-3.4,3.4-6,3.4c-0.1,0.1-0.2,0.3-0.3,0.4
	c-0.4,1.5,1.1,2.6,0.8,4c-0.6,2.4-2.6,3.8-4.2,5.3c-1.5,1.4-3.3,1.5-4.7-0.3c-0.2-0.4-0.4-0.7-0.6-1.1c0.1,0.2,0.2,0.4,0.3,0.6
	c0.4,1.4,0.5,2.7,0,4.1c-0.1,0.4-0.3,0.7-0.4,1.1c-0.1,0.4-0.1,0.8-0.2,1.2c-0.1,0.8-0.1,1.7-0.3,2.5c-0.4,1-1.6,1.6-1.7,2.9
	c-0.7,2.4-0.4,5-1.4,7.4c-0.7,1.5-0.9,3.2-3.2,2.4c0.7-4-1.4-7.3-2.8-10.8c-0.4-0.9-1.2-1-2.1-1.1c-1-0.9-1.1-1.9-0.5-3
	C131.4,23.2,132.2,23.1,132.9,23.7z"/>
<path class="st249" d="M135.9,38.7c1.7-2.6,1.2-5.8,1.8-8.7c0.2-1,0.1-1.9,1.3-2.4c1.1-0.2,1.5-0.9,1.7-1.8c0-0.9,0.1-1.8,0.1-2.7
	c-0.5-0.5-0.4-1,0.1-1.5l0,0c4.7-1.4,2.3,2.5,3,4.1c1.8,3.1-0.4,5.6-1.5,8c-1.8,3.9-1.8,8.3-3.7,12.1c-0.6,1.1,0.1,2.2,0.7,3.2
	c0.8,1.4,1.6,2.9,1.6,4.6c0.5,3.9-1.6,4.2-4.6,3.2c-0.5,0-1.1-0.1-1.6-0.1c-1-3.6,0.5-7.4-0.9-11C133.1,43,135.7,41.2,135.9,38.7z"
	/>
<path class="st249" d="M92.1,111.8c-1.9,0-2.4-1.3-2.5-2.8c-0.1-1.1,0.2-2.3-0.8-3.2c0.1-1.9,1.5-3.3,2.1-5.1
	c-0.4-0.7-0.8-1.3-1.2-2c-0.2-0.7-0.3-1.4,0.1-2.1c0.1-1,0.2-1.9,0.3-2.9c0.6-1.5-1.3-3.2,0.4-4.7c0.2-0.1,0.4-0.2,0.6-0.3
	c4.6-1.5,5.9-3.2,6.3-8.6c2,1.1,3.7,2.4,2,4.5c-2.2,2.7-1,5.8-1.6,8.6c-0.4,1.8-0.2,3.7-0.3,5.9C95,96.3,94,94,93.9,91.6
	c-1.7,3-1.9,5.6-0.7,7.9c0.2,0.5,0.4,1,0.9,1c4.4,0,4.2,3.4,4.8,6.2c-0.2,0.1-0.4,0.2-0.6,0.4c-1.6,0-3.4-0.6-3.8,1.8
	C94.3,110.5,93,111,92.1,111.8z"/>
<path class="st249" d="M136.5,56.9c2.2-0.1,3.7-1.3,4.6-3.2c2,0.7,1.7,3.6,4,4.1c0.3,1.8,1.1,3.4,2.3,4.8c0.5,0.6,1,1.4,2,1
	c3.8-1.6,1.5,0.5,1,1.6c-0.1,0.2,0.2,0.8,0.2,0.8c4.1-0.9,1.3,4,4,4.7c2.6,0.7,2.1,4.7,4.8,5.8c0.8-1.5,2.7-2.3,2.6-4.3
	c2.9,1.4,1.9,3.5,1,5.5c-2.6,0.7-5.2,1.6-7.8,0.1c0.5-4-2.8-5.9-4.8-8.3c-0.9-1.1-2.3-2-2.6-3c-0.1-0.3-0.4-0.5-0.7-0.7l0-0.1
	c-1-1.5-2-3-3-4.6c-0.5-0.8-0.4-2.1-1.9-1.6c-1.2,0.4-0.4,1.8-1.3,2.7c-1.6-0.7-1.6-2.8-3-3.6l0.1,0.1
	C137.4,58.1,137,57.5,136.5,56.9z"/>
<path class="st249" d="M114.1,34.8c0,0.5-0.2,1.2,0.1,1.4c2.6,1.7,2.6,1.7,1.6,4.4c0,0.2,0,0.4-0.1,0.7c-0.8,2,0.1,4,0,6
	c-0.6,1.2-2,1.8-2.4,3.1c-0.9,3.2-2.2,3.9-4.4,0.9c-1.5-1.9-2.6-1.4-3.7,0.5c-0.5,0.8-0.4,2.6-2.2,1.9c-0.4-1.7-0.9-3.3,0.1-5
	c1.1-1.7-0.5-3-0.7-4.5c-0.4-3,0-5.3,3.9-4.5c-0.7,0.1,0.7-0.1,0.4,0.4c-0.2,0.2,0.6,0.5,0.6,0.3c0-2.3,1.1-4,2.9-5.3
	C111.5,35.1,112.7,34.1,114.1,34.8z"/>
<path class="st249" d="M127.6,111.8c0.2-0.6,0.3-1.1,0.5-1.7c0.4-0.3,1.2-0.7,1.1-0.8c-1-2.5,0.4-4.3,1.3-6.5
	c1.8,0.7,3.2,1.6,2.8,3.2c-0.6,2.2-0.8,3.8,1.7,4.7c0.7,0.2,0.7,0.8,0.1,1c-2,0.8,0.1,2.9-1.4,3.9c-1.2-0.2-1.3-1.7-2.4-2.2
	c-1.3,3.2-1.4,6.3,1.2,8.8c1.1,1.1,1.4,2.2,1.5,3.5c0.4,0.5,0.4,1.1,0.2,1.7c-3.6,2.8-4.4,2.6-6.2-1.6c1.6-2.7,0.7-5.3-0.3-7.9
	C127.2,115.8,127.4,113.8,127.6,111.8z"/>
<path class="st249" d="M108.1,117.8c0.2,1.5-1.2,2.4-1.3,3.8c-0.1,0.5-0.6,0.9,0.2,1.3c0.3,0,0.9-0.1,0.9,0.1
	c1.4,2.7,3.1,2.2,4.9,0.6c1.9-2.4-1.2-1.9-1.7-2.9c-0.1-0.3-0.1-0.6-0.1-0.9c0.9-0.8,1.9-0.7,2.9-0.1c1.6,2.6,3.3,1.8,5,0
	c0.7-1,1.6-1.7,2.7-0.6c1.5,1.5,0.4,2.9-0.5,4.2c-0.3,0.3-0.7,0.6-1.2,0.8c-3.7,0.1-4,2.9-4.4,5.5c-1,5.6-2.3,6.1-7,2.7
	c-0.3,0-0.6-0.1-0.9,0c-0.5,0.1-0.8,0.5-0.9,0.9c-0.2,0.7-0.3,1.5-0.8,2.1c-0.3,0.2-0.7,0.4-1.1,0.4c-2.1-0.8-0.8-2.9-1.5-4.3
	c-0.7-1.4,0.3-3.3-0.8-5.1c-0.9-1.5,1.6-2.7,1.5-4.4c1.3-1.4,1.3-3.8,3.2-4.7C108.1,116.6,108.3,116.9,108.1,117.8z"/>
<path class="st249" d="M103,53.7c1.5-2.4,3.1-4.8,4.6-7.1c1,1.6,3.3,2.3,3.4,5c1.6-1.9,2.8-3.4,4-4.8c0.1-0.2,0.1-0.4,0.2-0.6
	c0.5-1.5,1-2.9,2.1-4.1c0.6-0.3,1.1-0.7,1.8-0.2l-0.1,0c0.6,0.3,0.6,0.7,0.1,1.1c0,1.3,0.1,2.9-0.9,3.8c-3.8,3.1-4.4,7.3-4.6,11.7
	c0,0.3-0.6,0.7-1,0.9c-0.2,0.1-0.7-0.2-0.8-0.4c-1.1-2.1-1.8-4.6-5-4.5c-0.6,0,0.5-1.5-0.5-2.3c-1.5,2-1.3,4.6-2.2,6.8l0.1,0
	c-1.2,0.1-2.5,0.3-4,0.5C100.4,56.9,101.5,55.2,103,53.7z"/>
<path class="st249" d="M91.9,71.9c2.2-1,2.2-2.7,1.4-4.5c-0.4-1-0.7-1.8,0.2-2.6c0.3-0.3,0.8-0.6,1.2-0.6c0.5,0,1.1,0.5,0.8,0.9
	c-0.8,1.3,0.7,2.4,0.2,3.8c-0.9,2.3,1,3.1,2.4,2.7c1.3-0.4,2-1.3,2,0.7c0,1.2,0.1,2.1,1.3,2.9c1.3,0.9,0.7,2.4,0.6,3.7
	c-0.1,0.5-0.3,0.9-1,0.9c-0.6,0-1-0.2-1.1-0.8c-0.2-1.8-0.7-3.5-1.9-5.2c-3,1.2-3.7,4.3-3.7,6.4c0.1,3.6-1.3,6.1-3.4,8.6
	c0,0,0-0.1,0-0.1c-1.2,0.7-1.6-0.2-2-1c-0.1-0.3-0.4-0.6-0.4-0.9c0-1.7,2.9-1.1,2.4-2.2c-0.7-1.5-0.4-2.6-0.1-3.9
	c0.3-1.3,0.7-2.5,1-3.8c1.4-1.4-0.7-2.7-0.1-4.1C91.9,72.5,91.9,72.1,91.9,71.9C91.9,71.8,91.9,71.9,91.9,71.9z"/>
<path class="st249" d="M116.9,84.8c1.1-1.4-0.3-4.1,2.6-4.9c0.8-0.2,1.5-2.3,0.2-3.9c-1.4-1.7-3-3.8-0.5-6.1
	c1.1,0.9,0.9,2.6,2.6,3.4c0.1-1.3,4-1.4,0.8-3.8c-0.1-0.1-0.1-0.3-0.1-0.4c0-0.1,0.2-0.3,0.3-0.3c3.7,1.4,3.7-4.6,7.6-3.5
	c-2,2.6-3.7,5.4-5.9,7.5c-2.1,2-3.1,3.8-1.4,6.4c0.2,0.3-0.1,1-0.1,1.5c-1.1,1.3-1.3,2.9-1.9,4.3c-0.3,0.4-0.6,0.7-1.1,0.9
	C118.8,86.1,117,87.5,116.9,84.8z"/>
<path class="st249" d="M141.9,88.7c2,1.4,0.3,3.8,1.4,5.5c4.6-0.8,4.6-0.8,4.6-5c0-1,0-2-0.1-3c0-0.5,0.1-1,0.6-1.2
	c0.8-0.3,1.3,0.1,1.5,0.8c1.3,4.8,0.6,9.2-3,12.8c0,0,0.1,0,0.1,0c-2.2-0.8-2.4,0.6-2.7,2.2c-0.3,1.9-1.2,3.2-3.3,1.7
	c-0.3-0.4-0.8-0.7-0.9-1.1c-0.2-1.1-0.7-2.7-0.2-3.3C142.2,95.3,139,91.4,141.9,88.7z"/>
<path class="st249" d="M104.9,60.7c2-0.6,1.6-2.7,2.6-3.9c3.3,2.5,3.7,5,1.4,8c-0.3,0.3-1,0.8-1.1,0.7c-3.9-2.9-4.3,1.9-6.4,2.9
	c-1.8-2.8-1.6-5.4,0.6-7.5c0.7-0.7,1.4-1.3,2.1-2.1c0,0-0.1,0-0.1,0C104.9,59.2,104.9,60,104.9,60.7l0,0.2L104.9,60.7z"/>
<path class="st249" d="M141,102.7c0.4-0.2,1.3-0.5,1.3-0.5c-1.2-3.8,1.6-5.3,4.2-7.2c0.8,1.4,0.8,2.6,0.6,3.8c-2.2,1.3,0,3.4-0.9,5
	c-1.9,1-2.4,4.4-5.6,3.3c-0.5-0.2-1.3,0.4-1.6-0.3c-0.4-0.9-0.2-1.7,0.7-2C140.6,104.5,141.2,103.9,141,102.7z"/>
<path class="st249" d="M105.9,39.8c-2.9,0.8-2,3.2-2.1,5.1c-0.1,1.3,1,2.8-0.8,3.8c-0.2-0.5-0.3-0.9-0.5-1.4
	c-0.7-1.3-1.7-2.3-2.5-3.6c-0.5-0.7-2,1.6-3.1,0.1c3-2,1.9-6.4,4.6-8.5c1.1,0.6,0.6,1.2,0.5,1.8c-0.3,1.7,0.1,2.2,1.6,0.9
	c0.8-0.6,1.4,0.4,2.2,0.7c0.6-0.1,1.2-0.1,1.1,0.7C106.8,40,106.3,39.9,105.9,39.8z"/>
<path class="st249" d="M122.9,40.8c2.2,0.5,2.7,4.3,6.1,2.8c1.1-0.5,1,1.4,1.3,2.2c0.5,1-0.3,1.7-1.2,1.6c-2.1-0.4-2.2,0.8-2.1,2.2
	c0.1,1.5-0.7,2-2,2.4c-0.7,0.2-1.4,0.3-1.8-0.3c-0.6-0.8-0.3-1.5,0.4-2.1c0.9-0.7,2.1-1.2,1.9-2.7c-1.4-1.4-2.1,1.5-3.5,0.4
	c0.3-2.1,0.6-4.4,1-6.6L122.9,40.8z"/>
<path class="st249" d="M123,82.4c1.8-1.1,3.1-2.7,4-4.7l-0.1,0.1c0.3-0.5,0.7-1.1,1-1.7c0.3-0.6,0.5-1.2,1.3-1.2
	c0.7,0.1,1.2,0.6,1.3,1.3c0.1,0.6,0,1.3,0.1,1.9c0.2,1.6,0.2,1.6-2,2.6c-3,1.4-3.6,2.8-2.8,6.5c0.2,1,0.2,2-0.7,2.6
	c-0.2-0.1-0.3-0.3-0.5-0.4c-0.5-0.5-0.9-1-1.4-1.4c-1.7,0.2-2.9-0.5-3.7-2c-0.1-0.5,0-1,0.3-1.4l0,0.1
	C120.9,83.9,121.6,82.7,123,82.4z"/>
<path class="st249" d="M108.1,117.8c-0.3-0.3-0.6-0.5-1-0.8c-0.6-1.3-1.4-2.6-0.4-4.1c1.3-2,1.6-4.9,3.7-6.2
	c2.1-1.3,2.7,0.8,3.2,2.4c-0.4,1.9-1.3,3.4-2.8,4.6C110,115.1,109.1,116.5,108.1,117.8z"/>
<path class="st249" d="M135.4,96.7c-3.8-2.4-5.2,1.1-8,2.5c0.4-3.5,4.2-6.3,0.2-10.2c3.1,0.3,4.4-1.1,5.5-3.3c1.3,2.1,1,3.3-0.7,4.4
	c-1,0.6-0.7,0.7,0.7,1.7C134.3,92.7,135.1,93.9,135.4,96.7z"/>
<path class="st249" d="M85,59.8c-1,0.2-2,0.2-2.9,0.7c-2.6,1.4-2.7,2.9-0.4,4.8c0.5,0.4,1.2,0.6,1.3,1.5c-2.5,1.3-4.7-0.4-7-1
	c-0.3-0.3-0.6-0.7-0.7-1.2c0.1-1.2,0.6-2.3,1.4-3.2c0.4-0.3,0.8-0.5,1.2-0.6c1-0.7,2-1.4,3-2.2c0.4-1.6,1.2-3,3-2.4
	C85.9,56.7,85.7,58.2,85,59.8L85,59.8z"/>
<path class="st249" d="M105.7,101.1c1.4,3.7,1.1,7.3-1.4,11.6c-0.4-3.4-1.3-5.7-2.9-7.7c-1.2-1.6-0.8-3,1.6-2.4
	C104.5,102.9,104.6,101.2,105.7,101.1z"/>
<path class="st249" d="M133.9,45.8c1.4,2.3,2.7,4.5,4.1,6.8c1.1,1.7,0.9,2.1-1.2,1.8c-1.1-0.1-1.4,1.5-2,2.5
	c-0.6-0.4-1.3-0.7-1.9-1.1l0.1,0.1c-0.3-1.3-0.8-2.5-2.1-3.1l-0.3-0.3l0.1-0.4C133,50.6,134.4,48.7,133.9,45.8z"/>
<path class="st249" d="M116.6,59.8c0.4,1.9-1.4,3.4-0.5,5.2c0.9,0.4,1.5-1.2,2.8-0.4c-0.4,1.4-0.5,3-1.7,4c-0.8,0.3-1.1-0.2-1.5-0.5
	C110.5,64.2,110.6,63.4,116.6,59.8z"/>
<path class="st249" d="M89.7,96.7c0,0.7-0.1,1.4-0.1,2.1c-1.9-0.7-3.3-3-5.7-2.1c-1.2,0.4-2.4,0.4-3.1-0.6c-1.1-1.5,1.3-2,1.2-3.3
	l0,0C84.9,93.3,87.8,94.1,89.7,96.7z"/>
<path class="st249" d="M142,120.8c-0.4,0.9-0.9,1.7-2,1.7c-1,0-0.8,0.7-0.7,1.3c0.2,0.7,0.4,1.5-0.1,2.1c-1.4,0.7-2.4,0.3-2.9-1.2
	c-0.6-1.1-0.7-2.3,0.4-3c1.1-0.7,1-1,0.2-2.1c-1.4-1.9,1.4-1.9,1.9-3c0.4-0.4,0.6-1,1.3-1.1c1.1,0.7,0.9,1.5,0.4,2.5
	C139.6,119.8,140.1,120.7,142,120.8z"/>
<path class="st249" d="M113,79.8c0-0.3-0.2-0.7-0.1-1c1.4-2.6,1.5-5.1-0.2-7.6c-0.4-0.6-0.4-1.5-0.6-2.4c4.8,2.3,5.9,6,3,10.2
	C114.7,79.8,113.8,79.9,113,79.8L113,79.8z"/>
<path class="st249" d="M122.4,90.8c-0.8,0.4-1.6,0.7-2.4,1.1c-2.3,1.3-3.9-1.1-5.9-1c-0.7-2.1,1.2-3.1,1.8-4.7
	c0.3-0.5,0.7-0.9,1-1.4c1,0.6,2-0.1,3.1-0.1c0.1,0.4,0.2,0.8,0.2,1.1c0.9,1.5,0.5,3.5,1.7,4.9C122.1,90.7,122.2,90.8,122.4,90.8z"/>
<path class="st249" d="M104,121.8c-0.9,0.7-1.9,1.2-2.9,0.1c0.9-1.9-0.7-3.9,0.1-5.8c0.4-1-0.3-2.7,1.2-2.8c1.6-0.1,1.2,1.5,1.4,2.6
	C104.2,117.9,103.9,119.9,104,121.8z"/>
<path class="st249" d="M82,92.8c-2.7-1.8-2.8-2.2-0.6-3.3c1.2-0.6,2.4-1,3.6-1.5c0.6-0.3,1.3-0.3,1.6,0.5c0.3,0.7,0,1.3-0.6,1.7
	C84.7,91.1,83.3,91.9,82,92.8C82,92.8,82,92.8,82,92.8z"/>
<path class="st249" d="M115.9,86.2c0.3,1.9-0.8,3.3-1.8,4.7c0,0,0,0,0,0c-1.2,1,0.7,3-1.3,3.8c-0.8-0.2-1.7-0.4-2.5-0.6
	c-0.3,0.1-0.6,0.1-0.9,0.2c0.1-0.3,0.2-0.6,0.3-0.9c-1.3-0.5-2.3-1.4-0.7-2.3C111.5,89.8,113.3,87.5,115.9,86.2z"/>
<path class="st249" d="M93.9,52.8c0.7-1.4,0.2-3,0-4.4c-0.2-2.6,0.7-4,3.1-4.7c0.3,1.6-0.1,3.2-0.4,4.8c-0.2,1,0.5,0.9,1.1,0.9
	c0.6,0.4,0.6,0.8,0.2,1.3C96.7,51.5,95.9,53.3,93.9,52.8z"/>
<path class="st249" d="M68.9,91.8c-0.1,0.6,0.2,1.7-1.1,1.2c-1-0.4-1.9-0.8-2.9-1.3c0.3-3.1,1.6-5.8,2.7-8.6c-0.2-0.6,0-0.8,0.6-0.6
	c0.7,2.2,0,4.4,0,6.6C68.2,90.1,68,91.1,68.9,91.8z"/>
<path class="st249" d="M121.9,90.8c-1.6,0.3-3.1-0.1-3.8-1.6c-0.9-1.9,2-1.8,2-3.3c1.3,0.4,2.3,1.3,3.1,2.3
	C122.8,89,122.4,89.9,121.9,90.8z"/>
<path class="st249" d="M112.8,94.7c0.1-1.4-2-3.5,1.3-3.8c1.5,2.5,4.1,4.5,2.9,8c-1.1,0.5-2.1,0.7-2-1.1
	C114.8,96.4,114.3,95.2,112.8,94.7z"/>
<path class="st249" d="M130,21.9c0.7,0.4,0.9,1.1,1.2,1.8c0,1,0,2.1,0,3.1c-1.8,0.9-2.3-2.1-4.4-1.3c-1.1,0.4-1.1-1.4-0.9-2.2
	c0.3-1.4,1.1-0.7,1.8-0.3C128.9,23.7,129.3,22.3,130,21.9z"/>
<path class="st249" d="M98.1,114.8c-2.7,1.7-5.5,3.3-8.2,5c0,0,0,0,0,0c-0.1-0.3-0.4-0.8-0.3-0.9c1.8-2.2,2.9-5.3,6.6-5.2
	C96.8,114.1,97.5,114.4,98.1,114.8z"/>
<path class="st249" d="M115,97.8c0.4,0.8,1.2,0.9,2,1.1c0.4,0.9,0.8,1.9,1.2,2.8c-0.4,0.6-0.9,0.6-1.4,0.2c-0.3,0.6-0.5,1.3-0.8,1.9
	c0,0-0.4,0.3-0.4,0.3c-1-0.1-3.5,1.9-2.2-1.2C114.1,101.2,112.2,98.7,115,97.8z"/>
<path class="st249" d="M72.9,91c0-0.7-0.2-1.4,0.1-1.9c0.6-1.3,0.1-3.8,1.6-3.7c2.1,0,1.2,2.1,1.1,3.5c-0.1,1.3,1.5,1.6,2.1,2.6
	C76,93.5,74.6,90.6,72.9,91z"/>
<path class="st249" d="M74.8,79.7c-0.3-0.8-0.7-1.5-1-2.3c-1.3-3.2-0.9-3.8,4.1-5.6c-3,2.7-1.5,5.7-2.8,8.1L74.8,79.7z"/>
<path class="st249" d="M98.1,111.5c0-0.2-0.1-0.5-0.3-0.6c-2.5-2.3-1.5-3.4,1.2-4.1c0,0-0.1,0-0.1,0c1.8,0.7,2.4,2.1,1.9,3.9
	C100.3,112.2,99.3,112.1,98.1,111.5z"/>
<path class="st249" d="M120,58.8c0,2,0.9,3.1,3,2.9l-0.1-0.1c-0.1,1.2,0.1,2.6-0.6,3.7C118.3,62.4,118.3,62.4,120,58.8L120,58.8z"/>
<path class="st249" d="M110.3,94.1c-2.2,2.1-0.2,4.2,0,6.4c0.3,0.7,0.1,0.9-0.6,0.6c-3.8-3.4-3.8-5,0-7.6
	C109.9,93.7,110.1,93.9,110.3,94.1z"/>
<path class="st249" d="M137.8,58.6c0.1,1.4,0.4,2.9,0.4,4.3c0,1.1-1,1.8-2,1.7c-1,0-1.1-1-0.9-1.8c0.4-1.6,0-3.8,2.5-4.1
	C137.9,58.7,137.8,58.6,137.8,58.6z"/>
<path class="st249" d="M89,87.7c0.7,0.3,1.1,1.1,2,1c-0.8,1.6,0.1,3.5-1,5.1C88,92,87.8,90,89,87.7z"/>
<path class="st249" d="M72.9,91c1.7-0.2,3.2,1,4.9,0.4c-1,1.6,0.7,4.4-2.2,5.2c-0.4-0.2-0.6-0.5-0.7-0.9
	C76.2,93.4,74.6,92.2,72.9,91z"/>
<path class="st249" d="M138,66.3c-0.7,2.2-2.2,3.5-1.2,6.1c-2.5-1.4-3.3-2.4-2.7-4.1C134.7,66.6,136.2,66.5,138,66.3z"/>
<path class="st249" d="M91.9,71.8c-0.8-0.5-1.7-1-2.7-1.1c-0.8-0.1-1.8-0.2-1.7-1.2c0-0.9,0.7-1.4,1.5-1.7c0.8-0.2,1.6-0.1,2.1,0.8
	C91.7,69.6,92,70.7,91.9,71.8C91.9,71.9,91.9,71.8,91.9,71.8z"/>
<path class="st249" d="M117.1,52.1c-1-2.6,1.5-3.2,2.4-4.8C121.1,49.8,121.1,49.8,117.1,52.1z"/>
<path class="st249" d="M120.1,58.8c-0.5-1-0.7-2.3-2.2-2.4c-0.8,0-2.1,1.2-2.2-0.6c-0.1-1,1.1-1,1.9-1.2c1.1-0.3,2.2-0.6,3.3,0
	l0-0.1C120.8,56.1,121.6,57.7,120.1,58.8C120,58.8,120.1,58.8,120.1,58.8z"/>
<path class="st249" d="M99.4,96.5c-0.7-1.4,0.1-2.4,0.7-3.2c0.7-0.8,1.8-1.4,3-1.2c0.3,0,0.6,0.4,0.6,0.6c0.3,1.7-1.4,1.4-2.1,2.1
	C100.9,95.4,100.2,95.9,99.4,96.5z"/>
<path class="st249" d="M75,95.8c0.2,0.3,0.5,0.6,0.7,0.9c-0.2,0.4-0.5,0.7-0.7,1.1c-1.1,0.7-1.9,2.2-3.7,1.5
	c-0.7-1.8,1.3-2.3,1.8-3.4C73.7,95.8,74.3,95.8,75,95.8z"/>
<path class="st249" d="M66.8,79.4c-0.1-0.1-0.3-0.2-0.3-0.4c-0.5-1.1-2.2-1.7-1.4-3.3c0.1-0.2,0.6-0.4,0.9-0.3
	c1.5,0.6,2.3,1.7,2.1,3.4c0,0.4-0.6,0.7-0.9,1.1c-0.3,0.1-0.6,0.2-0.9,0.4C66.5,80,66.7,79.7,66.8,79.4z"/>
<path class="st249" d="M144.9,119.7c-0.6-0.6-1.2-1.3-1.9-1.9c0.9-1.5,1.7-3.2,4-2.6C146.8,117,145.4,118.1,144.9,119.7L144.9,119.7
	z"/>
<path class="st249" d="M91.9,72.8c1.2,0,2.5,0,4.4,0c-1.8,1.7-3,2.9-4.3,4.1C91.9,75.5,90.9,74.2,91.9,72.8z"/>
<path class="st249" d="M94.9,56.7c-1.1,1-2.2,2.2-3.8,1.3c-1.5-0.8-1-2.1-0.3-3.3c0,0,0.2,0.1,0.2,0.1C92,56.1,94.3,54.6,94.9,56.7z
	"/>
<path class="st249" d="M94.9,56.7c-0.8-0.2-1.5-0.2-2.3,0c-1.7,0.5-1.9-0.6-1.6-1.9c1.5,0,1.8-1.7,3-2.1c0.1,0.8-0.1,1.7,0.9,2
	C96.9,55.4,95.2,56.1,94.9,56.7z"/>
<path class="st249" d="M107,68.8c-0.2,0.4-0.5,0.8-0.7,1.3c-0.3,0.5-0.4,1.4-1.3,0.9c-0.4-0.2-0.8-0.8-0.7-1.1
	c0.1-0.8,0.5-1.5,0.8-2.2c0.3-0.7,0.9-1,1.5-0.5C107.1,67.5,107,68.2,107,68.8C106.9,68.9,107,68.8,107,68.8z"/>
<path class="st249" d="M136.6,105.3c-3.1-2.5-0.1-3.5,0.3-5C138.2,102,136.7,103.3,136.6,105.3z"/>
<path class="st249" d="M132.9,55.8c0.1,1.5,1.4,3.2-0.7,4.3c-0.5,0.2-1.1,0.2-1.3-0.3C130.4,57.8,131.6,56.8,132.9,55.8
	C133,55.8,132.9,55.8,132.9,55.8z"/>
<path class="st249" d="M71.9,75.5c-0.4,0.8-0.9,1.4-1.9,1.3c-0.9-0.1-1.5-0.7-1.3-1.7c0.3-1,1.1-1.1,2-0.9
	C71.5,74.2,71.8,74.7,71.9,75.5z"/>
<path class="st249" d="M119,42.9c0-0.4-0.1-0.7-0.1-1.1c0.2-0.4,0.6-0.9,0.5-1.3c-0.3-2.2,0.7-1.7,1.9-1.1c0.4,0.2,1,0.2,1.4,0.3
	c0,0.4,0.1,0.7,0.1,1.1c0,0,0.1-0.1,0.1-0.1C121.6,41.3,121,43.3,119,42.9z"/>
<path class="st249" d="M107.1,82.8c-1.6,1.2-2.1,3-4.6,3.9C103.5,84.4,103.5,82.2,107.1,82.8z"/>
<path class="st249" d="M123,82.4c-0.6,1.4-1.4,2.5-3.1,2.4c-0.5-2.5,1.4-3.1,3.1-4C123,81.3,123,81.9,123,82.4z"/>
<path class="st249" d="M121.1,108.8c-0.2,1-1.7,1.8-0.6,3c-2.1-1.7-2.1-1.7-1-5.6C120.1,107.2,120.6,108,121.1,108.8z"/>
<path class="st249" d="M111,113.8c-0.1-2.2,2.1-2.9,2.8-4.6c0.1,1.6,0.2,3.2-0.7,4.7C112.3,113.8,111.6,113.8,111,113.8z"/>
<path class="st249" d="M112.9,79.7c0,0.5,0.1,1,0.1,1.4c0.1,0.9,0,1.6-1.1,1.7c-0.7,0.1-1.2-0.4-1.5-1c-0.4-0.8,0.2-1.2,0.7-1.5
	C111.7,80,112.4,80,112.9,79.7C113,79.8,112.9,79.7,112.9,79.7z"/>
<path class="st249" d="M80,83.3c-0.3,0.7-0.8,1.4-1.7,1.4c-0.7,0-1.1-0.7-1-1.4c0.1-0.9,0.7-1.5,1.7-1.4C79.7,82,80.2,82.4,80,83.3z
	"/>
<path class="st249" d="M125,15.8c2.2-0.2,2.8,1.3,3.1,3C126.4,18.5,125,17.9,125,15.8z"/>
<path class="st249" d="M116.9,111.4c0,0.5-0.2,1-0.7,1.1c-0.6,0.1-0.9-0.3-0.9-0.8c0-0.7,0.1-1.4,0.9-1.3
	C116.7,110.4,116.8,110.9,116.9,111.4z"/>
<path class="st249" d="M71.9,94.7c-0.8,0.3-0.7,1.5-1.7,1.4c-0.2,0-0.4-0.8-0.4-1.2c-0.1-1.5,0.7-2.1,2.1-1.9
	C71.9,93.5,71.9,94.1,71.9,94.7z"/>
<path class="st249" d="M121.3,97c0.3,0.3,0.5,0.5,0.8,0.8c-0.1,1.8-1.3,2.4-2.9,3C118.6,98.5,120.8,98.2,121.3,97z"/>
<path class="st249" d="M132.8,79.8c0.1-1,0.1-2,1.3-1.8c1.1,0.2,0.5,1.4,0.7,2c0.2,0.6,0,1.5-0.8,1.4
	C132.8,81.5,132.9,80.5,132.8,79.8z"/>
<path class="st249" d="M98,50.7c-0.1-0.4-0.1-0.9-0.2-1.3c-0.1-1.3,0.8-2.1,1.8-3.2C100.1,48.3,99.7,49.7,98,50.7z"/>
<path class="st249" d="M130.7,32.2c0.4,0,0.8,0.2,1,0.7c0.2,0.5,0.2,1-0.4,1.2c-0.7,0.3-1.3,0-1.4-0.8
	C129.8,32.8,130.1,32.4,130.7,32.2z"/>
<path class="st249" d="M75.2,79.9c0,0.6,0.2,1.3,0.1,1.9c-0.1,1-0.8,1.4-1.7,1.1c-1.3-0.5-0.4-1.2,0.1-1.8c0.4-0.5,0.8-1,1.2-1.5
	C74.8,79.7,75.2,79.9,75.2,79.9z"/>
<path class="st249" d="M123.1,61.7c0.3-0.8,0.5-2.1,1.8-1.4c0.4,0.2,0.8,1.4,0.5,1.7C124.5,63.1,123.8,61.9,123.1,61.7
	C123,61.6,123.1,61.7,123.1,61.7z"/>
<path class="st249" d="M86.2,75.1c-0.1-0.5-0.3-0.9-0.2-1.3c0.1-0.7,0.1-1.7,1.2-1.7c0.2,0,0.5,0.4,0.5,0.7c0.1,0.9-0.5,1.4-1,2
	C86.6,74.9,86.4,75,86.2,75.1z"/>
<path class="st249" d="M106.9,68.9c0.7,0,1.4-1.3,2.1-0.2c0.4,0.7,0.1,1.8-0.9,1.9C107,70.6,106.9,69.6,106.9,68.9
	C107,68.8,106.9,68.9,106.9,68.9z"/>
<path class="st249" d="M130.8,52c0,0.2,0,0.5,0.2,0.7c-0.2,0.3-0.3,0.6-0.5,0.8c-0.6,0.7-1.3,1.2-2,0.3c-0.7-1,0.2-1.5,0.9-1.8
	C129.7,51.9,130.3,52,130.8,52z"/>
<path class="st249" d="M67.7,83.1c-1.8-0.9-2.5-2-0.8-3.7c0.1,0.2,0.3,0.4,0.5,0.5c0.3,0.9,0.7,1.8,1,2.6
	C68.1,82.7,67.9,82.9,67.7,83.1z"/>
<path class="st249" d="M121,54.7c1-1,2-1.2,3,0.1l0.1-0.1C123,56.1,122,55.6,121,54.7C120.9,54.7,121,54.7,121,54.7z"/>
<path class="st249" d="M140.1,115.6c-0.4,0.4-0.9,0.7-1.3,1.1c-0.1-0.8-1-1.8,0.3-2.5c0.4-0.2,1-0.5,1.2,0
	C140.5,114.6,140.2,115.2,140.1,115.6z"/>
<path class="st249" d="M85.3,98.6c-0.1,0.1-0.1,0.3-0.2,0.3c-0.1,0-0.3-0.1-0.3-0.1C84.8,98.4,85,98.4,85.3,98.6z"/>
<path class="st249" d="M116,103.7c0.4,0.3,0.8,0.5,1.1,0.8c0.5,0.4,1,1,0.3,1.5c-0.6,0.5-1.1-0.2-1.4-0.7c-0.2-0.4-0.3-0.9-0.4-1.3
	C115.7,104,116,103.7,116,103.7z"/>
<path class="st249" d="M125.2,90c0,0.5,0,0.9,0,1.4c0,0.5,0.1,1.1-0.5,1.1c-0.8,0.1-1-0.7-0.8-1.3c0.1-0.6,0.5-1.1,0.8-1.7
	C124.9,89.7,125,89.8,125.2,90z"/>
<path class="st249" d="M127,77.7c-0.7-0.1-1.6,0.5-1.9-0.7c0-0.2,0.2-0.7,0.4-0.7C126.5,76.2,126.7,77.1,127,77.7
	C127,77.8,127,77.7,127,77.7z"/>
<path class="st249" d="M106.6,79.9c-0.2,0.5-0.6,0.9-1,0.6c-0.3-0.2-0.4-0.8-0.5-1.2c0-0.1,0.5-0.4,0.7-0.4
	C106.3,79,106.7,79.3,106.6,79.9z"/>
<path class="st249" d="M128.3,58.8c-0.3,0.3-0.5,0.3-0.8,0.1c-0.1-0.1-0.2-0.4-0.1-0.4c0.2-0.3,0.6-0.3,0.8-0.1
	C128.3,58.4,128.3,58.6,128.3,58.8z"/>
<path class="st249" d="M128.9,61c0.5,0.1,0.9,0.5,0.6,0.9c-0.2,0.3-0.7,0.5-1.1,0.7c-0.1-0.3-0.4-0.5-0.4-0.8
	C128.1,61.4,128.3,61,128.9,61z"/>
<path class="st249" d="M123.9,54.8c0.8,0.1,1.8-0.1,1.4,1.2c-0.1,0.5-0.5,1.1-1,0.8C123.5,56.4,123.8,55.5,123.9,54.8
	C124,54.7,123.9,54.8,123.9,54.8z"/>
<path class="st249" d="M110.3,100.5c0.6,0.3,1.1,0.6,0.7,1.4c-0.1,0.2-0.5,0.3-0.7,0.4c-0.2-0.4-0.4-0.8-0.6-1.2
	C109.9,100.9,110.1,100.7,110.3,100.5z"/>
<path class="st249" d="M116.8,101.8c0.5-0.1,0.9-0.1,1.4-0.2c0.5,0.5,1.4,1.4,0.3,1.8C117.5,103.9,117,102.8,116.8,101.8z"/>
<path class="st249" d="M65,91.7c-0.7,1.1-1.8,1.1-2.9,0.9C62.8,91.6,63.9,91.7,65,91.7z"/>
<path class="st249" d="M70.6,86.2c-0.3,0.1-0.5,0.1-0.8,0.2c0.1-0.3,0.1-0.5,0.2-0.8c0-0.1,0.3-0.1,0.4-0.2
	C70.5,85.6,70.6,85.9,70.6,86.2z"/>
<path class="st249" d="M147,65.8c-0.2,0.3-0.3,0.6-0.5,0.9c-0.3,0.3-0.7,0.9-1.1,0.5c-0.4-0.4,0.1-0.9,0.6-1.1
	C146.3,65.9,146.6,65.9,147,65.8C146.9,65.8,147,65.8,147,65.8z"/>
<path class="st249" d="M-1.1,34.7c0.9-0.2,1.7-1.5,2.6-0.5c0.7,0.7,0.1,1.5-0.6,2c-1.7,1.2-1.8,3.5-3.4,4.8c-1.5,1.2-3,2.4-4.9,4
	c0-2.2,0.9-3.3,2.3-4.3C-3.1,39.2-1.6,37.3-1.1,34.7L-1.1,34.7z"/>
<path class="st249" d="M4.9,30.5C5,32,5.7,33.7,3.8,34.6c-0.1,0-0.4-0.1-0.4-0.2c-0.8-1.9,0.5-2.8,1.6-3.9C5,30.6,4.9,30.5,4.9,30.5
	z"/>
<path class="st249" d="M82.1,20.6c-0.1-1-0.2-2-0.2-2.9c0.1-0.8,1.3-1,1.4-0.7c0.6,3,2.2,0.2,3.2,0.6C85.4,21.7,85.4,21.7,82.1,20.6
	C82.1,20.6,82.1,20.6,82.1,20.6z"/>
<path class="st249" d="M62.1,104.6c-0.5-0.6-1.2-1-1.2-1.9c1.1-0.7,2.1-1.4,3.2-2c1-0.5,1.8,0.3,1.5,1
	C65.1,103.3,64.5,105.1,62.1,104.6z"/>
<path class="st249" d="M50,106.8c-1.5,0-2.1-1.1-2.7-2.2c0-0.3-0.1-0.6-0.3-0.8c1.5-0.2,2.4-1.8,4.1-1.6
	C51.9,104.1,49.5,105.1,50,106.8z"/>
<path class="st249" d="M69.7,100.8c0.3,1,0.6,2,0.8,3c-1.9-0.3-3.8-0.7-3.2-3.3c0.1-0.6,0.2-1.9,1.4-1.4
	C69.2,99.3,69.4,100.2,69.7,100.8z"/>
<path class="st249" d="M62.9,94.7c3.3-0.7,2.7,1.4,2.4,3.4C63.2,97.8,62.5,96.7,62.9,94.7L62.9,94.7z"/>
<path class="st249" d="M68,104.8c-0.8,1.3-0.2,3.3-2,4.1C64.8,104.7,64.8,104.7,68,104.8z"/>
<path class="st249" d="M58.2,98.8c-0.4,0.7-0.8,1.4-1.2,2.1c-1-0.2-2.1-0.5-1.5-1.8C55.7,98.8,57,96.2,58.2,98.8z"/>
<path class="st249" d="M59.6,100.9c0.1-0.3,0.1-0.6,0.2-0.9c0.3-0.8,0.8-1.6,1.6-0.9c0.8,0.7,0,1.3-0.6,1.8
	c-0.2,0.2-0.6,0.2-0.9,0.3C59.9,101.1,59.6,100.9,59.6,100.9z"/>
<path class="st249" d="M105.9,39.8c0-0.4,0-0.7,0-1.1c1.3-2.2,2.6-4.5,4-6.7c0.5,0.6,0.9,1.2,1.4,1.8c0.4,0.7,0.3,1.3-0.3,1.8
	c-0.8,0.6-2,1.1-1.8,2.2c0.6,3.5-2.4,4.9-3.8,7.9C104.5,43.2,106.2,41.6,105.9,39.8z"/>
<path class="st249" d="M106.1,34.6c-1.1-0.9-2-1.8-3.1-2.7c0.9-1.5,2.3-1.7,4.4-2C106.3,31.4,107.4,33,106.1,34.6z"/>
<path class="st249" d="M96.9,37.2c-0.1,0.1-0.2,0.3-0.3,0.3c-0.4,0-0.5-0.2-0.4-0.6c0-0.1,0.2-0.3,0.3-0.3
	C96.9,36.5,97.1,36.8,96.9,37.2z"/>
<path class="st249" d="M157,4.8c0-0.3,0-0.7,0-1c-0.5-0.8-1.2-1.5-2-2l0.1,0.1c-0.9-0.4-2.3-0.7-2.2-1.7c0.3-4.2-3.3-5.4-5.5-7.6
	c-0.2-0.3-0.3-0.4-0.3-0.4c-0.2-0.5-0.3-0.6-0.1-0.1c0.3,0.8,0.9,1.4,0.8,2.3c-0.4,1.3-0.8,2.7-1.9,3.6l0.1-0.1
	c-5.9,3.5-7.5,3.1-10.5-2.7c-4.1-2.7-1.8-5.9-0.6-8.9c-0.2-1.7,0.8-3,1.1-4.5c0,0.1,0,0.1,0,0.1c-1.4,2.4-3.6,2-5.1,1
	c-1.8-1.3-0.5-3.3,0.4-4.8c1-1.6,1.9-3.5,4-4.1c0.2-0.1,0.3-0.1,0.5-0.1c-0.1-0.1-0.2-0.2-0.3-0.3c-0.3-0.2-0.6-0.4-0.8-0.7
	c-0.3-0.2-0.5-0.5-0.8-0.7c-0.3-0.2-0.6-0.4-1-0.6c-0.4-0.1-0.7-0.3-1.1-0.4c-0.8-0.2-1.5-0.6-2-1.2c-0.2-0.3-0.5-0.7-0.7-1
	c0.7-1.4,1.9-2.6,1.8-4.3c0.1-0.6,0.2-1.1,0.3-1.7c0.4-0.6,0.7-1.2,0.8-1.9c0.1-0.7,0.5-1.3,1.2-1.5c4-0.4,5.5,2.1,6.1,4.8
	c-0.6-2.2-1.8-4.8-5.4-4.9c-0.9,0-1.6,0.4-2.3,1.1c-0.2,0.1-0.4,0.2-0.6,0.3c-2.8,0.9-4.2,3.8-6.9,4.9c-0.4-0.3-0.7-0.6-1.1-0.9
	c-0.6-0.7-1.2-1.5-1.2-2.5c0-0.5,0.1-1,0.3-1.4c3.4-7.2,10.1-10.9,16.4-14.9c1.2-0.2,2.3,1,3.5,0c0.7-0.5,1.4-1,2-1.6
	c0.4-0.3,0.8-0.4,1.3-0.5c0.9,0,1.8,0.4,2.6,0.8c1.9,1.3,3.6,3.2,6.3,2.1c0.7-0.1,1.4-0.2,2.1-0.3c4.1,0.3,5.9,2.7,6,8
	c-0.5,2-2.7,1.8-3.9,3c-0.9,2.5-4.2,1.4-5.3,3.5c3.6,2.1,0.2,5.1,1.1,7.5c0.3,0.4,0.4,0.8,0.6,1.2c1.4,2.4,1.6,4.8,0.6,7.5
	c-0.8,2.1-1.5,4.2-1.9,6.4c-0.1,0.4,0.4,0.8,0,1.1c0.1-1.1,0.6-2,1.8-2.4c7.3,1.9,8.7,3.7,8.4,10.2c-1.3,1.4-2.6,2.9-2.3,5
	c0.1,1.7,0.5,3.3,0.8,4.9c0.6,4-0.4,4.7-4.7,3.3C157.3,5.3,157.1,5,157,4.8z"/>
<path class="st249" d="M134.7-5.1c0.4,0,0.7,0,1.1-0.1c2.7,3.6,6.4,3.5,10.2,2.9c0.2,0.6,0,1.4,0.7,1.7c1.7,0.8,1,1.9,0.1,2.7
	c-1,0.9-1.7,0.4-2-0.9c-0.3-1.2-1.5-0.9-2-0.4c-1.4,1.5-1.5,4-3.5,5.1c0.9,1.2-0.6,3,1.2,4c1.4,0.8,0.6,1.3-0.2,2.1
	c-1.8,2.1-1.7,2.8-0.8,6c0.3,1,1.1,3-1.4,2.4c-1.1-0.2-1.2,0.3-1.1,0.9c0.5,1.8-1.8,2.8-1.2,4.6c-0.1,0.4-0.4,0.6-0.7,0.8
	c-0.9-0.8-1.3-1.8-1.2-3c1.5-4,2.2-8.2,3.2-12.4c0.2-1,0.4-2.2-0.1-2.9c-3.1-3.9-1.6-8.4-1.9-12.7C135.1-4.5,134.8-4.8,134.7-5.1z"
	/>
<path class="st249" d="M33.2,11.6c0.1,0.3,0.3,0.6,0.4,0.9c0.1,0.3,0.1,0.9,0.1,0.9c-0.8,0.2-0.6-0.5-0.6-0.9
	C33,12.2,33.2,11.8,33.2,11.6C33.2,11.5,33.2,11.6,33.2,11.6z"/>
<path class="st249" d="M-1.4,74.5c0.4,1.7,2.1,1.2,3.3,1.7c-2.1,1.1-1.9,4.7-6,4.6C-1.5,78.9-0.4,77-1.4,74.5
	C-1.4,74.5-1.4,74.5-1.4,74.5z"/>
<path class="st249" d="M119,41.8c-0.3,0.3-0.7,0.6-1,1c-1.1,0.6-1.8,0-2.4-0.8c-0.1-0.5,0-0.9,0.3-1.3c0,0-0.2,0-0.2,0
	C116.9,40.8,118,41.1,119,41.8z"/>
<path class="st249" d="M36,44.8c-1,0.3-2,0.7-2-1c0-1-0.1-2-0.2-3c0.3,0.1,0.6,0.1,1,0.1C36,41.9,36,43.3,36,44.8z"/>
<path class="st249" d="M99,106.8c-1.2,1.1-2.5,2.2-1.2,4.1c-1.9,0.4-3.7,1.2-5.7,1c0.3-1.7,0.3-3.4-0.5-4.9
	c-0.8-1.4,0.1-2.2,0.8-3.1c1.1-1.4,2.1-0.2,3,0.3C96.7,104.9,97.8,105.9,99,106.8z"/>
<path class="st249" d="M71,114.8c1.4-3.1,3.8-3,6.7-2.2C76.3,116.8,73,113.7,71,114.8C70.9,114.8,71,114.8,71,114.8z"/>
<path class="st249" d="M143.9,25.8c-1.7-0.9-0.8-3.6-3-4.1c-0.5-2.2,1.3-3.4,2.1-5l-0.1,0.1c0.7,0.4,1.7,1.3,2.1,0.7
	c1.8-2.1,5-2.8,6.2-5.5c0.1-0.2,0.3-0.3,0.4-0.5c0.4-0.2,0.8-0.2,1.3-0.1c2,0.6,3.7-0.3,5.4-1.1c0.9-0.6,1.6-1.3,2.2-2.1
	c0.2-0.3,0.4-0.7,0.7-1c1.6-3.2-1.6-6.3-0.4-9.5c0.4-0.3,0.8-0.5,1.2-0.5c1.8,0.4,3.6,0.5,5.1,1.7c0.7,2.7,2.6,0.7,3.9,1
	c0.7,1.5-0.9,2.5-0.8,3.8c0.2,0.6,0,0.8-0.5,0.5c-2.8,1.2-4.7,3.2-5.6,6.2c-0.7,2.6-2.4,3.9-5,4.7c-5.5,1.7-10.3,4.4-13.2,9.7
	C145.6,25.2,144.6,25.4,143.9,25.8z"/>
<path class="st249" d="M167-1.3c-1.7-0.1-2,1.9-3.4,2.3c-1.2-0.8-0.3-2.5-1.5-3.3c-3.6-1.8-2-3.8-0.2-5.9c0.7-3.5-0.4-5.9-3.8-7.3
	c-1-0.4-1.9-1.2-2.9-1.7c-0.8-3.3,1.1-2.7,3-2c0.9-1,1.4-2.4,2.7-3.1c1.6,0.8,1.4,2.5,1.9,3.8c0.3,0.7,0.7,1.4,1.3,2
	c0.3,0.3,0.5,0.6,0.7,0.9c0.6,0.6,1.4,0.7,2.2,0.4c0.4,0,0.8-0.1,1.2-0.1c1.3,0.1,1.3,1.3,2,2c0.5,0.2,0.9,0.3,1.4,0.6
	c2.5,1.4,2.7,2,0.9,3.9c-1.3,1.3-2.7,2.4-4,3.6c-3.4,0.5-0.2,2.9-1.2,4L167-1.3z"/>
<path class="st249" d="M178.2,14.7c-0.4,2-0.8,3.1-3.5,2.1c-2.4-0.8-0.8,1.1-0.5,1.9c-0.7,0.8-1.4,1.8-2.3,2.4l-0.4,0l-0.4,0
	c-1-0.5-0.4-1.7-1.1-2.3c1.5-1.4,1.9-3.9,4.3-4.4c1.3-0.3-1.5-3.1,1.5-2.5C175.8,13.7,176.6,14.5,178.2,14.7z"/>
<path class="st249" d="M175.8,30.8c-0.2,0-0.4,0-0.6,0c-0.3-0.1-0.6-0.3-0.9-0.4c-3.2-0.5-3.4-1-1.6-3.4c0.9-1.1,2.1-2.1,3.1-3.2
	c0.2,0.3,0.3,0.6,0.5,0.9C175.1,26.7,175.4,28.8,175.8,30.8z"/>
<path class="st249" d="M170.7,23.7c-1.3,2.9-4.2,4.4-6.1,7.6C164.8,27.5,166.3,25.8,170.7,23.7L170.7,23.7z"/>
<path class="st249" d="M154,27.7c1,0.7,0.8,1.6,0.3,2.4c-0.7,1.2-1.6,2.3-2.3,3.5C150.3,30.9,153.2,29.7,154,27.7z"/>
<path class="st249" d="M171.8,21.1c0.4-1.1,1.2-1.9,2.3-2.4c0.4,1.9-1.4,3-1.4,4.9c0,1.1-1.3,0-2,0.1c0,0,0.1,0.1,0.1,0.1
	C171.5,23,172.1,22.2,171.8,21.1z"/>
<path class="st249" d="M158.8,23.6c-1.1-1.5-2.3-2.9-3.4-4.4C158.7,20.4,158.7,20.4,158.8,23.6L158.8,23.6z"/>
<path class="st249" d="M154.9,26.8c-0.3,0.4-0.6,0.7-0.9,1.1c-0.7-0.7-2-0.2-2.4-1.2c-0.2-0.6,0.5-1.1,1-1.4
	C154.2,24.5,154.6,25.6,154.9,26.8z"/>
<path class="st249" d="M163.9,15.2c0.8-2.4,1.9-3.4,3.9-3.4C167.2,13.5,166.2,14.6,163.9,15.2z"/>
<path class="st249" d="M146.8,54.8c0,0.3,0.1,0.6,0.2,1c-0.6,0.8-1,1.7-2.1,2C145.6,56.8,142.9,53.8,146.8,54.8z"/>
<path class="st249" d="M170.2,3.6c1.7,0.6,1,1.7,0.5,2.7c-0.1,0.1-0.8,0.1-0.8,0.1c-0.1-0.8-0.2-1.6-0.2-2.3
	C169.8,3.9,170,3.7,170.2,3.6z"/>
<path class="st249" d="M167.4,18.1c-0.1,0.8-0.4,1.4-1.1,1.4c-0.6,0-0.7-0.6-0.5-1.1c0.1-0.4,0.4-0.8,0.7-1.2
	C166.8,17.5,167.1,17.8,167.4,18.1z"/>
<path class="st249" d="M170,18.8c0.4,0.8,0.7,1.5,1.1,2.3c-0.3,0.6-0.8,1.1-1.4,0.9c-0.9-0.2-0.5-0.9-0.2-1.4
	C169.7,20,169.8,19.4,170,18.8z"/>
<path class="st249" d="M150.1,55.8c0.9-0.3,1.8-0.9,2,0.7c0.1,0.7,0.3,1.2,0.8,1.6c-0.1,0.5,0,1.1-0.2,1.3c-0.5,0.5-0.8-0.1-1-0.5
	c-0.5-0.8-1.1-1.5-1.7-2.3l0.1,0.1C150,56.5,150,56.2,150.1,55.8z"/>
<path class="st249" d="M149.9,56.7c-0.7,1.5-0.6,3.1-0.5,5.3C147,58.5,147,58.5,149.9,56.7C150,56.8,149.9,56.7,149.9,56.7z"/>
<path class="st249" d="M141.7,87c-0.1-0.6-0.7-1.2,0-1.7c0.1-0.1,0.7,0.1,0.7,0.2C142.6,86.1,141.9,86.5,141.7,87
	C141.6,87,141.7,87,141.7,87z"/>
<path class="st249" d="M145.9-2.2c-0.8-1.6,1-2.5,1-3.9c-0.6-1.2,0.1-1.7,1-2.1c1.7,0.7,2.6,2.8,5.2,2.1c2.1-0.6,2.6,1.1,1.7,2.8
	c-0.9,1.8-1.1,3.4,0.2,5.1c-1.6,0.8-2.8-0.6-4.2-0.9c-1.3-0.3-1-1-0.5-1.8c0.9-1.4,0-2.3-0.9-2.9c-1.5-1-1.2,1.1-2.1,1.3
	C146.9-2.3,146.4-2.3,145.9-2.2z"/>
<path class="st249" d="M151.8,12c-0.2,0-0.4,0-0.6,0c-1.3-1.3-2.7-2.4-3.2-4.2c-0.5-1.3,0-2.2,1.1-2.9c2.6,0,5.3,2.2,7.9,0
	c0,0,0,0,0,0C159.1,9.1,158.1,10.5,151.8,12z"/>
<path class="st249" d="M142.9,16.7c-1.3-2.7-1.3-2.7,2.1-4.3C144.8,14.3,143.4,15.3,142.9,16.7C142.8,16.8,142.9,16.7,142.9,16.7z"
	/>
<path class="st249" d="M149.1,4.8c0,1.1-0.5,2-1.1,2.9c-0.9-0.4-2.1-0.7-1.7-1.9C146.7,4.6,147.8,4.4,149.1,4.8z"/>
<path class="st249" d="M140.9,21.7c0,0.5-0.1,1-0.1,1.5c-0.7,0.1-1.9,1-2.1,0.3C138.3,22,139.9,22,140.9,21.7z"/>
<path class="st249" d="M154.9,1.7c0.9,0.4,2.1,0.6,2,2C155.9,3.5,155.6,2.4,154.9,1.7z"/>
<path class="st249" d="M123.8,124.2c-1.5,0.1-3.1,0.4-3.9-1.4c0.3-0.4,0.6-0.8,0.9-1.1c0.4-0.5,0.6-1.1,0.3-1.8
	c-0.6-1.1-1.4-0.2-2.1-0.1c-0.3-0.6-2.3-0.8-0.5-1.9c0.6-0.4,1.6-0.4,2.4-0.5c2.9-0.4,3.8,0.6,3.4,3.5
	C124,121.9,123.9,123,123.8,124.2z"/>
<path class="st249" d="M127.6,111.8c2.4,2,0.3,4.1,0.1,6.1c-1.1-1.8-2.2-3.5-3.3-5.3C125.4,111.4,126.6,111.8,127.6,111.8z"/>
<path class="st249" d="M115.9,40.7c0.1,0.4,0.2,0.9,0.3,1.3c0.7,1.9,0.9,3.6-1.2,4.8c0,0,0.1-0.1,0.1-0.1c-3.2-1.2-3.9-3.1-1.8-5
	C114,41,114.8,40.6,115.9,40.7z"/>
<path class="st249" d="M114.9,46.8c1.6-1.3,0.1-3.4,1.2-4.8c0.6,0.3,1.2,0.5,1.8,0.8C117.6,44.6,117.2,46.4,114.9,46.8z"/>
<path class="st249" d="M151.8,12c0.4-1.3,0.9-2.5,2.4-2.8c2.5-0.5,2.8-2.4,2.8-4.4c3.9-0.2,3.9-0.2,3.1-3.6
	c-0.3-1.4-0.8-2.8-1.2-4.2c1.3-1.2,1.4,0,1.7,0.8c0.5,2.3,1,4.7,1.5,6.9c1.3,0.3,1.1-2.6,2.6-1c0.9,0.9,0.2,1.7-0.6,2.4
	c-0.8,0.7-1.4,1.7-2.1,2.6l0,0c-0.6,1-1.3,2-1.9,3.1C157.2,11.3,154.5,13.2,151.8,12L151.8,12z"/>
<path class="st249" d="M151.8,12c1.8-1.2,4-0.4,5.9-1.4c1-0.5,1.7,0.5,2.3,1.2c-2.2,1.8-5.5,0.4-7.6,3.2
	C152.1,13.6,151.9,12.8,151.8,12z"/>
<path class="st249" d="M161.9,8.8c-0.3,0-0.6,0-0.9-0.1c-0.4-0.1-1.1-0.2-0.9-0.7c0.2-0.5,0.8-0.1,1.1,0.1
	C161.5,8.3,161.7,8.6,161.9,8.8L161.9,8.8z"/>
</svg>
