<svg xmlns="http://www.w3.org/2000/svg" viewBox="0 0 300 169"><filter id="prefix__a"><feGaussianBlur stdDeviation="12"/></filter><rect width="100%" height="100%" fill="#851358"/><g filter="url(#prefix__a)"><g fill-opacity=".5" transform="translate(.6 .6) scale(1.17188)"><circle cx="133" cy="81" r="157" fill="#fff"/><circle r="1" fill="#dff" transform="rotate(105.3 52.7 126.5) scale(215.48267 74.80622)"/><circle r="1" fill="#c1ffff" transform="matrix(-56.8848 -46.64547 160.74006 -196.02471 165.4 143)"/><circle r="1" fill="#f429b0" transform="matrix(-12.61043 42.84658 -76.45022 -22.50052 57 31.8)"/><path fill="#5cb3d9" d="m125 67.6 59.8 71.2-75.8 63.6-59.8-71.2z"/><circle r="1" fill="#fff1fe" transform="matrix(4.16415 -56.92384 93.1383 6.81334 210.5 35.3)"/><circle cx="50" cy="117" r="63" fill="#a880cc"/><ellipse cx="129" cy="9" fill="#ff81c7" rx="32" ry="48"/><circle r="1" fill="#fffbfb" transform="matrix(11.21036 29.91306 -93.86342 35.1767 229.5 31)"/><circle r="1" fill="#a3f0f2" transform="matrix(-19.70754 23.92972 -50.07729 -41.2416 187.2 120)"/><ellipse cx="21" cy="70" fill="#c95fb1" rx="107" ry="21"/><circle r="1" fill="#ea3aa1" transform="rotate(37.7 4.1 95.2) scale(87.67099 16.76842)"/><circle r="1" fill="#73cdda" transform="matrix(14.40027 -48.37615 28.67315 8.53522 120.6 143)"/><path fill="#ffc9e6" d="m228 0-68-4-34 77z"/><circle r="1" fill="#d1f8f8" transform="matrix(-6.08147 24.94719 -108.8926 -26.54515 255 99.3)"/><circle r="1" fill="#a29aca" transform="matrix(17.675 21.58288 -61.41409 50.29423 60.3 127.8)"/><circle r="1" fill="#fffdfe" transform="rotate(-114.6 124.3 -60.7) scale(13.42612 111.14721)"/><circle r="1" fill="#92e1e9" transform="rotate(142.7 63.4 101) scale(24.02499 65.16121)"/><circle r="1" fill="#b977bc" transform="rotate(-18 318 -148.8) scale(63.74013 13.14306)"/><circle r="1" fill="#ef83c3" transform="rotate(174.8 60.8 12) scale(10.37641 51.10472)"/><circle r="1" fill="#8eb3d2" transform="matrix(17.49709 9.99142 -19.84896 34.75973 98.6 132.5)"/><circle r="1" fill="#dd41a3" transform="matrix(9.48525 -17.5426 54.03013 29.21398 30.8 12.6)"/><circle r="1" fill="#cd5aae" transform="rotate(-82.1 26.6 23.1) scale(21.03916 96.65914)"/><ellipse cx="129" cy="113" fill="#72d2e0" rx="10" ry="37"/><circle r="1" fill="#ee60b2" transform="rotate(48.5 26.2 115.2) scale(42.73225 12.0831)"/></g></g></svg>