<svg class="{{ .polygonClass }}" aria-hidden="true" width="564" height="518" viewBox="0 0 564 518" fill="none" xmlns="http://www.w3.org/2000/svg">
<path d="M136.631 447.463C136.643 479.265 173.448 503.694 204.648 514.942C235.849 526.19 349.91 456.714 435.384 394.609C520.858 332.504 544.448 225.468 523.307 172.08C502.166 118.691 390.062 114.5 391.026 53.4561C392.231 -22.8494 258.065 69.9714 201.548 153.377C145.032 236.782 136.619 415.662 136.631 447.463Z" fill="white" fill-opacity="0.5"/>
<path d="M73.9924 161.998C168.87 108.184 334.965 125.503 370.251 187.714C405.536 249.925 635.878 342.686 541 396.5C446.123 450.314 61.9552 444.802 26.6697 382.591C-8.61588 320.38 -20.8849 215.812 73.9924 161.998Z" fill="url(#paint0_linear_2087_126)"/>
<path d="M140.394 472.209C149.503 502.678 191.758 515.559 224.873 517.412C257.987 519.265 347.407 420.063 411.544 336.103C475.68 252.143 467.666 142.832 432.136 97.7218C396.607 52.612 287.989 80.6644 271.45 21.8951C250.777 -51.5664 148.77 75.7548 118.473 171.842C88.1773 267.929 131.286 441.74 140.394 472.209Z" fill="url(#paint1_linear_2087_126)" fill-opacity="0.75"/>
<defs>
<linearGradient id="paint0_linear_2087_126" x1="50.6757" y1="424.916" x2="467.735" y2="188.362" gradientUnits="userSpaceOnUse">
<stop stop-color="#A180FF"/>
<stop offset="1" stop-color="#EB3A8F" stop-opacity="0.67"/>
</linearGradient>
<linearGradient id="paint1_linear_2087_126" x1="241.192" y1="534.593" x2="-11.6128" y2="90.6342" gradientUnits="userSpaceOnUse">
<stop stop-color="#79E6FE"/>
<stop offset="1" stop-color="#F2B3FD"/>
</linearGradient>
</defs>
</svg>
