<!-- <svg class="[ {{ .polygonClass }} ]" aria-hidden="true" width="1017" height="1275" viewBox="0 0 1017 1275" fill="none" xmlns="http://www.w3.org/2000/svg">
<path opacity="0.85" d="M120.5 806.858C53.9497 806.858 -7.83697e-06 755.147 -5.04867e-06 691.358C-2.26036e-06 627.57 53.9497 575.858 120.5 575.858C187.05 575.858 216.5 627.57 216.5 691.358C216.5 755.147 187.05 806.858 120.5 806.858Z" fill="#ED440F"/>
<path d="M514.5 149C465.071 149 425 115.645 425 74.5C425 33.3548 465.071 2.44448e-05 514.5 2.66054e-05C563.929 2.8766e-05 604 33.3548 604 74.5C604 115.645 563.929 149 514.5 149Z" fill="#ED440F"/>
<path d="M527.387 469.858C500.877 469.858 479.387 475.858 479.387 398.858C479.387 364.617 500.877 330.858 527.387 330.858C553.896 330.858 575.387 364.617 575.387 398.858C578.387 470.358 553.897 469.858 527.387 469.858Z" fill="#ED440F"/>
<path d="M881.97 508.435C883.791 308.461 903.969 134.483 670.322 134.483C670.322 16.0024 351.713 22.0038 351.713 134.483C128.686 134.479 165.099 262.448 165.099 491.438C165.099 611.928 170.409 634.425 24 634.425C150.685 634.425 180.27 791.899 180.27 933.881C180.27 1042.37 275.095 1033.87 405.573 1033.87C496.604 1033.87 548.947 1083.37 548.947 1150.86C548.947 1083.18 606.6 1032.37 721.907 1033.87C794.732 1034.82 881.97 1019.38 881.97 918.383C881.97 854.891 884.246 705.411 1017 705.411C881.97 705.411 880.646 653.917 881.97 508.435Z" fill="url(#paint0_linear_2181_124)"/>
<path opacity="0.85" d="M533.655 828.635C693.139 828.635 766 942.634 766 1083.26C766 1223.89 693.139 1274.08 533.655 1274.08C374.171 1274.08 296 1223.89 296 1083.26C296 942.634 374.172 828.635 533.655 828.635Z" fill="#ED440F"/>
<defs>
<linearGradient id="paint0_linear_2181_124" x1="780" y1="109.358" x2="219.477" y2="1035.61" gradientUnits="userSpaceOnUse">
<stop offset="0.119792" stop-color="#0CF9F9"/>
<stop offset="0.416667" stop-color="#0FC5ED"/>
<stop offset="1" stop-color="#0ABDBD"/>
</linearGradient>
</defs>
</svg> -->

<svg class="[ {{ .polygonClass }} ]" viewBox="0 0 733 934" fill="none" xmlns="http://www.w3.org/2000/svg">
<path opacity="0.85" fill-rule="evenodd" clip-rule="evenodd" d="M0.318793 468.41C0.31879 548.545 49.6423 613.506 110.486 613.506C171.33 613.506 198.254 548.545 198.254 468.41C198.254 405.36 181.586 351.703 144.843 331.69C146.888 324.196 147.871 315.571 147.871 306.393C147.871 277.561 138.178 254.187 116.274 254.187C94.3704 254.187 76.6139 277.561 76.6139 306.393C76.6139 314.404 77.9849 321.994 80.4348 328.779C34.1974 346.006 0.318796 401.997 0.318793 468.41Z" fill="#ED440F"/>
<path d="M370.639 123.853C335.061 123.853 306.22 96.1278 306.22 61.9267C306.22 27.7255 335.061 -1.96298e-05 370.639 -1.80746e-05C406.216 -1.65195e-05 435.058 27.7255 435.058 61.9267C435.058 96.1278 406.216 123.853 370.639 123.853Z" fill="url(#paint0_linear_2181_124)"/>
<path d="M379.914 354.896C360.833 354.896 345.365 359.217 345.365 303.771C345.365 279.114 360.833 254.805 379.914 254.805C398.995 254.805 414.463 279.114 414.463 303.771C416.622 355.256 398.995 354.896 379.914 354.896Z" fill="#ED440F"/>
<path d="M635.13 382.674C636.44 238.677 650.964 113.4 482.793 113.4C482.793 28.0848 253.47 32.4062 253.47 113.4C92.9429 113.397 119.151 205.545 119.151 370.435C119.151 457.197 122.973 473.397 17.5936 473.397C108.777 473.397 130.071 586.79 130.071 689.028C130.071 767.151 198.323 761.027 292.236 761.027C357.757 761.027 395.432 796.67 395.432 845.269C395.432 796.537 436.928 759.947 519.922 761.027C572.339 761.709 635.13 750.591 635.13 677.869C635.13 632.149 636.768 524.512 732.319 524.512C635.13 524.512 634.176 487.433 635.13 382.674Z" fill="url(#paint1_linear_2181_124)"/>
<path opacity="0.85" d="M384.425 613.243C499.216 613.243 551.658 695.332 551.658 796.593C551.658 897.854 499.216 934 384.425 934C269.634 934 213.369 897.854 213.369 796.593C213.369 695.332 269.634 613.243 384.425 613.243Z" fill="url(#paint2_linear_2181_124)"/>
<defs>
<linearGradient id="paint0_linear_2181_124" x1="382.155" y1="61.9266" x2="349.023" y2="0.0119813" gradientUnits="userSpaceOnUse">
<stop stop-color="#ED440F"/>
<stop offset="1" stop-color="#EFAC00" stop-opacity="0.52"/>
</linearGradient>
<linearGradient id="paint1_linear_2181_124" x1="558.136" y1="188.3" x2="164.372" y2="730.406" gradientUnits="userSpaceOnUse">
<stop offset="0.119792" stop-color="#0CF9F9"/>
<stop offset="0.471563" stop-color="#0FC5ED"/>
<stop offset="1" stop-color="#0ABDBD"/>
</linearGradient>
<linearGradient id="paint2_linear_2181_124" x1="276.348" y1="907.658" x2="491.68" y2="613.595" gradientUnits="userSpaceOnUse">
<stop stop-color="#A1C808"/>
<stop offset="1" stop-color="#0FED9D" stop-opacity="0.51"/>
</linearGradient>
</defs>
</svg>
