<svg class="{{ .polygonClass }}" aria-hidden="true"  viewBox="0 0 601 676" fill="none" xmlns="http://www.w3.org/2000/svg">
  <path d="M544.233 609.292C635.79 622.327 405.836 43.8921 354.854 41.9887C303.872 40.0854 294.364 159.592 240.222 283.578C186.081 407.564 88.0845 423.374 88.0845 423.374C88.0845 423.374 452.676 596.257 544.233 609.292Z" fill="url(#paint0_linear_1845_278)" fill-opacity="0.85"/>
  <path d="M481.221 600.812C661.389 557.028 236.652 39.3016 190.9 46.6953C145.148 54.0889 162.369 179.897 140.854 318.557C119.34 457.218 70.6767 424.683 70.6767 424.683C70.6767 424.683 301.053 644.595 481.221 600.812Z" fill="url(#paint1_linear_1845_278)"/>
  <path d="M144.87 224.085C112.303 259.833 207.495 588.39 224.205 603.101C240.915 617.812 611.657 234.129 600.325 173.647C588.992 113.166 177.437 188.337 144.87 224.085Z" fill="url(#paint2_linear_1845_278)" fill-opacity="0.85"/>
  <defs>
    <linearGradient id="paint0_linear_1845_278" x1="246.688" y1="361.386" x2="360.443" y2="553.616" gradientUnits="userSpaceOnUse">
      <stop stop-color="#FFA573"/>
      <stop offset="1" stop-color="#1898F5"/>
    </linearGradient>
    <linearGradient id="paint1_linear_1845_278" x1="165.957" y1="51.825" x2="463.322" y2="600.646" gradientUnits="userSpaceOnUse">
      <stop stop-color="white"/>
      <stop offset="1" stop-color="white" stop-opacity="0"/>
    </linearGradient>
    <linearGradient id="paint2_linear_1845_278" x1="434.168" y1="404.633" x2="137.561" y2="221.608" gradientUnits="userSpaceOnUse">
      <stop offset="0.0984447" stop-color="#CC0B0B" stop-opacity="0.53"/>
      <stop offset="0.923549" stop-color="#7F1BFD" stop-opacity="0.696444"/>
    </linearGradient>
  </defs>
</svg>
