<svg class="[ {{ .polygonClass }} ]" aria-hidden="true" viewBox="0 0 568 605" fill="none" xmlns="http://www.w3.org/2000/svg">
<path opacity="0.5" d="M20.7882 192.991C9.75918 174.981 17.4494 152.192 37.1694 144.448L263.138 55.7036C278.913 49.5084 297.353 55.1177 306.996 69.0451L541.12 407.176C554.332 426.256 545.323 451.686 522.988 458.359L263.159 535.993C247.219 540.756 229.677 534.098 221.051 520.012L20.7882 192.991Z" fill="white"/>
<path d="M92.8506 129.034C91.891 100.063 124.549 82.5489 148.151 99.3781L281.887 194.737C286.541 198.056 290.311 202.463 292.868 207.575L446.494 514.663C459.306 540.272 437.619 569.591 409.381 564.836L133.813 518.436C117.394 515.671 105.195 501.721 104.644 485.08L92.8506 129.034Z" fill="url(#paint0_linear_1843_271)"/>
<path opacity="0.5" d="M38.3154 195.608C20.0501 178.178 25.5716 149.002 48.8668 139.854L263.138 55.7036C278.913 49.5084 297.353 55.1177 306.996 69.0451L541.12 407.176C554.332 426.256 545.323 451.686 522.988 458.359L275.524 532.299C254.704 538.52 232.523 525.227 228.865 504.338L204.143 363.133C202.875 355.892 199.237 349.168 193.762 343.943L38.3154 195.608Z" fill="url(#paint1_linear_1843_271)"/>
<defs>
<linearGradient id="paint0_linear_1843_271" x1="161.62" y1="45.3251" x2="405.762" y2="575.983" gradientUnits="userSpaceOnUse">
<stop stop-color="#EB5757"/>
<stop offset="1" stop-color="#AE15F7"/>
</linearGradient>
<linearGradient id="paint1_linear_1843_271" x1="156.505" y1="79.5226" x2="388.453" y2="536.01" gradientUnits="userSpaceOnUse">
<stop stop-color="#DEFF14"/>
<stop offset="1" stop-color="#FF7F0A"/>
</linearGradient>
</defs>
</svg>
