<svg class="{{ .polygonClass }}" viewBox="0 0 492 485" fill="none" xmlns="http://www.w3.org/2000/svg">
<path opacity="0.5" d="M5.81174 132.309C-5.22998 114.307 2.45384 91.5339 22.1796 83.7993L227.253 3.38818C243.033 -2.79942 261.485 2.81154 271.14 16.7335L485.299 325.542C498.526 344.614 489.526 370.025 467.184 376.69L231.216 447.083C215.27 451.841 197.713 445.181 189.076 431.1L5.81174 132.309Z" fill="white"/>
<path d="M70.3109 44.5133C69.6141 23.5119 87.4499 6.6348 108.381 8.48944L356.003 30.4307C372.808 31.9197 386.159 45.1847 387.757 61.9794L423.682 439.611C425.861 462.515 405.726 481.255 383.037 477.441L111.229 431.746C94.8062 428.985 82.603 415.035 82.0509 398.391L70.3109 44.5133Z" fill="url(#paint0_linear)"/>
<path opacity="0.5" d="M5.81174 132.309C-5.22998 114.307 2.45384 91.5339 22.1796 83.7993L227.253 3.38818C243.033 -2.79942 261.485 2.81154 271.14 16.7335L485.299 325.542C498.526 344.614 489.526 370.025 467.184 376.69L231.216 447.083C215.27 451.841 197.713 445.181 189.076 431.1L5.81174 132.309Z" fill="url(#blobFront_linear)"/>
<defs>
<linearGradient id="paint0_linear" x1="135" y1="-7" x2="361" y2="485" gradientUnits="userSpaceOnUse">
<stop stop-color="#EB5757"/>
<stop offset="1" stop-color="#AE15F7"/>
</linearGradient>
<linearGradient id="blobFront_linear" x1="130.253" y1="24.6888" x2="344.986" y2="447.962" gradientUnits="userSpaceOnUse">
<stop stop-color="#DEFF14"/>
<stop offset="1" stop-color="#FF7F0A"/>
</linearGradient>
</defs>
</svg>
