<svg width="615" height="764" viewBox="0 0 615 764" fill="none" xmlns="http://www.w3.org/2000/svg">
<path fill-rule="evenodd" clip-rule="evenodd" d="M0.413277 383.028C0.413274 448.555 40.746 501.675 90.499 501.675C140.252 501.675 162.269 448.555 162.269 383.028C162.269 331.471 148.639 287.594 118.593 271.229C120.266 265.101 121.069 258.048 121.069 250.543C121.069 226.967 113.143 207.854 95.2323 207.854C77.3212 207.854 62.8014 226.967 62.8014 250.543C62.8014 257.094 63.9224 263.301 65.9258 268.848C28.1165 282.935 0.413279 328.721 0.413277 383.028Z" fill="url(#paint0_linear_2348_107)"/>
<path d="M615 412.13C615 346.603 577.885 329.132 528.132 329.132C478.379 329.132 456.362 367.156 456.362 395.854C456.362 447.412 469.992 491.288 500.038 507.653C498.365 513.781 497.562 520.834 497.562 528.339C497.562 551.916 505.488 571.028 523.399 571.028C541.31 571.028 566.345 551.916 566.345 528.339C566.345 519.954 565.023 513.168 562.768 507.689C594.155 494.235 615 461.237 615 412.13Z" fill="url(#paint1_linear_2348_107)"/>
<path d="M310.816 290.205C295.213 290.205 282.565 293.738 282.565 248.399C282.565 228.237 295.213 208.359 310.816 208.359C326.418 208.359 339.067 228.237 339.067 248.399C340.833 290.5 326.418 290.205 310.816 290.205Z" fill="#ED440F"/>
<path d="M519.51 312.92C520.581 195.171 532.458 92.7292 394.941 92.7292C394.941 22.9654 207.419 26.4991 207.419 92.7292C76.1532 92.7269 97.5843 168.078 97.5843 302.912C97.5843 373.859 100.71 387.105 14.5387 387.105C89.1012 387.105 106.514 479.829 106.514 563.431C106.514 627.314 162.324 622.306 239.119 622.306C292.697 622.306 323.504 651.452 323.504 691.192C323.504 651.343 357.437 621.423 425.302 622.306C468.164 622.864 519.51 613.772 519.51 554.306C519.51 516.92 520.849 428.904 598.983 428.904C519.51 428.904 518.73 398.583 519.51 312.92Z" fill="url(#paint2_linear_2348_107)"/>
<path opacity="0.85" d="M314.504 501.461C408.37 501.461 451.253 568.586 451.253 651.389C451.253 734.193 408.37 763.75 314.503 763.75C220.637 763.75 174.628 734.192 174.628 651.389C174.628 568.586 220.637 501.461 314.504 501.461Z" fill="url(#paint3_linear_2348_107)"/>
<path d="M303.231 101.277C274.138 101.277 250.554 78.6055 250.554 50.6386C250.554 22.6717 274.138 -3.57424e-06 303.231 -2.30256e-06C332.323 -1.03089e-06 355.907 22.6717 355.907 50.6386C355.907 78.6055 332.323 101.277 303.231 101.277Z" fill="url(#paint4_linear_2348_107)"/>
<defs>
<linearGradient id="paint0_linear_2348_107" x1="95.8084" y1="354.765" x2="1.34255" y2="261.281" gradientUnits="userSpaceOnUse">
<stop stop-color="#ED440F"/>
<stop offset="1" stop-color="#EFAC00" stop-opacity="0.52"/>
</linearGradient>
<linearGradient id="paint1_linear_2348_107" x1="535.681" y1="428.458" x2="445.665" y2="461.319" gradientUnits="userSpaceOnUse">
<stop stop-color="#ED440F"/>
<stop offset="1" stop-color="#EFAC00" stop-opacity="0.52"/>
</linearGradient>
<linearGradient id="paint2_linear_2348_107" x1="456.551" y1="153.977" x2="134.562" y2="597.267" gradientUnits="userSpaceOnUse">
<stop offset="0.119792" stop-color="#0CF9F9"/>
<stop offset="0.471563" stop-color="#0FC5ED"/>
<stop offset="1" stop-color="#0ABDBD"/>
</linearGradient>
<linearGradient id="paint3_linear_2348_107" x1="168.148" y1="557.906" x2="447.561" y2="690.354" gradientUnits="userSpaceOnUse">
<stop offset="0.380268" stop-color="#EF2793"/>
<stop offset="1" stop-color="#FB0615"/>
</linearGradient>
<linearGradient id="paint4_linear_2348_107" x1="312.648" y1="50.6386" x2="285.555" y2="0.00980898" gradientUnits="userSpaceOnUse">
<stop stop-color="#ED440F"/>
<stop offset="1" stop-color="#EFAC00" stop-opacity="0.52"/>
</linearGradient>
</defs>
</svg>
