<svg xmlns="http://www.w3.org/2000/svg" width="730.299" height="662.053" viewBox="0 0 730.299 662.053">
  <defs>
    <style>
      .a {
        fill: #d6338d;
      }
    </style>
  </defs>
  <g>
    <path class="a" d="M630.968,151.412l-153.181,10.6a32.427,32.427,0,0,1-32.427-32.426V32.426A32.427,32.427,0,0,1,477.787,0l163.78,12.113a32.426,32.426,0,0,1,32.426,32.426l-10.6,74.447A32.426,32.426,0,0,1,630.968,151.412Z"/>
    <path class="a" d="M92.687,200.053H20.612A20.672,20.672,0,0,1,0,179.442L6.805,43.747A20.673,20.673,0,0,1,27.416,23.135H85.883a20.673,20.673,0,0,1,20.611,20.612l6.805,135.7A20.672,20.672,0,0,1,92.687,200.053Z"/>
    <path class="a" d="M426.687,662.053H354.612A20.672,20.672,0,0,1,334,641.442l6.805-135.695a20.673,20.673,0,0,1,20.611-20.612h58.467a20.673,20.673,0,0,1,20.611,20.612l6.8,135.7A20.672,20.672,0,0,1,426.687,662.053Z"/>
    <path class="a" d="M573.687,485.135H501.612A20.673,20.673,0,0,0,481,505.747l6.805,135.7a20.672,20.672,0,0,0,20.611,20.611h58.467a20.672,20.672,0,0,0,20.611-20.611l6.8-135.695A20.673,20.673,0,0,0,573.687,485.135Z"/>
    <path class="a" d="M709.687,662.053H637.612A20.672,20.672,0,0,1,617,641.442l6.8-135.695a20.673,20.673,0,0,1,20.611-20.612h58.467a20.673,20.673,0,0,1,20.611,20.612l6.8,135.7A20.672,20.672,0,0,1,709.687,662.053Z"/>
  </g>
</svg>
