<svg class="{{ .polygonClass }}" viewBox="0 0 547 601" fill="none" xmlns="http://www.w3.org/2000/svg">
<path d="M164.426 215.007C164.426 215.007 456.284 69.7794 464.892 74.3897C473.5 79.0001 550.455 514.839 545.477 527.67C540.5 540.5 180 610 164.426 599C148.852 588 164.426 215.007 164.426 215.007Z" fill="url(#paint0_linear_1839_159)"/>
<path d="M91 214.618C105.5 205.235 380.432 70.5008 391.466 74.0008C402.5 77.5008 466.602 513.562 472.051 527.281C477.5 541 107 608.5 91 598.611C75.0001 588.723 76.5 224.001 91 214.618Z" fill="url(#paint1_linear_1839_159)"/>
<path d="M337.013 307.675C337.013 307.675 10.4997 258 1.30488 249.259C-7.88994 240.519 206 139.5 223.15 137.029C240.3 134.559 491.375 111.739 508.938 121.369C526.5 131 337.013 307.675 337.013 307.675Z" fill="url(#paint2_linear_1839_159)"/>
<path d="M95.2628 155.3C110.525 148.599 411.07 210.364 416.285 218.182C421.5 226 406.031 568.8 398.016 572.9C390 577 38.5002 455 23.4895 440.032C8.47873 425.064 80.0002 162 95.2628 155.3Z" fill="url(#paint3_linear_1839_159)" fill-opacity="0.85"/>
<defs>
<linearGradient id="paint0_linear_1839_159" x1="84.7743" y1="313.145" x2="363.532" y2="574.713" gradientUnits="userSpaceOnUse">
<stop stop-color="#8AF881"/>
<stop offset="1" stop-color="#DBFFD8"/>
</linearGradient>
<linearGradient id="paint1_linear_1839_159" x1="11.3482" y1="312.755" x2="290.106" y2="574.324" gradientUnits="userSpaceOnUse">
<stop stop-color="#E5FBE3"/>
<stop offset="1" stop-color="#DBFFD8" stop-opacity="0.32"/>
</linearGradient>
<linearGradient id="paint2_linear_1839_159" x1="200.602" y1="167.895" x2="294.697" y2="301.118" gradientUnits="userSpaceOnUse">
<stop stop-color="#007405"/>
<stop offset="1" stop-color="#47BF4C"/>
</linearGradient>
<linearGradient id="paint3_linear_1839_159" x1="134.996" y1="313.614" x2="293.71" y2="387.306" gradientUnits="userSpaceOnUse">
<stop offset="0.360696" stop-color="#0FB700"/>
<stop offset="1" stop-color="#68E15E"/>
</linearGradient>
</defs>
</svg>
