<svg width="406" height="573" viewBox="0 0 406 573" fill="none" xmlns="http://www.w3.org/2000/svg">
<path d="M203 399L203 352" stroke="url(#paint0_linear_10044:28222)" stroke-width="3" stroke-linejoin="round"/>
<path d="M125 408L203 353" stroke="url(#paint1_linear_10044:28222)" stroke-width="3" stroke-linejoin="round"/>
<path d="M284 408L203 353" stroke="url(#paint2_linear_10044:28222)" stroke-width="3" stroke-linejoin="round"/>
<g filter="url(#filter0_d_10044:28222)">
<circle cx="99.5" cy="458.5" r="59.5" fill="white"/>
</g>
<path d="M100.716 429.169C100.265 428.944 99.7349 428.944 99.2845 429.169L80.0845 438.769L81.5155 441.631L100 432.389L118.484 441.631L119.916 438.769L100.716 429.169Z" fill="black"/>
<path fill-rule="evenodd" clip-rule="evenodd" d="M120.8 448.2H124V445H76V448.2H79.2V473.8H76V477H124V473.8H120.8V448.2ZM92 467.4V454.6H95.2V467.4H92ZM104.8 467.4V454.6H108V467.4H104.8Z" fill="black"/>
<path d="M99.7802 495.969L99.5055 496.931C92.1033 494.816 87 488.05 87 480.352V479.2C87 478.554 87.3461 477.958 87.907 477.637L99.1069 471.237C99.6603 470.921 100.34 470.921 100.893 471.237M99.7802 495.969L100.893 471.237M99.7802 495.969L99.5055 496.931C99.8287 497.023 100.171 497.023 100.494 496.931L100.22 495.969L100.494 496.931C107.897 494.816 113 488.05 113 480.352V479.2C113 478.554 112.654 477.958 112.093 477.637L100.893 471.237M99.7802 495.969L100.893 471.237" fill="#FFC6F3" stroke="white" stroke-width="2" stroke-linecap="round" stroke-linejoin="round"/>
<g filter="url(#filter1_d_10044:28222)">
<circle cx="306.5" cy="458.5" r="59.5" fill="white"/>
</g>
<path d="M307.716 429.169C307.265 428.944 306.735 428.944 306.284 429.169L287.084 438.769L288.516 441.631L307 432.389L325.484 441.631L326.916 438.769L307.716 429.169Z" fill="black"/>
<path fill-rule="evenodd" clip-rule="evenodd" d="M327.8 448.2H331V445H283V448.2H286.2V473.8H283V477H331V473.8H327.8V448.2ZM299 467.4V454.6H302.2V467.4H299ZM311.8 467.4V454.6H315V467.4H311.8Z" fill="black"/>
<path d="M306.78 495.969L306.506 496.931C299.103 494.816 294 488.05 294 480.352V479.2C294 478.554 294.346 477.958 294.907 477.637L306.107 471.237C306.66 470.921 307.34 470.921 307.893 471.237M306.78 495.969L307.893 471.237M306.78 495.969L306.506 496.931C306.829 497.023 307.171 497.023 307.494 496.931L307.22 495.969L307.494 496.931C314.897 494.816 320 488.05 320 480.352V479.2C320 478.554 319.654 477.958 319.093 477.637L307.893 471.237M306.78 495.969L307.893 471.237" fill="#FFC6F3" stroke="white" stroke-width="2" stroke-linecap="round" stroke-linejoin="round"/>
<g filter="url(#filter2_d_10044:28222)">
<circle cx="202.5" cy="458.5" r="59.5" fill="white"/>
</g>
<path d="M203.716 429.169C203.265 428.944 202.735 428.944 202.284 429.169L183.084 438.769L184.516 441.631L203 432.389L221.484 441.631L222.916 438.769L203.716 429.169Z" fill="black"/>
<path fill-rule="evenodd" clip-rule="evenodd" d="M223.8 448.2H227V445H179V448.2H182.2V473.8H179V477H227V473.8H223.8V448.2ZM195 467.4V454.6H198.2V467.4H195ZM207.8 467.4V454.6H211V467.4H207.8Z" fill="black"/>
<path d="M202.78 495.969L202.506 496.931C195.103 494.816 190 488.05 190 480.352V479.2C190 478.554 190.346 477.958 190.907 477.637L202.107 471.237C202.66 470.921 203.34 470.921 203.893 471.237M202.78 495.969L203.893 471.237M202.78 495.969L202.506 496.931C202.829 497.023 203.171 497.023 203.494 496.931L203.22 495.969L203.494 496.931C210.897 494.816 216 488.05 216 480.352V479.2C216 478.554 215.654 477.958 215.093 477.637L203.893 471.237M202.78 495.969L203.893 471.237" fill="#FFC6F3" stroke="white" stroke-width="2" stroke-linecap="round" stroke-linejoin="round"/>
<g filter="url(#filter3_d_10044:28222)">
<circle cx="202.5" cy="300.5" r="59.5" fill="white"/>
</g>
<path fill-rule="evenodd" clip-rule="evenodd" d="M210.98 299.543L205.695 300.238L202.999 300.592L200.305 300.238L195.02 299.543L187.285 298.524V293.931V289.146V283.476L195.02 279.836V290.164V294.948L200.305 295.644V290.859V277.348V272L195.02 274.488L182 280.616V288.451V293.235V297.83V302.558V302.614L187.285 303.31L195.02 304.327L200.305 305.023L202.999 305.378L205.695 305.023L210.98 304.327L218.715 303.31V307.86V318.234L210.98 321.874V308.877L205.695 309.573V324.362V329.709L210.98 327.221L224 321.095V307.164V302.614V302.558V297.964V297.83L218.715 298.524L210.98 299.543ZM210.98 274.488L205.695 272V295.644L210.98 294.948L218.715 293.93L224 293.241V280.611L210.98 274.488ZM210.98 290.164V279.836L218.715 283.481V289.152L210.98 290.164ZM182 307.165L187.285 307.861L195.02 308.878L200.305 309.574V329.713L195.02 327.227L182 321.095V307.165ZM187.285 318.234L195.02 321.875V313.662L187.285 312.645V318.234Z" fill="black"/>
<g filter="url(#filter4_d_10044:28222)">
<circle cx="202.5" cy="84.5" r="59.5" fill="white"/>
</g>
<path d="M203 58C197.729 58 193.455 62.3226 193.455 67.6576C193.455 72.9926 197.729 77.3152 203 77.3152C208.271 77.3152 212.545 72.9926 212.545 67.6576C212.545 62.3226 208.271 58 203 58Z" fill="black"/>
<path d="M197.545 80.4438C192.274 80.4438 188 84.7684 188 90.1054V97H218V90.1054C218 84.7684 213.726 80.4438 208.455 80.4438H197.545Z" fill="black"/>
<path d="M191.646 113.357H194.124V109.248L197.756 103.168H194.946L192.885 106.926L190.796 103.168H188L191.646 109.248V113.357Z" fill="black"/>
<path d="M197.399 108.27C197.399 111.371 199.604 113.541 202.543 113.541C205.483 113.541 207.673 111.371 207.673 108.27C207.673 105.169 205.483 103 202.543 103C199.604 103 197.399 105.169 197.399 108.27ZM205.152 108.27C205.152 109.92 204.128 111.219 202.543 111.219C200.944 111.219 199.921 109.92 199.921 108.27C199.921 106.605 200.944 105.322 202.543 105.322C204.128 105.322 205.152 106.605 205.152 108.27Z" fill="black"/>
<path d="M208.922 109.233C208.922 111.738 210.377 113.541 213.475 113.541C216.545 113.541 218 111.753 218 109.217V103.168H215.493V109.141C215.493 110.348 214.801 111.219 213.475 111.219C212.121 111.219 211.443 110.348 211.443 109.141V103.168H208.922V109.233Z" fill="black"/>
<path d="M133.768 295.061C134.479 294.637 134.713 293.717 134.289 293.005L127.379 281.407C126.955 280.695 126.035 280.462 125.323 280.886C124.611 281.31 124.378 282.231 124.802 282.942L130.944 293.252L120.634 299.393C119.923 299.817 119.689 300.738 120.113 301.45C120.537 302.161 121.458 302.395 122.17 301.971L133.768 295.061ZM54.5 190.5C54.5 132.503 101.293 85.5 159 85.5V82.5C99.6227 82.5 51.5 130.86 51.5 190.5H54.5ZM133.368 292.319C88.0502 280.837 54.5 239.607 54.5 190.5H51.5C51.5 241.004 86.0058 283.414 132.632 295.227L133.368 292.319Z" fill="url(#paint3_linear_10044:28222)"/>
<path d="M274.232 82.711C273.521 83.135 273.287 84.0557 273.711 84.7674L280.621 96.3654C281.045 97.0771 281.965 97.3103 282.677 96.8863C283.389 96.4624 283.622 95.5417 283.198 94.83L277.056 84.5207L287.366 78.3792C288.077 77.9552 288.311 77.0345 287.887 76.3228C287.463 75.6111 286.542 75.3779 285.83 75.8018L274.232 82.711ZM353.5 187.272C353.5 245.269 306.707 292.272 249 292.272V295.272C308.377 295.272 356.5 246.913 356.5 187.272H353.5ZM274.632 85.4538C319.95 96.9351 353.5 138.166 353.5 187.272H356.5C356.5 136.768 321.994 94.3583 275.368 82.5456L274.632 85.4538Z" fill="url(#paint4_linear_10044:28222)"/>
<g filter="url(#filter5_d_10044:28222)">
<circle cx="53" cy="191" r="30" fill="white"/>
</g>
<path d="M62 196.023C62 191.211 58.2364 189.796 54.8327 188.841V183.889C56.3055 184.278 57.7455 185.021 58.8909 186.188L61.4764 182.509C59.7091 180.776 57.4836 179.644 54.8327 179.361V176H51.7236V179.29C47.3382 179.75 44.6873 182.792 44.6873 186.4C44.6873 191.176 48.3527 192.591 51.7236 193.475V199.029C49.5309 198.605 47.7636 197.402 46.52 196.023L44 199.843C45.8 201.789 48.2873 203.239 51.7236 203.522V206.706H54.8327V203.487C59.6436 202.956 62 199.914 62 196.023ZM49.4655 185.976C49.4655 184.702 50.3491 183.783 52.0182 183.606V188.098C50.5127 187.674 49.4655 187.073 49.4655 185.976ZM54.5382 199.136V194.183C56.1091 194.678 57.2545 195.28 57.2545 196.589C57.2545 197.756 56.4036 198.853 54.5382 199.136Z" fill="#BC0000"/>
<rect x="32" y="190" width="10" height="3" fill="#BC0000"/>
<g filter="url(#filter6_d_10044:28222)">
<circle cx="350" cy="191" r="30" fill="white"/>
</g>
<path d="M359 196.023C359 191.211 355.236 189.796 351.833 188.841V183.889C353.305 184.278 354.745 185.021 355.891 186.188L358.476 182.509C356.709 180.776 354.484 179.644 351.833 179.361V176H348.724V179.29C344.338 179.75 341.687 182.792 341.687 186.4C341.687 191.176 345.353 192.591 348.724 193.475V199.029C346.531 198.605 344.764 197.402 343.52 196.023L341 199.843C342.8 201.789 345.287 203.239 348.724 203.522V206.706H351.833V203.487C356.644 202.956 359 199.914 359 196.023ZM346.465 185.976C346.465 184.702 347.349 183.783 349.018 183.606V188.098C347.513 187.674 346.465 187.073 346.465 185.976ZM351.538 199.136V194.183C353.109 194.678 354.255 195.28 354.255 196.589C354.255 197.756 353.404 198.853 351.538 199.136Z" fill="#00723C"/>
<rect x="329" y="190" width="10" height="3" fill="#00723C"/>
<rect x="332.5" y="196.5" width="10" height="3" transform="rotate(-90 332.5 196.5)" fill="#00723C"/>
<defs>
<filter id="filter0_d_10044:28222" x="0" y="374" width="199" height="199" filterUnits="userSpaceOnUse" color-interpolation-filters="sRGB">
<feFlood flood-opacity="0" result="BackgroundImageFix"/>
<feColorMatrix in="SourceAlpha" type="matrix" values="0 0 0 0 0 0 0 0 0 0 0 0 0 0 0 0 0 0 127 0" result="hardAlpha"/>
<feOffset dy="15"/>
<feGaussianBlur stdDeviation="20"/>
<feColorMatrix type="matrix" values="0 0 0 0 0 0 0 0 0 0 0 0 0 0 0 0 0 0 0.1 0"/>
<feBlend mode="normal" in2="BackgroundImageFix" result="effect1_dropShadow_10044:28222"/>
<feBlend mode="normal" in="SourceGraphic" in2="effect1_dropShadow_10044:28222" result="shape"/>
</filter>
<filter id="filter1_d_10044:28222" x="207" y="374" width="199" height="199" filterUnits="userSpaceOnUse" color-interpolation-filters="sRGB">
<feFlood flood-opacity="0" result="BackgroundImageFix"/>
<feColorMatrix in="SourceAlpha" type="matrix" values="0 0 0 0 0 0 0 0 0 0 0 0 0 0 0 0 0 0 127 0" result="hardAlpha"/>
<feOffset dy="15"/>
<feGaussianBlur stdDeviation="20"/>
<feColorMatrix type="matrix" values="0 0 0 0 0 0 0 0 0 0 0 0 0 0 0 0 0 0 0.1 0"/>
<feBlend mode="normal" in2="BackgroundImageFix" result="effect1_dropShadow_10044:28222"/>
<feBlend mode="normal" in="SourceGraphic" in2="effect1_dropShadow_10044:28222" result="shape"/>
</filter>
<filter id="filter2_d_10044:28222" x="103" y="374" width="199" height="199" filterUnits="userSpaceOnUse" color-interpolation-filters="sRGB">
<feFlood flood-opacity="0" result="BackgroundImageFix"/>
<feColorMatrix in="SourceAlpha" type="matrix" values="0 0 0 0 0 0 0 0 0 0 0 0 0 0 0 0 0 0 127 0" result="hardAlpha"/>
<feOffset dy="15"/>
<feGaussianBlur stdDeviation="20"/>
<feColorMatrix type="matrix" values="0 0 0 0 0 0 0 0 0 0 0 0 0 0 0 0 0 0 0.1 0"/>
<feBlend mode="normal" in2="BackgroundImageFix" result="effect1_dropShadow_10044:28222"/>
<feBlend mode="normal" in="SourceGraphic" in2="effect1_dropShadow_10044:28222" result="shape"/>
</filter>
<filter id="filter3_d_10044:28222" x="103" y="216" width="199" height="199" filterUnits="userSpaceOnUse" color-interpolation-filters="sRGB">
<feFlood flood-opacity="0" result="BackgroundImageFix"/>
<feColorMatrix in="SourceAlpha" type="matrix" values="0 0 0 0 0 0 0 0 0 0 0 0 0 0 0 0 0 0 127 0" result="hardAlpha"/>
<feOffset dy="15"/>
<feGaussianBlur stdDeviation="20"/>
<feColorMatrix type="matrix" values="0 0 0 0 0 0 0 0 0 0 0 0 0 0 0 0 0 0 0.1 0"/>
<feBlend mode="normal" in2="BackgroundImageFix" result="effect1_dropShadow_10044:28222"/>
<feBlend mode="normal" in="SourceGraphic" in2="effect1_dropShadow_10044:28222" result="shape"/>
</filter>
<filter id="filter4_d_10044:28222" x="103" y="0" width="199" height="199" filterUnits="userSpaceOnUse" color-interpolation-filters="sRGB">
<feFlood flood-opacity="0" result="BackgroundImageFix"/>
<feColorMatrix in="SourceAlpha" type="matrix" values="0 0 0 0 0 0 0 0 0 0 0 0 0 0 0 0 0 0 127 0" result="hardAlpha"/>
<feOffset dy="15"/>
<feGaussianBlur stdDeviation="20"/>
<feColorMatrix type="matrix" values="0 0 0 0 0 0 0 0 0 0 0 0 0 0 0 0 0 0 0.1 0"/>
<feBlend mode="normal" in2="BackgroundImageFix" result="effect1_dropShadow_10044:28222"/>
<feBlend mode="normal" in="SourceGraphic" in2="effect1_dropShadow_10044:28222" result="shape"/>
</filter>
<filter id="filter5_d_10044:28222" x="3" y="151" width="100" height="100" filterUnits="userSpaceOnUse" color-interpolation-filters="sRGB">
<feFlood flood-opacity="0" result="BackgroundImageFix"/>
<feColorMatrix in="SourceAlpha" type="matrix" values="0 0 0 0 0 0 0 0 0 0 0 0 0 0 0 0 0 0 127 0" result="hardAlpha"/>
<feOffset dy="10"/>
<feGaussianBlur stdDeviation="10"/>
<feColorMatrix type="matrix" values="0 0 0 0 0 0 0 0 0 0 0 0 0 0 0 0 0 0 0.1 0"/>
<feBlend mode="normal" in2="BackgroundImageFix" result="effect1_dropShadow_10044:28222"/>
<feBlend mode="normal" in="SourceGraphic" in2="effect1_dropShadow_10044:28222" result="shape"/>
</filter>
<filter id="filter6_d_10044:28222" x="300" y="151" width="100" height="100" filterUnits="userSpaceOnUse" color-interpolation-filters="sRGB">
<feFlood flood-opacity="0" result="BackgroundImageFix"/>
<feColorMatrix in="SourceAlpha" type="matrix" values="0 0 0 0 0 0 0 0 0 0 0 0 0 0 0 0 0 0 127 0" result="hardAlpha"/>
<feOffset dy="10"/>
<feGaussianBlur stdDeviation="10"/>
<feColorMatrix type="matrix" values="0 0 0 0 0 0 0 0 0 0 0 0 0 0 0 0 0 0 0.1 0"/>
<feBlend mode="normal" in2="BackgroundImageFix" result="effect1_dropShadow_10044:28222"/>
<feBlend mode="normal" in="SourceGraphic" in2="effect1_dropShadow_10044:28222" result="shape"/>
</filter>
<linearGradient id="paint0_linear_10044:28222" x1="204" y1="399" x2="204" y2="350.825" gradientUnits="userSpaceOnUse">
<stop stop-opacity="0"/>
<stop offset="1"/>
</linearGradient>
<linearGradient id="paint1_linear_10044:28222" x1="125.576" y1="408.817" x2="205.526" y2="352.442" gradientUnits="userSpaceOnUse">
<stop stop-opacity="0"/>
<stop offset="1"/>
</linearGradient>
<linearGradient id="paint2_linear_10044:28222" x1="284.562" y1="407.173" x2="201.537" y2="350.798" gradientUnits="userSpaceOnUse">
<stop stop-opacity="0"/>
<stop offset="1"/>
</linearGradient>
<linearGradient id="paint3_linear_10044:28222" x1="106" y1="84" x2="106" y2="297" gradientUnits="userSpaceOnUse">
<stop stop-opacity="0"/>
<stop offset="1"/>
</linearGradient>
<linearGradient id="paint4_linear_10044:28222" x1="302" y1="293.772" x2="302" y2="80.7725" gradientUnits="userSpaceOnUse">
<stop stop-opacity="0"/>
<stop offset="1"/>
</linearGradient>
</defs>
</svg>
