<svg xmlns="http://www.w3.org/2000/svg" viewBox="0 0 961 1502" id="spookyB" class="[ svg-el spooky ]" aria-hidden="true">
  <defs>
    <style>
      .a {
        fill: url(#a);
      }

      .b {
        fill: url(#b);
      }

      .c {
        opacity: 0.68;
        fill: url(#c);
      }

      .d {
        fill: #2f7380;
      }

      .e {
        opacity: 0.63;
        fill: url(#d);
      }
    </style>
    <linearGradient id="a" x1="360.298" y1="614.097" x2="360.298" gradientUnits="userSpaceOnUse">
      <stop offset="0" stop-color="#fff"/>
      <stop offset="0.108" stop-color="#dee3e4"/>
      <stop offset="0.352" stop-color="#98a7aa"/>
      <stop offset="0.572" stop-color="#61787c"/>
      <stop offset="0.76" stop-color="#39565c"/>
      <stop offset="0.909" stop-color="#214147"/>
      <stop offset="1" stop-color="#183940"/>
    </linearGradient>
    <linearGradient id="b" x1="882.569" y1="727.004" x2="882.569" y2="0" xlink:href="#a"/>
    <linearGradient id="c" x1="480" y1="1502" x2="480" gradientUnits="userSpaceOnUse">
      <stop offset="0.692" stop-color="#966bd1"/>
      <stop offset="0.78" stop-color="#9792c2"/>
      <stop offset="0.977" stop-color="#99f39d"/>
      <stop offset="1" stop-color="#9f9"/>
    </linearGradient>
    <linearGradient id="d" x1="481" y1="971.246" x2="481" gradientUnits="userSpaceOnUse">
      <stop offset="0" stop-color="#183940"/>
      <stop offset="1" stop-color="#fff"/>
    </linearGradient>
  </defs>
  <g>
    <g>
      <path class="a" d="M0,0V116.843c26.745-6.615,64,28.235,78.8,71.749,26.775,78.727,58.005,188.268,80.279,248.93s112.543,78.068,91.79-5.23,128.314-4.028,96.5-164.364c-31.58-159.154,97.967-44.2,120.286,52.143,21.427,92.494,69.283,142.665,101.389,238.093s138.393,52.48,132.169-8.432c-4.456-43.608,32.778-317.166,14.118-416.85C706.649,86.526,703.942,32.246,715.885,0Z"/>
      <path class="b" d="M810.524,4.661c105.76,93.957,34.758,560.934,56.954,666.021,10.26,48.579,50.6,62.289,92.522,54.107V0H805.139Q807.789,2.237,810.524,4.661Z"/>
    </g>
    <rect class="c" width="960" height="1502"/>
    <path class="d" d="M960,719.533S820.562,672,819.218,520.509c-1.341-151.061-118.189-207.946-123.007-280.1s-62.635-100.543-62.635-2.366S621.144,422.43,615.705,488.671c-15.405,187.62-79.7,109.027-96.558,1.387S476.513,249.584,466.565,136.7c-8.593-97.517-68.423-88.054-69.511-8.8-1.109,80.748-5.386,265.674-27.264,374.277-22.776,113.062-59.833,118.976-115.24.69s-57.865-121.259-61.478-245.011c-2.175-74.52-57.4-61.675-56.313,25.857,1.425,114.614,21.033,253.661-53.647,260.758S0,231.011,0,231.011V1501.723H960Z"/>
    <path class="e" d="M955.61,202.475s-11.977,40.372-44.317,193.3S847.7,495.367,833.331,287.387s-73.063-138.246-77.855-41.6-7.425,230.557-12.216,305.185-62.283,103.99-62.283,2.447-86.519,7.346-91.96-187.339c-5.4-193.249-72.912-43.549-71.785,73.733,1.082,112.6-22.573,177.112-28.147,294.231S405.242,809.9,399.253,736.5c-4.287-52.553-74.8-376.042-78.928-496.975-3.921-114.751-29.967-266.6-85.063-144.256s70.244,673.848,72.911,801.574c2.814,134.8-129.552,67.222-144.473-50.353-14.852-117.038-5.794-455.6-80.055-462.945S1,707.744,1,707.744V0H961Z"/>
  </g>
</svg>
