<svg xmlns="http://www.w3.org/2000/svg"  viewBox="0 0 640 474" aria-hidden="true">
 
  <path filter="url(#gaus)" d="M0,8l4,7L2,16H1V14ZM235,138l9,2c3.429,7.663,7.424,11.823,6,20l-4,1q-1-3-2-6c-30.03.4-63.088,8.669-82-4l-3-12c2.064-5.279,2.9-7.548,9-9-3,4.159-7.189,8.051-2,12,9.6,6.325,51.86-2.385,53-5l-2,1q0.5-5,1-10l-17-2v-1q0.5-2,1-4l9-3c-3.8-7.911-7.427-14.75-8-26h1l8,8,9,6c1.551-20.333,7.109-53.294,0-71l5-4-1,2c6.494,5.959,2.55,73.373-3,80L205,96c2.686,7.922,6.335,22.058,14,25,0.312-4.238-.062-3.964,2-6C234.057,107.548,236.121,124.666,235,138Zm4-100,1,3h-3Zm4,3,8,1ZM407,186c9.888-.18,18.553-3.7,23-2q0.5,3.5,1,7l-4,3c-6.122-1.626-11.3-1.5-19-1,2.794,65.088-48.5,232.014,17,259,22.862-15.767.929-76.809-3-95h1c4.585,13.57,30.25,82.363,4,96-26.491,6.881-38.159-34.851-43-55-16.854-70.157,10.613-133.55,11-205h-7c0.818,94.478-57.2,192.471-14,281h-3c-4.973-16.12-10.638-36.957-14-54q-0.5-18-1-36h-1c-5.173,14.76-28.784,28.836-48,16-22.947-15.329-37.072-67.645-68-75-10.787-2.565-24.8,2.469-37,0-0.022-3.789.563-3.61,3-7,14.343-4.613,30.113-5.841,45,0l6-3c-2.758-7.353-.466-21.1,3-32-10.106-10.041-31.413-20.394-50-18-2.812,16.45-4.432,35.328,0,50l-4,2c-10.757-5.873-24.315-12.539-35-20,6.943-1.229,10.175.978,16,3q-3-15.5-6-31c-14.572,6.682-26.713,15.187-35,28-19.352,29.922-7.111,87.512,20,99,20.541,8.7,52.169-2.574,67-13,3.281-2.306,14.281-18.84,16-15,4.25,4.478,5.378,17.2,4,24l-2,1-12-6q0.5-3,1-6c-42.734,18.089-86.092,42.146-103-20-3.161-11.617-7.24-33.2-3-48,3.875-13.522,17.029-28.87,27-37,6-4.893,16-5.058,19-13-6.656-18.845-10.836-38.432-33-42-3.07,6.132-6.608,8.51-11,13,8.527,27.811-14.731,62.224-31,76l-3-2c-4.216-2-5.218-3.482-6-9l12-17c-8.56-11.744-13.886-29-26-37-6.934-4.576-16.9-7.322-23-13l11-4-4-49c5.913-16.123,28.618-35.288,23-56,6.477,1.168,7.486,3.252,11,7-0.367,42.317-26.974,41.327-18,91,1.177,6.514-.526,10.369,3,14l21,19,11,17v-2c6.013-7.578,10.449-39.734,8-43l-4-4c-1.346,3.4-.607,2.069-3,4L97,215l3-5,22,1V195l12,1c1.219,6.785,1.879,10.217,1,16h10a53.462,53.462,0,0,0-1-20c-5.648,1.393-61,12-61,12v-1c12.366-3.93,24.515-10.1,40-12-16.417-35.274,3.683-71.639-36-91-7.532-3.675-16.757-7.053-25-5l1-3V81c9.233,0.127,6.455,1.755,8,7l-1,2c55.166,17.622,51.547,30.427,62,91l15,1v8c26.083-.3,38.219,12.95,57,18,0.024-6.391-.534-6.957,3-9,4.343-1.178,10.869,1.865,15,4q-1.5-12-3-24H199c-29.962,9.679-61.72-7.044-66-29-3.2-16.423,20.957-39.408,28-23l-8-4c-6.287,4.035-8.46,5.021-12,12-3.446,6.794-2.137,13.569,1,21,12.015,28.459,63.905,4.715,91,18q2.5,15.5,5,31l11,1,5-5c0.018-8.571-2.116-10.88-5-16,11.507,6.632,5.238,22.353,14,27h1c0.609-49.09.122-106.394-14-146,5.421-3.56,13.954-4.619,23-5l-1-3c-7.122-8.944-9.712-10.609-21-16,14.065,0.3,22.628,8.067,26,19,37.007,0.022,60.063,16.765,76,38-7.974,2.87-12.553,27.873-14,37l-2-1q-2.5-20-5-40c6.681-.7,6.487-0.248,6-4-19.587-7.964-33.487-22.322-58-25v3c15.6,46.621,15.326,102.342,15,161l21,21,2-1c-5.54-11.213-4.282-32.242-2-43-8.708.76-14.2,6.2-19,7v-1c5.119-6.887,16.692-8.788,21-15,7.73-11.147,7.353-24.225,17-33C360.854,141.482,404.44,138.369,407,186ZM265,65c2.886,16.943,8.424,37.041,12,56q2.5,31.5,5,63c1.963,12.969-2.594,30.118,2,40l6,2c0.765-55.145-3.706-113.551-15-160ZM47,100c20.337-.673,39.959,4.1,49,15v1l-2,1c-10.855-6.477-22.957,6.215-30,13,3.084-8.237,13.945-14.864,22-18l-1-2-26-8-24,1Zm338,5c6.611,1.093,9.672,3.729,12,9l1,4h-3c-0.555-4.975.19-3.872-3-6-7.661-3.155-10.9,2.628-15,6v1q0.5,4,1,8l2,1c27.543,4.595,54.488-10.754,84-3,9.967,2.619,13.029,10.358,18,18,20.481,31.486,7.927,53.387-10,77,0.257,18.992,16.222,101.042,25,110h6c20.182-10.711.53-85.172-3-107h1v2c11.523,15.931,25.707,106.139-4,109-24.2-16.272-32.28-70.773-36-103h-1c-5.132,1.931-9.25,3-15,2-4.9-3.583-6.248-7.929-8-12l2-1,1,4c8.763,1.32,13.643-1.388,18-7q-6-25-12-50c-7.883-3.7-17.165-5.568-28-7l4,7-6-2,9,13-17-10,1-2,5-2v-1l-12-4,3-6-7-4,9-2c42.3,24.729,47.214-4.412,61,58l3-2c8.128-19.471,14.442-42.3,1-62-36.579-10.235-75.452,11.5-100-14-0.181-9.757,2.26-13.62,6-19Zm11,15h3v1l-3,1v-2ZM63,130v6H62Zm-2,6v0Zm310,16-15,6v1c22.42-3.882,26.161,8.939,32,27h7c-4.112-16.824-6.28-23.923-16-34h-8Zm-11,8c-16.575,7.787-26.542,16.653-30,37l13,1h7v-7c-1.656-5.129-2.417-7.4,1-10,10.722-4.67,21.531,3.257,35,4-3.444-10-6.014-20.39-16-24Zm54,14,10,8-12-5Zm-63,10q0.5,7,1,14l13,4q1,23,2,46l-12-4v23c-5.086-2.752-14.3-6.784-17-12h3l12,8c0.317-22.98-2.627-35.623-5-58H328c-0.36,27.819,3.6,48.336,7,71h-5l-4-2c-12.663-10.609-18.456-27.753-32-38q-4.5,44-9,88l-2-2-3-3c1.192-.761,1.229.4,1-1l-6-15h-2c0.066,5.119-.4,9.535-3,12-6.2,2.653-9.155.591-15,4l1,2c23.161,5.638,44.138,34.117,56,52,5.026,7.577,10.36,26.868,21,25,22.455-7.291,20.678-33.08,27-58,10.782-42.5,26.575-97.544,26-147h-2Zm150,0h16l3,2-2,3-13-1c5.837,8.2,12.54,16.535,16,27,12.624,1.65,15.671,1.178,24-4,1.346,8.524,6.692,5.894,12,9q-0.5,2-1,4H525c13.718,33.935,17.978,76.9,11,120h-1c4.225-50.9,1.507-76.727-12-120l-26-3-7-10,1-2,28,6Zm23,0h3c0.561,4.552,1.259,5.017-1,8l-2-1v-7Zm5,0,4,2q-0.5,4-1,8h-1l-2-5v-5Zm-394,3-5,2v1c5.858,0.043,7.358.134,10-2h-2Zm13,6c1.247,5.24.893,18.4,3,21,21.872,12.925,34.724,21.5,42,49h1l6-2c1.482-22.954,17.75-29.086,29-42q-4-6-8-12c-4.663-.358-8.078-0.306-10-2h4l-8-3c0.34,7.064,2.144,7.539,0,12h-1C187.105,207.141,173.735,194.2,148,193Zm89,15q0.5,2.5,1,5l5-3q-0.5-1-1-2h-5Zm17,5c-13.958,17.907-34.335,24.989-44,48h2l20,2,28,12q2-29.5,4-59Zm-136,5v0Zm15,2c-2.227,5.859-4.824,5.524-1,10l2-2,7-7v-1h-8Zm149,7c-3.334,19.737-11.759,64.193,0,78,2-20.261,13.121-57.9,5-76ZM39,244c29.019,6.861,33.5,6.959,52,23l-1,3-5,1c-8.746-14.646-28.269-29.344-54-23-7.219,1.78-21.56,11.472-27,8Zm157,21c-1.12,2.907-.688,9.343,2,14q0.5-7,1-14h-3ZM78,276c7.4-.28,11.058.546,15,3l3,5-1,3-2,1c-6.565-2.582-13.752-2.057-22,1l-6-5v-1l3-4Zm331,26c25.929,20.589,32.086,5.383,64,11,1.548,5.026.657,5.547-3,8l-4-2v1c9.039,27.349,18.361,53.462,54,42q-0.5,1-1,2c-35.845,10.314-47.982-15.93-55-46C441.547,320.755,414.753,324.4,409,302ZM90,306l14,7v5H97Zm118,14-2,3v1h3c6.6,2.073,18.267,2.558,24-1C226.611,321.422,213.839,321.47,208,320Zm73,4h3c-0.425,2.6.976,0.546-1,3Zm124,19,6,2v2l-2,2-2-1Q406,345.5,405,343Zm129,1c1.177,2.821.748,1-1,3Q533.5,345.5,534,344Zm-4,8q0.5,1,1,2Q530.5,353,530,352Zm-2,3q0.5,1,1,2Q528.5,356,528,355Zm-2,2h2c-2.655,3.839-4.69,6.116-8,4Zm-31,62,6,1c2.77,16.856,1.215,28.2-6,39l-5,1-4-5c-0.713-12.989,4.654-28.971,13-29l-1-5c-2.366.278-1.247-.222-4,1l-2,3Zm45,7c19.235-.53,6.827,9.351,10,21l12-1q0.5,1,1,2l-2,3c-6.148-1.682-5.1-.791-10,1-0.912-3.651.038-2.045-2-4,0.28,8.455,3.481,20.415,1,24l-5-4c-1.479-13.979-.655-24.585,1-40l-6,2c2.037,6.634,2.322,23.947-1,29q-0.5,1-1,2l-2-1q-1-5-2-10h-1l-3,9h-3l-3-7-4,4-2-1q0.5-9.5,1-19h4v5q-1,4-2,8l2-1a18.5,18.5,0,0,1,7-12c0.155,1.945-.653,3.506,1,2q0.5-1.5,1-3c-1,.041-0.221-0.025,0-1v-2l3,2,3,13C537.6,437.855,536.31,430.742,540,426Zm-43,2c-2.981,8.422-8.44,16.061-7,27l5-4C496.974,446.192,502.5,433.637,497,428Zm12,6c5.306,4.126,6.041,20.605,4,26h-4l-9-6C504.215,447.68,506.337,442.674,509,434Zm-36,3,7,1,1,3Zm-1,3,10,4-1,2-12-1-1-2Zm56,0q-0.5,2-1,4h1q0.5-1.5,1-3Zm24,2,5,1v1h-6Q551.5,443,552,442Zm-43,5c-1.645,5.789-5.108,6.431,2,9q-0.5-4.5-1-9h-1Zm-30,2h3v3l-3,1-3-3Z"/>
</svg>
