<svg xmlns="http://www.w3.org/2000/svg" xmlns:xlink="http://www.w3.org/1999/xlink" viewBox="0 0 960 2815">
  <defs>
    <style>
      .a {
        fill: url(#a);
      }

      .b {
        fill: url(#b);
      }

      .c {
        opacity: 0.68;
        fill: url(#c);
      }

      .d {
        fill: #2f7380;
      }

      .e {
        opacity: 0.63;
        fill: url(#d);
      }

      .f {
        fill: url(#e);
      }

      .g {
        fill: url(#f);
      }

      .h {
        fill: #3b071f;
        opacity: 0.5;
      }

      .i {
        fill: #faff2e;
      }

      .j, .k, .l, .m {
        fill: none;
      }

      .j, .l {
        stroke: #6b1a47;
      }

      .j, .k, .l, .m, .o, .q, .r {
        stroke-miterlimit: 10;
      }

      .j {
        stroke-width: 65px;
      }

      .k {
        stroke: #efadd1;
      }

      .k, .l, .m {
        stroke-width: 27.218px;
      }

      .m {
        stroke: #d6338d;
      }

      .n {
        fill: #d6338d;
      }

      .o, .r {
        fill: #d7f9ff;
        stroke: #38dfff;
      }

      .o {
        stroke-width: 14.258px;
      }

      .o, .q, .r {
        opacity: 0.9;
      }

      .p, .q {
        fill: #38dfff;
      }

      .q {
        stroke: #d7f9ff;
        stroke-width: 17.982px;
      }

      .r {
        stroke-width: 14.988px;
      }
    </style>
    <linearGradient id="a" x1="360.298" y1="614.097" x2="360.298" gradientUnits="userSpaceOnUse">
      <stop offset="0" stop-color="#fff"/>
      <stop offset="0.108" stop-color="#dee3e4"/>
      <stop offset="0.352" stop-color="#98a7aa"/>
      <stop offset="0.572" stop-color="#61787c"/>
      <stop offset="0.76" stop-color="#39565c"/>
      <stop offset="0.909" stop-color="#214147"/>
      <stop offset="1" stop-color="#183940"/>
    </linearGradient>
    <linearGradient id="b" x1="882.569" y1="727.004" x2="882.569" y2="0" xlink:href="#a"/>
    <linearGradient id="c" x1="480" y1="1502" x2="480" gradientUnits="userSpaceOnUse">
      <stop offset="0.692" stop-color="#966bd1"/>
      <stop offset="0.78" stop-color="#9792c2"/>
      <stop offset="0.977" stop-color="#99f39d"/>
      <stop offset="1" stop-color="#9f9"/>
    </linearGradient>
    <linearGradient id="d" x1="481" y1="971.246" x2="481" gradientUnits="userSpaceOnUse">
      <stop offset="0" stop-color="#183940"/>
      <stop offset="1" stop-color="#fff"/>
    </linearGradient>
    <radialGradient id="e" data-name="New Gradient Swatch 1" cx="483.792" cy="836.693" fx="273.86476242541437" fy="305.2946965729176" r="901.483" gradientTransform="matrix(0.961, -0.234, 0.168, 0.706, -115.552, 358.893)" gradientUnits="userSpaceOnUse">
      <stop offset="0" stop-color="#eb1e79"/>
      <stop offset="0.511" stop-color="#c50f6b"/>
      <stop offset="1" stop-color="#9c005d"/>
    </radialGradient>
    <radialGradient id="f" cx="471.244" cy="1712.724" fx="471.2441028669173" fy="1712.7239176623734" r="852.08" gradientTransform="translate(15.43) scale(0.986 1)" xlink:href="#e"/>
  </defs>
  <g>
    <g>
      <path class="a" d="M0,0V116.843c26.745-6.615,64,28.235,78.8,71.749,26.775,78.727,58.005,188.268,80.279,248.93s112.543,78.068,91.79-5.23,128.314-4.028,96.5-164.364c-31.58-159.154,97.967-44.2,120.286,52.143,21.427,92.494,69.283,142.665,101.389,238.093s138.393,52.48,132.169-8.432c-4.456-43.608,32.778-317.166,14.118-416.85C706.649,86.526,703.942,32.246,715.885,0Z"/>
      <path class="b" d="M810.524,4.661c105.76,93.957,34.758,560.934,56.954,666.021,10.26,48.579,50.6,62.289,92.522,54.107V0H805.139Q807.789,2.237,810.524,4.661Z"/>
    </g>
    <rect class="c" width="960" height="1502"/>
    <path class="d" d="M960,719.533S820.562,672,819.218,520.509c-1.341-151.061-118.189-207.946-123.007-280.1s-62.635-100.543-62.635-2.366S621.144,422.43,615.705,488.671c-15.405,187.62-79.7,109.027-96.558,1.387S476.513,249.584,466.565,136.7c-8.593-97.517-68.423-88.054-69.511-8.8-1.109,80.748-5.386,265.674-27.264,374.277-22.776,113.062-59.833,118.976-115.24.69s-57.865-121.259-61.478-245.011c-2.175-74.52-57.4-61.675-56.313,25.857,1.425,114.614,21.033,253.661-53.647,260.758S0,231.011,0,231.011V1501.723H960Z"/>
    <path class="e" d="M955.61,202.475s-11.977,40.372-44.317,193.3S847.7,495.367,833.331,287.387s-73.063-138.246-77.855-41.6-7.425,230.557-12.216,305.185-62.283,103.99-62.283,2.447-86.519,7.346-91.96-187.339c-5.4-193.249-72.912-43.549-71.785,73.733,1.082,112.6-22.573,177.112-28.147,294.231S405.242,809.9,399.253,736.5c-4.287-52.553-74.8-376.042-78.928-496.975-3.921-114.751-29.967-266.6-85.063-144.256s70.244,673.848,72.911,801.574c2.814,134.8-129.552,67.222-144.473-50.353-14.852-117.038-5.794-455.6-80.055-462.945S1,707.744,1,707.744V0H961Z"/>
  </g>
  <g>
    <path class="f" d="M671.752,661.965c-150.828-275.508-321.6-256.844-419.574-201.157-102.843,58.456-101.434,226.7-72.725,317.944,22.51,71.544,67.416,130.811,85.762,153.074C114.771,1090.651,13.342,1292.648,0,1501.611l962.223.448V609.087C863.774,609.087,765.648,627.929,671.752,661.965Z"/>
    <path class="g" d="M0,1502.971V2815H960V610.448c-468.868,0-930.483,429.153-960,892.523"/>
    <ellipse class="h" cx="356.276" cy="639.028" rx="122.615" ry="139.724"/>
    <circle class="i" cx="342.019" cy="673.246" r="57.03"/>
  </g>
  <g>
    <path class="j" d="M1284.254,1842.094c-7.057,413.238-621.742,413.173-628.739-.014C662.572,1428.855,1277.257,1428.92,1284.254,1842.094Z"/>
    <path class="k" d="M1309.254,1816.094c-7.057,413.238-621.742,413.173-628.739-.014C687.572,1402.855,1302.257,1402.92,1309.254,1816.094Z"/>
    <circle class="l" cx="-133.961" cy="2142.485" r="593.356"/>
    <circle class="m" cx="-160.526" cy="2119.576" r="593.356"/>
  </g>
  <g>
    <path class="n" d="M751.806,2270.988l-153.181,10.6a32.427,32.427,0,0,1-32.427-32.426V2152a32.427,32.427,0,0,1,32.427-32.426l163.78,12.113a32.426,32.426,0,0,1,32.426,32.426l-10.6,74.447A32.425,32.425,0,0,1,751.806,2270.988Z"/>
    <path class="n" d="M213.525,2319.629H141.45a20.672,20.672,0,0,1-20.612-20.611l6.805-135.7a20.673,20.673,0,0,1,20.611-20.612h58.467a20.673,20.673,0,0,1,20.611,20.612l6.805,135.7A20.672,20.672,0,0,1,213.525,2319.629Z"/>
    <path class="n" d="M547.525,2781.629H475.45a20.672,20.672,0,0,1-20.612-20.611l6.8-135.7a20.673,20.673,0,0,1,20.611-20.612h58.467a20.673,20.673,0,0,1,20.611,20.612l6.8,135.7A20.672,20.672,0,0,1,547.525,2781.629Z"/>
    <path class="n" d="M694.525,2604.711H622.45a20.673,20.673,0,0,0-20.612,20.612l6.805,135.7a20.672,20.672,0,0,0,20.611,20.611h58.467a20.672,20.672,0,0,0,20.611-20.611l6.8-135.7A20.673,20.673,0,0,0,694.525,2604.711Z"/>
    <path class="n" d="M830.525,2781.629H758.45a20.672,20.672,0,0,1-20.612-20.611l6.805-135.7a20.673,20.673,0,0,1,20.611-20.612h58.467a20.673,20.673,0,0,1,20.611,20.612l6.8,135.7A20.672,20.672,0,0,1,830.525,2781.629Z"/>
  </g>
  <g>
    <rect class="o" x="106.444" y="1226.44" width="369.271" height="882.543" rx="75.28"/>
    <rect class="p" x="155.885" y="1299.629" width="28.579" height="314.37"/>
    <rect class="p" x="213.383" y="1300.309" width="28.579" height="314.37"/>
    <rect class="p" x="270.881" y="1300.309" width="28.579" height="314.37"/>
  </g>
  <g>
    <rect class="q" x="412.909" y="887.271" width="655.464" height="738.542" rx="89.912"/>
    <rect class="p" x="511.762" y="975.052" width="375.611" height="65.324"/>
    <rect class="p" x="511.762" y="1083.925" width="375.611" height="65.324"/>
    <rect class="p" x="511.762" y="1180.549" width="240.881" height="16.331"/>
    <rect class="p" x="511.762" y="1215.933" width="240.881" height="16.331"/>
    <rect class="p" x="511.762" y="1251.317" width="240.881" height="16.331"/>
  </g>
  <g>
    <rect class="o" x="213.119" y="1816.326" width="347.885" height="727.136" rx="81.993"/>
    <rect class="p" x="280.927" y="2171.433" width="240.881" height="16.331"/>
    <rect class="p" x="280.927" y="2214.982" width="240.881" height="16.331"/>
    <rect class="p" x="280.927" y="2258.531" width="240.881" height="16.331"/>
    <rect class="p" x="280.927" y="2302.08" width="240.881" height="16.331"/>
    <path class="p" d="M258.633,1889.583H421.942a0,0,0,0,1,0,0v110.055a53.254,53.254,0,0,1-53.254,53.254H258.633a0,0,0,0,1,0,0V1889.583A0,0,0,0,1,258.633,1889.583Z"/>
  </g>
  <g>
    <path class="r" d="M254.092,2713l-195.98-22.584c-16.078,0-29.112-14.437-29.112-32.244v-61.614c0-17.808,13.034-32.244,29.112-32.244l195.98-12.416c16.078,0,29.112,14.436,29.112,32.244v96.614C283.2,2698.564,270.17,2713,254.092,2713Z"/>
    <rect class="p" x="64.927" y="2597.08" width="169.073" height="15.92"/>
    <rect class="p" x="64.927" y="2624.08" width="169.073" height="15.92"/>
  </g>
  <g>
    <path class="o" d="M835.092,2504.713H687.885a29.145,29.145,0,0,1-29.145-29.145v-87.327a29.145,29.145,0,0,1,29.145-29.145H810.6c16.1,0,25.062,14.97,29.145,29.145l24.5,87.327A29.145,29.145,0,0,1,835.092,2504.713Z"/>
    <rect class="p" x="681" y="2392" width="125" height="18"/>
    <rect class="p" x="681" y="2426" width="125" height="18"/>
    <rect class="p" x="681" y="2460" width="125" height="18"/>
  </g>
</svg>
