<svg aria-hidden="true" class="[ red-bot ]" xmlns="http://www.w3.org/2000/svg" xmlns:xlink="http://www.w3.org/1999/xlink" viewBox="10 0 957.03 2424.085">
  <defs>
    <radialGradient id="aa" data-name="New Gradient Swatch 1" cx="422.422" cy="207.34" fx="315.5943195819091" fy="-63.07891276722222" r="458.748" gradientTransform="matrix(0.961, -0.234, 0.168, 0.706, -11.64, 159.587)" gradientUnits="userSpaceOnUse">
      <stop offset="0" stop-color="#eb1e79"/>
      <stop offset="0.511" stop-color="#c50f6b"/>
      <stop offset="1" stop-color="#9c005d"/>
    </radialGradient>
    <linearGradient id="bb" x1="336.929" y1="92.696" x2="404.381" y2="363.233" gradientTransform="translate(503.218 -186.498) rotate(76.144)" gradientUnits="userSpaceOnUse">
      <stop offset="0" stop-color="#d71a71"/>
      <stop offset="0.229" stop-color="#d41a70"/>
      <stop offset="0.387" stop-color="#cb196b"/>
      <stop offset="0.524" stop-color="#bc1763"/>
      <stop offset="0.649" stop-color="#a61457"/>
      <stop offset="0.765" stop-color="#8a1048"/>
      <stop offset="0.875" stop-color="#670c36"/>
      <stop offset="0.979" stop-color="#3f0721"/>
      <stop offset="1" stop-color="#36061c"/>
    </linearGradient>
    <radialGradient id="cc" cx="353.008" cy="277.331" fx="406.2902666070023" fy="291.85958023217967" r="57.03" gradientUnits="userSpaceOnUse">
      <stop offset="0" stop-color="#feffd5"/>
      <stop offset="0.443" stop-color="#fcff85"/>
      <stop offset="0.822" stop-color="#fbff46"/>
      <stop offset="1" stop-color="#faff2e"/>
      <stop offset="1"/>
    </radialGradient>
    <radialGradient id="dd" data-name="New Gradient Swatch 2" cx="441.17" cy="967.083" fx="278.25533959865135" fy="346.66898103903657" r="801.46" gradientTransform="translate(0 126.659) scale(1 0.869)" gradientUnits="userSpaceOnUse">
      <stop offset="0.111" stop-color="#eb1e79"/>
      <stop offset="0.418" stop-color="#c50f6b"/>
      <stop offset="0.712" stop-color="#9c005d"/>
    </radialGradient>
  </defs>
  <g>
    <path class="aa" d="M682.742,266.05C531.914-9.458,359.168-40.106,243.99,51.085s-76.257,246.5-47.547,337.752c22.51,71.545,79.762,147.074,79.762,147.074S425.99,404.085,682.742,266.05Z"/>
    <path class="bb" d="M256.49,41.585S333.407,1.615,410.8,23.076C497.055,46.993,568.125,158.81,632.49,279.585"/>
    <path class="cc" d="M256.49,41.585S329.407,3.615,406.8,25.076C493.055,48.993,564.125,160.81,628.49,281.585"/>
    <path class="dd" d="M682.742,266.05C531.914-9.458,359.168-40.106,243.99,51.085s-76.257,246.5-47.547,337.752c22.51,71.545,79.762,147.074,79.762,147.074S425.99,404.085,682.742,266.05Z"/>
    <ellipse class="ee" cx="370.655" cy="227.965" rx="139.724" ry="113.169" transform="translate(60.557 533.238) rotate(-76.144)"/>
    <ellipse class="cc" cx="371.028" cy="229.623" rx="144.41" ry="116.965" transform="translate(59.23 534.861) rotate(-76.144)"/>
    <circle class="ff" cx="353.008" cy="277.331" r="57.03"/>
    <circle class="gg" cx="337.99" cy="298.085" r="12"/>
    <ellipse class="hh" cx="644.99" cy="256.585" rx="10" ry="12.5" transform="translate(-48.628 283.824) rotate(-23.942)"/>
    <ellipse class="hh" cx="589.99" cy="251.585" rx="10" ry="12.5" transform="translate(-51.332 261.074) rotate(-23.942)"/>
    <ellipse class="hh" cx="606.99" cy="190.585" rx="10" ry="12.5" transform="translate(-25.114 262.724) rotate(-23.942)"/>
    <ellipse class="hh" cx="548.99" cy="182.585" rx="10" ry="12.5" transform="translate(-26.858 238.499) rotate(-23.942)"/>
    <ellipse class="hh" cx="295.99" cy="382.585" rx="10" ry="12.5" transform="translate(-183.334 447.627) rotate(-60)"/>
    <ellipse class="hh" cx="364.99" cy="395.585" rx="10" ry="12.5" transform="matrix(0.038, -0.999, 0.999, 0.038, -44.282, 745.16)"/>
    <ellipse class="hh" cx="430.4" cy="372.428" rx="12.5" ry="10" transform="matrix(0.866, -0.5, 0.5, 0.866, -128.552, 265.096)"/>
    <ellipse class="hh" cx="252.99" cy="334.585" rx="10" ry="12.5" transform="translate(-143.663 198.14) rotate(-33.923)"/>
    <ellipse class="hh" cx="548.99" cy="107.585" rx="10" ry="12.5" transform="translate(3.578 232.045) rotate(-23.942)"/>
    <ellipse class="hh" cx="485.99" cy="95.585" rx="10" ry="12.5" transform="translate(3.027 205.446) rotate(-23.942)"/>
    <path class="ii" d="M970.99,214.533c-468.868,0-930.483,429.153-960,892.524V2419.085h960S971.99,665.085,970.99,214.533Z"/>
    <path class="dd" d="M986.99,214.085c-496,4-952.483,428.63-982,892"/>
  </g>
</svg>
