<svg class="[ red-bot ]" xmlns="http://www.w3.org/2000/svg" viewBox="0 0 970.444 2424.085">
  <defs>
    <radialGradient id="aa" data-name="New Gradient Swatch 1" cx="416.432" cy="207.34" fx="309.6044331230869" fy="-63.07891276722222" r="458.748" gradientTransform="matrix(0.961, -0.234, 0.168, 0.706, -11.874, 158.189)" gradientUnits="userSpaceOnUse">
      <stop offset="0" stop-color="#eb1e79"/>
      <stop offset="0.511" stop-color="#c50f6b"/>
      <stop offset="1" stop-color="#9c005d"/>
    </radialGradient>
    <linearGradient id="bb" x1="330.939" y1="92.696" x2="398.391" y2="363.233" gradientTransform="translate(498.663 -180.683) rotate(76.144)" gradientUnits="userSpaceOnUse">
      <stop offset="0" stop-color="#d71a71"/>
      <stop offset="0.229" stop-color="#d41a70"/>
      <stop offset="0.387" stop-color="#cb196b"/>
      <stop offset="0.524" stop-color="#bc1763"/>
      <stop offset="0.649" stop-color="#a61457"/>
      <stop offset="0.765" stop-color="#8a1048"/>
      <stop offset="0.875" stop-color="#670c36"/>
      <stop offset="0.979" stop-color="#3f0721"/>
      <stop offset="1" stop-color="#36061c"/>
    </linearGradient>
    <radialGradient id="cc" cx="347.019" cy="277.331" fx="400.3003801481801" fy="291.85958023217967" r="57.03" gradientUnits="userSpaceOnUse">
      <stop offset="0" stop-color="#feffd5"/>
      <stop offset="0.443" stop-color="#fcff85"/>
      <stop offset="0.822" stop-color="#fbff46"/>
      <stop offset="1" stop-color="#faff2e"/>
      <stop offset="1"/>
    </radialGradient>
    <radialGradient id="dd" data-name="New Gradient Swatch 2" cx="435.18" cy="967.083" fx="272.26545313983445" fy="346.66898103903793" r="801.46" gradientTransform="translate(0 126.659) scale(1 0.869)" gradientUnits="userSpaceOnUse">
      <stop offset="0.111" stop-color="#eb1e79"/>
      <stop offset="0.418" stop-color="#c50f6b"/>
      <stop offset="0.712" stop-color="#9c005d"/>
    </radialGradient>
  </defs>
  <g>
    <path class="aa" d="M676.752,266.05C525.924-9.458,353.178-40.106,238,51.085s-76.256,246.5-47.547,337.752c22.51,71.545,79.762,147.074,79.762,147.074S420,404.085,676.752,266.05Z"/>
    <path class="bb" d="M250.5,41.585s76.917-39.97,154.31-18.509C491.065,46.993,562.135,158.81,626.5,279.585"/>
    <path class="cc" d="M250.5,41.585s72.917-37.97,150.31-16.509C487.065,48.993,558.135,160.81,622.5,281.585"/>
    <path class="dd" d="M676.752,266.05C525.924-9.458,353.178-40.106,238,51.085s-76.256,246.5-47.547,337.752c22.51,71.545,79.762,147.074,79.762,147.074S420,404.085,676.752,266.05Z"/>
    <ellipse class="ee" cx="364.665" cy="227.965" rx="139.724" ry="113.169" transform="translate(56.001 527.423) rotate(-76.144)"/>
    <ellipse class="cc" cx="365.038" cy="229.623" rx="144.41" ry="116.965" transform="translate(54.675 529.046) rotate(-76.144)"/>
    <circle class="ff" cx="347.019" cy="277.331" r="57.03"/>
    <circle class="gg" cx="332" cy="298.085" r="12"/>
    <ellipse class="hh" cx="639" cy="256.585" rx="10" ry="12.5" transform="translate(-49.144 281.393) rotate(-23.942)"/>
    <ellipse class="hh" cx="584" cy="251.585" rx="10" ry="12.5" transform="translate(-51.847 258.643) rotate(-23.942)"/>
    <ellipse class="hh" cx="601" cy="190.585" rx="10" ry="12.5" transform="translate(-25.63 260.293) rotate(-23.942)"/>
    <ellipse class="hh" cx="543" cy="182.585" rx="10" ry="12.5" transform="translate(-27.374 236.068) rotate(-23.942)"/>
    <ellipse class="hh" cx="290" cy="382.585" rx="10" ry="12.5" transform="translate(-186.329 442.44) rotate(-60)"/>
    <ellipse class="hh" cx="359" cy="395.585" rx="10" ry="12.5" transform="matrix(0.038, -0.999, 0.999, 0.038, -50.042, 739.174)"/>
    <ellipse class="hh" cx="424.41" cy="372.428" rx="12.5" ry="10" transform="translate(-129.354 262.101) rotate(-30)"/>
    <ellipse class="hh" cx="247" cy="334.585" rx="10" ry="12.5" transform="translate(-144.683 194.797) rotate(-33.923)"/>
    <ellipse class="hh" cx="543" cy="107.585" rx="10" ry="12.5" transform="translate(3.063 229.615) rotate(-23.942)"/>
    <ellipse class="hh" cx="480" cy="95.585" rx="10" ry="12.5" transform="translate(2.511 203.016) rotate(-23.942)"/>
    <path class="ii" d="M965,214.533c-468.868,0-930.483,429.153-960,892.524V2419.085H965S966,665.085,965,214.533Z"/>
  </g>
</svg>
