<svg xmlns="http://www.w3.org/2000/svg" xmlns:xlink="http://www.w3.org/1999/xlink" width="962.223" height="2388.05" viewBox="0 0 962.223 2388.05">
  <defs>
    <style>
      .a {
        fill: url(#a);
      }

      .b {
        fill: url(#b);
      }

      .c {
        fill: #3b071f;
        opacity: 0.5;
      }

      .d {
        fill: #faff2e;
      }
    </style>
    <radialGradient id="a" data-name="New Gradient Swatch 1" cx="483.792" cy="409.743" fx="273.86476242541437" fy="-121.65529350417944" r="901.483" gradientTransform="matrix(0.961, -0.234, 0.168, 0.706, -44.009, 233.408)" gradientUnits="userSpaceOnUse">
      <stop offset="0" stop-color="#eb1e79"/>
      <stop offset="0.511" stop-color="#c50f6b"/>
      <stop offset="1" stop-color="#9c005d"/>
    </radialGradient>
    <radialGradient id="b" cx="471.244" cy="1285.774" fx="471.2441028669173" fy="1285.7739275852764" r="852.08" gradientTransform="translate(15.43) scale(0.986 1)" xlink:href="#a"/>
  </defs>
  <g>
    <path class="a" d="M671.752,235.015C520.924-40.493,350.152-21.829,252.178,33.858,149.335,92.314,150.744,260.554,179.453,351.8c22.51,71.544,67.416,130.811,85.762,153.074C114.771,663.7,13.342,865.7,0,1074.661l962.223.448V182.137C863.774,182.137,765.648,200.979,671.752,235.015Z"/>
    <path class="b" d="M0,1076.022V2388.05H960V183.5c-468.868,0-930.483,429.153-960,892.524"/>
    <ellipse class="c" cx="356.276" cy="212.078" rx="122.615" ry="139.724"/>
    <circle class="d" cx="342.019" cy="246.296" r="57.03"/>
  </g>
</svg>
