<svg class="[ head-shot ][ footer-blob ]" id="Layer_1" xmlns="http://www.w3.org/2000/svg" viewBox="0 0 664 880">
<defs>
  <style>.cls-1 {
    fill:#212121;
    stroke-width:0px;
    }
  </style>
</defs>
  <path class="cls-1" d="M667.45,617.72c-3.62.76-7.25,1.51-10.87,2.28-12.05,2.57-23.2,7.14-33.12,14.58-8.28,6.21-15.54,13.42-21.34,21.97-9.3,13.71-17.19,28.17-23.16,43.67-5.01,13-7.02,26.44-6.33,40.3.14,2.88.09,5.83,1.03,8.62,1.23,3.66,3.68,6.24,7.09,8.01-2.63,1.31-4.61-.29-6.53-1.76-3.29-2.52-4.81-6.03-5.44-10.03-.26-1.63-.41-1.67-1.82-.75-6.42,4.22-11.9,9.5-17.06,15.15-4.65,5.08-6.36,11.28-6.75,17.98-.08,1.36-.22,2.71-.26,4.07-.09,3.18-.04,6.35,1.09,9.41.51,1.39.41,2.69-.83,3.7-1.14.94-2.34.76-3.56.15-.97-.49-1.99-.91-2.93-1.45-3.8-2.18-7.73-2.26-11.82-.91-8.19,2.71-14.77,7.7-20.12,14.33-4.61,5.72-8.95,11.67-12.89,17.88-.63.99-1.11,1.87-.68,3.26.62,1.96-1.07,4.86-2.99,5.4-.92.26-1.09.65-1.2,1.45-.42,3.06-.93,6.11-2.07,9-1.64,4.17-4.06,7.7-8.26,9.69-1.56.74-3.2,1.25-5.12,1.19.26-.98,1.11-1.22,1.7-1.62,3.2-2.19,5.29-5.11,6.38-8.86,2.14-7.37,2.62-14.82,1.19-22.35-1.68-8.86-6.57-15.67-13.95-20.64-6.85-4.61-14.4-7.73-22.58-8.99-4.59-.71-9.25-.56-13.81.51-4.29,1.01-7.75,3.44-10.76,6.6-1.08,1.13-1.29,2.75-2.17,4.11-2.16-1.5-1.55-3.34-.94-4.99,1.41-3.81,4.04-6.61,7.59-8.58,4.23-2.35,8.82-3.18,13.59-3.42,8.88-.44,16.99,2.28,24.89,5.95,5.15,2.39,9.81,5.48,13.82,9.54,4.78,4.84,7.89,10.59,9.46,17.18.29,1.23.57,2.47.88,3.7.04.15.23.27.35.41.9-.16.96-1.02,1.31-1.61,4.38-7.33,8.99-14.51,14.59-20.99,1.18-1.37,2.46-2.68,3.8-3.89.76-.69.89-1.35.91-2.34.1-5.07.36-10.15.56-15.22.04-1.09.18-2.17.17-3.26-.06-11.72.9-23.37,2.03-35.02,1.04-10.71,2.02-21.42,3.2-32.12.97-8.74,1.98-17.48,3.32-26.17.72-4.67.63-9.4,1.02-14.1.58-7.05.71-14.12,1.05-21.18.01-.27.03-.55.02-.82-.19-10.63.36-21.24.53-31.86.19-11.72-.9-23.37-2.01-35.02-.41-4.33-.49-8.68-1.09-13-.8-5.71-2.47-11.13-4.34-16.55-2.34-6.76-4.67-13.54-5.9-20.62-.06-.37-.14-.71-.51-.93-.85.49-.67,1.42-.82,2.16-1.95,9.33-4.45,18.52-7.28,27.62-1.8,5.8-5.33,10.44-9.79,14.47-2.83,2.55-5.58,5.19-8.56,7.57-3.99,3.18-8.25,5.92-12.79,8.25-2.59,1.33-2.65,1.42-.39,3.47,4.77,4.34,9.65,8.54,15.47,11.49,1.29.65,2.56,1.35,3.2,2.81.71,1.64.29,3.13-1.32,3.86-.99.45-2.05.69-3.17.66-1.73-.04-3.46.05-5.18-.02-4.12-.17-8.15.33-12.11,1.45-.45.13-.87.23-1.63,0,4.56-4.07,10-5.24,15.59-5.8.18-1.05-.58-1.23-1.06-1.53-5.35-3.37-9.94-7.61-14.18-12.24-.63-.69-1.14-1.1-2.06-.61-3.1,1.67-6.65,2.36-9.59,4.39-.29.2-.69.42-.99.37-3.54-.54-6.8.87-10.14,1.55-5.07,1.02-10.15.63-15.2.32-3.7-.23-7.41-.32-11.11-.74-13.63-1.54-27.16-3.34-40.05-8.46-5.55-2.21-11.46-3.57-16.71-6.51-10.31-5.78-20.34-12.01-28.64-20.58-5.11-5.28-10.02-10.77-13.82-17.12-.28-.47-.63-.89-.9-1.36-.87-1.53-1.31-.29-1.83.28-.56-.2-.62-.66-.66-1.11-.51-5.09-2.23-9.89-3.63-14.76-.58-2.03-1.59-3.84-2.92-5.49-2.49-3.08-4.12-6.62-5.4-10.33-.93-2.69-.87-5.35.62-7.88.75-1.27,1.11-2.63,1.27-4.12.3-2.79,1.36-5.43,1.5-8.28.21-4.35.24-8.67.03-13.03-.17-3.62-1.08-7.15-1-10.77.05-2.1-1-3.63-2.69-4.75-1.25-.83-1.52-.74-2.32.67-.23.4-.37.77-.95.76-4.58-.07-7.8,2.98-11.86,4.99,1.47,1.39,3.11,2.33,3.36,4.6-2.91-1.63-5.85-1.16-8.8-.8-.91.11-1.78.28-2.64.58-2.56.9-5.05,1.99-7.71,2.61-1.91.44-3.3,1.82-4.74,3.08-5.65,4.95-8.86,11.4-11.36,18.3-1.3,3.58-1.97,7.38-3.64,10.84-.58,1.19-.99,2.5-2.19,3.68-1.69-4.04-4.06-7.44-6.65-10.72-2.73-3.47-6.16-5.83-10.27-7.3-3.02-1.08-6.1-.74-9.14-.2-6.8,1.21-13.01,3.87-18.67,7.81-5.59,3.89-11.03,7.98-16.43,12.12-6.54,5.02-11.25,11.53-15.16,18.67-4,7.31-6.03,15.34-8.31,23.28-1.31,4.54-2.31,9.15-3.04,13.81-.08.52-.39,1.12.12,1.53.54.42,1.01-.08,1.47-.33,2.7-1.41,5.61-1.38,8.51-1.09,2.61.26,5.21.65,7.79,1.1,3.32.58,6.42,1.89,9.46,3.31,5.95,2.78,10.73,7.07,15.07,11.89,3.34,3.71,6.75,7.41,8.67,12.11,1.75,4.28,3.49,8.57,4.29,13.16.14.79.11,1.65.82,2.23,1.09-.4.99-1.48,1.21-2.28.65-2.36,1.21-4.75,1.69-7.15,1.06-5.37,3.26-10.19,6.95-14.25,1.24-1.37,1.68-2.83,1.65-4.67-.1-6.17-.59-12.32-1.14-18.46-.07-.73-.28-1.4-.62-2.06-.96-1.85-1.69-2.2-3.71-1.77-1.58.34-2.73,1.34-3.96,2.28-1.46,1.11-2.55,2.71-4.73,3.73.55-1.69,1.29-2.7,2.02-3.68,1.81-2.42,4.01-4.47,6.7-5.86,2.54-1.32,4.73-.67,6.36,1.72.88,1.29,1.41,2.74,1.88,4.22,1.56,4.9,1.74,9.99,2.06,15.05.37,5.79.11,11.59.32,17.38.12,3.45.35,6.88-.04,10.32-.19,1.62-.1,3.33-.59,4.85-2.07,6.4-2.65,13.14-4.66,19.57-1.94,6.18-4.79,11.95-7.44,17.82-1.6,3.55-3.08,7.17-5.09,10.53-4.62,7.7-7.97,16.07-12.47,23.85-1.98,3.43-3.24,7.27-4.84,10.92-.29.67-.2,1.21.27,1.74.66.75,1.43.73,2.22.35,1.55-.75,3.11-1.47,4.73-2.07,8.61-3.19,17.44-4.05,26.5-2.79,9.32,1.29,18.32,3.65,26.63,8.17,4.31,2.35,8.46,4.93,11.58,8.88,1.47,1.86,2.88,3.74,3.77,5.96.17.42.35.84.56,1.24.42.83.86,1.62,1.98,1.58.97-.04,1.41-.72,1.78-1.47.69-1.38,1.42-2.74,2.05-4.15,8.54-19.19,15.38-38.97,20.89-59.23,2.8-10.27,4.89-20.66,6.48-31.15.98-6.45,1.1-13,1.51-19.51.44-7.06-.3-14-1.89-20.78-1.48-6.34-3.72-12.51-6.15-18.58-1.45-3.62-3.03-7.17-4.78-10.66-1.44-2.87-2.03-6.15-2.82-9.38,3.12,2.55,6.18,5.14,8.19,8.68,2.65,4.67,4.35,9.77,6.24,14.77.96,2.54,1.71,5.16,2.62,7.72,2.67,7.52,3.84,15.32,3.95,23.24.18,13.2-1.33,26.24-3.96,39.18-3.34,16.4-8.15,32.36-13.66,48.14-1.76,5.05-3.5,10.12-5.55,15.06-.27.66-.5,1.34-.71,1.89.4.68.84.54,1.26.37,3.84-1.56,7.85-1.48,11.82-1,12.52,1.52,24.17,5.49,34.78,12.45,20.49,13.44,32.6,32.58,38.39,56.07.24.97.36,1.96.54,2.94.18.97.37,1.94.54,2.83.79.51,1.3-.07,1.86-.27,5.83-2.06,11.43-1.45,16.81,1.48,5.5,2.98,9.42,7.6,12.93,12.63,3.95,5.66,6.91,11.73,7.63,18.7.3,2.92.05,5.75-1.65,8.96-.12-3.13-.26-5.67-.89-8.17-1.68-6.64-5.09-12.39-9.13-17.81-3.16-4.24-6.64-8.2-11.32-10.86-3.91-2.22-8.07-3.14-12.55-2.19-2.82.6-3.28,1.31-3.12,4.24.43,7.72-.22,15.25-4.07,22.2-1.51,2.72-4.14,5.72-7.15,7.85-.1-.94.46-1.54.87-2.14,3.74-5.44,5.21-11.54,5.22-18.03.01-8.92-.79-17.75-3.27-26.37-2.18-7.55-5.55-14.56-9.59-21.28-8.93-14.86-21.27-25.86-37.17-32.74-8.45-3.66-17.35-5.88-26.54-6.58-2.3-.18-5-.26-6.5,2.35-.14.25-.44.47-.63.28-1.69-1.67-1.71.31-2.06,1.03-2.59,5.31-4.62,10.85-6.78,16.34-.63,1.6-1.61,2.37-3.19,2.95-5.47,2.02-11.19,3.05-16.82,4.44-1.22.3-2.52.27-3.79.31-2.43.08-2.47.05-3.31,2.38-1.54,4.27-2.9,8.6-3.91,13.03-1.68,7.34-3.36,14.7-3.87,22.23-.6,8.8-.69,17.57,1.94,26.16,1.36,4.44,3.69,8.25,6.75,11.67.98,1.1,2.06,1.78,3.57.88.38-.22.86-.27,1.3-.38,4.06-1.02,6.98.97,7.53,5.17.14,1.08.22,2.16.28,3.25.32,5.45-2.44,7.4-6.84,8.09-3.01.47-5.96-.04-8.74-1.39-5.26-2.56-9.94-5.94-14.44-9.65-12.04-9.91-19.89-22.73-25.69-36.92-2.85-6.98-4.45-14.37-6.16-21.71-.33-1.42-.65-2.83-1.24-4.16-2.03-4.61-2.82-9.52-3.52-14.46-.19-1.38.17-2.7.15-4.06-.05-3.98-.43-7.97.12-11.94.12-.85-.13-1.39-.8-1.83-3.64-2.41-6.46-5.85-10.18-8.17-1.07-.67-1.56-1.5-1.04-2.97.78-2.21,1.66-4.54,1.65-6.83,0-3.2,1.66-5.6,2.7-8.35,2.56-6.73,6.14-12.94,9.32-19.35,5.61-11.3,11.25-22.55,15.44-34.5,2.4-6.84,5.16-13.57,7.16-20.54,1.53-5.32,2.56-10.77,2.54-16.35,0-1.27.6-2.61-.02-3.93-1.09.19-1.18,1.01-1.45,1.62-.87,2.01-1.29,4.15-1.78,6.28-1.06,4.51-2.49,8.91-4.21,13.21-.61,1.54-1.41,2.98-2.39,4.27-2.29,3.03-5.28,4.79-9.21,3.77-2.53-.66-5.21-.95-7.47-2.42-.92-.6-1.48-.16-2.11.45-1.57,1.51-3,3.15-4.73,4.5-6.79,5.3-14.65,7.84-23.04,9.01-1.97.27-3.94.54-5.95.57-3.58.06-6.88-.77-9.78-2.81-6.66-4.67-12.04-10.48-15.19-18.1-1.81-4.36-2.48-8.86-1.56-13.58,1.04-5.3,2.69-10.34,5.62-14.93,1.93-3.03,4.79-4.92,7.86-6.53,1.23-.65,2.43-.28,3.5.78-4.01,3-4.02,7.27-3.33,11.52.78,4.78,6.15,6.64,9.19,6.69,1.91.03,4.9-2.64,5.4-4.49.21-.79-.29-1.2-.64-1.68-1.08-1.46-2.2-2.89-3.31-4.32-2.36-3.07-3.95-6.58-4.89-10.26-1.08-4.21-1.46-8.59-1.03-12.95,1.13-11.53,3.8-22.72,7.87-33.55,3.11-8.27,8.19-15.33,14.07-21.84,1.03-1.14,2.22-2.15,3.44-3.09,6.28-4.78,12.39-9.83,18.95-14.19,8.22-5.46,17.26-8.85,27.4-8.32,1.66.09,3.24.39,4.75,1.05,1.08.47,2.14,1,3.23,1.45,3.47,1.42,6.1,3.85,8.34,6.79.54.7.89,1.61,1.82,1.92.77-.23.81-.92,1-1.51,1.37-4.24,3.05-8.36,5.23-12.25,4.68-8.34,11.47-13.96,20.99-15.9,1.72-.35,3.28-.93,4.74-1.92,2.94-1.99,6.12-3.57,9.4-4.88,3-1.2,6.07-2.34,9.27-1.33.49-.89.04-1.31-.21-1.76-1.41-2.49-1.32-5.03-.24-7.59.32-.75.64-1.53,1.1-2.19,3.23-4.59,6.05-9.57,10.25-13.36,6.18-5.58,13.26-9.49,21.81-10.06.54-.04,1.09-.07,1.63-.06,3.06.08,3.11.09,3.37-2.86.45-5.16.45-10.33.09-15.5-.1-1.45-.04-2.91-.05-4.36-.06-6.71-.6-13.4-.94-20.1-.33-6.52-.81-13.03-1.26-19.54-.52-7.42-1.44-14.79-2.51-22.15-.1-.67-.16-1.5-1.13-1.64-2.3-.33-3.73-1.91-5.38-3.39-5.29-4.76-8.6-10.98-12.69-16.61-2.53-3.48-3.55-7.56-1.79-11.84.31-.76-.11-1.19-.43-1.71-1.03-1.71-1.98-3.48-3.1-5.13-3.84-5.65-6.94-11.7-9.68-17.94-2.21-5.04-3.39-10.33-3.37-15.87,0-2.08-.22-4.2-.13-6.25.21-4.89,1.31-9.47,5.82-12.53,3.97-2.69,8.13-4.53,12.95-5.28,5.04-.78,10.1-1.01,15.14-1.31,3.38-.2,6.86.3,10.26.88,9.18,1.55,17.78,4.57,25.16,10.35,4.06,3.18,7.56,7.03,11.25,10.64,1.97,1.93,3.58,4.1,4.86,6.52.17.32.45.64.48.97.23,2.55,2.13,3.87,3.87,5.27,6.82,5.45,11.12,12.58,13.99,20.69,1.06,2.99,2.4,5.88,2.78,9.09.11.95.9,1.54,1.53,2.19,2.52,2.61,5.32,4.94,7.63,7.76,5.63,6.88,11.07,13.9,16.32,21.08,3.49,4.76,6.99,9.54,9.74,14.77,3.88,7.38,7.43,14.9,10.03,22.9,3.1,9.55,4.22,19.49,6.43,29.2.36,1.59.69,3.2.98,4.8.2,1.1.67,1.58,1.86,1.28,2.89-.73,4.88.65,6.49,2.88.96,1.34,1.91,2.73,2.29,4.31.4,1.65,1.32,2.04,2.85,2.23,6.61.83,12.48,3.49,18.07,7.08,4.97,3.2,7.19,7.4,6.1,13.26-.22,1.16-.34,2.35-.68,3.47-1.4,4.56-1.04,9.15-.26,13.74.2,1.2.53,2.11,2.24,2.03,14.4-.72,24.8,6.12,31.76,18.09,4.73,8.13,7.17,17.24,7.59,26.72.26,5.82-1.36,11.31-3.74,16.59-.83,1.83-.81,1.8.85,2.86,4.13,2.63,8.29,5.23,12.35,7.97,6.9,4.65,11.37,11.08,13.66,19.06,2.21,7.72,3.46,15.58,3.35,23.62-.09,6.62.35,13.25-.47,19.87-.83,6.67-1.9,13.29-3.44,19.83-2.36,10.07-5.01,20.06-8.07,29.94-1.96,6.32-4.04,12.61-5.66,19.02-2.29,9.05-4.36,18.14-4.77,27.55-.32,7.42-.99,14.83-1.03,22.28-.01,2.39.52,4.68,1.09,6.97.07.26.12.54.24.77.22.4.49.83,1,.8.54-.02.71-.53.82-.94.23-.89.08-1.79-.01-2.7-.17-1.58.44-1.97,1.89-1.22,2.52,1.31,3.78,3.57,3.6,6.26-.59,9.1-5.66,15.92-15.13,17.72-1.91.36-3.76-.33-5.64-.51-.63-.06-1.27-.2-1.85-.42-1.4-.54-1.77.14-1.87,1.38-.22,2.62-.53,5.23-.72,7.85-.58,7.69-1.08,15.38-1.16,23.09-.06,5.43-.49,10.87-.75,16.3-.01.27-.02.55-.01.82.05,1.47.33,1.66,1.61,1.01,2.02-1.02,3.96-2.22,6.04-3.12,5.18-2.24,10.48-3.56,16.11-1.64,1.31.44,1.47.22,1.41-1.32-.17-4,.21-7.97.63-11.93,1.05-9.92,6.13-17.49,13.93-23.37,4.45-3.36,9.33-5.97,14.78-7.32,1.27-.32,1.82-.83,1.67-2.24-.29-2.79-.5-5.6-.56-8.41-.29-12.53,2.41-24.49,6.87-36.13,4.37-11.4,10.05-22.13,16.24-32.61,3.52-5.95,7.23-11.76,11.69-17.05,10.66-12.64,23.33-22.58,39.02-28.22,8.37-3.01,16.97-5.24,25.93-5.66v4.91ZM476.57,469.59c-6.04-4.01-12.11-7.79-18.81-10.44-.83-.33-1.78-.57-2.65-.52-2.09.12-3.47-.55-3.63-2.87-2.28.47-4.29,1.38-6.47,1.04-.14-.93.52-1.25.95-1.65,1.39-1.31,2.77-2.63,4.25-3.82,2.11-1.71,3.62-3.79,4.5-6.35.68-1.98,1.02-4.01,1.27-6.1.4-3.42.78-6.84.93-10.28.13-2.93-.11-5.81-1.36-8.5-1.61-3.46-2.15-5.23-6.68-3.7-1.3.44-2.12-.51-1.37-1.6,1.02-1.47.52-2.74.13-4.12-.49-1.75-1.05-3.48-1.47-5.25-2.31-9.52-4.52-19.05-8.04-28.24-4.15-10.82-9.42-21.02-15.8-30.66-4.76-7.19-9.82-14.16-15.08-21-1.94-2.52-3.95-4.99-6.21-7.2-6.03-5.91-12.28-11.57-19.38-16.23-1.59-1.05-3.18-1.59-5.06-1.63-9.52-.18-18.56,1.7-26.99,6.2-3.92,2.1-7.92,4.15-11.09,7.33-3.26,3.27-6.27,6.77-8.89,10.62-1.48,2.18-2.36,4.21-.81,6.7.37.59.42,1.38.64,2.07,2.67,8.53,3.88,17.35,4.83,26.18.86,7.92,1.63,15.86,2.09,23.83.46,8.05,1.12,16.08.97,24.15-.04,2.17.25,4.35.2,6.52-.12,4.64-.95,9.19-2.15,13.68-.36,1.32-.71,2.62-.34,4.02.19.73.07,1.44-.53,2-.63.58-2.05.9-1.58,1.9.59,1.26,1.72.03,2.62-.04,1.43-.1,2.85-.49,4.28-.03.83.26,1.49.68,1.56,1.65.07,1.08-.7,1.38-1.52,1.6-.79.21-1.6.34-2.39.52-2.66.61-4.18,2.33-4.86,4.91-1.38,5.27.29,10.09,2.42,14.72,2.04,4.44,5.6,7.5,10.04,9.53.39.18.88.26,1.1.74-.27,1.39-1.38,1.78-2.56,2.07-.7.17-1.53.13-2.08.51-4.03,2.78-8.28,5.26-11.79,8.74-.39.39-1.17.7-.7,1.6.82.21,1.26-.5,1.81-.86,3.51-2.27,6.96-4.61,10.48-6.86,1.61-1.03,3.33-1.91,5.21-2.3,2.56-.53,3.91,1.08,2.94,3.47-.27.68-.66,1.2-.4,2.01.76,2.42,1.44,4.87,2.1,7.32.39,1.47,1.28,2.55,2.37,3.55,1.1,1.01,2.45,1.52,3.77,2.12,1.55.71,3.42,1.06,4.5,2.39,1.48,1.82,2.66,3.9,2.73,6.4.1,3.36.1,6.74-.49,10.04-1.03,5.74-1.47,11.49-1.13,17.31.21,3.64,1.32,6.91,3.76,9.7,1.81,2.07,4.08,2.63,6.64,2.24,1.76-.27,3.16-1.36,4.4-2.57,3.02-2.96,5.28-6.43,6.88-10.35.92-2.26,1.79-4.57,3.58-6.36,2.57-2.57,5.41-2.97,8.33-.9,5.33,3.77,9.9,8.14,12.07,14.63,1.29,3.86,2.91,7.64,5.05,11.14,1.13,1.86,2.92,2.9,4.13,2.46,1.44-.52,2.39-2.83,2.02-4.93-.06-.36-.22-.7-.28-1.05-.45-2.68-1.25-5.29-1.37-8.04-.3-6.92,2.11-12.36,8.32-15.89,3.61-2.05,7.57-3.51,10.73-6.38,1.07-.97,1.94-1.59,1.64-3.3-.28-1.59.8-2.52,2.33-2,1.59.54,2.22-.26,2.82-1.28,1.53-2.6,2.71-5.4,3.12-8.37.62-4.5.48-9.06.21-13.59-.29-4.8-.74-9.59-.66-14.4.04-2.55.41-5.08,1.41-7.45.43-1.01.8-2.23,2.24-2.19.42.56.17,1,.08,1.42-.81,3.61-.48,7.22.07,10.82.22,1.47.61,1.62,1.61.52.87-.97,1.95-1.28,3.09-1.57,5.17-1.3,10.34-1.86,15.55-.15,1.38.45,2.79.78,4.19,1.18.51.14,1.02.49,1.69-.5ZM521.32,736.71c4.67.25,7.94-2.03,10.38-5.77.61-.94.69-1.67-.73-1.89-2.03-.32-3.13-1.76-3.83-3.5-1.65-4.09-2.36-8.38-2.22-12.78.11-3.44.33-6.88.51-10.32.32-5.97.59-11.94,1.29-17.88,1.27-10.76,4.04-21.2,7.24-31.51,3.93-12.65,7.63-25.36,10.61-38.27,2.31-10,4.17-20.07,3.77-30.42-.11-2.99-.06-6,0-8.99.11-7.04-1.05-13.88-2.83-20.68-1.93-7.37-6.06-13.07-12.1-17.56-3.64-2.7-7.19-5.54-10.81-8.28-.82-.62-1.46-1.36-2.03-2.18-.5-.72-.74-1.56-.12-2.26,1.07-1.2.98-2.66,1.17-4.08.47-3.44.08-6.9.31-10.34.22-3.37.03-6.69-.61-9.99-.95-4.92-2.76-9.58-4.32-14.31-.36-1.11-.92-2.18-1.52-3.19-4.59-7.76-11.11-13.08-19.88-15.43-1.74-.47-3.56-.66-5.36-.81-2.04-.16-2.33.24-1.55,2.08,1.09,2.59,2.2,5.18,3.47,7.69.94,1.85,1.96,3.68,3.36,5.26,1.64,1.85,3.51,3.22,6.15,2.64,1.21-.26,1.92.33,2.53,1.16,1.25,1.69,1.51,3.62.44,5.37-.89,1.45-.41,2.18.57,3.23,3,3.22,4.11,7.13,3.94,11.49-.15,3.9-1.31,7.76-.85,11.65.65,5.48,1.33,11.01,2.69,16.34,1.16,4.54,2.4,9.13,4.14,13.51,3.1,7.81,5.33,15.81,6.05,24.19.34,3.97.55,7.95.93,11.92.91,9.48,1.71,18.96,1.65,28.49-.03,4.45-.13,8.89-.19,13.34-.16,11.34-.15,22.69-.63,34.03-.28,6.61-.6,13.22-1.17,19.81-.8,9.3-2.55,18.49-3.41,27.79-.76,8.21-1.69,16.4-2.46,24.61-.16,1.7-1.31,3.88.13,5.04,1.28,1.03,3.47.7,5.28.81ZM255.09,708.67c-.25-.55-.77-.75-1.24-1.01-4.77-2.66-9.8-4.67-15.1-6.03-6.16-1.58-12.41-2.53-18.74-3.03-3.16-.25-6.33-.33-9.47.29-.75.15-1.53.24-1.48,1.21.19,4.11-.63,8.11-1.22,12.14-.6,4.11-.63,8.32-2.04,12.3-.23.65-.17,1.44-.13,2.16.53,8.25,1.83,16.38,3.55,24.46,1.49,7.01,2.98,14.03,3.58,21.17.29,3.45,1.16,6.56,2.72,9.57.12.24.2.51.31.75,7.43,15.85,18.21,28.7,33.53,37.49,1.66.95,3.43,1.61,5.4,1.65,4.23.09,5.18-1.02,4.28-5.19-.02-.09-.02-.18-.05-.27-.3-.76-.74-1.25-1.65-.84-.41.19-.91.27-1.23.55-1.95,1.73-3.88,1.05-5.75-.07-1.16-.69-2.27-1.47-3.21-2.49-3.99-4.39-6.62-9.47-8.17-15.18-2.52-9.27-2.57-18.71-1.55-28.09,1.59-14.65,4.95-28.94,10.87-42.52.47-1.09.78-2.22.95-3.39.71-4.99,2.09-9.74,5.04-13.92.36-.51.73-1.04.79-1.7ZM147.14,589.03c-.35-.1-.58.08-.74.29-.43.58-.87,1.16-1.24,1.78-2.66,4.51-4.15,9.43-4.96,14.58-.77,4.92.02,9.55,2.36,13.95,2.96,5.55,7.11,10.04,12.1,13.78,2.32,1.74,4.93,2.59,7.88,2.45,2.09-.1,4.16-.28,6.21-.62,5.85-.99,11.52-2.48,16.56-5.79,2.88-1.89,5.32-4.15,7.56-6.84,4.95-5.92,8.32-12.45,9.55-20.08.19-1.17.05-2.15-.69-3.05-2.52-3.09-4.58-6.5-7.15-9.57-5.05-6.02-11.61-9.42-18.8-11.93-1.31-.46-1.71-.21-1.74,1.13-.06,2.92-.49,5.79-1.14,8.61-1.38,6-2.66,12.05-6.52,17.15-2.68,3.53-6.59,4.88-10.74,3.4-.68-.24-1.33-.59-2-.84-4.66-1.73-7.05-5.18-7.59-10.02-.25-2.21.31-4.32.89-6.42.18-.64.79-1.25.2-1.95ZM357.35,273.24c-2.8-.16-5.61.03-8.35.67-6.31,1.46-12.22,3.95-17.77,7.31-3.37,2.04-6.32,4.45-8.58,7.78-1.38,2.03-2.44,4.25-3.95,6.18-3.65,4.65-5.8,10.03-7.52,15.6-.9,2.91-.92,5.87.26,8.79,2.2,5.46,5.79,10.02,9.45,14.52,1.14,1.4,2.55,2.58,3.84,3.86.39.39.85.76,1.44.53.67-.27.51-.88.41-1.4-.46-2.22-.97-4.43-1.42-6.65-.16-.77-.6-1.21-1.22-1.67-1.49-1.13-1.75-2.27-.82-3.73,1.66-2.59,3.22-5.29,5.2-7.62,4.22-4.98,8.67-9.7,14.56-12.91,7.79-4.25,15.76-7.74,24.73-8.5,3.53-.3,7.02-.47,10.55-.06,3.4.39,6.55,1.36,9.37,3.35.91.65,1.92,1.38,1.95,2.49.05,2.07,1.66,2.63,2.95,3.55.29.21.61.38.97.08.35-.29.27-.65.13-.98-.65-1.49-1.37-2.96-1.98-4.47-1.36-3.37-3.03-6.59-4.9-9.7-3.43-5.71-8.62-9.75-13.49-14.08-1.02-.9-2.24-1.65-3.62-1.79-4.05-.42-8.04-1.41-12.18-1.15ZM454.29,471.84c.17.56.38.7.65.79,11.62,3.59,21.68,10.02,31.38,17.14,5.61,4.11,9.29,9.62,11.87,15.94.82,2.01,1.45,4.14,1.29,6.36-.15,2.03-1.89,2.77-3.47,1.52-1.22-.96-2.09-2.26-3.03-3.49-4.25-5.56-8.74-10.88-14.19-15.34-5.01-4.11-10.26-7.79-16.22-10.38-1.03-.45-2.08-1.19-3.34-.61.63,1.27.64,1.26,1.6,1.99,8.94,6.8,17.04,14.42,23.04,24.04,3.13,5.01,5.99,10.18,7.72,15.86.94,3.12.96,6.27-.76,9.23-1.15,1.96-2.68,2.05-3.99.13-.66-.97-1.22-2.03-1.64-3.13-3.13-8.15-8.25-14.89-14.61-20.74-3.01-2.77-6.16-5.36-9.96-7.03-.49-.21-.95-.59-1.49-.02.08.23.11.53.28.71,5.05,5.48,9.51,11.44,14.18,17.22,4.47,5.52,8.47,11.34,11.44,17.83,2.43,5.3,4.71,10.63,4.68,16.61,0,.4.17.68.73.77,1.07-1.23,1.32-2.89,1.73-4.42,2.53-9.37,5.27-18.68,6.81-28.29.73-4.56,2.31-8.96,2.56-13.63.1-1.99.49-3.96.6-5.94.19-3.22-1-5.84-3.63-7.78-1.68-1.24-2.88-2.78-2.83-4.99.05-2.37-.09-2.77-1.51-4.4-.29-.34-.54-.74-.7-1.15-1.3-3.34-3.89-5.83-6.48-7.88-8.5-6.74-18.12-10.16-29.17-7.89-1.2.25-2.57-.07-3.57.98ZM446.9,512.24c-.77.99-.03,1.63.35,2.28,4.26,7.19,8.18,14.55,11.67,22.15,3.49,7.59,6.9,15.19,9.15,23.27,1.5,5.38,2.43,10.77,1.52,16.36-.11.66-.27,1.42.25,1.98.18.04.3.1.35.07,4.44-2.57,8.1-6.08,11.78-9.58.6-.57.7-1.16.34-1.95-2.63-5.78-4.78-11.78-7.89-17.33-3.37-6.01-6.83-11.98-10.41-17.87-3.31-5.43-6.73-10.81-11.64-15-1.77-1.51-3.28-3.36-5.46-4.37ZM485.88,559.53c.06-3.37-.03-6.73-1.17-9.95-2.22-6.26-4.97-12.28-8.87-17.69-5.78-8.02-11.99-15.71-18.4-23.23-1.76-2.07-3.78-3.92-5.75-5.8-1.24-1.19-1.54-1.08-2.33.5-.44.89-.85,1.8-1.32,2.68-.85,1.61-.82,1.55.73,2.65,4.68,3.31,9.05,6.99,12.47,11.64,3.18,4.31,6.02,8.85,8.6,13.54,4.54,8.26,9.58,16.27,12.71,25.24.54,1.54,1.21,3.03,1.87,4.53.17.4.47.81,1.03.62.44-.14.41-.56.41-.9.02-1.27,0-2.54,0-3.81ZM437.75,528.97c-.58.68-.08,1.13.13,1.58.83,1.81,1.72,3.6,2.55,5.41,3.81,8.33,7.63,16.64,10.35,25.42,2.15,6.93,3.26,13.93,2.4,21.18-.19,1.59-.8,3.16-.44,5.05,3.06-.96,5.65-2.63,8.45-3.83,1.35-.58,1.67-1.53,1.47-2.83-.42-2.79-1.07-5.52-2.05-8.16-2.87-7.74-6.24-15.28-9.46-22.88-2.96-6.99-6.79-13.42-11.48-19.37-.53-.67-.91-1.55-1.92-1.58ZM465.45,572.38c.4-1.02.25-1.91.16-2.8-.45-4.26-1.45-8.39-2.81-12.43-3.54-10.5-8.29-20.49-13.36-30.32-2.08-4.03-4.36-7.95-6.59-11.89-1.16-2.04-1.42-2.09-3.22-.55-1.6,1.36-3.29,2.54-5.13,3.55-1.38.75-1.4,1.21-.16,2.13,2.19,1.62,4.46,3.16,6.24,5.23,4.92,5.73,9.3,11.84,12.41,18.77,3.94,8.76,7.71,17.59,11.05,26.6.24.65.31,1.43,1.4,1.72ZM339.05,534.96c-.24.11-.54.17-.69.34-4.33,4.78-7.14,10.46-9.74,16.28-.48,1.06-.2,1.84.55,2.7,3.36,3.84,7.02,7.34,11.06,10.46.68.53,1.26,1.48,2.31,1.12.85-.29.37-1.31.78-1.9.58-.84.67-1.86.91-2.82,2.07-8.16,3.36-16.56,7.28-24.16.25-.48.76-1.11-.04-1.69-.23.11-.53.17-.69.35-4.8,5.66-9.96,11.08-12.7,18.19-.16.42-.36.84-.61,1.21-.67,1.03-1.65,1.45-2.82,1.05-1.23-.42-1.53-1.45-1.38-2.64.06-.45.24-.87.32-1.32.91-5.14,2.81-9.93,5.03-14.62.35-.74,1.16-1.49.42-2.52ZM388.17,531.18c-1.28.07-1.48.99-1.92,1.59-1.39,1.91-2.49,4.07-4.27,5.62-1.78,1.55-2.16,3.49-2.1,5.61.14,4.46.83,8.84,2.11,13.12,2.1,6.98,5.48,13.43,8.46,20.04.18.4.35.86,1.34.75-.42-5.19-1.98-10.19-2.53-15.35-.56-5.23-1.04-10.46-1.22-15.72-.18-5.2-.09-10.4.13-15.67ZM452.24,485.75c-.16,3.29-.22,6.35-.51,9.39-.12,1.27.21,1.88,1.39,2.15.44.1.85.3,1.28.44,6.68,2.2,12.97,5.09,18.18,10,3.91,3.68,7.57,7.55,10.57,12.01.35.53.68,1.07,1.04,1.59.16.22.39.4.69.28.27-.11.42-.38.33-.64-.18-.51-.42-1-.67-1.48-2.04-3.85-4.23-7.6-6.83-11.1-5.95-8.02-13.36-14.51-21.42-20.29-1.16-.83-2.19-1.9-4.05-2.34ZM436.53,581.88c.4-.48.61-.61.61-.74,0-.81,0-1.63-.1-2.43-1.4-11.62-3.43-23.13-6.81-34.36-1.57-5.22-3.66-10.24-5.68-15.29-.18-.46-.23-1.23-.92-1.18-.91.06-.62.91-.73,1.48-.52,2.55-.12,5.04.45,7.54.46,2.03,1.3,4.06,1.09,6.12-.19,1.81.22,3.39.78,5.01,3.3,9.6,6.44,19.24,9.38,28.96.49,1.6.84,3.29,1.91,4.9ZM401,561.01c.53-.68.37-1.33.37-1.94-.05-6.97.06-13.94.28-20.91.05-1.47-.02-2.92,1.34-3.93.74-.55.48-1.22.19-1.94-1.63-4.06-4.96-6.59-8.23-9.16-.79-.62-1.35-.22-1.45.75-.22,2.16-.65,4.36-.19,6.49,1.01,4.68,1.67,9.45,2.81,14.09,1.23,5,2.63,9.97,3.86,14.98.14.56.06,1.3,1.03,1.57ZM324.19,548.18c4.67-12.36,10-23.9,17.01-34.6.06-.1-.05-.31-.09-.47-.51-.38-.82.01-1.15.3-5.71,4.95-10.66,10.58-14.65,17.01-1.95,3.15-4.01,6.25-5.22,9.8-.25.74-.76,1.48-.19,2.32,1.2,1.79,2.2,3.73,4.29,5.65ZM434.77,545.48c-.45,1.11-.11,1.79.05,2.48.76,3.26,1.64,6.5,2.32,9.78,2.03,9.78,3.71,19.6,3.78,29.63.02,3.62.2,3.75,3.69,2.89,2.09-.52,2.1-.52,1.77-2.79-.63-4.31-1.27-8.61-1.93-12.91-1.4-9.21-4.2-18-7.93-26.51-.38-.86-.65-1.86-1.74-2.56ZM324.81,505.85c1.05-.08,1.4-.89,1.94-1.46,5.68-5.99,11.53-11.79,18.42-16.41,1.28-.86,1.61-1.79,1.19-3.2-.42-1.39-.7-2.81-1.06-4.22-.4-1.57-.55-1.62-1.95-.83-3.28,1.86-6.06,4.28-8.25,7.36-3.74,5.25-6.91,10.85-9.9,16.55-.31.6-.9,1.2-.38,2.21ZM361.33,577.99c-1.41-5.17-2.55-9.79-3.26-14.51-.72-4.81.04-9.66-.13-14.44-.66-.07-.87.12-.99.36-3.26,6.74-5.1,13.94-6.66,21.22-.16.77.22,1.25.77,1.58,3.16,1.91,6.17,4.11,10.27,5.79ZM324.85,493.89c-1.15-.07-1.44.32-1.74.64-3.61,3.95-7.13,7.99-10.2,12.38-1.47,2.1-2.49,4.42-2.83,7-.19,1.45-.37,2.89-1.66,3.88-.47.36-.61.95-.47,1.48.67,2.42,1.4,4.83,3.38,7.3,1.36-4.06,2.57-7.7,3.81-11.33,1.26-3.7,2.9-7.24,4.43-10.83,1.51-3.54,3.65-6.77,5.28-10.53ZM379.24,565.14c-.45,3.26-.94,6.26-1.25,9.28-.27,2.68-.86,5.34-.38,8.09.2,1.13.59,1.72,1.69,2.12,2.98,1.08,6.02,1.96,9.07,2.79.53.14,1.09.37,1.49-.16.39-.52.05-1.04-.21-1.51-3.4-6.09-6.15-12.49-8.91-18.89-.25-.58-.44-1.2-1.5-1.72ZM332.81,512.69c1.07-.34,1.77-1.04,2.49-1.71,5.42-5.11,11.17-9.8,17.24-14.12q2.51-1.79-.21-3.49c-.23-.14-.46-.29-.68-.45q-2.81-1.95-5.45.18c-.63.51-1.25,1.07-1.78,1.68-4.25,4.97-8.27,10.1-11.35,15.91-.3.56-.74,1.05-.26,2ZM340.95,524.65c1.21-.09,1.78-.97,2.48-1.64,2.23-2.12,4.41-4.3,6.69-6.37,1.47-1.33,3.17-2.44,4.44-3.98,1.16-1.41,2.39-2.72,3.97-3.66.56-.33,1.04-.71,1.11-1.43.22-2.25.41-4.51.28-6.77-.02-.37-.08-.75-.49-.85-.38-.1-.68.15-.93.42-2.93,3.21-6.1,6.22-8.72,9.67-3.05,4.03-5.62,8.42-8.38,12.68-.33.5-.84,1-.45,1.94ZM486.15,473.87c.07-.3.25-.59.18-.79-1.4-4.25-3-8.34-7.42-10.48-1.13-.55-2.11-1.39-3.17-2.08-2.93-1.91-6.16-3.08-9.61-3.47-1.53-.17-3.14-.61-5.38.22,8.82,5.22,17.39,9.83,24.6,16.42.16.15.49.11.8.18ZM316.62,257.79c-.52.78-.15,1.18.18,1.62,4.18,5.68,9.06,10.85,12.43,17.12.27.5.67.93,1.3.61,2.06-1.06,4.1-2.15,6.39-3.36-6.77-5.68-13-11.49-20.3-15.99ZM300.02,258.41c-.24,1.01.25,1.33.6,1.73,3.18,3.59,6.52,7.03,10.08,10.26,3.68,3.34,7.38,6.71,10.16,10.91,1.1,1.67,1.11,1.67,2.79.37.21-.17.45-.31.66-.48,1.88-1.5,1.82-1.55.05-3.22-6.85-6.49-14.5-12.01-21.74-18.02-.74-.62-1.48-1.27-2.6-1.54ZM406.15,559.41c-.19.37-.33.51-.33.67-.04.72-.07,1.45-.07,2.17,0,8.38,1.47,16.57,3.31,24.71.89,3.96.95,3.94,4.87,4.26,1.55.12,1.74-.1,1.1-1.6-1.57-3.66-3.27-7.28-4.2-11.17-1.32-5.55-2.75-11.07-3.78-16.68-.13-.73.04-1.63-.9-2.35ZM373.02,571.25c.56-.26.52-.64.55-.99.23-2.7.5-5.39.68-8.09.38-5.86.72-11.72.78-17.59,0-.47.06-1.08-.44-1.11-1.05-.06-2.15-.04-3.17.19-.74.17-.48,1.04-.57,1.63-.66,4.24.1,8.48-.01,12.72-.11,4.11.9,8.07,1.42,12.09.06.44.18.88.76,1.14ZM394.19,557.62c-.54.97-.34,1.59-.28,2.22.99,9.09,3.46,17.94,4.2,27.07.19,2.3.3,2.29,2.72,2.68,3.42.55,3.56.39,2.48-2.84-2.69-8.06-5.73-16.02-7.57-24.35-.33-1.51-.33-3.19-1.55-4.77ZM491.29,500.5c-.85-2.58-2.62-4.34-4.36-5.92-8.5-7.75-17.9-14.16-28.69-18.34-1.77-.69-3.64-1.11-5.46-1.66-.54-.16-1.27-.27-1.45.29-.4,1.21-.18,2.51.14,3.7.28,1.04,1.32.77,2.1.67,5.13-.66,9.78.42,14.31,3.04,8.16,4.72,15.38,10.52,21.68,17.51.35.39.67.89,1.72.71ZM407.42,543.48c-.21,1.91,3.07,19.92,4.62,25.39.2.71.15,1.64,1.28,2.1.44-.92.39-1.8.22-2.65-.28-1.44-.27-2.91-.12-4.34.39-3.78.13-7.61.75-11.37.17-1.06-.12-1.94-1.15-2.52-1.99-1.11-3.13-2.94-4.11-4.92-.3-.6-.37-1.44-1.49-1.69ZM323.19,467.87c-2.82,1.22-5.3,2.65-7.37,4.87-2.01,2.16-3.62,4.79-6.51,6.01-.46.19-.77.53-.74,1.02.17,2.77.38,5.53.58,8.32.39-.09.64-.07.71-.17,4.32-6.22,7.76-13.07,13.1-18.58.24-.24.54-.51.23-1.48ZM418.71,570.16c-.93,1.02-.68,1.87-.69,2.65-.05,3.52.29,7.03.5,10.54.14,2.38.84,4.61,1.43,6.87.16.61.32,1.26,1.1,1.37.98.14,1.96.35,2.94.38,1.43.04,1.78-.41,1.41-1.83-.42-1.57-.94-3.11-1.46-4.65-1.7-5.03-3.42-10.05-5.23-15.35ZM428.36,570.47c-.77.11-.78.44-.76.67.71,6.47,1.13,12.97,2.28,19.38.21,1.16.73,1.8,1.98,1.69.45-.04.91,0,1.36,0,2.77-.04,2.88-.18,1.99-2.72-2.09-5.98-4.54-11.83-6.27-17.93-.13-.46-.22-1.12-.59-1.09ZM308.06,471.61c5.86-4.46,11.8-8.14,16.96-12.87-.54-.55-.87-.64-1.24-.49-5.45,2.17-10.79,4.6-16.38,6.43-.95.31-1.22.96-.91,1.91.49,1.52.96,3.06,1.57,5.01ZM309.14,248.66c8.83,2.64,14.19,9.41,21.04,13.94.63-.71.4-1.21.09-1.68-1.64-2.39-3.14-4.87-5.48-6.71-2.56-2.02-5-4.19-7.49-6.3-.34-.29-.67-.75-1.14-.66-2.09.39-4.35-.27-7.01,1.42ZM465.26,438.62c5.61,3.9,11.13,7.8,16.2,12.84.41-1.75.6-2.99.62-4.26.02-.97-.23-1.78-.96-2.44-4.46-4.07-9.76-6.07-15.87-6.14ZM459.64,444.61c-.2.89.03,1.43,1.06,1.36,1.26-.08,2.56.01,3.78-.26,1.98-.44,3.77,0,5.52.79,1.99.89,3.83,2.03,5.58,3.33.8.59,1.61,1.18,2.43,1.74.21.14.5.24.7-.06.15-.23.28-.51.08-.75-.35-.41-.71-.81-1.11-1.17-3.24-2.91-6.66-5.57-10.36-7.87-1.69-1.05-3.45-1.98-5.24-2.85-1.29-.62-1.78-.37-1.78.92,0,1.65-.24,3.24-.66,4.82ZM297.32,253.48c7.57,2.64,13.02,8.54,19.65,12.71.42-1.03-.18-1.32-.49-1.68-2.45-2.9-4.79-5.91-7.82-8.27-1.42-1.11-2.77-2.34-4.06-3.61-2.87-2.82-2.85-2.85-6.06-.6-.43.3-.99.49-1.23,1.45ZM481.84,459.96c.23-3.29.17-3.54-1.94-5.51-3-2.81-6.47-4.92-10.15-6.71-1.15-.56-2.4-.82-3.69-.63-.52.08-1.16.09-1.23.78-.06.55.48.69.86.92,5.22,3.1,10.14,6.63,14.72,10.63.32.27.66.64,1.43.52ZM303.12,460.55c3.63-3.14,7.26-6.28,11.08-9.59-1.34-.56-2.15.16-3.02.43-1.71.54-3.39,1.28-5.24.74q-2.24-.66-3.6,1.33c-2.5,3.66-2.47,3.95.78,7.1ZM316.16,290.87c2.38-2.36,2.5-2.85.94-4.67-3.78-4.42-8.1-8.24-13.01-11.38-.49-.31-.97-.92-2-.16,4.95,4.89,9.89,9.76,13.46,15.76.12.2.41.31.62.45ZM316.32,536c.59-.96,7.79-19.01,7.83-19.49-.28-.14-.56-.09-.73.13-3.35,4.47-6.83,8.85-8.46,14.37-.58,1.98-.35,3.49,1.35,4.99ZM332.41,257.78c.59,1.85,1.82,3.05,2.9,4.32,2.06,2.4,4.04,4.85,5.51,7.68,1.13,2.17,1.17,2.14,3.54,1.54.26-.07.51-.18.77-.26.6-.16,1.41-.13,1.55-.87.13-.69-.56-1.08-1.02-1.49-3.8-3.46-7.61-6.92-11.42-10.37-.39-.35-.73-.82-1.84-.55ZM437.55,540.31c.07-.15.24-.34.2-.45-2.37-6.28-6.01-11.99-8.19-18.36-.14-.42-.56-.64-1.11-.48-1.79.52-2.28,1.79-1.34,3.4,2.99,5.08,6.69,9.73,9.24,15.08.22.46.46,1.03,1.19.81ZM348.58,530.26c.17.02.41.12.49.05,2.63-2.34,5.39-4.51,8.4-6.35.5-.31.81-.69.82-1.29.04-1.62.12-3.25.11-4.87,0-.58-.51-.71-.97-.46-.31.16-.58.44-.79.73-2.61,3.67-5.48,7.17-7.9,10.98-.24.38-.52.75-.17,1.21ZM328.79,247.44c5.02,3.34,9.69,7.03,14.11,11.12.2-1.32-.54-2.15-1.13-3-1.57-2.25-3.84-3.87-5.56-5.97-1.97-2.4-4.5-2.64-7.41-2.15ZM360.74,269.73c-2.53-3.39-10.49-10.06-12.46-10.59-.27.4.02.68.23.94,2.26,2.82,4.61,5.58,6.33,8.8.27.51.69.85,1.29.85,1.41.01,2.82,0,4.61,0ZM453.75,454.5c.8.7,1.24.41,1.62.25,2.99-1.32,6.1-1.42,9.28-1.02.44.06.88.21,1.32.23.23.01.56-.09.69-.26.28-.35.05-.7-.26-.9-2.28-1.46-4.68-2.7-7.28-3.49-.71-.21-1.28.04-1.62.63-.97,1.71-2.4,3.06-3.75,4.56ZM362.67,554.91c0,2.37-.04,4.09.02,5.81.02.65-.34,1.75.62,1.77.99.03.6-1.08.72-1.73.03-.18,0-.36.01-.54.48-5.76.16-11.59,1.29-17.31.08-.43.08-.9.01-1.33-.06-.38-.41-.62-.77-.68-.4-.06-.67.2-.75.6-.12.62-.25,1.24-.33,1.87-.52,4.04-1.06,8.08-.82,11.53ZM293.12,270.79c-.43,2.35.37,4.2.77,6.09.08.38.44.61.83.57,2.26-.24,3.62,1.41,5.26,2.47,1.01.65,1.81,1.68,3.25,1.97-.83-2.21-6.47-8.4-10.1-11.11ZM302.24,267.73c-1.9-2.27-3.67-4.52-5.62-6.62-.8-.87-1.59-2.62-2.83-2.09-1.42.61-.83,2.57-1.12,3.93-.16.77.27,1.37,1.13,1.58,2.41.59,4.45,1.96,6.56,3.19.44.25.87.73,1.88.02ZM422.08,564.23c.46-.07.54-.42.54-.79.01-3.9-.52-7.76-.84-11.64-.06-.69-.39-1.3-1.21-1.07-.74.2-1.69.3-1.79,1.36-.04.44.04.91.15,1.34.87,3.43,1.75,6.85,2.63,10.27.08.3.26.44.52.52ZM360.2,263.25c-1.7-4.11-5.15-6.63-8.22-9.48-.7-.65-1.55-1.2-3.04-.94,3.15,4.43,7.23,7.4,11.26,10.41ZM479.25,437.05c-.19-.36-.25-.66-.44-.82-4.65-4-10.02-6.48-16.06-7.49-.26-.04-.54-.05-.8-.03-.42.03-.63.36-.71.72-.11.49.09.92.59,1.06.43.11.9.14,1.34.12,2.53-.1,4.82.71,7.04,1.8,2.29,1.11,4.44,2.46,6.59,3.81.65.41,1.18,1.18,2.44.84ZM470.02,436.41c-2.13-2.32-4.84-3.06-7.7-3.46-.81-.11-1.15.24-1.23,1.01-.07.71-.19,1.42-.29,2.13-.11.75.1,1.3.95,1.2,2.72-.35,5.46-.53,8.27-.88ZM318.52,454.44c1,.58,1.77-.12,2.58-.38,1.54-.5,3.02-1.16,4.57-1.65,2.14-.67,2.54-1.34,1.95-3.47-.3-1.09-.88-1.3-1.75-.64-2.38,1.79-4.74,3.59-7.09,5.42-.17.13-.17.48-.25.73ZM311.28,496.76c-1.05.29-1.31,1.38-2.23,1.64-1.57.45-1.93,1.69-2.01,3.15-.11,2.01-.7,3.9-1.6,5.69-.24.48-.51.96-.69,1.47-.22.62-.3,1.46.3,1.72.85.36.95-.59,1.15-1.13,1.31-3.46,2.93-6.79,4.56-10.11.34-.68,1.02-1.33.51-2.43ZM371.74,271.98c-.89-2.36-5.55-7.29-7.89-8.45-.38.55-.07,1.03.18,1.5.69,1.26,1.6,2.44,2.06,3.78.98,2.81,3.27,2.87,5.65,3.17ZM448.58,577.32c.87-.37.75-.87.76-1.28.2-4.78-1.2-9.28-2.54-13.78-.1-.32-.25-.74-.7-.67-.65.1-.56.64-.44,1.04.82,2.87,1.37,5.8,1.87,8.74.33,1.94.39,3.94,1.06,5.94ZM324.94,439.63c4.09.86,5.15.43,6.81-2.28.47-.78.31-1.46-.14-1.99-.6-.71-1.27-.32-1.86.2-1.49,1.29-3,2.55-4.8,4.07ZM327.91,471.13c.11.18.21.36.32.54,2.11-.94,4.22-1.87,6.33-2.81.79-.35,1.19-.89.59-1.69-.52-.71-1.02-1.67-2.15-.81-1.87,1.42-3.68,2.89-5.09,4.78ZM356.79,536.62c1.35-.16,2.09-.99,2.94-1.51.59-.36.36-1.87-.22-2.38-.33-.29-.74-.24-.93.05-.77,1.12-1.75,2.16-1.79,3.84Z"/>
  <path class="cls-1" d="M343.78,607.23c.71-.92.52-2.04.7-3.09.35-2.07,1.01-2.56,3.09-2.43.72.04,1.44,0,2.24,0,.81,1.74.3,3.76,1.15,5.46,1.11.02.79-.88.9-1.37.32-1.41.55-2.85.76-4.29.17-1.19.78-1.65,2-1.72,2.17-.12,2.5.03,2.79,2.22.31,2.34.57,4.71.3,7.06-.26,2.25.46,3.69,2.69,4.37.1-.23.3-.47.31-.71.04-4.18.18-8.36-.08-12.53-.09-1.39-.26-2.68-1.83-3.32-.74-.3-1.47-.88-.95-1.91.35-.7,2.48-1.82,2.98-1.44,1.66,1.28,3.78,1.1,5.6,1.86.81.34,1.11.57,1.06,1.5-.36,6.96-.2,13.96-1.53,20.85-.3,1.56-.05,1.7,1.56,1.52q4.34-.5,4.75-4.69c.23-2.34.44-4.69.63-7.04.13-1.55-.27-1.83-1.66-1.17-.56.27-1.07.64-1.9,1.15-.11-1.57-.77-2.75-.7-4.18.05-1.03.5-1.32,1.3-1.28,2.56.11,4.97.92,7.39,1.67,1,.31.83,1.29.86,2.09.11,2.81.19,5.62.29,8.43.07,1.98.14,2.03,2.04,1.62,2.27-.5,3.02-.03,3.09,2.29.08,2.54.1,5.08-.08,7.62-.25,3.61-.55,7.2-.23,10.86.32,3.7.14,7.45.07,11.17-.11,6.64.27,13.24,1.14,19.81.36,2.72-.25,3.86-2.65,4.99-.81.38-1.7.66-2.58.83-5.86,1.17-11.64,2.73-17.59,3.5-2.14.27-4.15-.21-6.2-.4-3.98-.38-7.86-1.33-11.67-2.55-4.66-1.49-8.39-4.15-11.11-8.29-2.3-3.5-4.35-7.11-5.84-11.03-1.01-2.65-.94-5.27-.22-7.99,2.39-9.04,4.24-18.2,5.47-27.48.21-1.62.5-3.23.8-4.83.31-1.69.58-3.35.36-5.11-.3-2.45.9-3.72,3.3-4.1,2.05-.33,3.92-.32,5.47,1.39.37.42.99.81,1.73.7ZM378.68,644.37c0-1.27,0-2.54,0-3.81,0-.3-.22-.54-.49-.51-.23.02-.59.21-.63.38-.19.79-.34,1.6-.41,2.41-.2,2.26-.25,4.53-.57,6.77-.32,2.22-.92,2.72-3.12,3.12-1.88.34-3.72.77-5.49,1.51-5.14,2.15-10.25,1.62-15.38-.11-7.59-2.57-12.26-7.78-14.13-15.52-.86-3.57-.72-7.22-.42-10.84.27-3.26-.14-6.54.34-9.79.05-.34-.06-.74-.51-.8-.43-.06-.68.22-.74.61-.22,1.34-.43,2.69-.61,4.04-1.17,8.91-2.96,17.71-5.26,26.39-.47,1.78-.39,3.38.22,5.03,1.11,3,2.76,5.71,4.36,8.45,2.74,4.7,6.89,7.33,12.12,8.45.98.21,1.93.54,2.9.72,3.74.69,7.52,1.76,11.3,1.19,5.28-.8,10.48-2.09,15.72-3.16,1.28-.26,1.86-.95,1.69-2.28-.21-1.62-.38-3.24-.54-4.86-.57-5.79-.82-11.58-.35-17.38ZM361.35,650.93c3.13-.23,6.33-1.88,9.73-2.76.75-.19.82-.85.86-1.52.3-6,1.72-11.8,3.14-17.61.41-1.67.81-3.35,1.12-5.04.24-1.34-.08-1.6-1.46-1.42-.45.06-.88.21-1.33.29-2.75.53-5.47,1.34-8.28,1.46-6.94.28-13.74-.53-20.29-2.97-1.78-.66-2.01-.52-2.06,1.42-.07,3.26-.13,6.52-.22,9.78-.09,3.36.44,6.72,2.3,9.65,3.72,5.86,9.34,8.29,16.49,8.72Z"/>
  <path class="cls-1" d="M48.2,770.08c2.14-3.4,4.54-6.56,6.5-10.03,4.73-8.37,7.11-17.44,8.05-26.92.82-8.3.19-16.49-2.7-24.4-2.7-7.36-7.52-13.19-13.3-18.3-4.53-4.01-9.77-6.89-15.29-9.28-1.41-.61-2.87-1.16-4.45-1.01-1.79.17-3.3.91-4.41,2.38-.27.36-.61.73-1.12.43-.42-.25-.62-.73-.58-1.17.16-1.74,1.05-3.07,2.52-3.98,2.8-1.73,5.79-2.04,8.88-.96,9.88,3.45,18.38,8.89,25.09,17.07,7.43,9.05,10.7,19.42,10.59,30.99,0,.55-.02,1.09.03,1.63.08.91.45,1.25,1.44.91,1.11-.38,2.32-.46,3.43-.83,11.38-3.73,21.27-.83,30.05,6.79,10.72,9.3,17.14,20.97,19.08,35.05.96,6.98.48,13.93-.55,20.87-.09.63-.23,1.25-.31,1.88-.28,2.12-.28,2.11,1.86,2.08,1.71-.03,3.17.66,4.52,1.63,2.68,1.94,4.79,4.42,6.75,7.05,4.3,5.77,6.86,12.34,8.77,19.2,1.03,3.71.96,3.57,4.14,1.53,5.23-3.35,10.72-3.49,16.65.13,4.86,2.97,8.21,7.37,10.94,12.24,4.53,8.09,6.44,16.91,6.86,26.08.08,1.69.68,3.39-.09,5.62-.39-1.28-.7-2.14-.92-3.02-1.65-6.52-3.3-13.03-6.29-19.1-2.91-5.89-6.42-11.32-11.32-15.83-4.44-4.09-10.3-4.45-15.35-1.63-2.78,1.55-2.84,1.5-2.39,4.79.45,3.26.69,6.49-.25,9.72-.62,2.13-1.6,4.03-3.32,5.58,2.78-6.97.7-13.7-.98-20.39-1.93-7.68-4.47-15.14-8.88-21.82-1.6-2.43-3.32-4.77-5.47-6.76-.66-.61-1.37-1.22-2.14-1.66-2.43-1.38-3.96-.71-4.67,1.94-2.07,7.7-5.12,14.95-10.42,21.03-3.39,3.89-7.63,6.36-12.85,6.96-.5.06-1.04.29-1.5-.2.33-.63.99-.72,1.55-.95,5.31-2.1,9.15-5.83,11.76-10.83,5.26-10.04,7.86-20.81,8.71-32.08.5-6.57.24-13.04-1.38-19.45-2.06-8.19-6.11-15.27-11.69-21.56-2.06-2.32-4.34-4.37-6.73-6.32-6.49-5.29-13.99-6.62-22.04-5.44-1.86.27-3.75-.04-5.61.7-1.14.45-1.56.96-1.65,2.07-.68,7.7-3.04,14.89-6.57,21.73-3.19,6.19-7.27,11.66-12.93,15.83Z"/>
  <path class="cls-1" d="M153.2,583.52c-2.37-3.33-3.97-6.58-5.72-9.73-2.17-3.9-4.63-7.56-7.57-10.94-4.44-5.1-9.95-8.05-16.63-8.87-1.98-.24-3.96-.54-5.94-.65-1.76-.1-1.89.05-1.93,1.8-.11,6-.74,11.95-1.93,17.82-2.92,14.35-7.02,28.35-12.75,41.85-2.69,6.35-5.44,12.67-8.83,18.69-.97,1.73-2.03,3.41-3.48,4.92,1.05-2.84,2.14-5.66,3.13-8.52,6.41-18.52,12.35-37.19,16.31-56.41,1.15-5.6,1.89-11.27,1.8-17.02-.02-.98.13-1.94-.91-2.67-.78-.55-.62-1.55-.1-2.22.96-1.22.76-2.54.61-3.9-1.04-9.31-4.02-18.01-8.16-26.36-6.29-12.69-14.49-24.09-23.59-34.86-4.34-5.14-9.75-8.93-15.87-11.72-7.77-3.54-15.64-6.8-23.98-8.77-2.74-.65-5.52-1.02-8.35-1.01-5.72.01-11.43-.04-17.13.57-2.17.23-4.34.46-6.37,1.31-2.88,1.21-3.4,2.19-2.86,5.28.06.34.37.64.13,1.01-2.47-1.53-2.94-5.12-.99-7.34,1.31-1.5,3.06-2.28,4.89-2.82,1.64-.49,3.34-.83,5.04-1.12,5.27-.91,10.61-1.26,15.94-1.55,4.54-.25,9.07.41,13.46,1.56,8.62,2.26,16.89,5.49,24.94,9.32,8.52,4.06,14.86,10.54,20.51,17.88,6.94,9,13.47,18.27,18.62,28.42,4.67,9.21,8.14,18.81,9.34,29.14.29,2.48.31,2.52,2.79,2.51,3.27-.02,6.51.24,9.74.8,7.72,1.35,13.5,5.57,17.68,12.03,3.03,4.68,4.92,9.9,6.55,15.2.6,1.93,1.52,3.81,1.59,6.37Z"/>
  <path class="cls-1" d="M117.06,66.95c-1.03-2.07-.34-3.43,1.14-5.04,4.62-5.04,5.44-11.07,3.73-17.52-.53-2.01-1.23-3.99-1.97-5.94-1.15-3.04-3.05-5.56-5.71-7.46-1.19-.85-2.46-1.51-3.95-1.72-4.26-.6-8.49-.6-12.67.51-3.07.81-6.15,1.57-9.2,2.44-3.81,1.09-7.21,3.09-10.21,5.57-2.76,2.27-3.63,5.8-4.47,9.14-.53,2.1-.76,4.29-1.15,6.43-.36,1.96-.93,3.85-1.94,5.66-.72-.67-1.12-1.29-1.12-2.34,0-6.11-5.96-10.58-10.33-11.51-3.74-.79-7.3-.21-10.45,1.78-6.3,3.99-11.52,9.1-15.08,15.74-2.46,4.6-3.39,9.54-3.05,14.73.17,2.61,1.59,4.75,2.7,7.19-2.44-2.32-3.5-4.67-4.05-8.78-.32-2.38-2.44-3.64-4.81-2.99-1.34.36-1.76,1.12-1.55,2.4.28,1.65,1.03,3.1,1.98,4.44,1.55,2.21,3.16,4.39,5.55,6.3-2.64.55-4.26-.82-5.76-2.15-2.13-1.88-3.74-4.2-4.62-6.94-.6-1.88-.81-3.88.7-5.39,1.57-1.57,3.54-2.02,5.78-1.35,2.59.77,2.67.71,3.15-1.95,1.15-6.4,4.42-11.67,8.73-16.35,2.34-2.53,4.77-4.99,7.75-6.81,3.99-2.43,8.2-3.96,12.92-2.65,4.86,1.35,8.73,3.96,10.56,8.94.12.32.37.6.58.89.03.04.16,0,.56,0,.14-1.05.4-2.16.42-3.28.04-3.71,1.2-7.14,2.57-10.51.77-1.89,2.19-3.28,3.9-4.42,4.32-2.89,8.8-5.26,13.95-6.52,4.58-1.11,9.03-2.51,13.83-2.63,9.68-.25,15.62,4.87,18.49,13.07,1.31,3.74,2.56,7.5,2.73,11.45,1.29.23,1.95-.54,2.75-.88,1.59-.67,3.11-1.49,4.73-2.09,8.11-2.99,18.36,2.14,21.39,7.81.17.32.39.62.57.93.51.86,1.07,1.17,1.9.31.77-.79,1.79-1.21,2.74-1.75,3.62-2.07,7.17-1.41,10.65.29,1.23.6,2.2,1.59,2.78,2.89.42.95.98,1.32,2.14,1.02,2.02-.53,3.77.08,5.01,1.85.36.52.64,1.09,1.43,1.06,1.38-.05,1.31.71.73,1.54-1.8,2.6-3.83,4.9-7.41,4.72-1.07-.05-1.68.52-2.09,1.42-.6,1.34-1.47,2.51-2.42,3.61-1.72,2-3.66,3.54-6.55,3.17-1.15-.15-1.76.19-1.73,1.65.13,5.93-3.1,9.88-8.01,12.6-3.54,1.96-7.47,2.8-11.47,3.13-1.87.16-3.73.35-5.66.13-2.35-.26-4.45-.97-6.27-2.36-.97-.75-1.63-.74-2.6-.07-1.72,1.18-3.49,2.25-5.7,2.37-2.49.14-4.63-.51-6.49-2.2-1.43-1.29-1.49-1.26-2.57.43-2.18,3.39-4.57,6.54-8.23,8.5-2.59,1.38-5.38,2.23-8.25,2.65-6.46.94-12.86.76-18.97-1.91-2.7-1.18-5.05-2.81-6.45-5.56.93-.82,1.65-.12,2.24.25,4.59,2.88,9.64,4.17,14.99,4.27,6.98.13,13.62-1.13,18.95-6.04,3.14-2.89,5.56-6.45,8.1-9.88.54-.72.97-1.53,1.98-2.29-.44,1.98-1.09,3.58-1.8,5.18-.86,1.91-.66,2.4,1.1,3.59,1.93,1.31,3.99,1.6,6.22.99,2.61-.72,4.72-2.26,6.81-3.88.56-.43.96-1.08,1.66-1.3.35.36.2.7.05,1.03-.95,2.03-.89,2.26,1.16,2.7,2.85.62,5.72.72,8.64.3,3.62-.52,7.08-1.51,10.45-2.89,3.84-1.57,6.22-4.61,8.1-8.11.4-.74.74-1.56.49-2.59-.28-1.13.57-1.74,1.68-1.83.63-.05,1.27-.02,1.91.03,1.27.12,2.34-.34,3.19-1.22,1.58-1.62,3.09-3.32,4.68-4.94.82-.84.54-1.6-.04-2.37.49-.33.96-.06,1.29.12,1.85,1.01,3.29.2,4.67-.94.73-.6,1.36-1.29.72-2.31-.63-1-1.28-2.11-2.71-1.88-.87.14-1.74.37-2.23,1.34-.38.75-1.05,1.31-2.01.87-.93-.43-.92-1.25-.77-2.1.48-2.86-.14-4.21-2.67-5.39-3.57-1.67-7.06-1.27-10.42.62-1,.56-1.8,1.35-1.35,2.64,1.85,5.32.06,10.2-1.86,15.03-.73,1.85-1.8,3.56-2.75,5.32-2.06,3.81-5.4,5.7-9.85,6.45,1.21-1.65,2.74-2.61,3.86-3.98,3.57-4.36,5.9-9.28,7.47-14.67,1.96-6.75-2.39-13.06-6.36-15.53-5.19-3.22-10.59-3.7-16.42-1.67-3.41,1.18-5.73,2.57-6.3,6.62-.58,4.15-3.12,7.49-6.6,9.96-.5.36-.98.84-1.84.79Z"/>
  <path class="cls-1" d="M346.32,119.57c-.32-1.58-.97-2.59-1.89-3.51-7.92-7.85-10.06-17.31-7.72-28.01,1.54-7.06,5.91-12.1,11.43-16.38,7.88-6.1,16.98-9.24,26.59-11.2,4.59-.94,9.18-.85,13.8-.16,2.41.36,4.47,1.42,6.48,2.57.91-.48.92-1.39,1.15-2.13,2.24-7.45,6.77-13.19,13.19-17.43,4.92-3.25,10-6.26,15.54-8.38,1.43-.55,2.91-1,4.4-1.4,3.19-.87,5.9-.08,8.05,2.49.23.27.52.49.77.73.3-.16.56-.26.76-.42,8.35-6.64,18.19-9.11,28.51-10.35,5.61-.68,11.24-.45,16.86-.51,2.19-.02,4.36.37,6.45.92,4.92,1.28,9.67,3.09,14.35,5.09,3.99,1.7,6.6,4.7,8.11,8.71.57,1.52,1.08,3.06,1.71,4.87,1.85-1.24,3.62-2.23,5.66-2.69,2.28-.52,4.49-.47,6.7.24,4.59,1.46,8.53,3.97,11.86,7.45,3.98,4.16,7.32,8.77,9.74,14.02.27.58.51,1.16.72,1.76.08.23.01.52.01.98-2.87-3.56-5.61-7-8.4-10.39-2.66-3.24-5.52-6.27-9.05-8.6-2.13-1.4-4.37-2.57-6.86-3.25-2.95-.8-5.71-.36-8.44.93-1.29.61-1.7,1.47-1.49,2.8.37,2.43.39,4.86.14,7.31-.99.09-1.02-.67-1.22-1.19-1.05-2.8-2.07-5.62-3.1-8.43-.19-.51-.41-1.01-.58-1.52-1.77-5.37-5.25-8.94-10.71-10.69-4.31-1.38-8.38-3.52-12.92-4.15-4.85-.67-9.71-.99-14.63-.47-3.14.33-6.33.21-9.49.67-9.8,1.44-18.81,4.66-26.31,11.42-1.29,1.16-2.5,2.36-3.55,3.74-.88,1.16-1.76,2.29-1.57,4.11-1.45-1.01-1.16-2.03-.73-3.05.78-1.86,1.88-3.51,3.23-5.01.42-.47.94-.87,1.33-1.36.59-.73,1.92-1.21,1.42-2.38-.48-1.15-1.74-1.59-2.91-1.78-2.23-.38-4.32.23-6.33,1.15-5.88,2.7-11.4,5.99-16.48,10.02-3.3,2.62-6.28,5.54-8.22,9.33-4.69,9.16-5.34,18.34.14,27.47,3.08,5.13,6.24,10.23,8.49,15.81.3.74.72,1.43.68,2.46-3.57-3.98-6.58-8.16-9.62-12.31-1.34-1.83-2.65-3.68-3.92-5.56-3.5-5.16-4.03-10.96-3.56-16.96q.2-2.5-2.03-3.42c-1.36-.56-2.77-.87-4.22-.96-7.44-.49-14.64.61-21.65,3.18-7.6,2.79-14.43,6.69-20.21,12.46-4.44,4.43-6.31,9.82-6.75,15.9-.5,6.82,1.6,12.88,5.31,18.49.75,1.14,1.52,2.27,1.86,3.61.29,1.1.36,2.16-.88,3.38Z"/>
  <path class="cls-1" d="M471,780.34c1.49-.57,1.63-1.62,1.54-2.76-.29-3.43-.45-6.88-.91-10.28-1.1-8.28-1.43-16.6-1.85-24.93-.39-7.69-1.06-15.36-1.54-23.04-.27-4.34-.42-8.69-.61-13.04-.36-7.96-.74-15.93-1.06-23.89-.15-3.81-.07-7.61-.26-11.42-.28-5.43-.13-10.89-.34-16.32-.47-11.95-.49-23.93-2.68-35.75-.18-.98-.34-1.97-.57-2.93-.16-.67-.24-1.3.52-1.6.66-.27,1.27,0,1.7.52.6.71.83,1.61,1.1,2.47,1.51,4.88,2.21,9.91,2.66,14.97.62,6.95.95,13.91,1.15,20.89.25,8.79.63,17.57.82,26.37.19,8.97.63,17.93,1.07,26.89.39,7.87.83,15.74,1.54,23.59.37,4.06.49,8.14.61,12.22.25,8.97.96,17.91,2,26.82.32,2.79.51,5.59.73,8.39.06.72.02,1.44.37,2.12.46.89.48,1.78-.4,2.44-.81.61-1.71.56-2.57.1-.87-.47-1.71-1.02-3.02-1.82Z"/>
  <path class="cls-1" d="M362.77,149.16c.44,4.22,2.89,6.72,6.14,8.28,10.2,4.9,20.59,5.19,31.03.63.24-.1.42-.31.79-.59-.39-.98-1.33-1.41-2.06-2-5.3-4.26-9.73-9.29-12.82-15.35-4.99-9.78-5.54-19.97-2.18-30.36.92-2.84,2.08-5.62,3.34-8.32,2.22-4.76,5.78-8.34,10.42-10.76,2.43-1.27,3.54-.81,5.15,2-1.26-.36-2.17-1.54-3.38-.71-.89.62-1.8,1.2-2.64,1.91-5.38,4.55-8.07,10.63-9.79,17.24-4.03,15.55.65,28.47,12.27,39.05,6.59,6,14.21,10.18,23.07,12.02,9.79,2.03,18.91.31,27.62-4.31,2.02-1.07,3.6-2.72,5.24-4.26.8.64.13,1.01-.12,1.38-2.73,4.06-6.61,6.67-11.01,8.58-12.94,5.61-25.41,3.79-37.35-2.86-3.09-1.72-5.28-2.38-8.72-.51-8.75,4.74-18,4.21-27.16.92-2.59-.93-4.83-2.47-6.7-4.55-1.13-1.25-1.81-2.7-2.2-4.31-.28-1.15.06-2.06,1.05-3.12Z"/>
  <path class="cls-1" d="M487.07,87.52c-2.41-2.71-1.91-5.41-.34-8.11,1.83-3.16,4.6-5.36,7.64-7.21,8.45-5.17,17.69-7.34,27.55-6.9,3.2.14,6.3.99,9.16,2.38,4.82,2.35,9.33,5.26,13.56,8.55,3.59,2.79,5.82,6.71,7.71,10.75,3.9,8.34,5.99,17.1,5.5,26.36-.52,9.86-3.72,18.51-10.84,25.68-6,6.03-12.92,10.08-21.33,11.59,1.65-.88,3.32-1.71,4.93-2.64,8.76-5.05,15.88-11.7,20.45-20.87,1.81-3.63,2.56-7.56,2.92-11.54,1.04-11.52-1.76-22.11-7.96-31.85-1.54-2.41-3.48-4.4-5.88-5.94-3.06-1.95-6.09-3.95-9.22-5.77-3.35-1.94-6.99-2.83-10.9-2.96-8.54-.29-16.58,1.37-24.05,5.6-1.74.98-3.44,2.02-4.96,3.34-2.88,2.5-5.03,5.31-3.93,9.54Z"/>
  <path class="cls-1" d="M655.85,265.48c-4.11,2.92-8.51,5.1-13.75,4.99-5.12-.1-7.85-2.12-9.55-6.93-.95-2.7-1.01-2.9-3.92-2.41-3.97.67-7.98.33-11.94.69-7.16.65-14.33.27-21.49.53-4.06.15-8.15.39-12.16,1.16-1.18.23-2.34.22-3.52.24-7.45.11-14.91-.36-22.33.23-5.99.48-11.97.17-17.96.32-1.15.03-2.39-.29-3.26.88-.22.3-.59.42-.93.1-.3-.29-.25-.65-.15-1.01.36-1.33,1.47-1.78,2.62-2.12,2.54-.76,5.2-.85,7.8-.9,11.7-.19,23.38-1.09,35.1-.84,3.87.08,7.71-1.01,11.61-1.19,1.08-.05,2.16-.21,3.25-.18,9.72.3,19.4-.51,29.11-.79,2.52-.07,5.01-.74,7.53-.99,2.38-.24,2.92.17,3.34,2.5,1.43,7.93,4.98,8.21,10.61,7.96,2.56-.11,4.99-.89,7.37-1.81.82-.32,1.64-.65,2.45-.98.05.18.11.37.16.55Z"/>
  <path class="cls-1" d="M603.92,90.23c1.62-1.42,3.4-2.38,5.47-2.9,4.74-1.19,8.81-.02,12.2,3.36,2.81,2.81,4.78,6.15,5.51,10.12.06.35.16.69.26,1.02.02.07.13.11.33.27,1.29-.35,2.53-1.12,3.95-1.4,6.69-1.33,14.54,4.28,15.33,11.04.5,4.3-2.07,8.12-7.02,10.09.92-1.37,1.77-2.48,2.47-3.68,2.34-3.98,2.06-7.18-.83-10.8-3.06-3.84-8.83-6.61-14.73-3-.13.08-.35.04-.55.05-1.35-4.72-3.86-8.7-7.41-12.11-3.5-3.36-8.52-3.39-12.43-1.72-1.84.78-2.13,1.6-1.77,3.44.41,2.13.65,4.32-1.24,6.01-2.94-11.6-9.56-20.44-19.47-26.88-1.44-.94-3.01-1.68-4.5-2.54-6.32-3.62-12.72-2.97-19.07-.2-1.72.75-3.8,1.23-4.65,3.38-.2.5-.8.2-1.02-.27-.32-.7.12-1.21.52-1.71.99-1.22,2.26-2.13,3.61-2.87,6.56-3.61,13.31-5.03,20.57-1.96,9.49,4,17.22,9.96,22.29,19.09.74,1.34,1.1,2.87,2.18,4.17Z"/>
  <path class="cls-1" d="M.16,596.23c2.52-1.8,5.2-3.28,7.53-5.24,9.18-7.72,14.35-17.64,15.82-29.44,1.22-9.77-2.21-18.17-8.41-25.57-1.81-2.15-3.7-4.24-5.91-6-.52-.41-.92-1.14-1.85-.68-1.44.71-1.13-.71-1.35-1.29-.31-.85-.1-1.67.94-1.89,1.41-.29,2.66.2,3.87.93,4.49,2.73,8.11,6.37,11.14,10.63,4.55,6.42,6.91,13.62,6.7,21.43-.23,8.33-2.94,16.01-7.65,22.92-4.53,6.64-10.53,11.43-18.17,14.06-.68.24-1.39.41-2.09.57-.1.02-.25-.19-.56-.43Z"/>
  <path class="cls-1" d="M452.15,660.33c-.13,5.8-2.03,10.01-6.44,12.86-6.81,4.4-15.08.86-16.47-7.14-.98-5.64.28-10.99,2.75-16.07,2.65-5.43,8.3-5.55,12.54-2.97,5.11,3.12,7.25,8.12,7.62,13.32ZM440.3,654.25c-.28-.92-.52-1.78-.8-2.63-.23-.73-.81-.8-1.23-.33-1.13,1.27-2.67,2.22-3.27,3.9-1.12,3.12-1.49,6.37-1.08,9.65.48,3.83,3.55,5.99,7.15,5.25,1.8-.37,3.02-1.6,4.14-2.91,3.68-4.29,2.35-10.73-1.18-14.67-1.45-1.62-1.69-1.55-2.64.54-.18.4-.26.88-1.09,1.21Z"/>
<path class="cls-1" d="M610.08,249.66c-1.81-3.8-2.35-7.78-1.92-11.91.28-2.73.02-3.18-2.58-3.81-6.88-1.66-12.45.53-16.94,5.82-.16-1.94.66-3.91,2.55-5.36,4.68-3.62,10.09-5.06,15.92-1.75,1.52.86,1.62.85,2.06-.67,3.05-10.64,10.36-17.37,19.97-22.11,4.78-2.36,9.62-4.25,15.08-3.92,4.64.29,9.19,1,13.56,2.63,1.27.47,2.6.81,3.87,1.3.66.25,1.54.68,1.26,1.5-.29.86-1.42.97-2.08.7-1.79-.73-3.7-.79-5.52-1.29-4.87-1.35-9.79-1.74-14.8-1-.8.12-1.62.26-2.38.52-6.79,2.33-12.87,5.86-17.91,11.01-4.44,4.53-7.03,10.05-8.36,16.22-.86,3.98-1.15,8.03-1.76,12.11Z"/>
<path class="cls-1" d="M588.85,120.56c2.44,1.38,2.87,3.6,2.57,6.04-.44,3.56-1.85,6.79-3.5,9.94-1.07,2.04-.99,2.18,1.15,3.17,3.51,1.63,7.25,1.6,10.95,1.25,10.71-1.04,19.06-6.42,25.91-14.44.64-.75,1.2-1.6,1.72-2.44.51-.82.92-1.71,1.63-3.03.3,3.31-.91,5.69-2.42,7.7-6.68,8.92-15.45,14.34-26.75,15.25-2.44.2-4.86.29-7.28-.18-1.97-.38-3.85-1.01-5.6-2.03-1.94-1.13-1.95-1.11-3.42.69-3.92,4.81-8.69,8.5-14.63,10.44-5.07,1.66-10.14,1.81-15.04-.75-.4-.21-.85-.35-1.21-.61-.78-.57-.43-1.08.19-1.47.68-.42,1.42-.26,2.12-.07,8.69,2.48,15.82-.49,22.13-6.31,1.73-1.6,3.33-3.34,4.74-5.24.43-.58,1.05-1.12,1-1.88-.06-1.01-.1-1.78,1.28-1.78.54,0,.75-.73,1.03-1.18,1.7-2.72,2.77-5.69,3.57-8.78.37-1.42.33-2.84-.16-4.29Z"/>
  <path class="cls-1" d="M451.01,702.62c-.12,5.97-1.27,11.12-4.1,15.82-.85,1.4-1.84,2.65-3.21,3.64-3.28,2.37-6.29,1.33-8.5-1.08-3.19-3.48-4.74-7.73-4.32-12.48.4-4.42,1.24-8.77,2.88-12.94,2.19-5.57,7.43-6.92,12.25-3.31,3.73,2.79,4.95,6.52,5,10.36ZM446.65,703.08c.01-3.47-.67-6.36-4.58-7.68-2.83-.95-3.22-1.03-4.37,1.81-1.58,3.9-2.26,7.99-2.5,12.16-.12,2.12.29,4.15,1.32,6.02.82,1.5,1.67,3.46,3.46,3.5,1.94.04,2.92-1.92,3.77-3.52,2.04-3.83,2.89-7.97,2.89-12.3Z"/>
  <path class="cls-1" d="M442.31,607.86c.18.02.36.08.54.07,4.97-.52,7.19,2.6,8.7,6.61,2.29,6.11.52,12.59-4.46,16.35-3.29,2.48-6.85,2.89-10.43.83-8.61-4.94-8.19-16.55-3.11-21.08,2.44-2.17,4.9-3.05,8.77-2.78ZM434.64,619.69c.01,1.19.32,2.34.7,3.45.92,2.68,3.73,5.18,5.89,5,2.92-.24,4.67-2.19,5.84-4.68.37-.8.92-1.71.62-2.6-.64-1.87-1.45-3.69-2.22-5.51-.09-.21-.52-.52-.6-.47-1.65,1.01-2.02-.4-2.41-1.38-.49-1.24-1.33-1.31-2.41-1.08-3.14.67-5.41,3.72-5.41,7.27Z"/>
  <path class="cls-1" d="M444.13,165.69c1.31.97,2.19,2.34,3.22,3.57,3.59,4.32,8.11,6.72,13.71,7.47,4.51.6,8.83.17,13.12-1.16,4.32-1.34,8.8-2.26,12.79-4.49,7.91-4.41,13.34-11.01,16.76-19.34.47-1.16.91-2.33,1.51-3.45.21,2.19-.47,4.21-1.11,6.21-3.76,11.71-11.74,19.08-23.43,22.56-2.52.75-5.04,1.48-7.6,2.06-6.92,1.57-13.69,1.23-20.14-1.97-4.45-2.21-7.17-5.98-9.09-10.43-.15-.35-.12-.69.26-1.04Z"/>
  <path class="cls-1" d="M326.1,137.02c-.35.23-.48.36-.64.42-3.38,1.26-3.59,2.14-1.13,4.91,1.2,1.35,2.35,2.76,3.61,4.04,4.75,4.83,10.67,5.41,16.89,4.32,5.42-.96,10.78-2.23,16.24-3.37.05.86-.66,1.05-1.13,1.29-5.55,2.91-11.25,5.45-17.5,6.45-6.61,1.07-12.36-.69-17.15-5.42-1.81-1.79-3.32-3.83-4.71-5.96-.85-1.31-1.46-2.7-1.16-4.35.45-2.42,1.78-3.44,4.21-3.14.81.1,1.59.32,2.45.81Z"/>
  <path class="cls-1" d="M585.23,239.97c-7.05-3.92-14.03-3.52-20.91-2.25-6.77,1.25-13.48,6.71-14.6,15.92-.21,1.75.41,3.39.48,5.18-1.84-1.43-2.91-3.58-2.95-6.26-.11-6.57,2.96-11.37,8.32-14.95,4.83-3.22,10.23-3.99,15.83-3.8,3.15.11,6.34.27,9.29,1.64,1.83.85,3.54,1.82,4.54,4.52Z"/>
<path class="cls-1" d="M549.62,151.75c-.34,2.19-1.23,3.79-2.14,5.34-4.05,6.93-9.19,12.88-16.42,16.59-8.93,4.58-17.94,4.47-26.78-.41-1.53-.85-3.09-1.82-3.56-3.78.73-.24,1.15.1,1.58.4,7.65,5.22,21.9,6.55,32.56-2.22,5-4.11,9.18-9.01,13.11-14.13.44-.57.8-1.21,1.64-1.78Z"/>
<path class="cls-1" d="M36.06,622.35c1.97-5.41,1.03-10.77.04-16.12-1.68-9.03-3.89-17.91-7.59-26.36-.25-.58-.47-1.18-.64-1.79-.13-.47.01-.92.48-1.15.43-.21.9-.18,1.28.13.88.71,1.31,1.73,1.81,2.69,3.11,5.92,4.84,12.31,6.26,18.8.87,4,1.38,8.05,1.59,12.13.19,3.73-.17,7.45-2.14,10.8-.22.37-.36.8-1.08.88Z"/>
<path class="cls-1" d="M47.25,81.91c1.51.5,2.67,1.42,3.13,2.85,1.82,5.66,6.39,6.85,11.41,6.8,5.6-.07,10.41-2.17,13.77-6.92,1.06-1.49,1.7-3.17,2.26-4.97.69,1.16.55,2.39.24,3.64-.89,3.58-3.2,6.12-6.25,7.87-5.52,3.16-11.33,3.45-17.26,1.12-2.54-1-4.06-2.87-4.95-5.42-.6-1.73-.91-3.64-2.36-4.97Z"/>
<path class="cls-1" d="M341.43,118.33c-2.36-.44-4.26-1.02-6.2-1.35-7.23-1.24-14.09-.02-20.7,2.89-3.24,1.43-5.4,3.95-6.57,7.27-.85,2.41-.65,4.79.55,7.1-1.78-1.62-2.55-3.66-2.17-5.99.68-4.15,2.57-7.57,6.53-9.46,8.53-4.08,17.3-5.19,26.36-1.86.51.19,1.01.41,1.5.64.15.07.25.25.72.76Z"/>
<path class="cls-1" d="M437.75,76.24c-1.95-6.68,1.23-16.39,9.05-19.67,1.53-.64,3.07-1.1,4.7-.45.74.29,1.55.6,1.47,1.94-3.28-1.85-5.64.12-7.96,1.9-4.56,3.51-6.3,8.44-6.83,13.95-.07.77.24,1.63-.43,2.33Z"/>
<path class="cls-1" d="M83.22,82.92c3.28,1.59,6.16.64,8.94-1.15.6-.39,1.4-.47,1.99-.79,1.1-.6,1.72-.34,2.51.51,3.93,4.22,8.62,4.93,13.85,2.78.25-.1.48-.26.74-.33.32-.09.73-.37.97.05.27.48,0,.81-.47,1.04-5.32,2.61-9.7,2.6-14.09-1.16-.21-.18-.38-.38-.58-.57-1.65-1.54-1.72-1.59-3.71-.36-1.56.96-3.15,1.77-4.99,2-2.04.26-3.83-.18-5.17-2.02Z"/>
<path class="cls-1" d="M45.21,90.71c-2.37,2.58-6.28,3.12-8.71,1.41-.62-.44-1.02-1.03-1.3-1.7-.27-.66-.7-1.46-.03-2.01.82-.68,1.26.3,1.76.71,2.37,1.95,5.15,1.83,8.28,1.6Z"/>
<path class="cls-1" d="M93.88,49.13c-1.86,1.42-3.77,2.72-5.32,4.47.64-2.84,3.1-3.54,5.32-4.47Z"/>
<path class="cls-1" d="M660.77,268.9c-2.27,1.27-3.46,1.06-4.57-.86,1.31,1.23,2.95.65,4.57.86Z"/>
<path class="cls-1" d="M393.45,382.05c8.54.19,16.49,2.31,23.67,7.04,3.18,2.09,6.4,4.13,9.28,6.65,3.68,3.21,6.43,7.09,8.56,11.47,2.92,6.01,4,12.36,3.7,18.99-.04.97-.33,1.76-1.04,2.41-.75.69-1.24,1.48-1.37,2.57-.87,7.47-1.82,14.93-4.03,22.16-.4,1.3-.62,2.65-.93,3.97-.69,2.86-1.82,5.52-3.78,7.75-.55.62-.89,1.28-1.19,2.07-.83,2.18-2.49,2.82-4.74,2.04-5.09-1.75-10.37-1.68-15.62-1.38-6.5.36-12.65,2.24-18.59,4.84-.81.35-1.46.91-2.1-.48-.46-1.01-2.07-.86-2.92-1.8-3.26-3.57-6.16-7.39-8.33-11.72-1.38-2.75-2.53-5.62-4.06-8.31-1.73-3.04-2.47-6.43-3.2-9.8-.27-1.24-.47-2.48-1.33-3.51-.53-.64-.79-1.45-.81-2.28-.03-1.14-.19-2-1.44-2.6-1.27-.61-1.23-2.12-1.32-3.39-.24-3.3.37-6.53,1.04-9.72,1.67-7.93,4.31-15.56,7.97-22.8,1.64-3.24,3.56-6.34,6.45-8.69,4.7-3.83,10.09-5.59,16.13-5.49ZM366.96,430.27c3.83-2.84,7.68-4.41,11.41-6.21,4.86-2.34,9.85-3.99,15.29-4.46,3.44-.3,6.88-.27,10.31-.4,9.83-.35,19.5,1.12,29.13,2.92,1.91.36,2.07.24,1.68-1.6-1.78-8.39-5.51-15.7-11.95-21.48-1.75-1.57-3.73-2.87-5.64-4.25-7.38-5.3-15.59-8.07-24.69-7.78-6.37.21-11.6,2.85-15.03,8.35-5.06,8.11-7.81,17.11-9.6,26.42-.49,2.55-.9,5.14-.9,8.48ZM433.59,430.58c-.03-1.28-.06-2.54-.29-3.81-.14-.8-.42-1.35-1.26-1.53-2.84-.61-5.76-.58-8.63-.93-1.21-.15-1.26.62-.8,1.59,1.67,3.52,1.72,7.18.89,10.91-.44,1.95-.91,3.89-1.3,5.85-1.28,6.55-5.21,11.2-10.49,14.97-3.06,2.19-6.01,2.14-9.06.15-.38-.25-.77-.48-1.11-.78-8.93-7.75-14.72-17.12-15.15-29.27-.07-2.14-.27-2.31-2.18-1.47-3.4,1.49-6.79,3.03-10.14,4.64-1.47.71-2.77,1.72-4,2.8-.67.59-1,1.26-.68,2.17,1.32,3.76,2.16,7.69,3.91,11.3,3.65,7.52,8.14,14.53,12.97,21.34.45.63.9.86,1.56.38,3.11-2.28,6.73-3.11,10.44-3.55,4.67-.56,9.37-1.38,14.04-.13,2.64.71,5.34,1.01,7.99,1.61,1.04.23,1.69-.04,2.46-.62.82-.63,1.42-1.4,1.91-2.27,5.91-10.33,8.04-21.67,8.94-33.34Z"/>
<path class="cls-1" d="M429.06,383.86c-2.78-.64-5.43-1.25-8.07-1.87-10.74-2.52-21.62-3.81-32.65-2.94-6.68.53-13.31,1.64-19.68,3.91-2.13.76-4.32,1.37-6.47,2.09-.81.27-1.56.37-2.38.07-.85-.31-1.38-.86-1.47-1.77-.1-1,.21-1.85,1.17-2.23,1.18-.47,2.43-.74,3.62-1.18,7.87-2.93,15.98-4.79,24.35-5.37,13.15-.91,26.03.62,38.57,4.75,1.49.49,2.89,1.1,4.04,2.18.46.43.88.97.5,1.68-.36.67-.99.72-1.52.68Z"/>
<path class="cls-1" d="M342.12,445.32c1.06-.02,2.13.48,3.12,1.13,3.15,2.04,4.59,7.58,2.87,10.9-1.64,3.15-5.16,3.89-7.71,1.46-2.15-2.05-3.51-4.63-3.85-7.61-.35-3.02,2.41-5.94,5.58-5.88ZM341.52,450.67c-.63,1.35.01,2.31.64,3.23.38.56.83,1.53,1.55,1.14.91-.5.08-1.27-.29-1.78-.6-.82-.7-2.02-1.9-2.59Z"/>
<path class="cls-1" d="M425.79,491.61c-1.52,1.41-2.6,2.45-3.73,3.44-3.28,2.86-6.35,5.91-8.96,9.41-1.17,1.57-1.24,1.59-2.92.39-1.76-1.26-3.44-2.65-5.19-3.93-.89-.65-1.37-1.36-1.11-2.52.26-1.16,1.05-1.57,2.08-1.85,5.76-1.56,11.5-3.15,17.26-4.7.64-.17,1.34-.13,2.58-.23Z"/>
<path class="cls-1" d="M446.06,433.86c.08-2.87.71-5.65,2.29-8.17.94-1.49,2.27-2.31,4.08-2.15,1.8.16,2.6,1.55,1.51,3-.76,1.01-.66,1.49-.01,2.49,1.22,1.89.51,4.07-1.42,5.39q-1.6,1.09-.77,2.86c.73,1.57.57,2.59-.52,3.33-1.14.77-2.55.5-3.58-.77-1.41-1.72-1.45-3.83-1.57-5.99Z"/>
<path class="cls-1" d="M389.01,336.45c-2.71.08-5.28-2.39-5.06-4.87.16-1.75.95-2.29,2.48-1.54,1.71.83,3.32,1.84,4.18,3.66.77,1.63.14,2.69-1.61,2.74Z"/>
<path class="cls-1" d="M415.28,369.5c-1.02-.04-1.62-.77-1.85-1.82-.29-1.36.97-3.5,2.25-3.96,1.02-.36,1.77.03,2.28.88.87,1.44-.88,4.78-2.69,4.89Z"/>
<path class="cls-1" d="M352.49,371.89c-1.07.04-2.07-.13-2.25-1.39-.2-1.4,1.79-3.12,3.47-3.13,1.24,0,2.02.61,2.07,1.64.07,1.54-1.4,2.82-3.29,2.87Z"/>
</svg>