<svg xmlns="http://www.w3.org/2000/svg" xmlns:xlink="http://www.w3.org/1999/xlink"  viewBox="0 0 961 1502" id="spookyB" class="[ svg-el spooky ]" aria-hidden="true">>
  <defs>
    <style>
      .a {
        fill: url(#a);
      }

      .b {
        fill: url(#b);
      }

      .c {
        opacity: 0.68;
        fill: url(#c);
      }

      .d {
        fill: #2f7380;
      }

      .e {
        opacity: 0.63;
        fill: url(#d);
      }

      .f {
        fill: #2b004e;
        opacity: 0.45;
      }
    </style>
    <linearGradient id="a" x1="360.298" y1="614.097" x2="360.298" gradientUnits="userSpaceOnUse">
      <stop offset="0" stop-color="#fff"/>
      <stop offset="0.108" stop-color="#dee3e4"/>
      <stop offset="0.352" stop-color="#98a7aa"/>
      <stop offset="0.572" stop-color="#61787c"/>
      <stop offset="0.76" stop-color="#39565c"/>
      <stop offset="0.909" stop-color="#214147"/>
      <stop offset="1" stop-color="#183940"/>
    </linearGradient>
    <linearGradient id="b" x1="882.569" y1="727.004" x2="882.569" y2="0" xlink:href="#a"/>
    <linearGradient id="c" x1="480" y1="1502" x2="480" gradientUnits="userSpaceOnUse">
      <stop offset="0.692" stop-color="#966bd1"/>
      <stop offset="0.78" stop-color="#9792c2"/>
      <stop offset="0.977" stop-color="#99f39d"/>
      <stop offset="1" stop-color="#9f9"/>
    </linearGradient>
    <linearGradient id="d" x1="481" y1="971.246" x2="481" gradientUnits="userSpaceOnUse">
      <stop offset="0" stop-color="#183940"/>
      <stop offset="1" stop-color="#fff"/>
    </linearGradient>
  </defs>
  <g>
    <g>
      <path class="a" d="M0,0V116.843c26.745-6.615,64,28.235,78.8,71.749,26.775,78.727,58.005,188.268,80.279,248.93s112.543,78.068,91.79-5.23,128.314-4.028,96.5-164.364c-31.58-159.154,97.967-44.2,120.286,52.143,21.427,92.494,69.283,142.665,101.389,238.093s138.393,52.48,132.169-8.432c-4.456-43.608,32.778-317.166,14.118-416.85C706.649,86.526,703.942,32.246,715.885,0Z"/>
      <path class="b" d="M810.524,4.661c105.76,93.957,34.758,560.934,56.954,666.021,10.26,48.579,50.6,62.289,92.522,54.107V0H805.139Q807.789,2.237,810.524,4.661Z"/>
    </g>
    <rect class="c" width="960" height="1502"/>
    <path class="d" d="M960,719.533S820.562,672,819.218,520.509c-1.341-151.061-118.189-207.946-123.007-280.1s-62.635-100.543-62.635-2.366S621.144,422.43,615.705,488.671c-15.405,187.62-79.7,109.027-96.558,1.387S476.513,249.584,466.565,136.7c-8.593-97.517-68.423-88.054-69.511-8.8-1.109,80.748-5.386,265.674-27.264,374.277-22.776,113.062-59.833,118.976-115.24.69s-57.865-121.259-61.478-245.011c-2.175-74.52-57.4-61.675-56.313,25.857,1.425,114.614,21.033,253.661-53.647,260.758S0,231.011,0,231.011V1501.723H960Z"/>
    <path class="e" d="M955.61,202.475s-11.977,40.372-44.317,193.3S847.7,495.367,833.331,287.387s-73.063-138.246-77.855-41.6-7.425,230.557-12.216,305.185-62.283,103.99-62.283,2.447-86.519,7.346-91.96-187.339c-5.4-193.249-72.912-43.549-71.785,73.733,1.082,112.6-22.573,177.112-28.147,294.231S405.242,809.9,399.253,736.5c-4.287-52.553-74.8-376.042-78.928-496.975-3.921-114.751-29.967-266.6-85.063-144.256s70.244,673.848,72.911,801.574c2.814,134.8-129.552,67.222-144.473-50.353-14.852-117.038-5.794-455.6-80.055-462.945S1,707.744,1,707.744V0H961Z"/>
    <ellipse class="f" cx="417.5" cy="120" rx="4.5" ry="9"/>
    <ellipse class="f" cx="441.5" cy="119.5" rx="4.5" ry="9.5"/>
    <ellipse class="f" cx="271.5" cy="120" rx="6" ry="12"/>
    <ellipse class="f" cx="290.5" cy="119.5" rx="4.5" ry="9.5"/>
    <path class="f" d="M174.167,234.333c0,4.787-2.09,8.667-4.667,8.667s-4.667-3.88-4.667-8.667A7.26,7.26,0,0,1,171.5,227C174.077,227,174.167,229.547,174.167,234.333Z"/>
    <path class="f" d="M179,234.5c0,3.59,1.567,6.5,3.5,6.5s3.5-2.91,3.5-6.5a5.445,5.445,0,0,0-5-5.5C179.067,229,179,230.91,179,234.5Z"/>
    <path class="f" d="M377.167,212.333c0,4.787-2.09,8.667-4.667,8.667s-4.667-3.88-4.667-8.667A7.26,7.26,0,0,1,374.5,205C377.077,205,377.167,207.547,377.167,212.333Z"/>
    <path class="f" d="M349,214.5c0,3.59,1.567,6.5,3.5,6.5s3.5-2.91,3.5-6.5a5.445,5.445,0,0,0-5-5.5C349.067,209,349,210.91,349,214.5Z"/>
    <ellipse class="f" cx="734.091" cy="64.182" rx="7.091" ry="14.182"/>
    <ellipse class="f" cx="780.909" cy="65.364" rx="13.091" ry="22.636"/>
    <ellipse class="f" cx="59.909" cy="447.364" rx="13.091" ry="22.636"/>
    <ellipse class="f" cx="557.157" cy="305.864" rx="4.965" ry="7.426" transform="translate(-75.078 371.099) rotate(-34.657)"/>
    <ellipse class="f" cx="573.661" cy="305.864" rx="6.529" ry="4.364" transform="translate(-4.151 603.812) rotate(-55.343)"/>
    <path class="d" d="M675,208.364c0,12.5-5.77,4.636-13,4.636s-13.182,7.865-13.182-4.636S654.77,195,662,195C670,195,675,195.862,675,208.364Z"/>
  </g>
</svg>
