
<svg class="{{ .polygonClass }}" aria-hidden="true"  width="706" height="795" viewBox="0 0 706 795" fill="none" xmlns="http://www.w3.org/2000/svg">
<path d="M125.828 651.746C72.1094 521.624 168.459 331.178 223.349 252.22L333.862 74.4377C415.91 153.853 593.656 320.796 681.934 522.419C770.211 724.043 500.12 590.636 384.068 568.341C297.546 589.854 179.547 781.867 125.828 651.746Z" fill="#B6FB58"/>
<path d="M103.11 721.629C45.4537 565.966 136.808 343.115 189.692 251.147L295.632 43.7011C380.299 140.106 563.575 342.914 657.976 584.258C752.377 825.602 477.305 659.89 360.11 630.18C273.82 653.201 160.767 877.292 103.11 721.629Z" fill="white" fill-opacity="0.75"/>
<path d="M45.958 661.385C14.406 517.155 132.251 334.171 195.118 260.707L324.41 93.1962C389.847 189.136 532.345 391.664 585.96 615.958C639.574 840.252 405.663 657.836 300.094 615.958C215.876 624.476 77.5099 805.615 45.958 661.385Z" fill="#A1FDDE" fill-opacity="0.75"/>
</svg>
