<svg class="[ {{ .polygonClass }} ]" aria-hidden="true" viewBox="0 0 733 506" fill="none" xmlns="http://www.w3.org/2000/svg">
<path d="M486.401 384.689C427.582 466.354 186.424 473.991 88.1963 384.689C-10.0314 295.386 592.275 -135.854 486.401 79.7659C380.526 295.386 545.22 303.023 486.401 384.689Z" fill="url(#paint0_linear_2181_131)"/>
<path d="M496.663 73.3199C661.698 63.7391 771.385 110.02 702.621 138.608C676.104 149.632 531.001 169.437 668.351 258.754C805.701 348.072 692.654 356.494 618.961 349.54C520.406 334.087 574.21 506 505.399 506C94.8273 506 462.393 353.017 375.709 229.394C289.026 105.771 197.974 303.181 64.9246 243.301C-41.5149 195.398 0.777946 90.0261 64.9246 85.2958H197.974C133.156 54.8708 264.189 -7.71327 256.125 0.785774C223.304 35.3791 290.37 85.2958 496.663 73.3199Z" fill="url(#paint1_linear_2181_131)" fill-opacity="0.75"/>
<defs>
<linearGradient id="paint0_linear_2181_131" x1="408.64" y1="10.0427" x2="208.288" y2="448.968" gradientUnits="userSpaceOnUse">
<stop offset="0.380268" stop-color="#EF2793"/>
<stop offset="1" stop-color="#FB0615"/>
</linearGradient>
<linearGradient id="paint1_linear_2181_131" x1="151.935" y1="30.1282" x2="522.288" y2="489.713" gradientUnits="userSpaceOnUse">
<stop stop-color="#1DD2BD"/>
<stop offset="1" stop-color="#0658D3"/>
</linearGradient>
</defs>
</svg>
