<svg xmlns="http://www.w3.org/2000/svg" width="1000" height="1000" viewBox="0 0 1000 1000">
  <defs>
    <style>
      .a {
        fill: none;
        stroke: #000;
        stroke-linecap: round;
        stroke-linejoin: round;
        stroke-width: 40px;
        opacity: 0.66;
      }
    </style>
  </defs>
  <title>Artboard 1</title>
  <path class="a" d="M582.18625,279.75709C706,277,752,283,778.50136,288.71033,866,334,856.88977,438.6666,856.66259,446.96308,856,493,789,677,584.18909,669.87716c-11.39232,1.497-105.50718,1.97062-110.50487,1.78277"/>
  <path class="a" d="M181,577c0,7-.76485,13.77861-.50455,20.57358.248,6.47284,3.61226,96.62261,4.21543,110.11449.10287,2.30095-.2211,3.02048-2.51851,3.29457C158,712,153.15279,722.80327,153,724"/>
  <path class="a" d="M231.17409,861.33615C248,860,273.6666,872.38929,276.9421,874.4639,285.27576,879.74228,347.28857,927.27612,360,930c14,3,26-6,14-15"/>
  <path class="a" d="M182,572c55,79,130,127,192,127"/>
  <path class="a" d="M587.85426,701.61945c-.87292,8.90688,3.98187,144.80425,4.00223,154.25111.00529,2.46157.04636,2.83391.04636,2.83391-.1671.71809-.44218,1.57377-1.215,1.582-3.64951.039-22.47172,1.01719-25.10082,4.49091"/>
  <path class="a" d="M460.72875,310.52632s1.5066-9.13831-24.61108-30.83232S360,225,306.04315,228.617c-44.00919,2.95016-62.44673,30.54288-67.02275,35.10038-3.85243,3.83687-14.51608,21.465-14.51608,21.465-5.01181,8.63373-9.87407,17.21077-13.07543,26.59025a38.36311,38.36311,0,0,0-.90257,4.0169"/>
  <path class="a" d="M263.56276,775.30366C301,770,348.98786,779.7571,348.98786,779.7571c.40486,9.31174,1.97979,48.99309,1.97979,48.99309.49535,4.20219-.46671,4.84822-4.3781,6.54367C318,857,245,850,230,862"/>
  <path class="a" d="M237,749c15-14,43.19584,3.26728,44,4,0,0-18.91507-1.0834-19,7,.08493,9.9166,4.39677,87.57087,4.39677,87.57087C259.2392,850.43245,238,849,230,862"/>
  <path class="a" d="M510.375,81.227C508,83,508.883,87.91932,508.67283,91.10439,508.10345,99.73078,514,366,514,366c-9.80269,4.85024-41.71737,22.24723-51,28,3.64372-1.48446,95-16,114.32795-5.336"/>
  <path class="a" d="M377.32794,31.98381c4.76369-2.81994,35.931-6.2436,46.15721-4.47279C487,32,527.5055,117.93511,599.1903,135.22267,619,140,623.94458,123.16172,622,119c0-5-8-6-8-6"/>
  <path class="a" d="M215.78948,894.332C249,925,283.09327,914.63917,296.73554,907.24022c3.14249-1.70434,20.11136-12.87777,23.56852-15.66641,8.73208-7.04361,47.64216-37.96446,57.3557-47.51847,12.36965-12.1666,100.073-86.9703,100.073-86.9703,1.983-1.41884,65.3482-48.03643,92.3077-55.06073s58.21617-.01626,66.81556,1.54253C645.58122,705.14852,701,725,705.63986,728.40405,710,732,709.03356,735.42947,708.776,739.26247c-.22946,3.4157-1.13659,119.85694-1.13659,119.85694"/>
  <path class="a" d="M511,189c-5.37193,3.16648-16.4205,7.44218-22.04034,9.97062C460,212,413.73028,197.87156,393,188c-21-10-53-20-105.5506-73.02024C287.4494,114.97976,266,111,246,121s-27.7178,32.84355-27.78137,36.89474"/>
  <path class="a" d="M415.38462,42.51012c1.66313-.22388,1.61944,298.78543,1.61944,298.78543C461,336,508.89641,338.99516,511,341"/>
  <path class="a" d="M760.3239,900.668S767,906,771,912c0,0-31,41-92.48609,51.02112C662,967,610,967,562.74944,910.5292,503,818,413,605,351.0719,586.52063a66.75826,66.75826,0,0,0-29.20819-6.82773c-10.8646-.23109-21.37952,2.01431-31.98247,3.72468-2.48758.40125-3.22047,2.13721-2.82874,4.43535.78289,4.593,2.45936,23.21372,2.4,27.93631-.0201,1.59927.14866,2.72073,2.0294,3.29209C295.205,620.21219,303,622,315.78251,621.31744a147.88881,147.88881,0,0,0,30.04361-5.26365c9.76495-2.84938,18.56066-7.01647,26.23866-13.62463l1.61944-1.61943c10.52629-10.26335,19.12491-22.34742,30.66327-31.70957,4.84728-3.93294,9.57689-7.976,14.63779-11.66928,9.35246-6.82521,19.99062-11.03753,30.42825-15.68371C449.41353,541.74717,410,492,396,461c-13.23345-29.30265-22.69671-60.34812-43.96028-84.93051C307,324,209,322,209,322c.40486,0,31.15591-13.89315,79-9,88,9,130.93712,64.63873,142.97224,79.07117C440.30019,403.25723,466.30135,458.42426,477,473c20.99926,28.97644,90.61135,68.70042,90.61135,68.70042-10.63.87124-20.2743,5.10767-29.43634,9.94082C528,559,502.80451,586.08835,492.9758,597.44835,481.13039,611.13925,453,635,430,644"/>
  <path class="a" d="M228,154c-.70546,1.0083,2.91962,91.34651,2.91962,91.34651a37.57407,37.57407,0,0,0-4.2624,3.58288c-4.155,4.50845-13.1427,15.963-15.4,23.51683S208,295,209.7166,306.47774"/>
  <path class="a" d="M206.52491,339.64743C186,364,219,412,238,430c23,21,83,35,83,35-26-6-76.72022,7.86735-80.24745,8.79573"/>
  <path class="a" d="M154,725c36-13,109.76923,1.5425,115-1,0,0-5.88753-159.82392-5.8421-166.51011,0,0,16.8421.51011,19.8421-8.48989-2-3-26.6286-2.97528-34.00366-4.11558a33.20864,33.20864,0,0,1-19.03682-9.25688"/>
  <path class="a" d="M289,384c.74234-2.23861.24207-102.7707-.71731-103.46574-3.72674-2.69985-5.84774-7.31574-10.54989-8.87434L291.498,265.587c.01377-2.03237-8.83145-179.90749-7.69231-188.664l2.0243-1.01215C272,68,205,101,181.84458,126.801c-1.37062,1.07773-1.95254,3.15849-2.89721,4.77792"/>
  <path class="a" d="M582,280c18.28744,5.4089,41.22087,27.03306,49.85794,38.37234,13.26008,17.40865,21.83919,37.006,27.97921,57.97493,12.38282,42.28893,13.5635,87.49385.049,129.82563-14.92893,46.76223-50.27038,84.10416-91.82873,109.28487C516,647,447,680,355,665,251.843,638.7518,199.17085,561.486,192.86921,551.57482q-10.941-17.208-20.73234-35.01506c-8.72029-15.94806-17.22021-31.93725-30.73961-44.60355-2.166-2.02933-4.11531-3.7487-6.9843-4.34486"/>
  <path class="a" d="M201,501c55-13,138-9,162-2"/>
  <path class="a" d="M572,862c55-13,138-9,162-2"/>
</svg>
