<svg xmlns="http://www.w3.org/2000/svg" width="500" height="500" viewBox="0 0 500 500">
  <title>Artboard 1</title>
  <circle cx="250" cy="250" r="250" fill="#29abe2"/>
  <polygon points="500 0 0 500 500 500 500 0" fill="#f0f"/>
  <g>
    <rect width="250" height="250" fill="#22b573"/>
    <rect x="250" y="250" width="250" height="250" fill="#22b573"/>
  </g>
  <g>
    <circle cx="125" cy="125" r="75" fill="#662d91"/>
    <circle cx="375" cy="125" r="75" fill="#662d91"/>
    <circle cx="125" cy="375" r="75" fill="#662d91"/>
    <circle cx="375" cy="375" r="75" fill="#662d91"/>
  </g>
  <polygon points="500 0 450 0 450 50 350 50 350 150 250 150 250 250 175 250 175 369 130 370 130 400 100.071 399.929 50 400 50.333 449.667 0 450 0 500 500 500 500 0" fill="#93278f"/>
  <g>
    <circle cx="25" cy="25" r="25" fill="#0071bc"/>
    <circle cx="75" cy="75" r="25" fill="#0071bc"/>
    <circle cx="125" cy="125" r="25" fill="#0071bc"/>
    <circle cx="175" cy="175" r="25" fill="#0071bc"/>
    <circle cx="225" cy="225" r="25" fill="#0071bc"/>
    <circle cx="275" cy="275" r="25" fill="#0071bc"/>
    <circle cx="75" cy="125" r="25" fill="#0071bc"/>
    <circle cx="125" cy="175" r="25" fill="#0071bc"/>
    <circle cx="175" cy="225" r="25" fill="#0071bc"/>
    <circle cx="225" cy="275" r="25" fill="#0071bc"/>
    <circle cx="275" cy="325" r="25" fill="#0071bc"/>
    <circle cx="75" cy="175" r="25" fill="#0071bc"/>
    <circle cx="125" cy="225" r="25" fill="#0071bc"/>
    <circle cx="175" cy="275" r="25" fill="#0071bc"/>
    <circle cx="225" cy="325" r="25" fill="#0071bc"/>
    <circle cx="275" cy="375" r="25" fill="#0071bc"/>
    <circle cx="75" cy="225" r="25" fill="#0071bc"/>
    <circle cx="125" cy="275" r="25" fill="#0071bc"/>
    <circle cx="175" cy="325" r="25" fill="#0071bc"/>
    <circle cx="225" cy="375" r="25" fill="#0071bc"/>
    <circle cx="275" cy="425" r="25" fill="#0071bc"/>
    <circle cx="75" cy="275" r="25" fill="#0071bc"/>
    <circle cx="125" cy="325" r="25" fill="#0071bc"/>
    <circle cx="175" cy="375" r="25" fill="#0071bc"/>
    <circle cx="225" cy="425" r="25" fill="#0071bc"/>
    <circle cx="275" cy="475" r="25" fill="#0071bc"/>
    <circle cx="75" cy="325" r="25" fill="#0071bc"/>
    <circle cx="125" cy="375" r="25" fill="#0071bc"/>
    <circle cx="175" cy="425" r="25" fill="#0071bc"/>
    <circle cx="225" cy="475" r="25" fill="#0071bc"/>
    <circle cx="75" cy="375" r="25" fill="#0071bc"/>
    <circle cx="125" cy="425" r="25" fill="#0071bc"/>
    <circle cx="175" cy="475" r="25" fill="#0071bc"/>
    <circle cx="75" cy="425" r="25" fill="#0071bc"/>
    <circle cx="125" cy="475" r="25" fill="#0071bc"/>
    <circle cx="75" cy="475" r="25" fill="#0071bc"/>
    <circle cx="25" cy="75" r="25" fill="#0071bc"/>
    <circle cx="25" cy="125" r="25" fill="#0071bc"/>
    <circle cx="25" cy="175" r="25" fill="#0071bc"/>
    <circle cx="25" cy="225" r="25" fill="#0071bc"/>
    <circle cx="25" cy="275" r="25" fill="#0071bc"/>
    <circle cx="25" cy="325" r="25" fill="#0071bc"/>
    <circle cx="25" cy="375" r="25" fill="#0071bc"/>
    <circle cx="25" cy="425" r="25" fill="#0071bc"/>
    <circle cx="25" cy="475" r="25" fill="#0071bc"/>
    <circle cx="325" cy="325" r="25" fill="#0071bc"/>
    <circle cx="375" cy="375" r="25" fill="#0071bc"/>
    <circle cx="425" cy="425" r="25" fill="#0071bc"/>
    <circle cx="475" cy="475" r="25" fill="#0071bc"/>
    <circle cx="325" cy="375" r="25" fill="#0071bc"/>
    <circle cx="375" cy="425" r="25" fill="#0071bc"/>
    <circle cx="425" cy="475" r="25" fill="#0071bc"/>
    <circle cx="325" cy="425" r="25" fill="#0071bc"/>
    <circle cx="375" cy="475" r="25" fill="#0071bc"/>
    <circle cx="325" cy="475" r="25" fill="#0071bc"/>
  </g>
  <g>
    <circle cx="25" cy="25" r="25" fill="#0071bc"/>
    <circle cx="75" cy="75" r="25" fill="#0071bc"/>
    <circle cx="125" cy="125" r="25" fill="#0071bc"/>
    <circle cx="175" cy="175" r="25" fill="#0071bc"/>
    <circle cx="225" cy="225" r="25" fill="#0071bc"/>
    <circle cx="75" cy="125" r="25" fill="#0071bc"/>
    <circle cx="325" cy="175" r="25" fill="#0071bc"/>
    <circle cx="175" cy="225" r="25" fill="#0071bc"/>
    <circle cx="225" cy="275" r="25" fill="#0071bc"/>
    <circle cx="275" cy="325" r="25" fill="#0071bc"/>
    <circle cx="275" cy="175" r="25" fill="#0071bc"/>
    <circle cx="125" cy="225" r="25" fill="#0071bc"/>
    <circle cx="475" cy="275" r="25" fill="#0071bc"/>
    <circle cx="225" cy="325" r="25" fill="#0071bc"/>
    <circle cx="75" cy="225" r="25" fill="#0071bc"/>
    <circle cx="425" cy="275" r="25" fill="#0071bc"/>
    <circle cx="175" cy="325" r="25" fill="#0071bc"/>
    <circle cx="225" cy="375" r="25" fill="#0071bc"/>
    <circle cx="275" cy="425" r="25" fill="#0071bc"/>
    <circle cx="275" cy="475" r="25" fill="#0071bc"/>
    <circle cx="375" cy="275" r="25" fill="#0071bc"/>
    <circle cx="125" cy="325" r="25" fill="#0071bc"/>
    <circle cx="325" cy="75" r="25" fill="#0071bc"/>
    <circle cx="225" cy="425" r="25" fill="#0071bc"/>
    <circle cx="75" cy="325" r="25" fill="#0071bc"/>
    <circle cx="125" cy="375" r="25" fill="#0071bc"/>
    <circle cx="325" cy="125" r="25" fill="#0071bc"/>
    <circle cx="475" cy="375" r="25" fill="#0071bc"/>
    <circle cx="125" cy="425" r="25" fill="#0071bc"/>
    <circle cx="75" cy="425" r="25" fill="#0071bc"/>
    <circle cx="125" cy="75" r="25" fill="#0071bc"/>
    <circle cx="25" cy="125" r="25" fill="#0071bc"/>
    <circle cx="225" cy="175" r="25" fill="#0071bc"/>
    <circle cx="25" cy="225" r="25" fill="#0071bc"/>
    <circle cx="325" cy="275" r="25" fill="#0071bc"/>
    <circle cx="25" cy="325" r="25" fill="#0071bc"/>
    <circle cx="425" cy="375" r="25" fill="#0071bc"/>
    <circle cx="475" cy="425" r="25" fill="#0071bc"/>
    <circle cx="325" cy="325" r="25" fill="#0071bc"/>
    <circle cx="375" cy="375" r="25" fill="#0071bc"/>
    <circle cx="475" cy="475" r="25" fill="#0071bc"/>
    <circle cx="325" cy="375" r="25" fill="#0071bc"/>
    <circle cx="325" cy="425" r="25" fill="#0071bc"/>
  </g>
</svg>
