<?xml version="1.0" encoding="utf-8"?>
<!-- Generator: Adobe Illustrator 22.1.0, SVG Export Plug-In . SVG Version: 6.00 Build 0)  -->
<svg version="1.1" id="Layer_1" xmlns="http://www.w3.org/2000/svg" xmlns:xlink="http://www.w3.org/1999/xlink" x="0px" y="0px"
	 width="221.4px" height="252.4px" viewBox="0 0 221.4 252.4" style="enable-background:new 0 0 221.4 252.4;" xml:space="preserve"
	>
<style type="text/css">
	.st0{fill:#FBFBFB;}
	.st1{fill:#FCFCFC;}
	.st2{fill:#F7F7F7;}
	.st3{fill:#FEFEFE;}
	.st4{fill:#EDEDED;}
	.st5{fill:#F6F6F6;}
	.st6{fill:#D3D3D3;}
	.st7{fill:#CCCCCC;}
	.st8{fill:#EAEAEA;}
	.st9{fill:#E1E1E1;}
	.st10{fill:#E3E3E3;}
	.st11{fill:#DBDBDB;}
	.st12{fill:#F2F2F2;}
	.st13{fill:#D7D7D7;}
	.st14{fill:#151515;}
	.st15{fill:#CDCDCD;}
	.st16{fill:#DADADA;}
	.st17{fill:#F0F0F0;}
	.st18{fill:#EFEFEF;}
	.st19{fill:#E5E5E5;}
	.st20{fill:#E7E7E7;}
	.st21{fill:#CECECE;}
	.st22{fill:#1B1B1B;}
	.st23{fill:#E2E2E2;}
	.st24{fill:#F4F4F4;}
	.st25{fill:#6B6B6B;}
	.st26{fill:#C9C9C9;}
	.st27{fill:#5A5A5A;}
	.st28{fill:#7A7A7A;}
	.st29{fill:#626262;}
	.st30{fill:#DEDEDE;}
	.st31{fill:#686868;}
	.st32{fill:#D9D9D9;}
	.st33{fill:#E9E9E9;}
	.st34{fill:#D1D1D1;}
	.st35{fill:#DCDCDC;}
	.st36{fill:#717171;}
	.st37{fill:#D0D0D0;}
	.st38{fill:#F9F9F9;}
	.st39{fill:#2C2C2C;}
	.st40{fill:#F3F3F3;}
	.st41{fill:#252525;}
	.st42{fill:#C8C8C8;}
	.st43{fill:#1E1E1E;}
	.st44{fill:#CFCFCF;}
	.st45{fill:#636363;}
	.st46{fill:#2A2A2A;}
	.st47{fill:#494949;}
	.st48{fill:#656565;}
	.st49{fill:#D2D2D2;}
	.st50{fill:#A2A2A2;}
	.st51{fill:#050505;}
	.st52{fill:#6E6E6E;}
	.st53{fill:#0D0D0D;}
	.st54{fill:#767676;}
	.st55{fill:#646464;}
	.st56{fill:#D5D5D5;}
	.st57{fill:#7B7B7B;}
	.st58{fill:#BABABA;}
	.st59{fill:#161616;}
	.st60{fill:#CACACA;}
	.st61{fill:#535353;}
	.st62{fill:#C4C4C4;}
	.st63{fill:#121212;}
	.st64{fill:#393939;}
	.st65{fill:#BCBCBC;}
	.st66{fill:#D4D4D4;}
	.st67{fill:#CBCBCB;}
	.st68{fill:#5B5B5B;}
	.st69{fill:#F8F8F8;}
	.st70{fill:#B8B8B8;}
	.st71{fill:#212121;}
	.st72{fill:#4F4F4F;}
	.st73{fill:#C6C6C6;}
	.st74{fill:#3F3F3F;}
	.st75{fill:#727272;}
	.st76{fill:#1C1C1C;}
	.st77{fill:#DFDFDF;}
	.st78{fill:#B2B2B2;}
	.st79{fill:#414141;}
	.st80{fill:#575757;}
	.st81{fill:#D6D6D6;}
	.st82{fill:#B5B5B5;}
	.st83{fill:#C7C7C7;}
	.st84{fill:#383838;}
	.st85{fill:#292929;}
	.st86{fill:#676767;}
	.st87{fill:#929292;}
	.st88{fill:#303030;}
	.st89{fill:#6C6C6C;}
	.st90{fill:#3D3D3D;}
	.st91{fill:#191919;}
	.st92{fill:#484848;}
	.st93{fill:#262626;}
	.st94{fill:#B6B6B6;}
	.st95{fill:#0B0B0B;}
	.st96{fill:#222222;}
	.st97{fill:#979797;}
	.st98{fill:#313131;}
	.st99{fill:#333333;}
	.st100{fill:#7E7E7E;}
	.st101{fill:#858585;}
	.st102{fill:#3E3E3E;}
	.st103{fill:#3C3C3C;}
	.st104{fill:#949494;}
	.st105{fill:#424242;}
	.st106{fill:#7C7C7C;}
	.st107{fill:#4D4D4D;}
	.st108{fill:#B9B9B9;}
	.st109{fill:#282828;}
	.st110{fill:#3B3B3B;}
	.st111{fill:#999999;}
	.st112{fill:#787878;}
	.st113{fill:#585858;}
	.st114{fill:#ABABAB;}
	.st115{fill:#666666;}
	.st116{fill:#939393;}
	.st117{fill:#696969;}
	.st118{fill:#8F8F8F;}
	.st119{fill:#343434;}
	.st120{fill:#848484;}
	.st121{fill:#404040;}
	.st122{fill:#6D6D6D;}
	.st123{fill:#AAAAAA;}
	.st124{fill:#2E2E2E;}
	.st125{fill:#5D5D5D;}
	.st126{fill:#555555;}
	.st127{fill:#454545;}
	.st128{fill:#E0E0E0;}
	.st129{fill:#4E4E4E;}
	.st130{fill:#4C4C4C;}
	.st131{fill:#5C5C5C;}
	.st132{fill:#7F7F7F;}
	.st133{fill:#606060;}
	.st134{fill:#A1A1A1;}
	.st135{fill:#3A3A3A;}
	.st136{fill:#272727;}
	.st137{fill:#444444;}
	.st138{fill:#777777;}
	.st139{fill:#0F0F0F;}
	.st140{fill:#A5A5A5;}
	.st141{fill:#505050;}
	.st142{fill:#434343;}
	.st143{fill:#BFBFBF;}
	.st144{fill:#1F1F1F;}
	.st145{fill:#323232;}
	.st146{fill:#969696;}
	.st147{fill:#010101;}
	.st148{fill:#F1F1F1;}
	.st149{fill:#EBEBEB;}
	.st150{fill:#E4E4E4;}
	.st151{fill:none;stroke:#231F20;stroke-miterlimit:10;}
	.st152{fill:#202020;}
	.st153{fill:#DDDDDD;}
	.st154{fill:#141414;}
	.st155{fill:#232323;}
	.st156{fill:#D8D8D8;}
	.st157{fill:#C5C5C5;}
	.st158{fill:#363636;}
	.st159{fill:#C3C3C3;}
	.st160{fill:#2D2D2D;}
	.st161{fill:#C2C2C2;}
	.st162{fill:#595959;}
	.st163{fill:#464646;}
	.st164{fill:#6F6F6F;}
	.st165{fill:#181818;}
	.st166{fill:#525252;}
	.st167{fill:#919191;}
	.st168{fill:#B7B7B7;}
	.st169{fill:#565656;}
	.st170{fill:#757575;}
	.st171{fill:#C1C1C1;}
	.st172{fill:#959595;}
	.st173{fill:#9C9C9C;}
	.st174{fill:#353535;}
	.st175{fill:#A9A9A9;}
	.st176{fill:#8C8C8C;}
	.st177{fill:#474747;}
	.st178{fill:#2B2B2B;}
	.st179{fill:#888888;}
	.st180{fill:#737373;}
	.st181{fill:#AFAFAF;}
	.st182{fill:#B4B4B4;}
	.st183{fill:#ADADAD;}
	.st184{fill:#4A4A4A;}
	.st185{fill:#515151;}
	.st186{fill:#878787;}
	.st187{fill:#2F2F2F;}
	.st188{fill:#B3B3B3;}
	.st189{fill:#BBBBBB;}
	.st190{fill:#8D8D8D;}
	.st191{fill:#909090;}
	.st192{fill:#545454;}
	.st193{fill:#A0A0A0;}
	.st194{fill:#808080;}
	.st195{fill:#5E5E5E;}
	.st196{fill:#707070;}
	.st197{fill:#373737;}
	.st198{fill:#A6A6A6;}
	.st199{fill:#171717;}
	.st200{fill:#8E8E8E;}
	.st201{fill:#242424;}
	.st202{fill:#C0C0C0;}
	.st203{fill:#747474;}
	.st204{fill:#6A6A6A;}
	.st205{fill:#616161;}
	.st206{fill:#BEBEBE;}
	.st207{fill:#818181;}
	.st208{fill:#828282;}
	.st209{fill:#7D7D7D;}
	.st210{fill:#4B4B4B;}
	.st211{fill:#B0B0B0;}
	.st212{fill:#5F5F5F;}
	.st213{fill:#070707;}
	.st214{fill:#0E0E0E;}
	.st215{fill:#E6E6E6;}
	.st216{fill:#E8E8E8;}
	.st217{fill:#030303;}
	.st218{fill:#1A1A1A;}
	.st219{fill:#BDBDBD;}
	.st220{fill:#A8A8A8;}
	.st221{fill:#989898;}
	.st222{fill:#A7A7A7;}
	.st223{fill:#8B8B8B;}
	.st224{fill:#1D1D1D;}
	.st225{fill:#A4A4A4;}
	.st226{fill:#838383;}
	.st227{fill:#8A8A8A;}
	.st228{fill:#9A9A9A;}
	.st229{fill:#9F9F9F;}
	.st230{fill:#B1B1B1;}
	.st231{fill:#797979;}
	.st232{fill:#9E9E9E;}
	.st233{fill:#F5F5F5;}
	.st234{fill:#060606;}
	.st235{fill:#898989;}
	.st236{fill:#ACACAC;}
	.st237{fill:#131313;}
	.st238{fill:#868686;}
	.st239{fill:#AEAEAE;}
	.st240{fill:#9D9D9D;}
	.st241{fill:#A6A8AB;}
	.st242{fill:#0A0A0A;}
	.st243{fill:#FDFDFD;}
	.st244{fill:#EEEEEE;}
	.st245{fill:#9B9B9B;}
	.st246{fill:#101010;}
	.st247{fill:#0C0C0C;}
	.st248{fill:#ECECEC;}
	.st249{opacity:0.55;fill:none;stroke:#7F7F7F;stroke-miterlimit:10;}
	.st250{fill:#020202;}
	.st251{fill:#A3A3A3;}
	.st252{fill:#FAFAFA;}
	.st253{fill:#040404;}
	.st254{fill:#111111;}
	.st255{fill:#080808;}
	.st256{fill:#090909;}
	.st257{fill:none;stroke:#050505;stroke-miterlimit:10;}
</style>
<path class="st151" d="M234.5,283c-1.2-1.9-3.1-3-5-3.9c-1-0.4-1.5-1.3-1.8-2.2c-3-3.4-6.1-6.4-11.1-6c-2.6-1.5-3.6,0.3-4.4,2.2
	c-1,2.7-1.3,5.7-3.1,8.1c-1.8-1.4-2.4-3.5-3-5.6c-0.1-1.3,0.7-2.5-0.1-3.8c-2.1-3.3,0.2-5.6,1.4-8.6c2.1-5.8,8-8.9,9.4-14.9
	c0.6-2.8,0.6-5.1-2.1-6.8c-0.4-0.2-0.9-0.3-1.3-0.6c-1.2-1.1-3.2-1-4.1-2.7c-0.3-0.9-0.3-1.8-0.3-2.8c-0.2-4,2.3-4.6,5.5-4.4
	c0.3-0.2,0.6-0.3,0.9-0.5c1.6-1.7,0.7-4.9,3.4-5.9c1.2-0.4,2.4-0.6,3.5,0.4c0.9,1.4,0.9,3.2,1.8,4.6c0.7,1,0.8,2.3,1.1,3.3
	c2.7-2.7,2.4-7.8,7-9c0.5,0.1,1,0.3,1.3,0.7c1.2,1.9,3.4,3.4,2.8,6.1c-3.3,2.9-1.6,7.3-3.1,10.7c-1.1,2.4-3,5,1.5,5.8
	c1.3,0.1,2.7,0,4,0.1c1.9,0.2,3.6,1.6,2.9,3.3c-1.6,4.2-0.9,10.1-7.1,11.5c4.1-1.7,5-1.8,5.8-0.2c1.2,2.3,0,3.8-2,4.8
	c-0.4,0.2-0.8,0.4-1.1,0.7c-0.9,0.5-1.8,1.2-2.9,1.3l-0.3,0l-0.3,0.1c-2.1-0.2-5-2.1-4.5,2.4c-0.3,0.9-0.6,1.8-0.9,2.8
	c-0.3,0.8,0.5,1.6,0.9,1.5c1.8-0.5,3.2,1.4,4.5,1.1c2.1-0.4,3.2-0.3,4.2,1.8c1.2,2.4-0.6,3.2-1.6,4.6
	C235.9,283.5,235.2,283.5,234.5,283z"/>
<path class="st151" d="M71.6,135.7c-3.3,0.4-1.3-2.8-2.4-3.8c-2.5-0.4-4.8,0.9-7.4,0.6c-1.8-0.2-3.2,1.5-3.7,2.9
	c-1.5,4.6-5.6,7.8-6.1,12.8c-0.4,3.9-1,7.9-1.5,11.8c0,0.3,0.1,0.7,0.3,0.9c-0.2,0.7,0,1.8-1.1,2c-0.9,0.2-1.1-0.5-1.3-1.1
	c-0.1-0.5-0.5-1-0.4-1.4c1.3-4.6,0.6-9.7,3.2-14.3c-1.9,0.1-2.5,2.2-4.7,2.6c1-3.4,4.6-4.6,5.5-7.5c1.5-0.3,2.1-1.5,2.5-2.8
	c0.5-1.4,1.4-2.6,2.1-3.9c2.4-4.3,6.6-3.9,10.5-4.4c4.1-0.5,4.9-1.3,5-5.5c0.1-1.9-0.6-3.9,2.6-3.8c1.4,0.1,1.3-1.3,1.3-2.6
	c0-2.4-1.4-4.8-0.1-7.3c1.8,0.9,1.7,2.5,1.7,4.1c0,0.8,0,1.7,1,2c1.1,0.2,2.1-0.4,2.4-1.4c0.8-3.7,4.4-6.1,4.1-11.1
	c2,2.3,1.8,4.2,1.2,5.4c-1.6,3-2.3,6.4-4.8,8.9c-3.6,3.4-5.6,7.9-8,12.1C72.6,132.4,73.3,134.5,71.6,135.7z"/>
<path class="st151" d="M163.7,221.8c-0.1,0.8,0,1.6,0.5,2.4c1.9,2.8,2.9,5.6,1.9,9.3c-0.5,1.9-1.2,5.1,1.5,6.9
	c0.9,0.6,0.5,1.3,0.3,2.2c-0.3,1.4-0.7,3-0.5,4.4c0.1,1.1,1,2.2,2.4,1.1c1-0.8,1.9-1.9,3.6-1.8c0.7,1.8-0.9,2.3-1.8,2.9
	c-3.9,2.5-4.8,6.3-4.9,10.5c0.3,0.4,0.9,0.7,1.1,1.3c-0.3,2.6-2.4,5.2-0.2,8c-0.6,0.7-1.3,0.5-2,0.3c-1.4-0.1-2.1-0.9-2.2-2.2
	c0.1-3-0.5-6,0.4-9c1.8-6.8,1.5-13.5-0.6-20.3c-0.8-2.6,0.1-5.8-0.3-8.8c-0.6-4.5-0.6-4.5-4.2-7.1
	C160.4,220.5,162.1,222.7,163.7,221.8z"/>
<path class="st151" d="M-2.4,225.9c-1-2.2-2.7-3.1-5-3c0-2.8,1.8-3.3,3.9-2.9c1.5,0.3,2.5,0.1,3.9-1.5c-3-0.8-5.3-2.1-4.8-5.6
	c1.7,0,3.5,0.1,5-1.1c-0.3-0.4-0.2-0.7,0.2-0.9c1-1.1,1.2-2.5,1.5-4c0.5-2.3,1.5-0.5,2.2,0c1.4,0.2,2.9,0.1,4.1,1c0,0.7,0,1.3,0,2
	c0.7,1-0.3,1.5-0.7,2.2c-1.1,1.6-3.6,1.8-4.3,3.8c0,0.3,0,0.6,0,0.9c1.2,1.3,4.3,0.8,3.9,3.7c-0.4,2.5-2.2,3-4.4,2.8
	C0.9,223.3,0.9,228.2-2.4,225.9z"/>
<path class="st151" d="M156.6,238.9c0.7-0.4,0.6-1.9,1.6-1.5c0.9,0.3,1.9,1.5,1.3,2.3c-1.3,1.7-0.5,4-1.8,5.6c-0.7,0.9-1,2-1.1,3.2
	c0,1-0.1,2.1-1.7,1.6c-1.2-0.4-1.2-1.3-0.9-2.4c0.7-2.3,2.9-4.1,2.4-6.8C156.1,240.2,156,239.5,156.6,238.9z"/>
<path class="st151" d="M156.6,238.9c-0.1,0.7-0.1,1.4-0.2,2c-4.2,0.7-4.7,0.3-5.9-5l0.1-0.1C153,236.1,154.1,239,156.6,238.9z"/>
<path class="st151" d="M149.7,236c-0.6,1.6,0.4,3.2-0.1,5.1c-2.6-0.7-3.2-2.2-2.7-4.4c0.4-1.5,1.3-1.7,2.6-0.9L149.7,236z"/>
<path class="st151" d="M154.5,230.9c-2.4-2.2-2.4-2.2,0.3-5.7C155.7,227.3,153.9,228.9,154.5,230.9z"/>
<path class="st151" d="M157.4,255.8c0.5-1.7,1-3.4,1.6-5.2c2.1,2.3,2.1,2.3-1.3,5.6C157.7,256.2,157.4,255.8,157.4,255.8z"/>
<path class="st151" d="M161.6,211.8c0.7-0.3,1.4-0.7,2-1c2.4,1.8-0.4,2.1-0.9,3.1C160.7,214.1,160.7,213.2,161.6,211.8z"/>
<path class="st151" d="M163.7,218c2.8,1.3,2.8,1.8-0.1,3.9C163.2,220.6,162.9,219.3,163.7,218z"/>
<path class="st151" d="M150.6,235.9c-0.3,0-0.6,0-0.9,0.1c0,0-0.2-0.2-0.2-0.2c0-0.2,0.1-0.3,0.1-0.5c0.5-1,0.5-2.3,1.9-2.5
	c0.3,0,0.7,0.2,0.8,0.4C152.7,234.6,151.3,235,150.6,235.9C150.7,235.9,150.6,235.9,150.6,235.9z"/>
<path class="st151" d="M1.9,191.8c-0.6,0.3-1.5,0.6-1.7-0.1c-0.5-1.4,0.7-1.6,1.7-1.8C1.9,190.5,1.9,191.2,1.9,191.8z"/>
<path class="st151" d="M160.4,232.3c-0.6,0-0.9-0.5-0.8-0.9c0.1-0.4,0.4-1.1,0.7-1.1c0.8-0.2,1.2,0.4,1.1,1.1
	C161.3,232,160.9,232.2,160.4,232.3z"/>
<path class="st151" d="M147.8,232.2c0.2,0.2,0.3,0.4,0.5,0.6c-0.2,0.1-0.5,0.3-0.7,0.4c0,0-0.3-0.3-0.2-0.3
	C147.4,232.6,147.6,232.4,147.8,232.2z"/>
<path class="st151" d="M157.2,222.5c-0.2,0.5-0.5,0.9-1,0.9c-0.2,0-0.4-0.4-0.5-0.7c0-0.6,0.3-0.9,0.9-0.7
	C156.8,222.1,157,222.4,157.2,222.5z"/>
<path class="st151" d="M181.6,48.9c-0.6-0.2-1.3-0.3-1.9-0.7c-0.4-0.2-0.9-0.7-0.9-1.1c0-0.8,0.7-1.1,1.4-1.1c1,0,2,0.1,3,0.2
	c3.4,0.2,3.6-0.2,2.4-3.3c-0.2-0.6-0.4-1.2-0.7-2.5c-2.2,2.8-4.8,3.6-8,3.2c-1.8-0.2-3.6,0.6-5.3,1.2c-1.8,0.6-2.7-0.7-2.3-2.2
	c0.7-2.9,2.2-5.5,4.5-7.6c1.1-0.9,2.1-0.4,3.2,0.2c5.4,3.1,6.9,3.3,13.2,2.1c0.8-1.4-1.1-1.9-1-3.1c0.1-1,0-2,0-3.2
	c2.7,0.8,4.2,4.4,7.5,2.8c2-2.4,5.8-2.4,7.4-5.4c0.5-0.8,1-1.6,1.5-2.3c4.1-2.9,5-2.8,6.2,1.5c0.8,2.9,2.9,1.8,4.3,2.1
	c6.5,1.4,7.1,1.9,6.9,8.5c-0.8,1.9-2.4,3.4-2.4,5.6c-1,1.5-3.1,2.5-2.2,4.8c3.5,1.6,5.9-1.6,9-1.9c1.7-0.4,1.8-3,3.9-2.9
	c2.7-2,5.9-3.5,8.3-6c0.2,0.1,0.4,0.2,0.6,0.3c0.7,0.8,0.5,2,1.2,2.8c0.2,0.3,0.4,0.7,0.4,1.1c-0.1,0.8-0.4,1.6-0.4,2.4
	c-0.2,3.1-1.7,0.5-3.1,0.4c0.7,3.2,1.8,6.2,0.9,9.3c-0.3,1.1,2.8,1.8,1,3.1c-1.6,1.2-3.1-0.5-4.4-1.4c-0.8-0.6-1.5-1.3-2.3-1.9
	c-1.4,1.7-1.3,3.4,0,5c0.2,1.2-0.1,2.2-0.4,3.3c-0.2,0.4-0.4,0.7-0.7,1c-0.5,0.6-0.8,1.3-0.9,2.1c-0.1,1.5,0.3,2.9,1,4.2
	c1,2.5,5.5,4.4,1.4,7.8c-0.1,2.7-1.7,3.6-3.9,2.4c-1.9-1-3.4-0.2-5.1,0.2c-1.8,0.3-2.7-1.2-4.1-1.9c-0.4-0.1-0.8-0.2-1.2-0.2
	c-0.4,0-0.9,0-1.3-0.1c-4.9,1-7-1.5-7.5-6c-0.5-1.2-1.1-2.3-2.7-2.4c-0.9-0.2-1.7-0.5-2.6-0.8c-0.9-0.3-1.9-0.3-2.5-1
	c-0.7-2.1-1.8-4.2-4.4-3.5c-4.8,1.3-6-1.8-7.1-5.3c-1.4-3.1-5-4.7-5.7-8.3c-0.2-1-0.5-1.9-1.4-2.5C183.4,48.7,182.8,49.7,181.6,48.9
	z"/>
<path class="st151" d="M221.7,37.9c0.3-2.7-0.7-4.6-3.5-4.9c-1.8-0.2-3.7-2.8-5.4,0.3c-0.1,0.2-0.5,0.4-0.8,0.4
	c-1.5-0.2-3.7-3.8-3.1-5.2c0.4-0.8,1.7-1.6,0.5-2.4c-0.9-0.7-1.8,0.5-2.6,0.9c-2.2-0.5-1.4-3.2-3.1-4.1c-0.3-0.4-0.5-0.8-0.7-1.2
	c-1.6-2.3-2.4-4.8-1.4-7.6c0.5-1.6,2.6-1.6,3.1-3.2c0.2-0.7,0.4-1.4,0.7-2c2.4-0.5,4.1-0.4,4.3,3c0.1,2.7,1.1,5.4,4.9,4.2
	c0.4,0,0.8,0,1.2-0.1c2.5,1.4,1,3.1,0.2,4.6c-0.4,0.5,0.2-0.2-0.2,0.3c0.1-0.1,0.1-0.1,0.2-0.2c1-2.1,2.3-3.4,4.8-2.6
	c1.5,0.8,3.4,1.2,4,3.1c1.3,1.6,2.7,3.2,4,4.9c-1,1.2-2.2,2.3-1,4c-0.8,3.2-3,5.5-4.6,8.2C222.5,38.3,222.1,38.2,221.7,37.9z"/>
<path class="st151" d="M205.6,6.9c-1.5-3.2,1.2-4.4,2.9-6.1c1-1.1,3.2-1.9,1.2-3.9c0.1-0.6,0.4-0.9,1-1c1.1-1.5,0.7-3.6,2-5
	c0.7,0.5,1.3,1.1,2,1.5c1.3,0.7,3.7-1,4,0.7c0.3,2.6,1.9,5,1.1,7.7c-0.4,1.4-1,2.8-1.5,4.2c-0.8,2.5-3.5,0.1-4.6,1.9
	c-1.2,1-2.4,0-3.6-0.1C208.5,6.4,207.1,8.1,205.6,6.9z"/>
<path class="st151" d="M210.6,4.9c0.2-1.9,0.9-2.5,2.3-0.8c0.7,0.8,0.3,1.9,0.6,2.8c-1.2,1.9,1,4.9-2.1,6.4c-0.2,0.1,2.1,1.5,3,2.6
	c-0.3,2-0.6,3.9-3.4,3.4c-1.1-0.2-1.5,1.7-3.2,1.3c2.9-4.7,0-8.2-2.5-11.8c0.1-0.3,0.3-0.6,0.4-0.9C207.3,6.9,209.4,6.6,210.6,4.9z"
	/>
<path class="st151" d="M220.7,18c-1.7,1-3.1,2.4-5,2.8l0.1,0.1c0-1.7,0-3.3,0-5C217.3,16.5,219.4,16.3,220.7,18z"/>
<path class="st151" d="M51.4-13.2c1.8-0.1,3.4-1.3,5.2-1c0.6,0.1,1.4-0.2,1.9,0.1c3.1,1.4,3.1,1.5,6.2,0.1c1.7-0.8,3,0,2.7,1.9
	c-0.3,1.3,0.2,2.6,0,3.9c-0.5-0.4-1,1.8-1.4,0c-0.1-0.6,0.1-1.3-0.7-1.6c-0.6,1.2-1.1,2.5-1.7,3.7c-0.7,1.6-1.6,3-2.1,4.8
	c-0.6,2.3-2,4-4.6,1.8C54.7-3,57.6-6.5,56.7-9.8c0.1,0.1,0,0,0.1,0.1c1,2.9-2.1,5.5-0.3,8.3c-0.4,1.5,0.3,2.9,0.5,4.3
	c0.2,2.1-0.8,3.6-2.6,4.2c-2.2,0.7-2.7-0.9-3-2.7C51.1,3,50,2.3,48.6,1.9c-0.9,0.4-1.9,0.7-2.5,1.4c-1.1,1.2-1.9,2.6-2.5,4.2
	C42.9,9.4,46,9,45.4,10.7c-0.7,1.4,0.5,4.6-3.1,3.3c-0.4-0.3-0.8-0.6-1-1.1c-0.5-1.2-1.4-2.2-1.7-3.4c-0.3-2.1,0.5-3.8,1.5-5.7
	c2.5-4.5,5.2-8.9,8.6-12.8c1.7-1,1.9-2.6,1.8-4.3L51.4-13.2z"/>
<path class="st151" d="M109.7-4c0.9,0,0.8-1.9,2.4-1c1.3,0.7,2.5-0.5,3.6-1.1c1.7,0.1,2.7,1.2,2.3,2.6c-0.8,2.8,0.7,5.1,1,7.7
	c-0.3,1.3-1,2.3-2.4,2.7c-0.9,0.5-1.6,1.9-2.9,0.7c-0.5-0.5-1-1.3-1.5-1c-3.7,1.9-2.7-0.8-2.6-2.6c0.6-1,1.4-1.9,1.7-2.9
	c0.3-1,1-3.2-1.6-1.3c-0.9,0.7-1.3-0.4-1.4-1.3C108.2-2.7,109.1-3.3,109.7-4z"/>
<path class="st151" d="M52.6,40.8c0.1,0.4,0.2,0.8,0.3,1.2c0.3,0.4,0.2,0.7-0.3,0.8c-2,0.6-3.8-1.2-5.9-0.5c-0.9,0.3-1.2-0.3-1.2-1
	c-0.1-1.5-0.6-2.1-2.2-1.5c-0.9,0.3-2,0.2-2.9,0c-1.9-0.4-3.5-1.1-2.3-3.7c0.5-1,0.2-2.3,0.5-3.4c0.3-1,1.2-1,2-0.9
	c1.6,3.6,2.3,3.9,6.1,2c0.9,1.7-1,4.1,0.9,5.3C49,40.2,50.7,41.1,52.6,40.8z"/>
<path class="st151" d="M42.5,13c2.7,1.5,1.5-2,2.9-2.2c0.1,0.7,0.1,1.3,0.3,1.9c1.7,4.4,1.7,5.7,1,9.5c-0.4,2.4-1.7,3.8-4,4.5
	c-0.1-0.6-0.3-1.2-0.4-1.9c-0.3-0.5-0.1-0.8,0.5-0.9c0.5-0.8,0-1.5-0.3-2.2c0.5-2.4,0-4.5-1.9-6.1C40.6,14.2,41.1,13.3,42.5,13z"/>
<path class="st151" d="M107.8,3.8c-1.1,2,0,4.6-1.7,6.4c-2-0.2-2.8-1.6-3.2-3.3c-0.2-1.1-0.4-1.8-1.8-1.7c-1,0-1-0.9-0.3-1.2
	c2.2-1.1,1.1-2.7,0.7-4.2C105.8-1.7,105.8-1.7,107.8,3.8z"/>
<path class="st151" d="M63.6,0.9c-1.3,0.3-2.2,1.2-3.3,1.8c-2.7,1.5-3.5,0.8-3.6-2.8c0.2-0.5,0.5-0.6,0.8-0.1c1.8,0.4,1.7-1,1.9-2.1
	c0.4-2.2-0.2-4.7,1.9-6.4c1.5,0.2-0.7,3.6,2.2,2.5C63.8-3.8,64-1.5,63.6,0.9z"/>
<path class="st151" d="M48.5,1.9c0.9,0.1,2.1-0.2,2,1.3c0,2.2-0.1,4.5-0.1,6.7c-0.3,0.4-0.6,0.4-0.9,0C48.2,10,47.1,9.5,47.8,8
	C48.8,6,48.4,3.9,48.5,1.9z"/>
<path class="st151" d="M79.2-1.1c1.3,1.8,0.7,3.3,0.3,4.7c-0.3,1.3-1.3,1.3-2.3,0.9C76,4,75.8,3.3,76.2,2.1
	C76.8,0.6,78-0.1,79.2-1.1z"/>
<path class="st151" d="M49.6,9.9c0.3,0,0.6,0,0.9,0c1.7,0.7,3.3,0.9,5-0.1l0.3,0.3c-0.1,0.3-0.2,0.5-0.2,0.8
	C54.5,12,53.9,13.7,52,14C50.6,13.1,50.4,11.3,49.6,9.9z"/>
<path class="st151" d="M94.5,0.6c0.5,0.1,1.6-0.3,1.6,0.5c0,1.5-1,2.2-2.6,1.8C93.3,1.9,93.6,1.1,94.5,0.6z"/>
<path class="st151" d="M71,6.9c0.5,0.3,0.6,0.7,0.6,1.2c-0.1,0.7-0.5,1.3-1.2,1.3c-0.8,0-1-0.7-0.8-1.4C69.7,7.3,70.2,6.9,71,6.9z"
	/>
<path class="st151" d="M93.6,2.8c-0.2,1.5-0.9,1.8-2.1,1C92,3.2,92.7,2.8,93.6,2.8z"/>
<path class="st151" d="M109.7,58.5c-0.3-0.6-0.8-1.7-0.9-1.6c-2.9,0.7-4.2-1.8-6.1-2.9c-2.3-1.3-4.4-2.9-6.7-4.1
	c-1.8-0.9-2.2-2.5-2.3-4c-0.2-2.2-1.1-3.6-2.7-5c-1.8-1.6-2.7-4-2.1-6.2c0.8-3.1,0.9-6.2,0.4-9.3c-0.1-0.9-0.2-1.6,0.9-1.8
	c1.1-0.2,2.3-0.9,2.5,1c2.3,2.7,3,6.5,5.7,9c1.6,2,2.8,4.1,5.7,4.8c2.2,0.5,3.1,2.7,3.9,4.8c0.2,0.7,0.2,1.4,0.3,2
	c-0.5,2.8,0.4,4.6,3.2,5.7c3.2,1.3,6.1,3.3,9.5,4.5c2,0.6,2.7,2.2,3,4.2c3.1-1.3,5.2-5.6,9.4-3.3c0.7,1,1.1,2.3,0.3,3.2
	c-4,4.6-5.7,11.5-13,12.9c-1.4,0-2.3-1-3.2-1.9C115.9,65.8,113.5,61.7,109.7,58.5z"/>
<path class="st151" d="M132.6,56.7c-0.2,0-0.3,0.1-0.5,0.1c-3.2,1.6-5.4,3.9-6.3,7.6c-0.3,1.2-1.2,3.6-2.5,0.4
	c-0.2-0.4-0.4-0.4-0.8-0.4c-3,0-2.6,0-2.4-3c0.1-1.7,3.1-3.3,0.5-5.2c-0.5-0.3-1-0.7-1.3-1.3c-0.1-0.4-0.2-0.8-0.3-1.2
	c-0.1-0.2-0.1-0.4-0.2-0.6c-2.8-4-0.1-6.7,2.2-9.4c0.2-1.8-1.3-1.4-2.2-1.8c-4.6-1.8-4.8-2.8-1.3-7.7c1.6-0.6,2.6,0.9,4,1.3
	c0.6,0.4,1.3,0.8,1.9,1.2c1.4-0.1,2.8-0.1,4.2,0c0.3-0.7,0.6-1.4,0.9-2.2c1.6,0,1.6,0.8,1,1.9c0.3,1.7-1,3.6,0.5,5.2
	c1.7-0.6,0.2-2.8,2-3.2c1.6,0.6,0.5,3.9,3.6,3.5c-0.1-2-0.3-4.2,1.9-5.4c2.8,1.9,3.1,6.1,0.7,10.5c-1.2,1-2.5,0.2-3.7,0.1
	c0.1,0.1,0,0.3,0,0.3c0.3,1,0.3,2.2,1.4,2.6c2.6,1,4.7,2.4,3.2,5.5C137.8,58.8,135.1,57.8,132.6,56.7z"/>
<path class="st151" d="M202.7,75.9c-0.7,0.3-1.4,0.6-2.1,0.9l0,0c-1.2-0.9-2.6-1-4-1c-0.7,2-4.1,1.2-4,3.9c0,2.1,1.7,3.1,3.1,4.3
	c0.8,0.7,1.2,1.6,0.9,2.7c-0.4,1.2-1.4,1.2-2.4,1.3c-1.2,0-2.3,0-3.5,0.1c-1.4,0.2-2.4-0.1-2.5-1.6c-0.1-2-3-2.3-2.5-4.5
	c-0.9-0.9-1.2-2.4-2.9-2.4c-0.5,1.7-2.2,0.2-2.9,0.9c-1.3,1.3-1.9,3.2-1.5,4.9c0.3,1.5,2,0.6,3,0.6c1.4,0,2.6,0.2,2.9,2
	c-1.6,0.8-3-0.2-4.4-0.2c-2.3,0-3.8-1.1-3.8-3.6c0-1.5-0.4-2.6-1.8-3.2l-0.4,0.1l-0.3-0.4c-0.8-0.8-2.6-1.1-1.1-3
	c1.6-1.9,2.9-4,4.3-6c1.3-0.6,2.5-1.5,3.7-2.3c1.4-0.2,2.7-0.9,4.1-0.8c3.8,4.6,9.1,3.4,14.1,3.6c1.5,0,3-0.2,4.4,0.2
	c1.1,0.2,1.9,0.9,1.7,2C204.6,75.7,203.9,76.3,202.7,75.9z"/>
<path class="st151" d="M164.5,66.9c-1.6-0.3-3.2-0.7-4.8-1c-2.1-3-0.3-4.8,2.1-6.1c1.8-1,4-1.5,6.1-1.8c2.1-0.8,4.4-0.7,6.6-1.1
	c0.9-0.4,2.7-0.2,1.5-2.1c-0.8-1.3,0-1.8,1-2.1c1.6-0.4,1.9,0.9,2.1,2c0.2,1.6-1.7,2.5-1.4,4.1c1.3,0.8,2.5-0.4,3.8-0.2
	c0.5,0.2,0.8,0.6,1.1,1c0.4,3.2-0.1,6.2-2.4,8.7c-2,0.9-3-0.8-4-1.9c-1.3-1.4-2.5-2.6-4.6-1.6c-1.6,0.6-1.9,1.6-1,3l0,0
	c-1.3,0.8-2.7,0.2-4-0.1C166,67.2,165.4,66.8,164.5,66.9z"/>
<path class="st151" d="M202.7,75.9c0.6-0.6,1.2-1.8-0.1-1.7c-6.1,0.1-12.2-1.3-18.2,0.6c-1-1.8,0.6-3.3,0.2-4.9
	c-1.7-0.6-3.9-1.2-3.2-3.5c0.9-2.8,3.2-1,5-0.9c3,0.9,3.3,5.4,7,5.4c3.8-0.3,3.3-4.2,5.2-6.1c2.9-2.2,3.7,0.7,5.1,2.1c1,0,2,0,3,0
	c0.5,0.6,0.8,1.5,1.9,1.1c2.7-1,2.4,1.5,3.1,2.8c-0.1,1.1-0.6,1.8-1.6,2.2c-1.4,0.6-2.5,1.8-2.4,2.9c-1.8,0.7-2.8,2-1.9,3.8
	c0.9,2-0.4,3-1.2,4.4c-2.4-0.1-2-2.4-3-3.6c0-0.2-0.1-0.4-0.1-0.6c0.3-0.6,0.6-1.3,1.1-1.9C202.7,77.2,202.7,76.6,202.7,75.9z"/>
<path class="st151" d="M109.7,58.5c1.2-0.3,2.5-0.8,3.7-1c0.8-0.1,1.7,0.2,1.8,1.2c0.5,3.7,3.3,6.7,3.5,10.5
	c1.1,3.3-0.5,4.7-3.5,5.3c-0.2,0-0.5,0-0.7,0.1c-1.6-4.2-4.7-7.6-5.8-12.1C108.4,60.6,108.7,59.7,109.7,58.5z"/>
<path class="st151" d="M158.4-9.3c2.9,2,6.1,3.7,7.2,7.4l0.3,0.4l-0.3,0.4c-0.5,0-1,0-1.5,0c-0.5,0.7-0.6,1.8-1.6,2
	c-0.9-0.5-1.8-0.7-2.9-0.6c-0.7,0-1.6-0.3-1.2-1.1c1.6-3.9-2.2-4.4-3.7-6.3c-2.4,0.2-3.8-1.4-5.1-3.1l0.1,0.1
	c-0.5-0.5-1.1-1-1.8-1.3c-3.1-0.7-5.1-2.3-4.4-5.9c2.1-2.2,1.8-7,6.6-6.3c0.8,0.6,2.1,1.4,1.9,2c-1.4,5.1,2.6,7.8,4.5,11.5l0-0.1
	C157-9.3,157.8-9.5,158.4-9.3z"/>
<path class="st151" d="M144.6-17.2c-0.3,3.5,3.4,3.3,4.8,5.2c-0.6,0.7-1.3,1.4-1.8,2.3c-0.5,2.1-0.8,4,1.2,5.9c1.1,1,1.3,3,1.6,4.6
	c0.2,0.8-0.5,1.8-1.3,1.9c-0.9,0.2-1.3-0.8-1.7-1.5c-0.6-1.2,1-2.1,0.2-3.3c-3,0.6-3,0.6-2.2,4.2c-2.2-1.4-6.2-0.9-6-5.1
	c1-0.4,1.7-1.1,2-2.1c0.4-3.1-0.3-5.8-2.1-8.3c0-0.5,0.1-1,0.3-1.5c1.1-1.3,1.8-3.3,4.2-2.7C144.2-17.5,144.4-17.4,144.6-17.2z"/>
<path class="st151" d="M118.7,34.5c-0.4,0.6-0.7,1.1-1.1,1.7c-1.3,2.4-0.3,3.7,2,4.3c0.1,0.2,0.2,0.5,0.3,0.7
	c0.6,0.9,0.9,1.8,0.5,2.8c-1.2,2.1-2.9,3.3-5.3,3.7c-1.4-0.1-2.6-1-4.1-0.7c-0.5,0-0.9,0-1.4,0c-1.2,0-2.1-0.5-2.8-1.5
	c-0.1-0.6-0.2-1.2-0.3-1.8c-0.3-3.3-3.5-5.8-2.8-9.4c0.3-0.7,0.8-1.3,1.5-1.7c0.5-0.2,0.9-0.4,1.4-0.4c2.5,0.3,3.4,2.3,4.5,4.9
	c1.6-2.6,4.2-3.4,6.4-4.6c1.4-0.9,2.4-0.7,3.1,0.9C120.3,34.4,119.8,35,118.7,34.5z"/>
<path class="st151" d="M168.6,59.9c-0.3,0.6-0.7,1.2-1.5,1.1c-1.3-0.2-2.6-1.7-3.7-0.7c-1.7,1.5-3.6,3-3.6,5.7
	c-0.2,2.4-0.5,4.9,1.7,6.7c-1.1,0.8-2.5,1.1-2.8-0.3c-1.4-6.1-2.8-12.2,1.9-17.8c1.8-2.1,2.9-2,4.7-0.3c-1.1,1.2-3.6,1.2-3.2,4
	c1.8-1.4,4.8-1,4.5-4.5c-0.1-0.7,0.6-1.2,1.3-1c0.9,0.3,0.4,1,0.2,1.6c-0.2,0.4-0.2,1-0.3,1.4c0.9,1,1.2,2.1,0.8,3.5
	C168.6,59.5,168.6,59.7,168.6,59.9z"/>
<path class="st151" d="M104.8,34.6c2.4,2.7,1.8,6,1.8,9.1c-0.7,0-1.3-0.1-2-0.1c-0.8-0.1-1.9-0.1-0.7-1.2c0.4-0.4,1.3-0.8,0.8-1.5
	c-0.4-0.6-1.3-1-2.2-0.9c-1.5,0.2-2.2,2-3.9,2.5c-1.1-2.6,0.3-5.5-1-7.9c-0.1-0.2-0.1-0.5-0.2-0.7c-0.6-1.8-1.5-3.6-1.8-5.5
	c0.1-0.8,0.5-1.4,1.1-1.9c0.9-0.5,1.8-0.9,2.9-0.9c1.2,0.1,2.3,0.2,3.5,0.3c1.9,2.5,0.5,5.6,1.6,8.2
	C104.6,34.2,104.7,34.4,104.8,34.6z"/>
<path class="st151" d="M117.6,32.6c-0.7,0.9-1.6,1.8-2,2.8c-1.1,3.6-3.4,5.8-7.1,7.1c-0.7-1.5-0.8-3.3-0.6-5c0.2-1.6-0.2-2.9-1.3-4
	c-0.7-1.7-0.2-2.8,1.5-3.4c1.7,1,3-1.1,4.6-0.5c0.6,0.3,1.3,0.7,1.9,1c0.9,0.3,0.5,1.4,1.1,2C116.3,32.5,116.9,32.6,117.6,32.6z"/>
<path class="st151" d="M197.6,6c2.6,0.4,3.7,2,2.1,4.1c-1.9,2.5-1.6,5.2-2,7.9c-0.6,3.6,1.1,8.5-5.1,9c-0.9-1.2,0.2-3.4-1.9-4
	c-0.6-0.1-1-0.4-1-1c0-0.6,0-1.2,0-1.8c3.1-1.4,4.6-3.4,4-7.1c-0.2-1.1-0.1-2.9,1.1-4C195.7,7.9,196.6,6.9,197.6,6z"/>
<path class="st151" d="M205.7,28.7c0.1,3.2-1.2,4.8-4.7,4.7c-1.4,0-2.8,1-4.3,0.4c0-1.1,0.3-2,0.9-2.9c1-0.9,1.1-1.9,0.3-3.1
	c-2.2-3.3-1.3-6.4,0.9-9.3c3.1-0.8,4.4,1.5,5.8,3.4l-0.1-0.1c0.5,1.5,1.1,2.9-0.2,4.3c-0.1,0.2-0.3,0.3-0.4,0.5
	c0.3-0.4,0.7-0.7,1.1-0.9C206.6,26.4,206.3,27.5,205.7,28.7z"/>
<path class="st151" d="M181.6,60c0-0.4,0-0.8-0.1-1.3c1.4-2.7,2.7-5.4,4.1-8.1c3.4,1.2,5.5,3.6,6.9,6.7c1.4,1.8,1.1,3.4-0.7,4.8
	c-1.1,0.9-2.5,0-3.7,1c-3.8,3.3-4.1,3.2-6-1.4C182,61.2,181.8,60.6,181.6,60z"/>
<path class="st151" d="M178.6,22.8c-1,0-2,0.1-3,0.1l0.1-0.1c-1,2.6-3.2,1.1-5,1.9c0.2-3,2.7-3.7,3.8-5.5c1.3-2,0.5-4.2,1.2-6.2
	c0.4,0,0.9,0,0.9,0.1c1.3,3.8,2.1,4,5.3,1.6c0.5-0.4,1-0.8,1.4-1.3c0.6-0.8,1.3-2,2.2-1c1,1,0.5,2.1-0.7,2.8
	c-1.4,0.8-3.3,0.8-3.9,2.7c0.4,0.7,0.4,1.4-0.2,2C179.8,20.8,178.7,21.5,178.6,22.8L178.6,22.8z"/>
<path class="st151" d="M198.8,18.6c0,0.7,0,1.3,0,2c-0.1,2.3,3,0.8,3.1,2.4c0.1,2.3-2.6,0.5-3.3,2c-0.5,1.1-0.1,1.9,0.4,2.7
	c1.3,1.8,0.4,2.7-1.4,3.1c-0.3-2.3-1.4-3.1-3.7-2.2c-2.2,0.8-1.5-0.7-1.3-1.8c1.3-1.6,3.1-2.8,2.9-5.3c-0.1-1.5,1.5-2.4,2.2-3.7
	c0.4,0,0.8,0.1,1.2,0.1C198.9,18.2,198.8,18.4,198.8,18.6z"/>
<path class="st151" d="M93.7,64.6c0.9-2,1.5-4.3,3.9-5.1c0,0,0,0,0,0c1.1,1.1,2.8-0.1,4,1c-0.4,0.4-0.7,0.7-1.1,1.1
	c-0.7,0.5-1.4,0.6-2.1-0.1c-0.6,1.3-1.4,2.8,0,4c2.3,1.9,0.7,2.9-0.9,3.3c-1.8,0.4-3.6,0.5-4,2.8c-0.7-1.1-1.5-2.1-2-3.2
	C90.7,66.2,91.6,65,93.7,64.6l0.2,0.4L93.7,64.6z"/>
<path class="st151" d="M180.9,109.8c-0.4,0.4-0.7,0.8-1.1,1.2c-0.2,2,1.8,3.6,1.2,5.7l-0.4,0.2c-2-0.2-3.8-1.4-5.8-0.8
	c0.1-1.3,0.7-1.5,1.3-1.7c1.2-0.3,1.9-1.3,0.6-1.9c-3-1.5-2.5-3.3-1.2-5.6c0.6-0.8,1.3-1.5,1.8-2.3c1.4-1.9,2.4-1.3,3.4,0.4
	C181,106.6,181.9,108.2,180.9,109.8z"/>
<path class="st151" d="M173.5,26.8c1.4-0.5,2.8-1,4.4-0.8c2,0.2,3,1.3,3,3.3c0,1.8-1.3,2.1-2.8,2c-2.8-0.2-5.6-0.3-8.4-0.5
	C169.7,28.4,171.1,27.2,173.5,26.8z"/>
<path class="st151" d="M171.6,64.9c0.3-0.9,1.3-2.4,1.7-2.1c1.1,0.9,3.2,0.3,3.6,2.2c0.3,1.5,1.7,2,2.8,2.7c2.4,0.5,1.1,2,0.9,3.2
	c0.1,0.8,0.3,1.6,0.9,2.3c0.4,0.5,0.6,1.1,1.2,2.4c-2.8-0.8-4.4-2.2-5.8-3.8C176.4,68.5,174.2,66.6,171.6,64.9z"/>
<path class="st151" d="M156.6,28.9c1.7-2.5,2.5-5.8,6.4-6.1c0.9-0.1,1.6-1.9,2.5-3c0.6,0.6,1.6,0.2,2.1,1.1c-1,1.1-1.5,2.4-2.2,3.8
	C164,27.9,160.6,29.4,156.6,28.9L156.6,28.9z"/>
<path class="st151" d="M162.6,34.9c1.1-0.4,2.2-0.9,3.4-0.8c1.3,0.1,2.2,0.7,2.4,2.1c0.2,1.3-0.2,2.4-1.3,3
	c-2.1,1.1-4.3,0.6-6.2-0.4c-0.8-0.4,0.4-1.4,0.7-2.1C161.1,35.6,160.9,34.7,162.6,34.9z"/>
<path class="st151" d="M194.7,8.9c0,1.9,0,3.9,0.2,5.8c0.4,4.1,0.3,4.3-3.8,5.1c-0.5,0.1-1,0.1-1.5,0.2c-0.9-2.6,3.1-2.7,2.6-5.2
	c-0.4-2.2,0.9-4,2-5.8C194.4,9,194.6,9,194.7,8.9z"/>
<path class="st151" d="M163.6,89.9c3.3,2.6,3.5,2.7,4.6-1c0.5-1.8,1.1-1.5,2.3-0.9c0.5,1.5-0.4,2.6-0.9,3.9l0,0
	c-0.9,1.2-1.7,2.3-1.7,3.9c0,1.5-1.1,1.8-2.3,2.1l0.1,0.1c0.2-3.8-2.8-5.6-4.9-8C161.7,89.2,162.6,89,163.6,89.9z"/>
<path class="st151" d="M186.6,95.9c1.9-0.4,4.6,1.9,5.8-1.5c0.1-0.4,0.9,0.1,1,0.6c0.3,1.8-1.5,3.9-3.2,3.6c-1-0.2-2-0.8-2.7,0
	c-1.2,1.3,0.7,1.9,0.9,2.9c0.1,0.5,0.2,1,0.3,1.4c-0.1,1.3-0.8,2-2.1,2C185.4,101.9,183.6,98.9,186.6,95.9L186.6,95.9z"/>
<path class="st151" d="M186.6,104.9c0.7-0.7,1.4-1.3,2.1-2c1,0.7,1.7,1.6,1.9,2.9c0,0.7,0.1,1.4,0.1,2c-0.3,1-0.7,2-1,2.9
	c0.3,1.8,0.1,3.5-1,5c-0.3,0.4-0.6,0.8-0.9,1.2c-0.2-0.1-0.3-0.2-0.5-0.3c-1.8-2.7-1.2-5.5-0.8-8.4c0.1-0.4,0.1-0.9,0.2-1.3
	c0-0.6,0.2-1.1,0-1.7C186.6,105.2,186.6,104.9,186.6,104.9z"/>
<path class="st151" d="M158.3,103.2c-0.6,0.7-1.3,0.9-2.1,0.2c-0.8-0.8-1.7-1.5-2.5-2.3c1.4-2.4,2.4-5,4.3-7.3
	c2.6-3.3,2.5-0.2,3.7,0.5C156.4,97.6,155.9,99,158.3,103.2z"/>
<path class="st151" d="M198.6,114.9c-1.1-0.2-1-1.2-1.1-2c0.3-0.8,0.6-1.6,0.9-2.4c-1-0.8-1.8-1.7-2.7-2.5c0-0.4,0-0.7-0.1-1.1l0,0
	c2.4-0.5,2.4-3.5,4.4-4.5C200.9,105.6,200.2,111.9,198.6,114.9z"/>
<path class="st151" d="M176.3,97.7c2.6,0,4.3-2.1,6.6-2.9c1.9-0.7,2.7-0.2,3.7,1l0,0c-3.2,0.1-3.1,3.5-5.3,5.3
	C180.4,99.1,177.4,100,176.3,97.7L176.3,97.7z"/>
<path class="st151" d="M176.3,97.7c-2.3,1.4-1.5,5-4.4,6.1c-0.8,0.3-1.3,1.5-2.4,0.7c-1.1-0.7-1.2-1.9-1-3.1
	c0.2-1.2,0.9-1.8,2.1-1.2c1.7,0.8,1.7-1.1,2.6-1.6C174.1,98.2,174.6,96.2,176.3,97.7C176.3,97.7,176.3,97.7,176.3,97.7z"/>
<path class="st151" d="M71.7,66.4c-1.9-4.6-1.9-4.6,3.2-6.2c0.3-0.1,0.5-0.4,0.7-0.6c1.3-0.5,2.4-1.5,4-1c0,0.3-0.1,0.6-0.1,0.9
	C78,64.3,75.5,66.5,71.7,66.4z"/>
<path class="st151" d="M198.6,97.9c-1.8,0.5-2-0.6-2-2c-0.6-0.7-0.6-1.4,0-2c0.3-1.3,0.8-2.4,2-3c0.6,0.1,0.8,0.6,1,1
	c1.2,0.1,2.8,0.1,1.5,1.9C200.1,95.1,198.7,96,198.6,97.9L198.6,97.9z"/>
<path class="st151" d="M204.6,91.7c2,1.4,0.2,4.9,3.3,5.7c-0.4,0.5-0.9,1-1.3,1.4c-1.6-0.1-2.8,0.8-3.8,1.9
	c-0.1,0.1-0.3,0.2-0.4,0.4c-1,0-1.8-0.3-2.5-1c0-0.6,0.2-0.7,0.7-0.3c1-0.4,1.5-1.1,2-2c0.1-1.1,2-1.6,1-3
	C203.5,93.7,203.3,92.4,204.6,91.7z"/>
<path class="st151" d="M169.3,47.1c0.9-0.2,1.7,0,1.8,0.7c0.1,1.3,0.8,1.9,1.8,2.6c1.1,0.8,0.3,1.8-0.6,2.4c-0.8,0.5-1.7,0.5-2-0.6
	c-0.3-1.4-1.2-2.3-2-3.4C167.7,47.8,168.9,47.5,169.3,47.1z"/>
<path class="st151" d="M201.6,80.4c1,1.2,2,2.4,3,3.6c0.6,1.9,1.5,3.5,2.9,4.9c0.4,0.4,0.4,0.9-0.1,1.1c-0.4,0.1-0.9-0.2-1.3-0.3
	C203.8,86.9,201.4,84.2,201.6,80.4z"/>
<path class="st151" d="M174.5,56.9c-0.7,1.4-1.6,2.4-3.3,2.2c-1-0.2-1.9,0.3-2.7,0.8c0,0,0.1,0,0.1,0c-1.1-1.7,0.1-2.8,1-4.1
	C171.3,56,173,55.9,174.5,56.9z"/>
<path class="st151" d="M192.6,79.8c-2.1-2.8-2.1-3,0.7-3.5c1.1-0.2,2.2-0.3,3.3-0.5C196.4,78.3,194.3,78.9,192.6,79.8z"/>
<path class="st151" d="M126.7,12.8c-1.1-2.5,1-4.1,1.9-6c0.9,2,2.8,4,0,6.1C128,12.9,127.4,12.8,126.7,12.8z"/>
<path class="st151" d="M173.5,26.8c-1.7,0.9-2.9,2.4-3.9,4c-0.6,0.2-1.2,0.4-2,0.6C169.3,26.5,169.5,26.4,173.5,26.8z"/>
<path class="st151" d="M186.5,108.3c0.9,2.7-0.3,5.7,0.8,8.4c-0.4,0.1-0.9,0.2-1.3,0.3c-0.4-2.9-2-5.9,0.1-8.8
	C186.1,108.2,186.3,108.3,186.5,108.3z"/>
<path class="st151" d="M180.1-3c1.1,0.1,1.9,0.6,2,1.8c0.1,1.2-0.7,2.1-1.7,2c-1.3-0.1-1.6-1.5-1.7-2.6C178.7-2.7,179.4-3,180.1-3z"
	/>
<path class="st151" d="M89,48.5c-0.9-1.7-1.7-3.1-2.7-5c2.1,0.5,3.6,0.8,5.1,1.1C91.3,46.6,89.3,46.7,89,48.5z"/>
<path class="st151" d="M195.6,106.9c-2.8-2-3-4.6-1.5-8.6C194.7,101.8,195.2,104.3,195.6,106.9C195.6,106.9,195.6,106.9,195.6,106.9
	z"/>
<path class="st151" d="M138.7,3.9c0,1.6,0.3,3.2-0.7,4.7C135.2,5.5,135.2,5.5,138.7,3.9L138.7,3.9z"/>
<path class="st151" d="M132.6,130.8c0.2,1.9,1.4,3.7,1.1,5.9c-2.1-0.1-0.9-2.4-2.1-2.8c-0.5-1.3-2.4-1.2-2.5-2.8
	C130.3,131,131.5,130.9,132.6,130.8z"/>
<path class="st151" d="M164.5,66.9c0.1-0.9-0.5-1.5-0.7-2.3c-0.3-0.9,0.2-1.6,1.2-1.7c0.7-0.1,1.3,0.3,1.4,1
	c0.2,1.3,0.2,2.6,0.2,3.9c-0.6,0-1.3-0.1-1.9-0.1C164.6,67.5,164.6,67.2,164.5,66.9z"/>
<path class="st151" d="M163.6,89.9c-0.9,0-1.9,0-2.8,0c0.8-2.1,2.6-3.3,4.2-4.8c0.8,0.5,1.5,1.1,0.5,2.1
	C164.7,88,164.2,89,163.6,89.9z"/>
<path class="st151" d="M133.7,13.8c-0.4-0.5-0.7-1.1-1-1.6c-0.5-0.8-1.1-1.8,0.1-2.5c0.9-0.4,1.3,0.7,1.9,1.2
	C135.3,12.2,135.5,13.3,133.7,13.8z"/>
<path class="st151" d="M217.7,108.7c0.4,0.5,1,0.9,1.3,1.4c0.6,1,0.4,2.1-0.5,2.6c-1.3,0.7-1.6-0.5-2-1.4c-0.3-0.7-0.6-1.5-0.8-2.3
	C216.4,108.8,217,108.7,217.7,108.7z"/>
<path class="st151" d="M162.6,34.9c-0.7,0.4-1,1-1.1,1.8c-1.6-2.1-1.4-2.6,1.2-5.4C164,32.5,162.4,33.7,162.6,34.9z"/>
<path class="st151" d="M182.8,79.6c-0.2-0.8-0.5-1.6,0.5-2.1c0.7-0.4,1.2,0,1.4,0.7c0.3,1.3,2.1,2.2,1,3.9
	C184.1,82,183.7,80.5,182.8,79.6z"/>
<path class="st151" d="M188.6,115.8c-0.2-1.8-0.5-3.6,1-5c0.8,0.1,1.6,0.3,2.1,1.1c0.3,0.4,0.2,0.6-0.3,0.8c-0.7,1-1.3,2.1-2,3.1
	c0,0-0.4,0-0.4,0L188.6,115.8z"/>
<path class="st151" d="M206.5,108c-0.6-1.6-1.1-3.2,1.1-4.1c0,0,0,0,0,0C208.1,105.5,210.1,107.5,206.5,108L206.5,108z"/>
<path class="st151" d="M165.6,97.8c0.7,2.3,0.1,4.1-1.9,5.5c-0.6,0.4-1.2,0.8-1.7,0.2c-0.6-0.6-0.3-1.4,0.4-1.6
	C164.6,101.4,164.2,98.9,165.6,97.8C165.6,97.8,165.6,97.8,165.6,97.8z"/>
<path class="st151" d="M210.7,118.9c-0.2,1-0.4,1.9-1.7,1.2c-0.8-0.4-1.6-0.8-2.5-1.3C207.9,118.1,209.3,116.7,210.7,118.9z"/>
<path class="st151" d="M179.9,13.8c-0.8-0.1-1.3-0.6-1.2-1.3c0-1.2,0.8-1.8,1.9-1.9c1.1-0.1,1.4,0.7,1.4,1.6
	C181.9,13.5,180.8,13.6,179.9,13.8z"/>
<path class="st151" d="M167.6,20.9c-0.9,0-1.7-0.2-2.1-1.1c1.2-1.1,3-1.3,4-2.7c0.4-0.5,0.9-0.3,1.1,0.2c0.2,0.4,0.3,1,0.1,1.3
	C170,19.9,168.3,19.7,167.6,20.9z"/>
<path class="st151" d="M165.6-1.1c0.1-0.3,0.1-0.5,0-0.8c2.4,0.1,3.6,1.7,3.9,3.8c0.2,1.5-0.9,1.4-1.9,0.9l0.1,0.1
	C167.6,1.3,166.9-0.1,165.6-1.1z"/>
<path class="st151" d="M195.6-2.1c0.9,0,1.7,0.4,2.2,1.1c-0.1,0.3-0.1,0.6-0.2,0.9c-0.4,0.5-0.8,1-1.2,1.5c-0.4,0.5-0.8,1.1-1.6,0.7
	c-0.7-0.3-0.6-0.9-0.3-1.6C195-0.3,195.3-1.2,195.6-2.1z"/>
<path class="st151" d="M200.9,87.5c-0.5,0-1-0.1-1.1-0.6c-0.1-0.8,0.3-1.2,1-1.2c0.5,0,0.9,0.4,0.9,0.9
	C201.8,87.1,201.4,87.4,200.9,87.5z"/>
<path class="st151" d="M169.5,91.8c1.4-0.2,2.8-0.4,4.4-0.7C172.3,93.3,172.3,93.3,169.5,91.8L169.5,91.8z"/>
<path class="st151" d="M181.6,48.9c0.9-0.2,1.8-0.5,2.7-0.7c0.6,2.5-1.5,2.7-2.8,2.6C180.3,50.7,181.4,49.5,181.6,48.9z"/>
<path class="st151" d="M167.6,2.8c0,1.5-0.7,2.7-2,3.7C165.1,4,165.1,4,167.6,2.8C167.7,2.9,167.6,2.8,167.6,2.8z"/>
<path class="st151" d="M168.6,11.1c0.6,0,1,0.3,0.9,0.9c-0.1,1.1-1.1,1.1-1.9,1.1c-0.6,0-1.4,0-1.1-1.1
	C166.7,11.4,167.7,11,168.6,11.1z"/>
<path class="st151" d="M153.5,21.7c-0.5-0.8-1.1-1.7,0.1-2.4c0.6-0.3,1.4-0.3,1.7,0.3c0.7,1.5-0.6,1.8-1.6,2.3
	C153.7,21.9,153.5,21.7,153.5,21.7z"/>
<path class="st151" d="M164.8,16.7c0.1,0.6-0.2,1-0.7,1c-0.7,0.1-1.7,0.5-2.2-0.3c-0.5-0.6,0.1-1.2,0.8-1.3
	C163.5,16.1,164.3,15.9,164.8,16.7z"/>
<path class="st151" d="M180.9,109.8c-0.1-1.6-1-3.2-0.2-4.9c0.6,1,1.2,1.9,1.8,2.9C182,108.5,181.5,109.2,180.9,109.8z"/>
<path class="st151" d="M190.6,107.8c-1.6-0.6-1.4-1.3-0.1-2C191.9,106.4,192.3,107.1,190.6,107.8z"/>
<path class="st151" d="M201.7,116.9c0.6-0.4,1.3-0.7,1.9-1.1c0.7,0.5,0.9,1.2,1,2c-0.9,0.4-1.4,1.8-2.5,1.4
	C201.3,118.8,201.6,117.7,201.7,116.9z"/>
<path class="st151" d="M191.4,112.6c0-0.3,0.1-0.5,0.3-0.8c1.3-0.2,2.6-2,3.9,0C194.3,112.5,193.1,114,191.4,112.6z"/>
<path class="st151" d="M203.6,94.9c1.3,1.6,0.8,2.5-1,3C200.1,95.9,203.5,95.9,203.6,94.9z"/>
<path class="st151" d="M98.5,61.5c0.7,0,1.4,0.1,2.1,0.1c-0.6,1.3,1.2,1.6,1.1,2.8C99.3,64.7,98.4,63.6,98.5,61.5z"/>
<path class="st151" d="M160.5,86.4c-0.6-0.1-0.8-0.5-0.9-1c-0.1-0.7,0.1-1.4,1-1.4c0.6,0,0.8,0.5,0.9,1
	C161.5,85.7,161.3,86.3,160.5,86.4z"/>
<path class="st151" d="M162.5,0.9c0.3-0.8-0.5-2.6,1.6-2c0.3,0.8,0.7,1.7,0.1,2.4C163.7,1.8,163,1.4,162.5,0.9z"/>
<path class="st151" d="M154.9,2.8c-0.4-2.1,0.9-3.3,0.5-4.8C156.3-0.4,157.3,1.1,154.9,2.8z"/>
<path class="st151" d="M212.6,118.7c-0.1-0.7-0.4-1.4-1-1.9c0.4-0.9,0.8-1.9,1.2-2.8c0.2,0,0.3,0,0.5,0
	C213.2,115.6,215.4,117.5,212.6,118.7z"/>
<path class="st151" d="M213.4,114l-0.3,0l-0.3,0c-0.3-0.4-0.7-0.9-1-1.3l0,0c0.1-0.9-0.3-2,0.7-2.7
	C213.3,111.2,214.8,112.3,213.4,114z"/>
<path class="st151" d="M204.6,107.9c0.6,0,1.3,0,1.9,0.1c0,0,0,0,0,0c-0.2,0.6-0.4,1.3-0.6,1.9c0.3,0.4,0.2,0.8-0.3,1
	c-1.4-0.1-2.5-0.8-3-2.2C203.3,108.4,203.9,108,204.6,107.9z"/>
<path class="st151" d="M195.7,108c1.9-0.2,2.5,0.9,2.7,2.5C196.1,111.2,195.7,109.8,195.7,108z"/>
<path class="st151" d="M188,0.6c0.4,0.5,0.8,1.1,1.1,1.6c0.4,0.6,0.7,1.3,0,1.7c-1,0.5-1.4-0.2-1.6-1.1c-0.1-0.5-0.1-1-0.2-1.5
	C187,0.5,187.3,0.3,188,0.6z"/>
<path class="st151" d="M196.8,100.9c0.5,0,0.7,0.4,0.7,0.9c0,0.5-0.3,1-0.9,0.9c-0.2,0-0.6-0.4-0.6-0.7
	C195.9,101.5,196.1,101,196.8,100.9z"/>
<path class="st151" d="M184.9,20.5c0.3,0.3,0.6,0.5,0.6,0.7c0.1,0.4,0.2,1.1,0,1.3c-0.5,0.4-0.8-0.2-0.8-0.6
	C184.7,21.5,184.9,21.1,184.9,20.5z"/>
<path class="st151" d="M169.6,55.9c-0.3,1.4-0.6,2.7-1,4.1c-1.3-1.2-0.8-2.7-0.8-4.1C168.4,55.8,169,55.8,169.6,55.9z"/>
<path class="st151" d="M155,48.4c-0.1,0.5-0.4,1-0.9,1c-0.7,0-1.2-0.5-1.3-1.2c-0.1-0.5,0.3-0.9,0.9-0.9
	C154.4,47.3,154.8,47.8,155,48.4z"/>
<path class="st151" d="M173.6,80.8c0.2,0.1,0.4,0.2,0.7,0.2c0,1.1-0.3,1.9-1.6,1.9c-0.6,0-0.9-0.3-0.9-0.9
	C171.9,80.9,172.9,81,173.6,80.8z"/>
<path class="st151" d="M178.7,91.7c-0.4-0.1-0.6-0.3-0.4-0.6c0.2-0.2,0.6-0.3,0.8-0.3c0.4,0,0.6,0.3,0.4,0.6
	C179.3,91.6,178.9,91.6,178.7,91.7z"/>
<path class="st151" d="M105.1,60.1c0.1-0.1,0.2-0.3,0.3-0.3c0.4,0,0.6,0.2,0.5,0.6c0,0.1-0.2,0.3-0.3,0.3
	C105.3,60.7,105.1,60.4,105.1,60.1z"/>
<path class="st151" d="M191.3,91c-0.4,0.1-0.7-0.1-0.6-0.4c0.1-0.2,0.4-0.4,0.7-0.4c0.4-0.1,0.7,0.1,0.6,0.4
	C191.9,90.7,191.5,90.8,191.3,91z"/>
<path class="st151" d="M163.6,112.9c0.7,0.3,0.9,0.9,0.8,1.5c-0.1,0.7-0.5,1.4-1.2,1.2c-0.8-0.2-0.6-0.9-0.3-1.5
	C163.1,113.7,163.4,113.3,163.6,112.9L163.6,112.9z"/>
<path class="st151" d="M155.6,53.8c-0.3,0.7-0.6,1.4-0.9,2.1l0,0c-0.7-0.1-1.9,0-1.7-1C153.2,53.4,154.6,54,155.6,53.8L155.6,53.8z"
	/>
<path class="st151" d="M196.6,81.9c0.5,0,1,0,1.5,0.1c0.5,0.1,1.1,0.1,0.9,0.8c-0.2,0.5-0.9,0.4-1.3,0.2
	C197.3,82.6,197,82.2,196.6,81.9C196.6,81.9,196.6,81.9,196.6,81.9z"/>
<path class="st151" d="M158.5,47.6c0-0.5,0.2-1,0.7-0.9c0.7,0.1,1.1,0.6,1.1,1.3c0,0.2-0.3,0.6-0.5,0.7
	C159.1,48.8,158.7,48.3,158.5,47.6z"/>
<path class="st151" d="M197.9,79.2c0,1.1-0.6,1.9-1.3,2.7c0,0,0,0,0,0c-2.9-1.9-0.4-2.4,0.8-3.2C197.6,78.9,197.7,79,197.9,79.2z"/>
<path class="st151" d="M197.4,78.7c0.8-1,1.9-1.6,3.2-1.8l0,0c-0.5,1.3-1.5,2-2.7,2.3C197.7,79,197.6,78.9,197.4,78.7z"/>
<path class="st151" d="M212.5,105.9c0,0.3,0.1,0.6,0.3,0.9c-0.3,0.6-0.6,1.1-1.3,0.9c-0.2-0.1-0.5-0.4-0.5-0.6
	C210.9,106,211.7,106,212.5,105.9z"/>
<path class="st151" d="M211.8,112.7c-0.3,0.5-0.4,1.2-1.3,1c-0.1,0-0.3-0.2-0.2-0.3C210.5,112.5,211.2,112.8,211.8,112.7
	C211.8,112.7,211.8,112.7,211.8,112.7z"/>
<path class="st151" d="M155.6,53.9c0.1-0.7,0.2-1.4,1.1-1c0.2,0.1,0.5,0.6,0.4,0.7C156.8,54.4,156.2,54,155.6,53.9
	C155.6,53.8,155.6,53.9,155.6,53.9z"/>
<path class="st151" d="M186.6,105.2c0.6,0.6,0.4,1.1,0,1.7C185.3,106.4,185.9,105.8,186.6,105.2z"/>
<path class="st151" d="M183.2,25.5c-0.1,0.1-0.2,0.2-0.3,0.3c-0.2-0.2-0.4-0.3-0.5-0.5c0,0,0.1-0.3,0.2-0.3
	C183.1,24.9,183.3,25.1,183.2,25.5z"/>
<path class="st151" d="M189.6,21.9c0.3,0.3,0.7,0.7,1,1c-0.4,0.1-0.8,0.1-1.2,0.2C189.5,22.6,189.6,22.2,189.6,21.9z"/>
<path class="st151" d="M203.6-0.1c0.3-0.4,0.6-0.7,1-1.1c0.5,0.6,1,1.4,0,1.9C204.1,0.9,203.8,0.3,203.6-0.1z"/>
<path class="st151" d="M162.9,12.7c0.2,0.2,0.5,0.3,0.5,0.5c0.1,0.6-0.3,0.9-0.9,0.9c-0.1,0-0.3-0.2-0.4-0.3
	C162.1,13.3,162.3,12.8,162.9,12.7z"/>
<path class="st151" d="M106,64.4c0.1,0.1,0.2,0.3,0.2,0.4c-0.1,0.5-0.3,0.5-0.6,0.2c-0.1-0.1-0.1-0.3,0-0.5
	C105.7,64.4,105.9,64.4,106,64.4z"/>
<path class="st151" d="M199.6,91.9c-0.3-0.3-0.7-0.7-1-1c0.5-0.3,1-1,1.6-0.2C200.4,90.8,199.8,91.5,199.6,91.9z"/>
<path class="st151" d="M180.6,19.9c0.1-0.7,0.1-1.3,0.2-2C182.4,18.7,181.9,19.3,180.6,19.9z"/>
<path class="st151" d="M184.2,30.7c-0.1,0.1-0.3,0.3-0.4,0.2c-0.5-0.1-0.5-0.3-0.2-0.6c0.1-0.1,0.3-0.1,0.5,0
	C184.2,30.3,184.2,30.6,184.2,30.7z"/>
<path class="st151" d="M170.6,67.9c0.1-0.3,0.2-0.7,0.4-0.8c0.4-0.2,0.6,0,0.4,0.4C171.2,67.7,170.9,67.8,170.6,67.9
	C170.6,67.9,170.6,67.9,170.6,67.9z"/>
<path class="st151" d="M196.6,93.9c0,0.7,0,1.4,0,2C195.7,95.2,195.1,94.5,196.6,93.9z"/>
<path class="st151" d="M204.6,107.9c-0.5,0.7-1.1,1-2,0.8C203.1,108,203.7,107.5,204.6,107.9z"/>
<path class="st151" d="M205.6,110.9c0.1-0.3,0.2-0.6,0.3-1c0.3,0.3,0.9,0.7,0.9,0.8C206.5,111.2,206,111,205.6,110.9z"/>
<path class="st151" d="M200.6,99.8c-0.2,0.1-0.4,0.2-0.7,0.3c-0.4-0.8-0.9-1.5-1.3-2.3c0,0,0,0,0,0
	C199.3,98.5,199.9,99.2,200.6,99.8z"/>
<polygon class="st151" points="206.7,114.7 206.4,114.9 206.3,114.6 "/>
<path class="st151" d="M202.8,100.7c0.4,0.5,0.7,1,1.1,1.4c-0.2,0.1-0.5,0.4-0.6,0.4c-0.7-0.2-0.6-0.9-0.9-1.5
	C202.5,101,202.7,100.8,202.8,100.7z"/>
<path class="st151" d="M202.6,77.9c-0.4,0.6-0.8,1.3-1.1,1.9C201.3,78.7,201.9,78.3,202.6,77.9z"/>
<path class="st151" d="M187.3,1.2c-0.7-0.3-1.8-0.5-0.9-1.5c0.8-0.9,1.3,0.1,1.6,0.8C187.8,0.8,187.5,1,187.3,1.2z"/>
<path class="st151" d="M178.5,22.8c0.3,0,0.6-0.2,0.9-0.1c0.4,0.1,0.3,0.5-0.1,0.5C179.1,23.2,178.8,23,178.5,22.8
	C178.6,22.8,178.5,22.8,178.5,22.8z"/>
<path class="st151" d="M219.7,225.9c0.2-1,0.5-1.9,0.6-2.9c0.1-0.4-0.1-0.9-0.2-1.3c-5.1,0.9-1.7-3.3-2.8-4.8c-0.8-1-0.6-1.8,1-2.3
	c2.2-0.7,0.8-2.4,0.3-3.7c0,0,0-0.5,0-0.5c0-0.3,0-0.7,0-1c0,0,0-0.5,0-0.5c0.8-2.1,3.1-2.8,4.5-2.2c3.4,1.5,6.4-1.1,9.6-0.4
	c0.2,0.1,0.6-0.3,0.8-0.5c0.2,0.1,0.4,0.3,0.5,0.4c0.8,1,0.3,2.1,0.1,3.1c-0.2,1-0.2,2,0.1,2.9c0.4,1,1,1.7,1.7,2.4
	c0.2,0.3,0.4,0.7,0.5,1.1c-0.2,1-0.3,2.4-1.6,1.8c-2.5-1-5.5-1.2-7.1-4c-0.4-0.8-0.9-1.8-2-1.9c-0.3,0.2-0.8,0.3-0.8,0.5
	c-0.7,2.2-1.2,4.5-4.5,4c-0.9-0.1-1.3,1.3-0.5,1.8c3.7,2.1,1.5,5.3,1.7,8C221.1,225.6,220.5,225.6,219.7,225.9z"/>
<path class="st151" d="M222.5,237.9c0.2,0.4,0.3,1,0.7,1.3c2.5,1.9,2.6,3.8-0.5,6.2C224.2,242.5,217.2,240.9,222.5,237.9
	L222.5,237.9z"/>
<path class="st151" d="M216.6,233.9c1.1,0.3,1,1,0.5,1.7c-0.1,0.1-0.5,0-0.8-0.1C216.4,235,216.5,234.4,216.6,233.9
	C216.6,233.9,216.6,233.9,216.6,233.9z"/>
<path class="st151" d="M43.8,206.8c-1.2-2.2-3.6-3.1-5.2-4.8c-0.3-0.7-0.7-1.5-1-2.2c-1.1-1.3,0.3-2.6,0-3.9c-0.7-0.3-1.3-0.6-2-0.9
	c-0.3-2.5,2.8-3,3-5.2c0-0.3,0-0.5,0-0.8c2-3.1,4.1-3,6-0.1c1.4,2.1,3.2,3,5.7,2.6c1.2-0.3,2.4,0,3.6,0c1.5,0.5,2.6,1.6,4,2.2
	c3.8,3.1,3.9,4.1,0.1,6.4c-1.5,0.9-2.4,2.2-3.3,3.5c-0.7,1.3-1.2,2.8-3.2,2.3c-0.3-0.9-0.9-1.5-1.7-1.9
	C47.7,204.6,46.5,207.2,43.8,206.8z"/>
<path class="st151" d="M50.6,193.9c-0.7,0-1.5,0.4-1.9,0.1c-2.2-1.4-4-1.5-5.1,1.3c-1.7-0.9-0.9-2.2-1-3.2c-0.5-3.8-0.5-3.8-4-3
	c-1.6-4.4-6-5.6-9.1-8.4l0,0.2c1.5-1.2,3.4-1.9,4.2-3.9c2.2-0.8,2.7,0.1,2,2.1c0.1,1,0.6,1.8,0.7,2.8c0.3,1.9,2.6,2.5,3.4,1
	c1.7-3.1,3.4-2.6,5.6-0.9c0.2,0.2,0.6,0.1,1,0.2C48.6,185.7,51.2,189.2,50.6,193.9z"/>
<path class="st151" d="M24.4,213.8c-1,0.8-0.1,2.2-0.8,3.1c-1,0.7-0.7,2.7-2.6,2.6c-1.6-1.3,0.7-2.7,0.1-4c-3.2,0.7-4.4,3.7-6.8,6.2
	c-0.6-3.2,0.6-5.1,2.3-6.9c0.8,0,1.4-0.5,2-1c1.9-0.6,3.7-1.3,5.6-1.9c0.7-0.2,1.4-0.2,1.1,0.8C25.2,213.1,24.7,213.4,24.4,213.8z"
	/>
<path class="st151" d="M10.6,184.5c-1.9,1.6-4.1,2.2-6.3,2.3c-1.2-1.3,0.5-1.8,0.5-2.7c-0.3-4.1,0.8-3.6,2.7-0.9
	C8.2,184.2,9.9,182.4,10.6,184.5z"/>
<path class="st151" d="M38.6,189.7c0.9,2.8-1.3,3.8-3,5.2c-0.3,0.1-0.6,0.2-0.9,0.4c-0.9,0.5,0.5,2.1-1,2.2c-0.3,0-0.7-0.6-0.9-1
	c-0.4-0.9-0.6-1.8,0.5-2.5C35.2,192.6,36.9,191.1,38.6,189.7z"/>
<path class="st151" d="M3.6,216c-0.6-3.2,2.7-2.7,4-4.1c0.2-0.2,0.4-0.4,0.6-0.5c0,0.3,0.1,0.5,0.1,0.8C7.6,214.4,5.6,215.2,3.6,216
	z"/>
<path class="st151" d="M74.4,205.7c-2.2-1-3.7,1.7-5.8,1.2c-2.5-2.9-4.5-6.5-9.2-6.2c-1.8,0.2-2.9,1.1-3.4,2.9
	c-0.9,2.9-3.1,4.2-6,4.8c-0.1-1.6,1-1.9,1.6-2.6c2.3-2.2,4-5,6.6-7.1c2.6-2.2-0.6-2.7-1.6-3.8c-0.8-1.5,0.2-2.7,0.5-4
	c1.5-4.2,4.7-1.7,7.2-1.8c2.4,0,2.6,1.9,2.8,3.9c0.3,3.4,1.7,5.9,5.7,4.8c2.1-0.6,4-0.9,5.3,1.2c1.3,2.1-0.8,3.3-1.7,4.7
	C75.9,204.5,75.4,205.4,74.4,205.7z"/>
<path class="st151" d="M43.8,206.8c4.2-2.7,4.2-2.7,5.1-5.9c1.8,1.3,1.8,1.3,1,3c-1.9,2-2.5,4.2-1.9,7.2c0.5,2.9,0,6.1,1,9.1
	c0.2,0.6-0.3,1.6-0.7,2.3c-1.2,2.1-2.8,4-0.8,6.6c0.6,0.8,0.2,2.3-0.9,3.1c-1.4,1-1.6-0.1-1.8-1.2c0.9-0.9,0.4-1.8,0-2.7
	c-0.5-1.1-0.8-2.6-0.2-3.4c3.7-5.1-0.5-10.7,1.1-15.9C45.9,208,44.8,207.2,43.8,206.8z"/>
<path class="st151" d="M59.4,200.7c0.5-0.8,0.9-1.7,1.6-2.9c3,2.2,6,4.7,9.5,5.9c0.2,1.8-1.9,1.9-2,3.2c-1.8,0.3-2.7,1.4-2.9,3.2
	c-0.6-0.2-1.5-0.6-1.4-1.2C64.7,204.9,61.9,202.9,59.4,200.7z"/>
<path class="st151" d="M14.6,248.9c0.7-0.4,1.3-0.8,2-1.2c0.9-0.3,1.5-1,2-1.8c0.3-0.3,0.7-0.3,1-0.1c0.6,1.6,1.3,3.1,3.3,1.1
	c1.5-1.5,2.4-3.4,3.5-5.1l0.3,0.3c-0.2,4.8-1.4,6.7-5.9,7.8c-1.6,0.4-1.9,1.6-2.8,2.3c-1.4,1-2.9,3.7-4.9,1.6
	C11.3,252,13,250.2,14.6,248.9z"/>
<path class="st151" d="M1.5,258.8c0.3-3.7,1.9-6.4,5.8-7.5c1,0.8,2.2,1.8,3.3,2.7c-0.4,0.4-4.5,2.3-5,2.1c-1.4-0.6-1.6-0.3-1.5,1.2
	c0.1,0.7-0.3,1.7-0.8,2.2C2.6,260.2,1.8,259.8,1.5,258.8z"/>
<path class="st151" d="M61.7,215.6c-1.1,2-1.9,3.9-1.9,6.2c0,1.4-0.9,3.1-3.1,3.3c-1,0.1-1.9,0.9-3.1,1.5
	C56.4,221.2,59.7,216.3,61.7,215.6z"/>
<path class="st151" d="M79.7,243.9c-0.1-1.9-1.7-3.1-2.1-4.9c-0.6-2.1-0.5-3.8,2-4.3c1.1-0.3,2.3-3.2,3.1,0.2l0,0
	c-3,2.8-3,2.8-1.2,6.5c0.3,0.6,1.9,1.9-0.3,2.5C80.7,244.3,80.2,244.3,79.7,243.9z"/>
<path class="st151" d="M57.6,246.9c1.4-0.5,1.5-2.1,2.4-3c0.9,0.7,2.1,1.6,1.3,2.7c-2,2.6-1.7,4.7,0.5,6.9c0.5,0.5,0.4,1.2-0.6,1.9
	C59,252.9,56.9,250.5,57.6,246.9L57.6,246.9z"/>
<path class="st151" d="M88.6,246.1c-0.3-0.1-0.6-0.2-0.9-0.2c0.1-2.3-1.8-4.4-0.7-6.8c-0.1-0.6,0.1-0.7,0.5-0.3
	c1.6-1.5,3.3-2.1,4.7,0.2c0.2,0.4,0.3,1-0.2,1.1c-0.4,0.1-0.9-0.2-1.4-0.4c-1.2,0.7-0.9,2.3-1.9,3.1C89.5,244,92.1,245.2,88.6,246.1
	z"/>
<path class="st151" d="M50.2,238.7c-0.7,0.1-1.4,0.2-1.7,1c-2.1-2.9-1.5-5.3,1.3-7.8c0.8,1.5,2.5,2.4,0.3,4.1
	C49.3,236.6,49.9,237.8,50.2,238.7z"/>
<path class="st151" d="M65.4,221.8c-1.7,0.2-1.9,1.5-1.9,2.9c-2.8,0.1-1.6-2.4-1.9-3.6c-0.4-1.2,0.8-2.8,2.1-3.6
	c0.8-0.5,0.8,0.5,1,1.1c0.5,2,1.4-0.1,2.1,0.2l-0.1-0.1C66.7,219.9,66.1,220.9,65.4,221.8z"/>
<path class="st151" d="M65.5,246.8c-2.1-4.4-2-4.6,2.6-6C68.7,243.4,66.3,244.7,65.5,246.8z"/>
<path class="st151" d="M63.3,236.8c-0.8,1.4,0.2,1.8,1.1,2.6c0.9,0.7,0,1.4-0.7,1.9c-0.7,0.5-1.2,0.1-1.5-0.6
	c-0.5-1.5-1-3.1-1.4-4.6c-0.2-0.6-0.4-1.3,0.2-1.8c0.6-0.5,1.2-0.5,1.8-0.2c0.7,0.3,0.7,1,0.6,1.7C63.5,236.1,63.4,236.4,63.3,236.8
	z"/>
<path class="st151" d="M44.7,244.9c0.6,1.9,0.9,3.7-2.1,3.7c-0.8,0-0.8,0.8-1,1.4c-0.8,0.1-1.7,0.5-2.1-0.5
	c-0.4-0.8-0.1-1.7,0.6-2.1C41.6,246.4,43.1,245.7,44.7,244.9z"/>
<path class="st151" d="M27.7,238.9c1.4-2.9,4-5,5.1-8.1c0.6,3.8-1,6.4-4.2,8.1C28.3,239.4,28,239.4,27.7,238.9z"/>
<path class="st151" d="M71.6,251.9c-2.1,1.4-2.4,4-3.7,5.9c-1.3-3.6-0.7-5.5,2.5-7C71.1,250.4,71.5,251.1,71.6,251.9z"/>
<path class="st151" d="M26,233.1c0.2,0.1,0.4,0.1,0.6,0c0,4.4-0.4,5-4.9,5.9C23.3,236.8,25.1,235.3,26,233.1z"/>
<path class="st151" d="M30.6,250.7c-1.9-1.2-2-2.7-1.4-4.3c0.1-0.2,0.7-0.3,0.9-0.2C31.7,247.5,30.2,249.2,30.6,250.7z"/>
<path class="st151" d="M53.5,238.2c2,1,3.6,1.8,5.3,2.7C55,242.2,54.7,242,53.5,238.2z"/>
<path class="st151" d="M68.6,212.9c0,1.9-0.1,3.8-0.1,5.7c-0.6,0-1.2,0.1-1.9,0.1c0,0,0.1,0.1,0.1,0.1c0.5-1.5-0.3-2.9-0.3-4.3
	C66.3,213,67.2,212.6,68.6,212.9z"/>
<path class="st151" d="M91.6,246.9c0.6,0.1,1.4-0.1,1.3,1c-0.1,0.8-0.7,1.1-1.5,1.1c-0.7,0-1.4-0.2-1.3-1.1
	C90.1,247.1,90.9,247,91.6,246.9z"/>
<path class="st151" d="M36.2,245.3c1.3,2.6-0.1,3.2-1.6,4.1C34,247.5,35.3,246.8,36.2,245.3z"/>
<path class="st151" d="M79.7,243.9c0.5,0,1,0,1.5,0c-0.5,0.7-1,1.3-1.5,2l0,0c-1.4,0.1-3.2,1.9-3.9-0.9
	C77,244.7,78.3,244.3,79.7,243.9z"/>
<path class="st151" d="M88.5,214.9c0.7-0.4,1.3-0.7,2-1.1c0.9-0.3,1.3,0.1,1.6,0.9c0.1,1.1-0.7,1.7-1.4,2.3
	C88.7,217.5,88.2,216.7,88.5,214.9z"/>
<path class="st151" d="M27.7,231.9c0.9-0.4,1.8-1.1,2.9-1c0,0.9-0.4,1.6-1,2.2c-0.5,0.5-1,0.9-1.7,0.5
	C27.2,233.3,27.7,232.5,27.7,231.9z"/>
<path class="st151" d="M54.6,230.5c-0.2,0.5-0.5,1.2-1.3,1.1c-0.9,0-0.9-0.8-0.8-1.4c0.1-0.8,0.7-1.2,1.4-1
	C54.4,229.3,54.7,229.8,54.6,230.5z"/>
<path class="st151" d="M46.7,242.9c-0.6,0.8-0.8,2-2.1,2c-0.4-1.2-0.5-2.3,0.7-3C46.2,241.5,46.4,242.4,46.7,242.9z"/>
<path class="st151" d="M84.5,239.9c-1,0.1-2.1,0.2-2-1.2c0.2-1.5,1.2-1.2,2.1-0.7C85.2,238.6,85.3,239.3,84.5,239.9z"/>
<path class="st151" d="M39.8,236.9c-0.2,0.7-0.6,1.1-1.4,0.8c-0.5-0.2-0.7-0.6-0.6-1.1c0.2-0.7,0.7-1,1.4-0.8
	C39.7,235.9,39.9,236.4,39.8,236.9z"/>
<path class="st151" d="M75.5,251.9c-0.6,0-1.5,0.4-1.7-0.3c-0.5-1.4,0.8-1.9,1.6-2.6C76.5,249.9,76.4,250.9,75.5,251.9z"/>
<path class="st151" d="M39.6,231.7c0.3,0.1,0.6,0.2,0.9,0.2c0,0.7,0.3,1.7-0.8,1.8c-0.7,0.1-1.3-0.3-1.3-1
	C38.3,232,39.1,231.9,39.6,231.7z"/>
<path class="st151" d="M27.7,238.9c0.3,0,0.6,0,1,0c0.2,1.6-0.1,2.8-1.9,3.2c0,0-0.3-0.3-0.3-0.3C26.3,240.6,26.9,239.7,27.7,238.9z
	"/>
<path class="st151" d="M81.5,228.8c-0.3,0.4-0.6,0.8-0.9,1.2c-2-0.6-2-0.6,0.1-2.9c0,0,0,0,0,0C81.4,227.5,81.5,228.2,81.5,228.8z"
	/>
<path class="st151" d="M55.3,229.4c0.1-0.6,0-1.4,0.7-1.4c0.7,0,0.9,0.8,1,1.4c0,0.4-0.3,1-0.6,1.1C55.6,230.7,55.4,230,55.3,229.4z
	"/>
<path class="st151" d="M69.6,220.7c1.1,0.7,0.3,1.5,0,2.2c-0.7,0-1.4-0.1-1.3-1C68.4,221.3,69,220.9,69.6,220.7z"/>
<path class="st151" d="M7.6,246.9c-0.3-1.3,0.1-2.4,1.5-2.5c0.6-0.1,0.7,0.9,0.6,1.6C8.9,246.2,8.5,247.2,7.6,246.9z"/>
<path class="st151" d="M8.4,248.8c-0.6,0-1.3,0.6-1.7-0.2c-0.5-0.9,0.1-1.4,0.9-1.8C7.9,247.5,8.1,248.1,8.4,248.8z"/>
<path class="st151" d="M60.2,226.5c-0.3,0.1-0.6,0.3-0.9,0.3c-0.4-0.1-0.6-0.5-0.3-0.8c0.2-0.2,0.6-0.4,0.9-0.3
	C60.3,225.7,60.3,226.1,60.2,226.5z"/>
<path class="st151" d="M57.4,238.2c-0.4-0.2-0.6-0.5-0.3-0.8c0.2-0.2,0.6-0.3,0.9-0.3c0.4,0,0.6,0.4,0.3,0.7
	C58,238,57.7,238,57.4,238.2z"/>
<path class="st151" d="M198.7,253.8c-0.1-1.1-0.1-2.3-0.4-3.4c-0.3-1.2-1.7-3.1-0.5-3.4c1.5-0.3,3.4-3.3,5.1,0
	c0.6,1.1,1.5,0.1,1.6-0.7c0.4-2.2,1.6-2.1,3.2-1.4l-0.1-0.1c1.3,3.1-0.9,5.6-1.8,8.2c-1,2.8-2,2.7-4.3,0.3c-0.1-0.1-0.6,0-0.9,0
	c0.3,0.6-1-0.4-0.3-0.4s0.8-0.7,0.2-0.4C199.8,252.9,200.2,254.7,198.7,253.8z"/>
<path class="st151" d="M207.6,244.9c0.3-1.4,0.6-2.9,0-4.7c2.6,1.6,4.9,2.2,6.7-0.6c0,0-0.1-0.1-0.1-0.1c0.7,1.9,0,3.6-1.2,5
	c-1,1.1-1.5,2-0.8,3.5c0.3,0.6,0.4,1.4-0.6,1.5c-0.9,0.1-1.7-0.5-1.6-1.4c0.5-2.2-0.7-2.9-2.5-3.3
	C207.5,244.8,207.6,244.9,207.6,244.9z"/>
<path class="st151" d="M184.2,233.1c0.6,4.3,1.2,8,1.7,11.7c0.1,0.7-0.2,1.4-1,1.5c-0.8,0.1-1.2-0.6-1.2-1.2
	c0.3-2.5-0.6-4.8-1.4-7.1C181.9,236.3,181.9,234.7,184.2,233.1z"/>
<path class="st151" d="M198.7,253.8c0.8-0.8,0.7-1.8,1-2.8c1-3.4,1.2-3.4,4.6-0.6c-0.7,1.6-3.1,1.2-3.7,2.8c0.1,0.7-0.2,1.3-0.8,1.6
	c-0.6,0.4-1,0.3-1.3-0.3C198.4,254.3,198.5,254,198.7,253.8z"/>
<path class="st151" d="M177.4,231.3c0.2-0.7,0-1.8,1.2-1.6c1.3,0.2,1,1.4,1,2.3c0,0.8-0.3,1.8-1.3,1.6
	C176.8,233.5,177.5,232.2,177.4,231.3z"/>
<path class="st151" d="M181.7,248.5c1.7,3,1.7,3-2.9,5.5C179.4,251.6,182.2,250.9,181.7,248.5z"/>
<path class="st151" d="M194.2,242.6c-0.2-1.3,0.2-2.4,0.5-3.6c1.9-0.1,2,1.1,1.8,2.5C196.3,243.1,195.4,243.2,194.2,242.6z"/>
<path class="st151" d="M191.9,245.1c-0.2,1.3-1.3,1.2-2.2,1.3c-0.6,0-0.6-0.5-0.5-1c0.3-0.8,0.6-1.6,1.5-1.6
	C191.5,243.8,191.7,244.5,191.9,245.1z"/>
<path class="st151" d="M180.1,241.2c-0.5-0.3-0.6-0.7-0.5-1.2c0.1-0.5,0.4-1,1-0.8c0.5,0.2,0.7,0.6,0.6,1.1
	C181,240.8,180.7,241.2,180.1,241.2z"/>
<path class="st151" d="M189.5,236.9c0.3,2.6-1.4,2.1-2.9,1.9C187,237.4,188.2,237.1,189.5,236.9z"/>
<path class="st151" d="M215.5,250.8c-0.5,0-0.9-0.2-0.8-0.8c0.1-0.3,0.3-0.6,0.5-0.7c0.5-0.2,0.9,0.1,1,0.6
	C216.5,250.5,216,250.7,215.5,250.8z"/>
<path class="st151" d="M154.4,179.8c0.8-1,1.3-2.3,3.3-2.5c-0.9,2.2-0.6,3.8,2.2,3.6c0.9-0.1,1.7,0.3,2,1.2c1.1,3.9,3,7.7,0.8,11.8
	c-1.2-0.9-1.2-2.2-1.2-3.6c0-1.1,0-2.3-0.2-3.4c-0.8-4.5-1.7-4.9-6.2-3C153.8,182.8,154.6,181.2,154.4,179.8z"/>
<path class="st151" d="M154.2,199c0.6,2,0.8,3.8,0.5,5.5c-0.1,0.7-0.7,1.2-1.4,1.2c-1.1,0.1-0.6-0.9-0.7-1.4
	c-0.3-2.3-1.3-1.7-2.5-0.7c-0.4,0.3-1,0.3-1.2-0.3c-0.1-0.4,0-1.1,0.3-1.3C150.7,201,152.4,200.1,154.2,199z"/>
<path class="st151" d="M153.8,194.8c0,1.6-0.7,2.8-2.4,3.2c-2,0.4-2.9-0.3-2.3-2.3c0.4-1.5,0.2-3.7,2.5-4.2c1,1.6-0.9,2.5-0.2,4
	C152.1,196.1,152.7,194.6,153.8,194.8L153.8,194.8z"/>
<path class="st151" d="M85,203.6c0,0,0.1-0.3,0.1-0.3c1,2,1,2-2.1,4.4C82.5,205.7,84.3,204.9,85,203.6z"/>
<path class="st151" d="M207.7,75.8c-1.7-2.4-5.1-2.2-7.2-4.4c3.9-1.2,7.6,0.5,11.2-0.7c0.3,0.2,0.6,0.4,0.9,0.5
	c3.1,1.2,3.1,1.2,1.8,3.9c-0.2,0.4-1.2,0.6-0.6,1.4c1.6-0.5,1.7-2.4,3.1-3.2c1.7-0.2,1.3,2.3,2.7,2.4c2.2,3.1,5,5.9,5,10.1
	c-1,1.7-0.4,4.7-3.6,4.8c-0.3,2.3-1.2,4.5-2.2,6.5c-0.1,0.3-0.4,0.6-0.6,0.8c-0.7,0.5-1.4,1.1-2.2,0.6c-0.8-0.6-0.7-1.6-0.1-2.2
	c4-4.2,2.1-9,1.3-13.7c-0.2-1.2-0.9-2.7-1.8-2.8C212.1,79.5,210.5,76.7,207.7,75.8z"/>
<path class="st151" d="M224.6,85.9c-3.7,0.3-3.3,0.2-4.2-3.2c-0.7-2.3-0.5-4.6-0.7-6.9c0,0,0,0.1,0,0.1c0.6-0.6,1.3-0.6,2-0.1
	c1.3,0.8,2.4,1.7,3,3.1c4.3-1.8,4.3-1.8,5,4C228,84,226.7,85.7,224.6,85.9z"/>
<path class="st151" d="M229.3,121c-0.2,0.8-0.5,1.7-1.4,1.8c-3.9,0.1-4.9,2.9-5.5,6c-0.6,0.6-1.2,0.6-1.8,0.1
	c0.2-0.8,0.7-1.8,0.4-2.4c-1.1-2.5-0.5-5.1-0.5-7.6c-0.8-2.5-0.8-4.3,0-6.1c3.8-0.1,5.5,2.4,5.8,5.6c0.1,1.9,1.2,2,2.3,2.5
	C228.8,120.9,229.1,121,229.3,121z"/>
<path class="st151" d="M228.6,120.8c-3.1,0-5-1.6-5.7-4.6c-0.4-1.5-0.9-2.8-2.4-3.5c0.2-1.1,0.1-2.5,0.6-3.4c0.9-1.5,1.1,0,1.4,0.6
	c0.8,0.9,2.1,1.1,2.9,1.9c0.8-0.2,1.7-0.8,2.1,0.3c0.4,1.1,0.3,2.3,1.2,3.2c1.4,1.5,2,2.6-0.7,3.5
	C227,119.2,228.2,120.2,228.6,120.8z"/>
<path class="st151" d="M229.5,37.8c-0.9,1.4-2.6,2.1-1.4,4.7c0.9,1.8,1.9,4.6,0.6,7.1c0.3,0.1,0.6,0.2,0.9,0.3
	c-0.4,0.3-0.9,1-1.1,0.9c-2.9-1.1-5.4,0.1-8,0.9c-4.2,1.2-4.2,1.1-5.9-2.9c3-0.9,2.2-4.3,4-6c0-2.3,1.8-3.5,3.1-5
	c0.4,0,0.8-0.1,1.2-0.1c1.4,1.1-0.5,2.4,0.2,3.7c3.1-1.5,0.1-4,1.1-5.9c1.6,0,2.1,1.9,3.4,2.2C228.3,37.9,228.9,37.8,229.5,37.8z"/>
<path class="st151" d="M190.6,61.8c2.2-0.8,2.1-2.6,2-4.4c1.6,0.9,4.8,0.9,2.3,4.1c-0.1,0.1,0.4,0.8,0.8,1.1
	c0.7,0.7,1.2,0.3,1.3-0.5c0.2-1.7,1.4-2.1,2.7-2.2c0.8,0,1.8-0.1,0.9,1.2c-0.2,0.3-1.4,0.7-0.1,1c0.5,0.1,1.2-0.4,1.8-0.7
	c1.1-0.5,1.9-0.1,2.6,0.6c0.8,0.9,0.5,1.8-0.3,2.6c-0.6,0.6-0.9,1.4-1,2.2c-1.7,1-2.5-1.5-4.1-1c-0.6,0.5-1.3,0.7-1.9,1.1
	c-6.3,2.8-7.9,2.2-9.4-3.6C188.7,62.4,189.3,61.5,190.6,61.8z"/>
<path class="st151" d="M197.2,37.5c4.8-1.3,4.9-1.3,6.6,1.7c1.1,2,2.4,3.5,4.7,4.1c1.4,0.4,1.7,2.6,0.5,3.5c-1.4,1.1-3.5,0.5-5,1.9
	c-1,0.9-1.7-1.1-2.8-1.5c-1.6-0.5-1.7-1.5-1-3.1C202.2,39.8,202,39.5,197.2,37.5z"/>
<path class="st151" d="M218.6,42.8c-0.1,0.5-0.3,0.9-0.2,1.4c0.2,3.6,0.2,3.6-3.7,4.6C214.9,47.7,217.5,43.8,218.6,42.8z"/>
<path class="st151" d="M220.8,54.6c0.1,2.2-0.5,4-2.5,4.7c-0.2,0.1-1-0.5-1-0.8C217,56,219.4,55.8,220.8,54.6z"/>
<path class="st151" d="M204.6,25.9c-1.1-1.3-0.6-2.7,0-4c2.2,1.1,2.4,3,2.2,5.1c-0.4,0.6-0.8,1.1-1.1,1.7
	C205.7,27.6,205.6,26.6,204.6,25.9L204.6,25.9z"/>
<path class="st151" d="M221.5,75.8c-0.7,0-1.3,0.1-2,0.1c0-1,0.1-2,1.4-1.9C222.1,74.1,221.7,75,221.5,75.8z"/>
<path class="st151" d="M208.6,68c-1.6,1.3-2,0.6-1.9-1.1C207.3,67.3,207.9,67.6,208.6,68z"/>
<path class="st151" d="M215.6,20.8c0,2.9,1,6.2-3.2,7.1c-0.1,0-0.3-0.2-0.8-0.5C213.6,25.6,212,21.8,215.6,20.8
	C215.7,20.9,215.6,20.8,215.6,20.8z"/>
<path class="st151" d="M198.8,18.6c0-0.2,0.1-0.4,0.1-0.6c2.2,0,2.8-2.5,4.7-3c-1.1,2.5,0.8,4.6,1,6.9
	C202.5,21.2,201.4,18.5,198.8,18.6z"/>
<path class="st151" d="M222,24.1c-1.6,0.1-2.5,1.5-3.9,2.1c-1.2-2,0.1-3,1.2-3.7C220.4,21.8,221.4,22.6,222,24.1z"/>
<path class="st151" d="M40.6,18c-0.8-0.2-1.7-0.1-2.3-0.6c-0.9-0.7-1.3-1.9-0.4-3c0.6-0.7,1.2-1.9,2.3-1.5c1.6,0.5,0.1,2,0.6,3
	c0.7,0.5,1.7,0.9,0.8,2.1C41.2,18,40.9,18,40.6,18z"/>
<path class="st151" d="M41.5,18c-0.3-0.7-0.5-1.4-0.8-2.1c0.3-0.1,0.6-0.1,0.8-0.3c1,0,1.9-0.1,2,1.4c0.2,1.7-0.1,3.2-0.9,4.7
	c-0.8,0-1-0.6-0.9-1.2C42,19.6,42.2,18.8,41.5,18z"/>
<path class="st151" d="M40.4,25c-0.2,0.8-0.7,1.9-1.4,1.5c-0.9-0.5-0.1-1.3,0.6-1.8C40,24.4,40.3,24.4,40.4,25z"/>
<path class="st151" d="M113.3,9.9c1.1,3,0.9,3.3-2.2,4c0.1-1.1,0.3-2.3,0.4-3.4C111.7,9.1,112.5,9.6,113.3,9.9z"/>
<path class="st151" d="M42.5,12.9c-0.7-1-0.8-2.1-0.7-3.2C42.9,10.6,42.5,11.8,42.5,12.9z"/>
<path class="st151" d="M55.5,9.8c-0.5-1.6,0.1-2.7,1.7-3.6c0.9,1.9,0.6,3.2-1.3,4C55.8,10.1,55.5,9.8,55.5,9.8z"/>
<path class="st151" d="M57.6,12.9c0-0.3,0-0.6,0.1-1c0.1-0.7,0.4-1.3,1.1-1.3c0.2,0,0.5,0.3,0.6,0.6c0.2,0.7-0.2,1.2-0.9,1.5
	C58.3,12.8,57.9,12.8,57.6,12.9L57.6,12.9z"/>
<path class="st151" d="M104.6,100.3c4.7-2.9,8.6-10.9,7.4-16.2c-0.8-3.8,2.3-2.2,3.6-3c0.5,1.7-1,3.9,1.2,5.2
	c0.7,1.3-1.8,2.4-0.2,3.8c-0.1,0.8-0.1,1.6-0.3,3.2c2.5-1.6,4.3-3,5.6-5.1c0.9-1.4,1.5-2.9,3.7-2.4c1.8,0.4,1.8-2.2,3.2-2.7
	c0.4-0.2,1-0.2,1.4,0c0.5,0.2,0.8,0.9,0.5,1.2c-2.4,2.2,0.6,3.4,1,5c1.1,0.6,1.9,0.6,2-0.9c-0.6-1.5-0.6-2.7,1.2-3.2
	c1.2-0.5,2.2-0.1,3,0.9c1.9,2.2,3.3,4.7,4.7,7.2l-0.1-0.1c0.5,1,0.5,2.1,0.9,3c0.5,1.6,0.3,3.4,1,4.9c0.1,0.5,0.3,0.9,0.4,1.4
	c0.3,1.2,1.7,2.3,0.4,3.6c-0.7,0.7-1.6,0.2-2.3-0.3c-1-0.7-2.8-0.4-2-3c0.7-2.3-2.2-1.3-3.5-1.6c-2-1.5,0.1-4.3-1.8-5.8
	c-0.8-0.8-1.5-1.6-2.4-2.3c-2.2-0.5-4.3-1.3-6.5-0.8c0.3,0,0.5-0.1,0.8-0.1c1.9-0.4,3.6,0.7,5.4,0.6c0.9,0.7,1.7,1.6,2.5,2.4
	c0.9,1,1.4,2.2,1,3.5c0,0.2-0.1,0.4-0.1,0.6c0,0.8,0.6,1.3,1.1,1.9c0,1.6,0,3.2-0.1,4.8c-0.1,1.9-1.1,2.9-3,3.1
	c-0.9-0.3-1.3,0-0.9,0.9c0,0.4,0,0.8,0,1.2c-1.5,0.8-2.8,2.1-4.8,1.6c-3.5-2.5-1.6-4.9,0.2-7.2c0.3-0.4,0.5-0.9,0.4-1.4
	c-0.1-1.2-0.9-2.1-1.3-3.2c0.1,0.3,0.3,0.6,0.4,0.9c0.3,0.8,0.8,1.4,0.9,2.3c-1.2,4.4-5,5.5-8.6,7c-1.3,0.9-2.8,1.5-4.1,2.4
	c-0.6,0.4-1.3,0.6-2,0.6c-1.3-0.3-2.5-0.9-3.4-1.9c-1.5-1.8-2.9-3.5-5.3-1c-0.8,0.8-2.3,0.7-3.2-0.2c-1.1-1.3-1.9-2.9-1-4.5
	C103,104.6,104.1,102.6,104.6,100.3z"/>
<path class="st151" d="M15.6,99.2c0.3-1.3,0.1-3.2,1.8-3.1c3,0.2,4.7-2.2,7.1-3c1.2-1.4,1.4,0.2,2,0.6c-0.4,2.4-2.5,4.5-0.9,7.1
	c0.7,0.5,0.8,1.2,0.7,1.9c0.1,0,0.1,0.4,0.1,0.4c0.5,0.7,1.3,1.2,2,1.7c0.3,0.4,0.7,0.8,1,1.3c0.5,2.4,1.5,5.1-2.8,4.5
	c-0.6-0.1-1,0.8-1,1.5c-1.3,1.1-2.8,1.9-3.1,3.8c-3.3-0.7-4-4-6-6c0,0.1-0.2,0.1-0.2,0.1c-0.2,0.4-0.5,0.7-0.8,0.9
	c-3.7,0.3-3.7,0.3-4.5-3.3c-0.7-3.3-2.5-3.9-5.3-1.7c-0.4,0.3-0.9,0.5-1.4,0.5c-1.1-0.2-1.8-1-2.3-1.9c-0.2-0.5-0.2-1-0.1-1.6
	c1.3-2.5,3.1-3.3,5.6-1.9c1.1,0.6,2.2,0.7,3.3,0.7c0.3-0.4,0.6-0.8,0.9-1.2C13,100.1,14.7,100.6,15.6,99.2z"/>
<path class="st151" d="M71.7,66.4c0.3,0,0.9-0.1,0.9-0.1c0.1-3.8,3.4-4.5,5.8-6.1c0.4-0.3,0.8-0.6,1.1-0.9c0.6,0,1.3,0,1.9-0.2
	c1.3-0.4,2.7-0.7,3.5,0.6c0.8,1.4-0.3,2.4-1.3,3.3c-0.2,0.2-0.7,0.4-0.7,0.6c-0.4,1.9-1,4.1-3.3,4.2C76.9,68.1,74,68.5,71.7,66.4z"
	/>
<path class="st151" d="M38.7,66.9c-1.9-2.8,0.8-4.5,1.6-6.6c0.7-2,2.6-1.5,4.2-1.5c2,0,2.6-3.4,5.2-2c0,1.7,0,3.4,0,5.2
	c-1,1.4-1,3.1-1.4,4.6c-0.3,1.2-0.7,2.2-2.3,1.3c-1.3-0.3-2.4-0.9-3-2.2c-0.4-0.8-0.5-2.1-1.8-1.8c-1.4,0.4-1.1,1.8-1.3,2.9
	C39.4,67.1,39.1,67.2,38.7,66.9z"/>
<path class="st151" d="M53.6,192.9c-1.4-2.5-3-4.9-1.9-8c1.6,0.2,0.7,2.4,2.4,2.9c0.7-2,2.3-3.3,3.6-4.9c2.1,1.1-0.2,3,0.5,4.3
	c2.1,0.6,3.1-1.4,5.1-1.4c-0.3,1.4-0.5,2.4-2.2,2.7c-1.6,0.2-3.2,0.7-4.3,2.2c-0.5,0.7-0.5,1.2,0.1,1.6c0.7,0.4,1.2,0.1,1.8-0.4
	c0.7,0.8,0.6,1.4-0.5,1.9c-0.6,0.3-1.1,0.7-1.6,1.1C55.6,194.2,54.6,193.6,53.6,192.9z"/>
<path class="st151" d="M77.6,169.9c-1-1.5-2.9-0.7-4.2-2c1.6,0,3.2-0.3,4.6,0.1c2.1,0.4,2.9-0.7,3.6-2.3c1.8,2.6,3.9,4.1,7.2,2.4
	l-0.1-0.1c0.4,0.9,1.1,1.8,0.6,3l0.1-0.1c-2.2,0.6-4.1,2-6.5-0.4C81.9,169.4,79.3,171.6,77.6,169.9z"/>
<path class="st151" d="M24.6,102.9c0.8-0.4,0.8-1.3,1-2c1-1.5,2.4-1.4,3.9-0.8c0.1,0.8,0.2,1.6-0.7,2c-1.7,0.7-0.6,1.8-0.4,2.8
	c-1.7-0.4-3,0.1-4.4,1.2c-2.1,1.7-2.8-0.9-3.8-1.7c-1.3-1,0.1-1.9,1.1-2.5c0.1-0.1,0.3,0.1,0.5,0.1
	C22.3,103.4,23.4,103.4,24.6,102.9z"/>
<path class="st151" d="M66.6,161.9c-1.2,2.3,1.5,2.9,2,4.5c0.2,0.7,1.2,1.3,0.4,2.1c-0.7,0.7-1.5,0.2-2.3,0.1
	c-0.6-0.8-1.1-1.6-1.8-2.3c-2.1-2.2-1.8-4.2,0.2-6.2C66.1,160.3,66.1,161.3,66.6,161.9z"/>
<path class="st151" d="M25.7,112.1c-1.6-1.3,0.2-2.6,0-3.9c1.5-0.9,1.7,1.1,2.7,1.3c1.4-0.9-0.7-2.8,1.2-3.3
	c1.2,1.1,0.8,2.8,1.5,4.1c0.4,0.8,0.8,1.4-0.1,2.1c-0.8,0.7-1.7,1.1-2.6,0.2C27.5,111.7,26.7,111.4,25.7,112.1z"/>
<path class="st151" d="M84.4,152.8c-0.8,1.8-2.2,2.8-4,3.1c-1.2,0.2-2.3,1.8-3.5,0.7c-1.1-1,0-2.4,0.2-3.7c0.3-0.4,0.6-0.7,1-0.9
	c1.2-0.2,2-0.7,2.7-1.8c0.6-1,1.7-1.6,2.7-0.1c0,0.3,0.1,0.5,0.3,0.7C84.5,151.3,85.1,151.8,84.4,152.8z"/>
<path class="st151" d="M62.4,157.7c0.9-2.3,3.1-3.3,5-4.6c0.4-0.2,0.6-0.9,1-0.3c1.4,2.6,3.3-0.6,4.9,0.4c-0.8,3.1-3.6,1.3-5.3,2.2
	c-1.7,0.9-3,2.7-5.2,2.5C62.7,158.1,62.4,157.7,62.4,157.7z"/>
<path class="st151" d="M81.6,188.7c0,2.2,2.1,4.1,1.2,6.8c-2-1-1.5-3.2-2.4-4.5c-1-1.4-3.1-2-3.1-4.2c0.9-0.7,1.8-0.8,2.3,0.4
	C80,188.2,80.5,188.8,81.6,188.7z"/>
<path class="st151" d="M77.1,152.9C77.1,152.9,77.1,152.9,77.1,152.9c-1.8-2.6,0.7-4.1,1.9-5.4c1.4-1.3,3.3-0.6,4.5,1.2
	C81.2,149.8,80.1,152.8,77.1,152.9z"/>
<path class="st151" d="M90.6,194.9c-0.5,0.4-1.1,0.8-1.6,1.1c-1.4,0.9-4.1,2.5-4.4,2c-1.3-2.4,1.8-2.4,2.9-3.4
	c1.2-1.1,1.6-2.7,2.9-3.6C90.5,192.3,90.5,193.6,90.6,194.9z"/>
<path class="st151" d="M77.1,152.9c1.7-2.1,3.4-4.2,6.4-4.2c0,0.5,0,0.9,0,1.4C81.3,154.1,81.3,154.1,77.1,152.9z"/>
<path class="st151" d="M2.9,112.1c-0.1-0.8-0.2-1.5-0.3-2.3c-1.3-2.2-0.3-3.2,1.8-3.8c0.4,0,0.9,0,1.3,0
	C6.6,110.3,6.6,110.4,2.9,112.1z"/>
<path class="st151" d="M86.5,181c0.2,1.3-0.4,1.8-1.6,1.9c-0.9,0.1-1.8-0.3-2-1.1c-0.2-1.4,1.2-1.8,2.1-2.2
	C86.1,179.1,86.2,180.3,86.5,181z"/>
<path class="st151" d="M84.4,152.8c-0.3-0.7-0.5-1.3-0.8-2c1.3-0.9,2.3-2.3,4.5-2.6C87.8,150.7,86.5,152,84.4,152.8z"/>
<path class="st151" d="M45.9,67.9c1.5-0.4,1.9-1.6,1.8-3c-0.1-1.4,0.4-2.5,1.8-3c0.5,2.2-0.5,4.3-1.2,6.2
	C47.8,69.7,46.6,69.2,45.9,67.9z"/>
<path class="st151" d="M93.6,137.8c-1.4-0.1-3-0.1-3.5-1.9c-0.2-0.9,0.1-1.7,0.8-2.1c0.9-0.5,1.5-0.2,1.7,0.9
	C92.9,135.8,94,136.6,93.6,137.8C93.5,137.9,93.6,137.8,93.6,137.8z"/>
<path class="st151" d="M6.6,112.9c-0.8,0.5-1.5,1.1-2.3,1.6c-0.6,0.4-1.1,1.5-1.9,0.7c-0.8-0.8-0.1-1.7,0.4-2.5
	C4.1,112.8,5.4,112.9,6.6,112.9z"/>
<path class="st151" d="M44.9,55.7c-1.9-3.4-1.9-3.4,2.4-3.8C46.5,53.2,45.8,54.3,44.9,55.7z"/>
<path class="st151" d="M40.6,89.8c-1.8-1.2-2-3-2-4.9c0.3-0.3,0.6-0.4,1-0.4c0.5,0.3,0.6,0.9,1.1,1.2C41.6,87.1,40.7,88.4,40.6,89.8
	z"/>
<path class="st151" d="M12.5,78.7c-1.1,0.5-2.5,1.1-1.8-1.1c0.3-1,1.3-1.8,2.1-2.7c0.7,0.1,1.3,0.3,0.9,1.2
	C13.4,77,12.9,77.9,12.5,78.7z"/>
<path class="st151" d="M29.7,77.1c0.8,0.3,1.6,0.9,1.4,1.7c-0.3,1.1-1.5,1.1-2.4,1c-1.2-0.1-0.9-1-0.9-1.8
	C28.4,77.9,29.2,77.8,29.7,77.1z"/>
<path class="st151" d="M76.4,134.5c-1,0.1-1.1-0.6-1.1-1.3c0-0.9-0.6-2.1,0.8-2.5c0.7-0.2,1.1,0.6,1.3,1.3
	C77.7,133.3,77.3,134.4,76.4,134.5z"/>
<path class="st151" d="M133.4,139.3c1.2,0.2,1.5,1.4,1.9,2.4c0.2,0.6-0.3,1.3-1.1,1.2c-1.4-0.2-1.6-1.4-1.7-2.5
	C132.5,139.8,132.8,139.4,133.4,139.3z"/>
<path class="st151" d="M88,131.9c0,0.9-0.8,1-1.4,0.9c-1.3-0.2-1.3-1.2-1.1-2.2c0.1-0.7,0.5-1.4,1.2-1.1
	C87.8,129.8,87.8,130.9,88,131.9z"/>
<path class="st151" d="M29.6,98.8c-0.2,0-0.3-0.1-0.5-0.1c-0.9-0.5-1.6-1.1-1.4-2.3c0.1-0.6,0.5-0.9,1.1-0.8c1.5,0,1.9,1,1.8,2.3
	C30.2,98.2,29.9,98.5,29.6,98.8z"/>
<path class="st151" d="M86.6,184.9c0,1.7-1.4,2.5-2.4,3.5c-0.7,0.8-1.5,0.3-1.9-0.6C83.4,186.5,84.9,185.5,86.6,184.9z"/>
<path class="st151" d="M161,154.7c-0.6,0.1-0.8-0.1-0.8-0.5c0-0.5,0.4-0.9,0.9-1c0.5-0.1,1.1-0.1,0.9,0.6
	C161.8,154.2,161.3,154.5,161,154.7z"/>
<path class="st151" d="M80.6,163.8c-0.7,0.5-1.2,1.6-2.4,1.1c-1-0.4-0.3-1.4-0.6-2.1C79.2,161.5,79.8,162.7,80.6,163.8z"/>
<path class="st151" d="M45.4,177.9c0,0.5-0.2,0.9-0.8,1c-0.8,0.1-1.2-0.4-1.1-1.1c0-0.5,0.5-0.8,1-0.8C45,177,45.4,177.4,45.4,177.9
	z"/>
<path class="st151" d="M39.4,84.8c-0.3,0-0.6,0-0.8,0.1c-1.4-1-0.4-2.1,0-3.1c0.4,0.4,0.8,0.7,1.1,1.1
	C40.2,83.6,40.3,84.3,39.4,84.8z"/>
<path class="st151" d="M74.7,164.9c-0.7,0.1-1.5,1.2-2,0c-0.4-1-0.2-1.9,1-2.3C74.3,163.2,74.6,164,74.7,164.9z"/>
<path class="st151" d="M73.8,149.4c0.4,0.3,0.6,0.7,0.4,1.1c-0.2,0.4-0.7,0.5-1.2,0.3c-0.4-0.1-0.5-0.4-0.3-0.7
	C73,149.6,73.3,149.4,73.8,149.4z"/>
<path class="st151" d="M130.6,143.2c0.1-0.3,0.2-0.8,0.4-0.8c0.5,0,0.9,0.3,1,0.8c0,0.2-0.2,0.6-0.4,0.7
	C131,144.1,130.7,143.8,130.6,143.2z"/>
<path class="st151" d="M39.4,84.8c0.1-0.6,0.2-1.3,0.3-1.9c0.6,0.9,0.8,1.8,0.9,2.9C40.2,85.5,39.8,85.1,39.4,84.8z"/>
<path class="st151" d="M84.8,163.4c0.3-0.1,0.6,0,0.7,0.4c0.1,0.5-0.1,1-0.7,1c-0.3,0-0.8-0.2-0.8-0.4
	C83.9,164,84.3,163.6,84.8,163.4z"/>
<path class="st151" d="M88.8,168.1c-0.1-0.3-0.3-0.6-0.3-0.9c0-0.4,0.1-0.9,0.2-1.3c0,0,0.5,0,0.7,0.1c0,0.4,0,0.9-0.2,1.3
	C89.2,167.6,88.9,167.8,88.8,168.1C88.7,168,88.8,168.1,88.8,168.1z"/>
<path class="st151" d="M110.4,45.6c1.5-0.3,3.1-0.8,4.2,0.8c2.2,0.2,4,0.4,3.5,3.6c-0.3,1.6,1.7,2.9,2.5,4.5c0,0.5,0,1.1,0,1.6
	c-2.2,1.2-2,3.2-1.3,5.4c-2.6-0.5-1.3-2.3-1.9-3.3c-1.2-1.7-1.2-4.6-4.8-3.3c-2.5,0.9-1.7-2.8-3.7-3.3c-1.4-0.1-1.4,2.1-2.9,2.2
	c-0.4-0.3-0.7-0.8-0.5-1.3c0.8-1.7,1.8-3.1-1.2-3.8c-1-0.2-0.9-1.7,0.4-2.1c0.9-0.2,1.6-0.5,2-1.3c0.9-0.2,1.9-0.5,2.8,0.1
	C109.9,45.9,110.2,46,110.4,45.6z"/>
<path class="st151" d="M95.5,40.3c0,0.5-0.1,1-0.6,1.1c-1.1,0.2-1.3-0.6-1.4-1.4c-0.1-0.5,0.1-1,0.7-0.9
	C94.8,39.2,95.3,39.6,95.5,40.3z"/>
<path class="st151" d="M120.6,54.5c-0.9,0.2-2.7,1.8-2.5-0.2c0.2-2.1-2.7-3-1.3-5.4c0.6-1-0.9-0.6-1.6-0.6c-2.1,0-0.7-1.1-0.5-1.9
	c2-0.4,3-2.6,5-3.1c1.1-0.7,2-0.5,2.8,0.5c0.1,0.2,0.1,0.4,0.2,0.6c-2.1,2-0.3,3.8,0.5,5.5c-1.8,1.6-2.3-1-3.7-0.7
	c-0.3,2,1.5,2.7,2.5,3.9c0.3,0.7,0.1,0.9-0.6,0.6C121.1,54,120.9,54.3,120.6,54.5z"/>
<path class="st151" d="M202.6,122.9c1.3-0.6,2.5-1.6,4.4-0.9c-0.3,1.7-1.6,4.1,1.7,4.7c-1,0.1-2.1,0.1-3.1,0.2c0,0,0.1,0.1,0.1,0.1
	C204.7,125.5,202.1,125.4,202.6,122.9L202.6,122.9z"/>
<path class="st151" d="M214.2,127c0.4,1,0.8,1.9,1.2,2.9c-1.3,1.9-2.9,0.7-5.6,0.2C212.4,129.5,210,125,214.2,127z"/>
<path class="st151" d="M190.6,61.8c-0.3,0.7-0.7,1.4-1,2.1c-0.5,0.7,0,1.7-0.6,2.4c-0.7,0.7-1.5,0.6-2.4,0.6
	c-1.1-0.2-2.3-0.3-3.6-0.5c-0.3,1.7,1,2.5,1.6,3.5c-1.3,0.6-2.6,1-4.1,1c-2-0.6,0.3-2.4-0.9-3.2c0.3-1.4,0.9-2.8,0.4-4.4
	c-0.4-1.5,0.3-2.5,1.6-3.3c3.2-0.3,3.2-0.3,4.3,4.2c0.5-1.9,0.7-3.3,1.3-4.6c0.5-1.1,1.5-2,2.8-1.7c1.7,0.4,1,1.8,0.8,2.9
	C190.7,61.1,190.7,61.4,190.6,61.8z"/>
<path class="st151" d="M125.6,0.9c-1.5-1.5-3,0.7-5,0c1.3-1.7,1.3-4,4-4C125.3-1.9,125.7-0.6,125.6,0.9z"/>
<path class="st151" d="M128.6,6.9c-3.1,0.6-3.4-2-3.8-3.8c-0.2-1.1,1.2-0.3,1.9-0.4C127.3,4.1,128,5.5,128.6,6.9z"/>
<path class="st151" d="M120.7,8.8c-0.3-0.3-0.6-0.6-0.9-1c0-0.8-0.1-1.7,0.8-2.1c1-0.3,1,0.6,1.1,1.2c0.1,0.9,1.4,1.5,0.7,2.6
	C121.6,9.8,121.3,8.9,120.7,8.8z"/>
<path class="st151" d="M186.6,66.9c0.7-0.3,1.3-0.6,2-0.9c1.1,2.8,6.1,1.7,5.8,5.9c-0.2,0.4-0.5,0.8-0.8,1.1c-2.3,0.5-4.5-0.9-7.4,0
	C187.2,70.5,188.2,68.6,186.6,66.9z"/>
<path class="st151" d="M193.6,72.9c0-0.4,0.1-0.8,0.1-1.3c0.9-0.7,1.1-1.7,1.4-2.7c0.2-0.6,0.5-1.1,0.8-1.7c0.4-0.7,0.9-1.3,1.9-1.4
	c0.6,0,1.2,0,1.9,0c-0.3,0.7-0.8,1.5-0.9,2.2C198.1,72.3,198.1,72.3,193.6,72.9z"/>
<path class="st151" d="M110.4,45.6c0.7,1.4,1.5,2.8,1,5.3c-0.9-2.1-3.5-2.8-1.8-5.3C109.9,45.6,110.2,45.6,110.4,45.6z"/>
<path class="st151" d="M202.7,122.9c0.4,1.8,3,1.9,3,4c-1.2,0-2.2-0.5-3.1-1.2C202.2,124.8,201.6,123.8,202.7,122.9z"/>
<path class="st151" d="M181,116.7c-0.3-1.9-2.7-3.4-1.2-5.7C181.2,112.7,181.8,114.6,181,116.7z"/>
<path class="st151" d="M184.7,115.9c0,0.7-0.1,1.5-0.8,1.6c-1.1,0.1-1.3-0.8-1.3-1.6c0-0.8-0.1-1.8,1-1.8
	C184.6,114.2,184.6,115.2,184.7,115.9z"/>
<polygon class="st151" points="183.1,111.1 183.3,111.5 182.9,111.5 "/>
<path class="st151" d="M204.6,25.9c-0.2,1.5-0.2,3-1.3,4.2C201.6,26.7,201.6,26.7,204.6,25.9L204.6,25.9z"/>
<path class="st151" d="M175.6,22.8c-0.6-0.1-1.4-0.1-1.1-1.1c0.1-0.5,0.6-0.9,1.1-0.5c0.7,0.5,0.2,1.1-0.1,1.7
	C175.5,22.9,175.6,22.8,175.6,22.8z"/>
<path class="st151" d="M93.7,64.6c0.4,0.3,0.8,0.5,1.2,0.8c0.6,0.6,0.3,1.2-0.3,1.5c-0.8,0.4-1.1-0.3-1.1-0.9
	C93.5,65.5,93.7,65.1,93.7,64.6C93.8,64.6,93.7,64.6,93.7,64.6z"/>
<path class="st151" d="M31.2,0.9c-1.6-1.7-1.8-3.8-1.8-5.9c2.5,0,4.9-0.3,6.9-1.9c1.1-0.9,3-1.6,3.2-0.1c0.2,1.6,2.3,3.5,0,5.2
	C36.9,0.1,34.4,1.3,31.2,0.9z"/>
<path class="st151" d="M39,4.1c-0.2,0.1-0.6,0.4-0.9,0.7c-0.1-0.3-0.3-0.6-0.3-0.8c0.1-0.5,0.4-0.9,1-0.8C39.1,3.2,39.2,3.5,39,4.1z
	"/>
<path class="st151" d="M218.4,187.9c0.1-0.5,0.2-1,0.3-1.4c1.2-4,1.2-4-2.5-6.6c2.1-1.3,4.2-2.4,6-3.8c2.9-2.2,6.3-0.9,9.5-0.2
	c0.1,0.2,0.3,0.4,0.4,0.6c1.2,3.3-1.4,4.8-3.3,6.3c-1.2,0.9-1.9-0.3-2.2-1.6c0,2.8-1,5-3.2,6.7C221.7,188.8,220.1,189.7,218.4,187.9
	z"/>
<path class="st151" d="M221.5,158.1c0.2,0.5,0.5,0.9,1.1,0.8c0.3,0.2,0.6,0.5,0.9,0.5c3.2,0.1,1,1.9,1,3c2.4,1,4.8,1.9,7.2,2.9
	c0.4,0.2,0.7,0.7,0.5,1.3c-0.1,0.2-0.6,0.6-0.7,0.5c-1.5-0.5-2.9-2-4.4-0.2c-0.5,0.6-0.5,1-0.1,4.9c-1.6-0.4-3.6-0.4-4.6-1.3
	c-0.7-0.7-1.7-2-1.8-3.4c-0.2-2.1,2.1-1.1,2.7-2.3C222.7,162.6,219.1,161.1,221.5,158.1z"/>
<path class="st151" d="M218.4,187.9c1.4-0.9,3.2-1,4.4-2.2c6-0.1,7,1.2,4.8,6.2c0,0.3-0.1,0.7-0.1,1c-0.6-0.3-1.1-0.7-1.7-1
	c-3-1.5-3.1-1.5-4.9,1.3c-0.6,1-0.6,2.7-2.7,1.9c-2.1-0.8-2.2-2.1-1.8-3.9C216.8,190,217.4,188.9,218.4,187.9z"/>
<path class="st151" d="M216.5,149.9c-1.3,0.4-2.7,0.7-3.2-1c-0.4-1.6-0.7-3.3,0.6-4.6c0.6-0.7,1.5-0.2,2.2,0.3
	c1.2,0.8,1.8,2.4,3.5,2.3c0,0.8-0.3,1.3-0.9,1.8c-0.6,0.2-1.1,0.7-1.6,1.1C217,149.8,216.8,149.9,216.5,149.9z"/>
<path class="st151" d="M218.7,210.9c-0.3,0.1-0.7,0.1-1,0.2c-1.2,0.5-1.9,3.1-3.4,1.4c-0.5-0.6-1.1-3.3,0.5-4.8
	c2.1-2,2.6,0.8,3.8,1.3c0,0-0.1-0.1-0.1-0.1c0.7,0.7,0.7,1.4,0,2.1L218.7,210.9z"/>
<path class="st151" d="M216.7,167.8c2.4,1.4,1.1,4.4,0.5,4.8c-1.5,1-2.7,1.5-2.1,3.6c0.1,0.4-1,0.8-1.5,0.1c-1-1.3-1.4-2.7,0.2-3.9
	c1.1-0.8,2.4-1.1,2.9-2.6C216,169.2,216.1,168.5,216.7,167.8z"/>
<path class="st151" d="M219.9,151.9c-0.3,0.8-0.6,1.5-1,2.3c-0.2,0.4-0.6,0.7-1.3,1.5c-0.4-2.2-0.7-4-1.1-5.8c0,0,0.1-0.1,0.1-0.1
	c0.6-0.6,1.3-0.6,2-0.1C219,150.5,219.4,151.2,219.9,151.9z"/>
<path class="st151" d="M221.6,201.8c0.1,1.1,0.5,2.6-0.7,3.1c-2,0.9-3-1-4.6-1.8C218.1,202.4,220.1,203.3,221.6,201.8
	C221.7,201.9,221.6,201.8,221.6,201.8z"/>
<path class="st151" d="M216.7,167.8c0,0.7,0,1.4-0.1,2.1c-1.9,0.4-2.5-0.5-1.9-2.1C215.1,166.7,216,166.4,216.7,167.8z"/>
<path class="st151" d="M218.6,149.8c-0.7,0-1.3,0.1-2,0.1c0.2-1.2,0.7-2,2.1-1.2C218.7,149,218.6,149.4,218.6,149.8z"/>
<path class="st151" d="M218.6,210.9c0-0.7,0-1.4,0-2.1c1.4,0.9,3.6-2.5,4,0.3C223,212.1,219.9,210.2,218.6,210.9z"/>
<path class="st151" d="M1.5,225.7c0.2-0.1,0.5-0.4,0.7-0.3c0.3,0.1,0.4,0.4,0.2,0.7c-0.1,0.1-0.3,0.2-0.4,0.2
	C1.8,226.1,1.6,225.9,1.5,225.7z"/>
<path class="st151" d="M43.1,203.6c-0.2-0.2-0.5-0.4-0.5-0.7c-0.1-0.4,0-1,0.6-0.9c0.2,0,0.4,0.5,0.4,0.8
	C43.6,203,43.3,203.3,43.1,203.6z"/>
<path class="st151" d="M79.1,202.8c0.4,1.9,1.1,3.2-0.4,4.1c-0.6,0.3-1.5,0.3-1.8-0.3C76.1,204.8,77.6,204.1,79.1,202.8z"/>
<path class="st151" d="M197.8,65.9c-0.4,0.7-0.8,1.3-1.2,2c0.1,0.6,0.8,0.8,1.1,1.3c-1,1.3-1.9,2.7-3.9,2.6
	c-0.4-0.3-0.7-0.7-1.1-0.8c-3.9-0.7-3.9-0.7-4-4.9c0.3-0.7,0.6-1.4,1-2.1c2.2,3.3,2.2,3.3,5.6,2.1C196.1,65.6,196.9,65,197.8,65.9z"
	/>
<path class="st151" d="M21.6,2.9c0.1-1.6,0.1-3.2,0.2-4.7c2.3,1.5,2.8,3.4,1.8,6.7c0,0,0.1,0,0.1,0C22.7,4.5,22.2,3.6,21.6,2.9
	L21.6,2.9z"/>
<path class="st151" d="M21.6,2.8c1,0.4,1.8,1,2.1,2.1c-1.1,0-0.9,1.8-2.2,1.6C20.9,5.2,21.5,4,21.6,2.8z"/>
<path class="st151" d="M-9.5,94.1c0.7-0.4,1.3-0.8,2-1.2c1.2,1.5,1.4,3.8,4.1,4.7c0.4-2.3,2.3-4.1,2.1-6.7c0.6-0.7,1.2-1.3,1.8-2
	c0.1,2.5,1.2,5.1-1.3,7.3c-0.7,0.6,0.4,2.1,0.9,3.7c1.2-2.8,4-4.3,3.3-7.8c1.6,1.1,2,2.2,2.3,3.5c0.1,0.5,0.5,1,1.4,0.8
	c2.4-0.6,3.2,0,2.2,2c-1.1,2.3,0.7,2.4,1.4,3.4c-0.9,1.1-2.1,0.7-3.2,0.7c-1.8,0-3.6-0.1-5.1,1.3c-1.1,0.4-2.2-0.6-3.4-0.1
	c-1.1,0.5-1.2-0.2-1.2-1.3c0-2-1.3-3.3-3.4-3.6C-6.8,97.3-9,96.5-9.5,94.1z"/>
<path class="st151" d="M15.5,87.8c-0.2,2.5-0.2,2.6,2,1.7c0.9-0.3,1.3,0,1.5,0.6c0.5,1,1.3,1.9,1.1,3.6c-2.5-0.7-5.1,3-7.4-0.8
	l0.1,0.1c-0.4-1.1-0.7-2.2-1.2-3.3c-0.6-1.4-0.5-2.7,0.9-3.5c1.3-0.7,1.1,1.4,2.1,1.5C15,87.8,15.3,87.9,15.5,87.8L15.5,87.8z"/>
<path class="st151" d="M26.6,93.8c-0.7-0.2-1.4-0.4-2-0.6c-3.3-2.2-1.9-4.8-0.6-7.5C25.7,88.1,25.9,91,26.6,93.8z"/>
<path class="st151" d="M22.8,81.9c-0.6,1.4-1.5,2.2-3,1.2c-1.2-0.8-2.7-1.6-2.2-3.4c0.2-0.9,1-1.9,2-0.7c0.6,0.7,1,1.7,2.1,1.8
	C22.6,80.6,22.9,81,22.8,81.9z"/>
<path class="st151" d="M15.6,99.2c0.1,0.8,2.5,2.4-0.7,2c-1-0.1-2.2,0.5-3-0.7c-0.4-1-0.6-2.1,0.5-2.6c1.6-0.8,1,1.3,1.8,1.5
	C14.6,99.6,15.1,99.3,15.6,99.2z"/>
<path class="st151" d="M12.8,92.9c-0.6,0.3-1.1,0.7-1.7,0.8c-0.6,0.1-1.3-0.1-1.4-0.9c0-0.4,0.2-0.9,0.5-1.2
	c0.6-0.4,1.1-0.2,1.6,0.4C12.1,92.5,12.5,92.7,12.8,92.9C12.9,93,12.8,92.9,12.8,92.9z"/>
<path class="st151" d="M15.6,87.9c0.3-0.7,0-1.8,1.1-1.9c0.5-0.1,0.8,0.5,0.8,1C17.3,88.2,16.3,87.7,15.6,87.9
	C15.5,87.8,15.6,87.9,15.6,87.9z"/>
<path class="st151" d="M29.6,87.9c-0.7,0.5-0.8,1.2-1,1.9c-1.1-0.4-1.3-1.3-0.7-2.2C28.4,86.7,29.1,87.1,29.6,87.9z"/>
<path class="st151" d="M14.3,108c-0.9-0.2-1.5-0.6-1.3-1.6c0.3-1.1,0.3-2.3,1.3-3c0.3-0.2,0.9-0.1,1.3,0.1c0.5,0.2,0.7,0.7,0.5,1.2
	c-0.4,1-0.9,2-1.4,3.1C14.7,107.8,14.3,108,14.3,108z"/>
<path class="st151" d="M24.6,102.9c-0.5,0.7-0.7,1.9-2,1.4c-1-0.4-1.1-1.4-0.9-2.4C22.7,102.3,23.7,102.6,24.6,102.9z"/>
<path class="st151" d="M214.6,157.8c-0.3-0.2-0.6-0.4-0.8-0.6c-0.9-1.3-1.6-2.6-0.1-3.9c0.3-0.2,1.1-0.2,1.3,0
	c1.3,1.3-0.1,2.4-0.4,3.6C214.8,157.3,214.7,157.6,214.6,157.8C214.6,157.9,214.6,157.8,214.6,157.8z"/>
<path class="st151" d="M214.6,157.9c0.2,0,0.3,0,0.5,0c1,0.1,2.2,0.3,1.9,1.5c-0.3,1.3-1.6,0.3-2.4,0.4c0,0,0.1,0.1,0.1,0.1
	C214.6,159.3,214.6,158.5,214.6,157.9C214.6,157.8,214.6,157.9,214.6,157.9z"/>
<path class="st151" d="M197.6,69.1c-0.6-0.1-1.3-0.1-1.6-0.4c-0.4-0.4,0.1-0.7,0.6-0.9C196.9,68.2,197.2,68.7,197.6,69.1z"/>
</svg>
