<?xml version="1.0" encoding="utf-8"?>
<!-- Generator: Adobe Illustrator 23.0.1, SVG Export Plug-In . SVG Version: 6.00 Build 0)  -->
<svg version="1.1" id="Layer_1" xmlns="http://www.w3.org/2000/svg" xmlns:xlink="http://www.w3.org/1999/xlink" x="0px" y="0px"
	 viewBox="0 0 500 500" style="enable-background:new 0 0 500 500;" xml:space="preserve">
<style type="text/css">
	.st0{display:none;}
	.st1{display:none;fill:#FF00FF;}
	.st2{display:none;fill:#22B573;}
	.st3{display:inline;}
	.st4{display:none;fill:#93278F;}
	.st5{display:inline;fill:#0071BC;}
</style>
<title>portfolio_overlay</title>
<circle id="bigCircle" class="st0" cx="250" cy="250" r="250"/>
<path id="rightDiagonal" class="st1" d="M500,0L0,500h500V0z"/>
<path id="diagonalDot" class="st0" d="M0,0l500,500V0H0z M375,230c-58,0-105-47-105-105c0-58,47-105,105-105c58,0,105,47,105,105
	C480,183,433,230,375,230z"/>
<path class="st2" d="M0,0h250v250H0V0z M250,250h250v250H250V250z"/>
<g id="fourDots" class="st0">
	<circle class="st3" cx="125" cy="125" r="105"/>
	<circle class="st3" cx="375" cy="125" r="105"/>
	<circle class="st3" cx="125" cy="375" r="105"/>
	<circle class="st3" cx="375" cy="375" r="105"/>
</g>
<path class="st4" d="M500,0h-50v50H350v100H250v100h-75v119l-45,1v30l-29.9-0.1L50,400l0.3,49.7L0,450v50h500V0z"/>
<g class="st0">
	<circle class="st5" cx="25" cy="25" r="25"/>
	<circle class="st5" cx="75" cy="75" r="25"/>
	<circle class="st5" cx="125" cy="125" r="25"/>
	<circle class="st5" cx="175" cy="175" r="25"/>
	<circle class="st5" cx="225" cy="225" r="25"/>
	<circle class="st5" cx="275" cy="275" r="25"/>
	<circle class="st5" cx="75" cy="125" r="25"/>
	<circle class="st5" cx="125" cy="175" r="25"/>
	<circle class="st5" cx="175" cy="225" r="25"/>
	<circle class="st5" cx="225" cy="275" r="25"/>
	<circle class="st5" cx="275" cy="325" r="25"/>
	<circle class="st5" cx="75" cy="175" r="25"/>
	<circle class="st5" cx="125" cy="225" r="25"/>
	<circle class="st5" cx="175" cy="275" r="25"/>
	<circle class="st5" cx="225" cy="325" r="25"/>
	<circle class="st5" cx="275" cy="375" r="25"/>
	<circle class="st5" cx="75" cy="225" r="25"/>
	<circle class="st5" cx="125" cy="275" r="25"/>
	<circle class="st5" cx="175" cy="325" r="25"/>
	<circle class="st5" cx="225" cy="375" r="25"/>
	<circle class="st5" cx="275" cy="425" r="25"/>
	<circle class="st5" cx="75" cy="275" r="25"/>
	<circle class="st5" cx="125" cy="325" r="25"/>
	<circle class="st5" cx="175" cy="375" r="25"/>
	<circle class="st5" cx="225" cy="425" r="25"/>
	<circle class="st5" cx="275" cy="475" r="25"/>
	<circle class="st5" cx="75" cy="325" r="25"/>
	<circle class="st5" cx="125" cy="375" r="25"/>
	<circle class="st5" cx="175" cy="425" r="25"/>
	<circle class="st5" cx="225" cy="475" r="25"/>
	<circle class="st5" cx="75" cy="375" r="25"/>
	<circle class="st5" cx="125" cy="425" r="25"/>
	<circle class="st5" cx="175" cy="475" r="25"/>
	<circle class="st5" cx="75" cy="425" r="25"/>
	<circle class="st5" cx="125" cy="475" r="25"/>
	<circle class="st5" cx="75" cy="475" r="25"/>
	<circle class="st5" cx="25" cy="75" r="25"/>
	<circle class="st5" cx="25" cy="125" r="25"/>
	<circle class="st5" cx="25" cy="175" r="25"/>
	<circle class="st5" cx="25" cy="225" r="25"/>
	<circle class="st5" cx="25" cy="275" r="25"/>
	<circle class="st5" cx="25" cy="325" r="25"/>
	<circle class="st5" cx="25" cy="375" r="25"/>
	<circle class="st5" cx="25" cy="425" r="25"/>
	<circle class="st5" cx="25" cy="475" r="25"/>
	<circle class="st5" cx="325" cy="325" r="25"/>
	<circle class="st5" cx="375" cy="375" r="25"/>
	<circle class="st5" cx="425" cy="425" r="25"/>
	<circle class="st5" cx="475" cy="475" r="25"/>
	<circle class="st5" cx="325" cy="375" r="25"/>
	<circle class="st5" cx="375" cy="425" r="25"/>
	<circle class="st5" cx="425" cy="475" r="25"/>
	<circle class="st5" cx="325" cy="425" r="25"/>
	<circle class="st5" cx="375" cy="475" r="25"/>
	<circle class="st5" cx="325" cy="475" r="25"/>
</g>
<g class="st0">
	<circle class="st5" cx="25" cy="25" r="25"/>
	<circle class="st5" cx="75" cy="75" r="25"/>
	<circle class="st5" cx="125" cy="125" r="25"/>
	<circle class="st5" cx="175" cy="175" r="25"/>
	<circle class="st5" cx="225" cy="225" r="25"/>
	<circle class="st5" cx="75" cy="125" r="25"/>
	<circle class="st5" cx="325" cy="175" r="25"/>
	<circle class="st5" cx="175" cy="225" r="25"/>
	<circle class="st5" cx="225" cy="275" r="25"/>
	<circle class="st5" cx="275" cy="325" r="25"/>
	<circle class="st5" cx="275" cy="175" r="25"/>
	<circle class="st5" cx="125" cy="225" r="25"/>
	<circle class="st5" cx="475" cy="275" r="25"/>
	<circle class="st5" cx="225" cy="325" r="25"/>
	<circle class="st5" cx="75" cy="225" r="25"/>
	<circle class="st5" cx="425" cy="275" r="25"/>
	<circle class="st5" cx="175" cy="325" r="25"/>
	<circle class="st5" cx="225" cy="375" r="25"/>
	<circle class="st5" cx="275" cy="425" r="25"/>
	<circle class="st5" cx="275" cy="475" r="25"/>
	<circle class="st5" cx="375" cy="275" r="25"/>
	<circle class="st5" cx="125" cy="325" r="25"/>
	<circle class="st5" cx="325" cy="75" r="25"/>
	<circle class="st5" cx="225" cy="425" r="25"/>
	<circle class="st5" cx="75" cy="325" r="25"/>
	<circle class="st5" cx="125" cy="375" r="25"/>
	<circle class="st5" cx="325" cy="125" r="25"/>
	<circle class="st5" cx="475" cy="375" r="25"/>
	<circle class="st5" cx="125" cy="425" r="25"/>
	<circle class="st5" cx="75" cy="425" r="25"/>
	<circle class="st5" cx="125" cy="75" r="25"/>
	<circle class="st5" cx="25" cy="125" r="25"/>
	<circle class="st5" cx="225" cy="175" r="25"/>
	<circle class="st5" cx="25" cy="225" r="25"/>
	<circle class="st5" cx="325" cy="275" r="25"/>
	<circle class="st5" cx="25" cy="325" r="25"/>
	<circle class="st5" cx="425" cy="375" r="25"/>
	<circle class="st5" cx="475" cy="425" r="25"/>
	<circle class="st5" cx="325" cy="325" r="25"/>
	<circle class="st5" cx="375" cy="375" r="25"/>
	<circle class="st5" cx="475" cy="475" r="25"/>
	<circle class="st5" cx="325" cy="375" r="25"/>
	<circle class="st5" cx="325" cy="425" r="25"/>
</g>
<g id="quarteCircle" class="st0">
	<path class="st3" d="M500,0c0,63,0,500,0,500s-100,0-500,0C0,223.9,223.9,0,500,0z"/>
</g>
<g id="variableDots">
	<circle cx="145" cy="145" r="145"/>
	<circle cx="351.5" cy="352.5" r="146"/>
	<circle cx="422.5" cy="73.5" r="73.5"/>
	<circle cx="73.5" cy="424.5" r="73.5"/>
</g>
</svg>
