<svg xmlns="http://www.w3.org/2000/svg" viewBox="0 0 247 51">
    <title>
        Social Icon Media Sprite
    </title>
    <g id="Social-Icon-Media-Sprite" fill-rule="evenodd">
        <g id="twitter" transform="translate(2 7)">
            <path id="_Path_" d="M41.462 6.003a9.631 9.631 0 0 0 4.24-5.308 19.365 19.365 0 0 1-6.124 2.328 9.687 9.687 0 0 0-11.584-1.886 9.587 9.587 0 0 0-4.847 10.637A27.421 27.421 0 0 1 3.272 1.75C.713 6.134 2.02 11.742 6.256 14.56a9.64 9.64 0 0 1-4.367-1.2l-.001.12c0 4.569 3.235 8.503 7.735 9.41-1.42.383-2.91.44-4.355.164 1.263 3.908 4.883 6.586 9.008 6.663A19.41 19.41 0 0 1 2.3 33.823c-.768 0-1.537-.044-2.3-.134A27.392 27.392 0 0 0 14.781 38c17.737 0 27.435-14.62 27.435-27.3 0-.416-.009-.83-.027-1.24A19.544 19.544 0 0 0 47 4.491a19.351 19.351 0 0 1-5.538 1.511z"/>
        </g>
        <path id="instagram" fill-rule="nonzero" d="M98 43.843A6.189 6.189 0 0 1 91.844 50H56.156A6.189 6.189 0 0 1 50 43.843V8.157A6.189 6.189 0 0 1 56.156 2h35.688A6.189 6.189 0 0 1 98 8.157v35.686zm-5.437-21.53h-4.22c.416 1.324.626 2.705.626 4.093A14.703 14.703 0 0 1 74.03 40.875c-8.11.117-14.782-6.359-14.906-14.469 0-1.388.21-2.769.625-4.093h-4.406v20.25a1.894 1.894 0 0 0 1.906 1.906h33.406a1.894 1.894 0 0 0 1.907-1.906v-20.25zm-18.532-5.75a9.493 9.493 0 0 0-9.625 9.343 9.492 9.492 0 0 0 9.625 9.344 9.5 9.5 0 0 0 9.657-9.344 9.5 9.5 0 0 0-9.657-9.344zM92.563 9.5a2.16 2.16 0 0 0-2.157-2.156H84.97A2.16 2.16 0 0 0 82.813 9.5v5.156a2.16 2.16 0 0 0 2.156 2.157h5.437a2.16 2.16 0 0 0 2.157-2.157V9.5z"/>
        <path id="linkedin" d="M44.45 0H3.54A3.5 3.5 0 0 0 0 3.46v41.08A3.5 3.5 0 0 0 3.54 48h40.91A3.51 3.51 0 0 0 48 44.54V3.46A3.51 3.51 0 0 0 44.45 0zM14.24 40.9H7.12V18h7.12zm-3.56-26a4.13 4.13 0 1 1 4.12-4.13 4.13 4.13 0 0 1-4.12 4.09zm30.22 26h-7.11V29.76c0-2.66 0-6.07-3.7-6.07s-4.27 2.89-4.27 5.88V40.9H18.7V18h6.83v3.13h.09a7.53 7.53 0 0 1 6.74-3.7c7.21 0 8.54 4.75 8.54 10.92z" transform="translate(99 2)"/>
        <g id="dribbble" transform="translate(148 2)">
            <path id="Shape" d="M24 0C10.75 0 0 10.75 0 24s10.75 24 24 24c13.223 0 24-10.75 24-24S37.223 0 24 0zm15.852 11.063a20.406 20.406 0 0 1 4.634 12.755c-.677-.13-7.445-1.51-14.265-.651-.156-.338-.286-.703-.442-1.067a61.005 61.005 0 0 0-1.354-2.968c7.549-3.071 10.985-7.496 11.427-8.07zM24 3.54c5.206 0 9.97 1.952 13.588 5.154-.365.52-3.462 4.66-10.75 7.393-3.359-6.17-7.081-11.22-7.654-12A20.847 20.847 0 0 1 24 3.54zm-8.72 1.926c.546.73 4.19 5.805 7.6 11.844-9.578 2.551-18.038 2.5-18.95 2.5C5.259 13.457 9.554 8.173 15.28 5.465zM3.488 24.026v-.625c.885.026 10.829.156 21.059-2.915a60.975 60.975 0 0 1 1.666 3.488c-.26.078-.547.156-.807.234-10.569 3.41-16.191 12.73-16.66 13.51a20.452 20.452 0 0 1-5.258-13.692zM24 44.512a20.36 20.36 0 0 1-12.573-4.321c.365-.755 4.53-8.772 16.087-12.807.052-.026.078-.026.13-.052 2.89 7.47 4.061 13.744 4.373 15.54A20.162 20.162 0 0 1 24 44.512zm11.427-3.514c-.208-1.25-1.301-7.237-3.982-14.603 6.43-1.015 12.052.65 12.755.885-.885 5.7-4.165 10.62-8.773 13.718z"/>
        </g>
        <path id="github" d="M23.998 0C10.747 0 0 10.778 0 24.073c0 10.636 6.876 19.658 16.413 22.84 1.2.223 1.638-.52 1.638-1.16 0-.57-.02-2.084-.032-4.093-6.676 1.454-8.084-3.227-8.084-3.227-1.092-2.781-2.666-3.522-2.666-3.522-2.179-1.492.165-1.463.165-1.463 2.41.17 3.676 2.481 3.676 2.481 2.141 3.679 5.618 2.616 6.986 2 .218-1.555.838-2.616 1.523-3.217-5.33-.608-10.932-2.674-10.932-11.898 0-2.627.935-4.778 2.47-6.46-.247-.608-1.07-3.057.236-6.37 0 0 2.014-.647 6.6 2.468 1.913-.535 3.967-.801 6.008-.811 2.039.01 4.091.276 6.008.81 4.582-3.114 6.593-2.467 6.593-2.467 1.31 3.313.486 5.762.24 6.37 1.539 1.682 2.467 3.833 2.467 6.46 0 9.248-5.612 11.283-10.957 11.879.86.743 1.628 2.212 1.628 4.458 0 3.217-.03 5.814-.03 6.603 0 .644.433 1.393 1.65 1.158C41.13 43.722 48 34.706 48 24.073 48 10.778 37.253 0 23.998 0" transform="translate(197 2)"/>
    </g>
</svg>
